<svg width="26" height="26" viewBox="0 0 26 26" fill="none" xmlns="http://www.w3.org/2000/svg">
<g clip-path="url(#clip0_29826_19137)">
<g clip-path="url(#clip1_29826_19137)">
<path d="M26 4.33325H0V21.6666H26V4.33325Z" fill="#74ACDF"/>
<path d="M26 10.1123H0V15.8912H26V10.1123Z" fill="white"/>
<path d="M12.8959 13.0452L13.8222 15.1945C13.8222 15.1945 13.8384 15.2361 13.8644 15.2257C13.8904 15.2153 13.8742 15.1737 13.8742 15.1737L13.1039 12.9551L12.8959 13.0452ZM13.0812 13.7905C13.0714 14.1164 13.2599 14.2967 13.2339 14.5879C13.2079 14.8791 13.3607 15.0455 13.3932 15.1599C13.4289 15.2743 13.3542 15.3401 13.3867 15.3575C13.4192 15.3748 13.4874 15.2847 13.4647 15.1217C13.4419 14.9588 13.3282 14.9137 13.3542 14.5567C13.3802 14.1996 13.2177 14.1164 13.2567 13.7905" fill="#F6B40E"/>
<path d="M13.3967 15.3781C13.3902 15.3781 13.3837 15.3747 13.3804 15.3747C13.3544 15.3608 13.3642 15.3296 13.3707 15.3053C13.3804 15.2707 13.3967 15.2256 13.3772 15.1667C13.3674 15.1389 13.3512 15.1043 13.3317 15.0661C13.2764 14.9587 13.1984 14.8096 13.2179 14.5877C13.2309 14.4456 13.1887 14.3312 13.1464 14.2099C13.1042 14.0851 13.0587 13.9568 13.0652 13.7904H13.1009C13.0944 13.9499 13.1399 14.0747 13.1822 14.196C13.2277 14.3208 13.2667 14.4421 13.2537 14.5912C13.2374 14.7992 13.3089 14.9413 13.3642 15.0453C13.3837 15.0869 13.4032 15.1216 13.4129 15.1528C13.4357 15.2256 13.4162 15.2811 13.4064 15.3157C13.4032 15.3227 13.3999 15.3331 13.3999 15.34C13.4032 15.34 13.4064 15.3365 13.4097 15.3331C13.4324 15.3123 13.4649 15.2429 13.4487 15.1285C13.4422 15.0765 13.4259 15.0384 13.4032 14.9933C13.3642 14.9032 13.3187 14.7992 13.3382 14.56C13.3512 14.3867 13.3187 14.2792 13.2862 14.1752C13.2569 14.0851 13.2309 13.9984 13.2342 13.8771L12.8832 13.0589L12.9157 13.0416L13.2407 13.7973V13.7939L13.2764 13.7973C13.2732 13.8216 13.2732 13.8459 13.2699 13.8667L13.8387 15.1875C13.8419 15.1909 13.8484 15.2117 13.8582 15.2083C13.8614 15.2083 13.8614 15.2083 13.8614 15.2048C13.8647 15.1979 13.8614 15.184 13.8582 15.1805L13.0879 12.9619L13.1204 12.948L13.8907 15.1667C13.8907 15.1701 13.9004 15.1979 13.8939 15.2187C13.8907 15.2291 13.8809 15.236 13.8712 15.2429C13.8549 15.2499 13.8354 15.2464 13.8192 15.2256C13.8094 15.2152 13.8062 15.2013 13.8062 15.2013L13.2732 13.9672C13.2797 14.0365 13.2992 14.0989 13.3187 14.1579C13.3512 14.2653 13.3869 14.3763 13.3707 14.5565C13.3544 14.7853 13.3967 14.8859 13.4324 14.9725C13.4519 15.0176 13.4714 15.0627 13.4779 15.1181C13.4942 15.2429 13.4617 15.3331 13.4194 15.3643C13.4129 15.3747 13.4032 15.3781 13.3967 15.3781Z" fill="#85340A"/>
<path d="M12.8895 13L12.974 15.3643C12.974 15.3643 12.974 15.4093 13.0032 15.4093C13.0325 15.4093 13.0325 15.3643 13.0325 15.3643L13.117 13H12.8895ZM12.792 13.7627C12.6652 14.0608 12.7725 14.3035 12.6457 14.5635C12.519 14.8235 12.597 15.0384 12.5905 15.1563C12.5807 15.2741 12.4897 15.3088 12.5125 15.3365C12.5352 15.3643 12.6295 15.3088 12.6685 15.1528C12.7042 14.9933 12.6165 14.9032 12.7692 14.5843C12.922 14.2653 12.8017 14.1232 12.9545 13.8389" fill="#F6B40E"/>
<path d="M13.0001 15.4266C12.9676 15.4266 12.9546 15.3919 12.9546 15.3642L12.9059 14.0052C12.8864 14.0746 12.8831 14.137 12.8799 14.2028C12.8734 14.3172 12.8636 14.4316 12.7856 14.5946C12.6881 14.7991 12.6914 14.9066 12.6946 15.0036C12.6979 15.0556 12.6979 15.1007 12.6849 15.1596C12.6556 15.281 12.5906 15.3503 12.5419 15.3642C12.5159 15.3711 12.5029 15.3607 12.4964 15.3538C12.4769 15.3295 12.4964 15.3052 12.5126 15.2844C12.5354 15.2567 12.5646 15.222 12.5679 15.1596C12.5711 15.1284 12.5646 15.0903 12.5614 15.0487C12.5484 14.9239 12.5321 14.7575 12.6264 14.5599C12.6881 14.4351 12.6914 14.3103 12.6979 14.182C12.7011 14.0503 12.7076 13.9116 12.7726 13.7626L12.8051 13.7799C12.7434 13.9255 12.7369 14.0572 12.7336 14.1855C12.7304 14.3207 12.7239 14.4455 12.6589 14.5807C12.5679 14.7644 12.5841 14.9274 12.5971 15.0452C12.6004 15.0903 12.6069 15.1319 12.6036 15.1631C12.5971 15.2394 12.5614 15.281 12.5386 15.3122C12.5354 15.3191 12.5289 15.326 12.5256 15.3295C12.5289 15.3295 12.5321 15.3295 12.5386 15.326C12.5679 15.3156 12.6199 15.2636 12.6459 15.1527C12.6589 15.1007 12.6556 15.0591 12.6556 15.0106C12.6524 14.91 12.6459 14.7991 12.7499 14.5842C12.8246 14.4282 12.8311 14.3172 12.8409 14.2063C12.8474 14.1127 12.8539 14.0226 12.8994 13.9116L12.8669 13.0103H12.9026L12.9319 13.8423C12.9319 13.8423 12.9319 13.8388 12.9351 13.8388L12.9676 13.8596C12.9546 13.8804 12.9449 13.9012 12.9384 13.922L12.9904 15.3746C12.9904 15.378 12.9936 15.3988 13.0001 15.3988C13.0001 15.3988 13.0034 15.3988 13.0066 15.3884C13.0099 15.3815 13.0099 15.3711 13.0099 15.3711L13.0944 13.0068H13.1301L13.0456 15.3711C13.0456 15.3711 13.0456 15.385 13.0424 15.3988C13.0359 15.4127 13.0196 15.4266 13.0001 15.4266Z" fill="#85340A"/>
<path d="M12.8958 12.9551L12.1256 15.1737C12.1256 15.1737 12.1093 15.2153 12.1353 15.2257C12.1613 15.2361 12.1776 15.1945 12.1776 15.1945L13.1038 13.0452L12.8958 12.9551ZM12.5318 13.6207C12.3076 13.8425 12.3206 14.1129 12.1093 14.3001C11.8981 14.4873 11.8948 14.7196 11.8461 14.8236C11.7941 14.9311 11.6998 14.9241 11.7096 14.9588C11.7226 14.9935 11.8298 14.9831 11.9208 14.8513C12.0118 14.7196 11.9631 14.5983 12.2166 14.3695C12.4733 14.1372 12.4116 13.9569 12.6553 13.7559" fill="#F6B40E"/>
<path d="M12.1454 15.2464C12.1389 15.2464 12.1357 15.2464 12.1292 15.2429C12.0999 15.2291 12.0999 15.1944 12.1097 15.1667L12.5517 13.8909C12.5094 13.9464 12.4834 14.0019 12.4574 14.0608C12.4087 14.1613 12.3599 14.2653 12.2299 14.3832C12.0641 14.5323 12.0317 14.6328 11.9992 14.7229C11.9829 14.7715 11.9667 14.8165 11.9342 14.8616C11.8627 14.9621 11.7781 15.0003 11.7294 14.9933C11.7034 14.9899 11.6936 14.9725 11.6904 14.9656C11.6806 14.9344 11.7066 14.9205 11.7294 14.9101C11.7586 14.8963 11.7976 14.872 11.8269 14.8165C11.8399 14.7888 11.8496 14.7541 11.8626 14.7091C11.8951 14.5912 11.9407 14.4248 12.0967 14.2861C12.2007 14.196 12.2462 14.0816 12.2982 13.9637C12.3502 13.8424 12.4022 13.7176 12.5192 13.6067L12.5452 13.6344C12.4347 13.7419 12.3827 13.8632 12.3339 13.9811C12.2819 14.1024 12.2332 14.2168 12.1227 14.3139C11.9731 14.4456 11.9309 14.6051 11.8984 14.7195C11.8854 14.7645 11.8756 14.8027 11.8626 14.8339C11.8301 14.9032 11.7814 14.9275 11.7489 14.9448C11.7424 14.9483 11.7326 14.9517 11.7294 14.9552C11.7326 14.9552 11.7359 14.9587 11.7424 14.9587C11.7716 14.9587 11.8399 14.9344 11.9049 14.8408C11.9341 14.7992 11.9472 14.7576 11.9634 14.7125C11.9959 14.6189 12.0317 14.5115 12.2039 14.3555C12.3274 14.2411 12.3762 14.1405 12.4217 14.0435C12.4607 13.9603 12.4997 13.8771 12.5842 13.7939L12.8767 12.948L12.9092 12.9619L12.6394 13.7419L12.6427 13.7384L12.6654 13.7696C12.6459 13.7835 12.6297 13.8008 12.6134 13.8147L12.1389 15.1771C12.1389 15.1805 12.1324 15.2013 12.1389 15.2048C12.1454 15.2083 12.1552 15.1875 12.1584 15.184L13.0847 13.0347L13.1172 13.052L12.1909 15.2013C12.1909 15.2048 12.1779 15.2325 12.1584 15.2395C12.1552 15.2429 12.1519 15.2464 12.1454 15.2464Z" fill="#85340A"/>
<path d="M12.922 12.917L11.414 14.6503C11.414 14.6503 11.3848 14.6815 11.4043 14.7023C11.4238 14.7231 11.453 14.6919 11.453 14.6919L13.078 13.0834L12.922 12.917ZM12.3468 13.3815C12.0608 13.4959 11.9763 13.749 11.713 13.8391C11.4498 13.9258 11.3653 14.1373 11.2808 14.217C11.1963 14.2933 11.1085 14.2482 11.1085 14.2863C11.1053 14.3245 11.2093 14.3557 11.3425 14.2725C11.4758 14.1893 11.4725 14.0575 11.791 13.9466C12.1095 13.8357 12.1193 13.645 12.415 13.5583" fill="#F6B40E"/>
<path d="M11.4203 14.7298C11.4106 14.7298 11.4008 14.7263 11.3911 14.7159C11.3683 14.6916 11.3813 14.657 11.4008 14.6362L12.2686 13.6378C12.2101 13.6724 12.1646 13.714 12.1191 13.7556C12.0378 13.8284 11.9566 13.9047 11.7941 13.9602C11.5893 14.0295 11.5211 14.1092 11.4593 14.182C11.4268 14.2202 11.3976 14.2548 11.3488 14.286C11.2481 14.3519 11.1538 14.3519 11.1116 14.3242C11.0888 14.3103 11.0856 14.293 11.0856 14.2826C11.0888 14.2514 11.1181 14.2479 11.1441 14.2479C11.1766 14.2444 11.2221 14.241 11.2676 14.2028C11.2903 14.182 11.3131 14.1543 11.3391 14.1196C11.4106 14.0226 11.5113 13.8908 11.7096 13.825C11.8363 13.7834 11.9208 13.7002 12.0118 13.61C12.1028 13.5199 12.1971 13.4263 12.3433 13.3674L12.3563 13.402C12.2166 13.4575 12.1256 13.5476 12.0378 13.6343C11.9468 13.7244 11.8591 13.8111 11.7226 13.8562C11.5373 13.9186 11.4398 14.0468 11.3716 14.1404C11.3456 14.1751 11.3196 14.2063 11.2968 14.2306C11.2416 14.2791 11.1896 14.2826 11.1538 14.286C11.1473 14.286 11.1376 14.286 11.1311 14.2895C11.1343 14.293 11.1376 14.293 11.1441 14.2964C11.1701 14.3103 11.2448 14.3138 11.3358 14.2548C11.3781 14.2271 11.4041 14.1959 11.4366 14.1578C11.4983 14.085 11.5731 14.0018 11.7876 13.9255C11.9436 13.8735 12.0216 13.7972 12.0996 13.7279C12.1678 13.6655 12.2328 13.6066 12.3368 13.565L12.9121 12.9028L12.9381 12.9306L12.4083 13.5407H12.4116L12.4213 13.5788C12.3986 13.5858 12.3791 13.5927 12.3596 13.5996L11.4268 14.6639C11.4236 14.6674 11.4106 14.6847 11.4171 14.6882C11.4236 14.6951 11.4366 14.6812 11.4398 14.6778L13.0648 13.0692L13.0908 13.097L11.4658 14.7055C11.4658 14.7055 11.4561 14.7159 11.4431 14.7228C11.4366 14.7263 11.4268 14.7298 11.4203 14.7298Z" fill="#85340A"/>
<path d="M13.1397 13.8457C13.1559 14.1611 13.3217 14.2998 13.2892 14.5841C13.3607 14.3587 13.1884 14.1819 13.1982 13.8491L13.1397 13.8457ZM12.9479 13.0241L13.5817 14.5009L13.0519 12.979" fill="#85340A"/>
<path d="M12.8246 13.8389C12.7271 14.1336 12.8311 14.3312 12.6978 14.5808C12.8441 14.4005 12.7466 14.1682 12.8766 13.8632L12.8246 13.8389ZM12.9448 13.0034L13.0001 14.6258L13.0553 13.0034" fill="#85340A"/>
<path d="M12.5384 13.7035C12.3402 13.9358 12.3662 14.1611 12.1549 14.3379C12.3564 14.2339 12.3499 13.9774 12.5774 13.7486L12.5384 13.7035ZM12.9479 12.979L12.4149 14.5009L13.0487 13.0241" fill="#85340A"/>
<path d="M12.3207 13.4609C12.0542 13.5961 11.999 13.8145 11.739 13.8908C11.9632 13.8735 12.0477 13.6377 12.3402 13.5199L12.3207 13.4609ZM12.9577 12.9583L11.921 14.1473L13.0357 13.0415" fill="#85340A"/>
<path d="M12.9577 12.8892L10.9427 13.8772C10.9427 13.8772 10.9037 13.8945 10.9134 13.9222C10.9232 13.95 10.9622 13.9326 10.9622 13.9326L13.0422 13.111L12.9577 12.8892ZM12.2589 13.0868C11.9534 13.0764 11.7844 13.2774 11.5114 13.2497C11.2384 13.222 11.0824 13.3849 10.9752 13.4196C10.8679 13.4577 10.8062 13.378 10.7899 13.4126C10.7737 13.4473 10.8582 13.5201 11.0109 13.4958C11.1637 13.4716 11.2059 13.3502 11.5407 13.378C11.8754 13.4057 11.9534 13.2324 12.2589 13.274" fill="#F6B40E"/>
<path d="M10.9395 13.9567C10.92 13.9567 10.9037 13.9463 10.8972 13.929C10.8842 13.8978 10.907 13.87 10.9362 13.8596L12.0932 13.2911C12.0282 13.298 11.9697 13.3188 11.9145 13.3396C11.8137 13.3743 11.7097 13.4124 11.5407 13.3951C11.3262 13.3778 11.232 13.4228 11.1507 13.461C11.1085 13.4818 11.0662 13.5026 11.0142 13.5095C10.8972 13.5268 10.8127 13.4922 10.7835 13.4471C10.7672 13.4228 10.7705 13.4055 10.777 13.3986C10.79 13.3708 10.8192 13.3812 10.842 13.3882C10.8745 13.3986 10.9167 13.4159 10.972 13.3951C10.998 13.3847 11.0305 13.3674 11.0662 13.3466C11.167 13.2876 11.3067 13.2044 11.5147 13.2252C11.648 13.2391 11.7552 13.194 11.869 13.149C11.986 13.1039 12.1062 13.0554 12.2622 13.0623V13.1004C12.1127 13.0935 11.9957 13.142 11.882 13.1871C11.765 13.2356 11.6512 13.2772 11.5115 13.2634C11.3165 13.246 11.1832 13.3223 11.0857 13.3812C11.0467 13.402 11.0142 13.4228 10.985 13.4332C10.9167 13.4575 10.8647 13.4367 10.8322 13.4263C10.8257 13.4228 10.816 13.4194 10.8095 13.4194C10.8095 13.4228 10.8127 13.4263 10.816 13.4298C10.8355 13.454 10.9005 13.4887 11.0077 13.4714C11.0565 13.4644 11.0922 13.4471 11.1345 13.4228C11.219 13.3812 11.3165 13.3327 11.5407 13.3535C11.7032 13.3674 11.804 13.3327 11.9015 13.298C11.986 13.2668 12.0672 13.2391 12.181 13.2426L12.948 12.8682L12.9642 12.9028L12.2557 13.2495H12.259L12.2557 13.2876C12.233 13.2842 12.2102 13.2842 12.1907 13.2807L10.9525 13.8874C10.9492 13.8908 10.9297 13.8978 10.933 13.9082C10.933 13.9082 10.933 13.9116 10.9427 13.9116C10.9492 13.9116 10.959 13.9082 10.959 13.9082L13.039 13.0866L13.052 13.1212L10.972 13.9428C10.972 13.9428 10.959 13.9498 10.946 13.9498C10.9427 13.9567 10.9427 13.9567 10.9395 13.9567Z" fill="#85340A"/>
<path d="M12.9998 12.8821L10.7833 12.9722C10.7833 12.9722 10.7411 12.9722 10.7411 13.0034C10.7411 13.0346 10.7833 13.0346 10.7833 13.0346L12.9998 13.1248V12.8821ZM12.2848 12.7781C12.0053 12.6429 11.7778 12.7573 11.5341 12.6221C11.2903 12.4869 11.0888 12.5701 10.9783 12.5632C10.8678 12.5528 10.8353 12.4557 10.8093 12.48C10.7833 12.5042 10.8353 12.6048 10.9816 12.6464C11.1311 12.6845 11.2156 12.5909 11.5146 12.7538C11.8136 12.9168 11.9468 12.7885 12.2133 12.9514" fill="#F6B40E"/>
<path d="M13 13.1388L10.7835 13.0487C10.7835 13.0487 10.7705 13.0487 10.7575 13.0452C10.738 13.0383 10.725 13.0209 10.725 13.0001C10.725 12.9655 10.7575 12.9516 10.7835 12.9516L12.0575 12.8996C11.9925 12.8788 11.934 12.8753 11.8722 12.8719C11.765 12.8649 11.6577 12.8545 11.505 12.7713C11.3132 12.6673 11.2125 12.6708 11.1215 12.6743C11.0727 12.6777 11.0305 12.6777 10.9752 12.6639C10.8615 12.6327 10.7965 12.5633 10.7835 12.5113C10.777 12.4836 10.7867 12.4697 10.7932 12.4628C10.816 12.442 10.8387 12.4628 10.8582 12.4801C10.8842 12.5044 10.9167 12.5356 10.9752 12.5391C11.0045 12.5425 11.0402 12.5356 11.0792 12.5321C11.1962 12.5183 11.3522 12.4975 11.5375 12.6015C11.6545 12.6673 11.7715 12.6708 11.8917 12.6777C12.0152 12.6812 12.1452 12.6881 12.285 12.7575L12.2687 12.7921C12.1322 12.7263 12.0087 12.7193 11.8885 12.7159C11.7617 12.7124 11.6447 12.7055 11.518 12.6361C11.3457 12.5391 11.193 12.5564 11.0825 12.5703C11.0402 12.5737 11.0012 12.5807 10.972 12.5772C10.9005 12.5703 10.8615 12.5321 10.8322 12.5079C10.8257 12.5044 10.8192 12.4975 10.816 12.494C10.816 12.4975 10.816 12.5009 10.8192 12.5079C10.829 12.5391 10.8777 12.5945 10.9817 12.6223C11.0305 12.6361 11.0695 12.6327 11.115 12.6327C11.2092 12.6292 11.3132 12.6223 11.5147 12.7332C11.661 12.8129 11.765 12.8199 11.869 12.8303C11.9567 12.8372 12.0412 12.8441 12.1452 12.8927L12.9902 12.858V12.8961L12.2102 12.9273C12.2102 12.9273 12.2135 12.9273 12.2135 12.9308L12.194 12.9655C12.1745 12.9516 12.155 12.9412 12.1355 12.9343L10.7737 12.9897C10.7705 12.9897 10.751 12.9932 10.751 13.0001C10.751 13.0071 10.7705 13.0105 10.7737 13.0105L12.9902 13.1007L13 13.1388Z" fill="#85340A"/>
<path d="M13.0422 12.8891L10.9622 12.0675C10.9622 12.0675 10.9232 12.0502 10.9134 12.0779C10.9037 12.1057 10.9427 12.123 10.9427 12.123L12.9577 13.111L13.0422 12.8891ZM12.4182 12.5009C12.2102 12.2617 11.9567 12.2755 11.7812 12.0502C11.6057 11.8249 11.3879 11.8214 11.2904 11.7694C11.1897 11.7139 11.1962 11.6134 11.1637 11.6238C11.1312 11.6377 11.1409 11.7521 11.2644 11.8491C11.3879 11.9462 11.5017 11.8942 11.7162 12.1646C11.9339 12.4385 12.1029 12.3726 12.2914 12.6326" fill="#F6B40E"/>
<path d="M12.9512 13.1282L10.9362 12.1402C10.9329 12.1402 10.9069 12.1263 10.9004 12.1055C10.8972 12.0951 10.8972 12.0847 10.9004 12.0708C10.9134 12.0396 10.9459 12.0396 10.9719 12.05L12.1679 12.5215C12.1159 12.4764 12.0639 12.4487 12.0087 12.421C11.9144 12.369 11.8169 12.317 11.7064 12.1783C11.5667 12.0015 11.4724 11.9668 11.3879 11.9322C11.3424 11.9148 11.3002 11.8975 11.2579 11.8628C11.1637 11.7866 11.1279 11.6964 11.1344 11.6444C11.1377 11.6167 11.1539 11.6063 11.1604 11.6028C11.1897 11.5924 11.2027 11.6202 11.2124 11.6444C11.2254 11.6756 11.2482 11.7172 11.3002 11.7484C11.3262 11.7623 11.3587 11.7727 11.4009 11.7866C11.5114 11.8212 11.6674 11.8698 11.7974 12.0362C11.8819 12.1471 11.9892 12.1956 12.0997 12.2511C12.2134 12.3066 12.3304 12.362 12.4344 12.4868L12.4084 12.5146C12.3077 12.3967 12.1939 12.3412 12.0834 12.2892C11.9697 12.2338 11.8592 12.1818 11.7714 12.0639C11.6479 11.9044 11.4984 11.8594 11.3912 11.8247C11.3489 11.8108 11.3132 11.8004 11.2839 11.7866C11.2189 11.7519 11.1962 11.6999 11.1799 11.6652C11.1767 11.6583 11.1734 11.6479 11.1702 11.6444C11.1702 11.6479 11.1669 11.6514 11.1669 11.6583C11.1669 11.6895 11.1897 11.7623 11.2774 11.8316C11.3164 11.8628 11.3554 11.8767 11.3977 11.894C11.4854 11.9287 11.5862 11.9668 11.7324 12.1506C11.8397 12.2823 11.9339 12.3343 12.0249 12.3828C12.1029 12.4244 12.1809 12.466 12.2589 12.5562L13.0519 12.8682L13.0389 12.9028L12.3077 12.6151L12.3109 12.6186L12.2817 12.6428C12.2687 12.622 12.2524 12.6047 12.2394 12.5874L10.9622 12.0812C10.9589 12.0812 10.9394 12.0743 10.9362 12.0812C10.9329 12.0882 10.9524 12.0986 10.9557 12.102L12.9707 13.09L12.9512 13.1282Z" fill="#85340A"/>
<path d="M13.0782 12.9169L11.4532 11.3084C11.4532 11.3084 11.424 11.2772 11.4045 11.298C11.385 11.3188 11.4142 11.35 11.4142 11.35L12.9222 13.0833L13.0782 12.9169ZM12.6427 12.3033C12.5355 11.9982 12.2982 11.9081 12.2137 11.6273C12.1325 11.3465 11.9342 11.2564 11.8595 11.1662C11.788 11.0761 11.8302 10.9825 11.7945 10.9825C11.7587 10.979 11.7295 11.09 11.8075 11.2321C11.8855 11.3708 12.009 11.3708 12.113 11.7105C12.217 12.0502 12.3957 12.0606 12.477 12.3761" fill="#F6B40E"/>
<path d="M12.9091 13.0972L11.4011 11.3639C11.4011 11.3639 11.3914 11.3535 11.3849 11.3396C11.3751 11.3188 11.3784 11.298 11.3914 11.2841C11.4141 11.2599 11.4466 11.2737 11.4661 11.2945L12.4021 12.2201C12.3696 12.1577 12.3306 12.1092 12.2916 12.0607C12.2234 11.974 12.1519 11.8873 12.0999 11.714C12.0349 11.4956 11.9601 11.4228 11.8919 11.3569C11.8561 11.3223 11.8236 11.2911 11.7944 11.2391C11.7326 11.1316 11.7326 11.0311 11.7586 10.986C11.7716 10.9617 11.7879 10.9583 11.7976 10.9583C11.8269 10.9617 11.8301 10.9929 11.8301 11.0207C11.8334 11.0553 11.8366 11.1039 11.8724 11.1524C11.8919 11.1767 11.9179 11.2009 11.9504 11.2287C12.0414 11.3049 12.1649 11.4124 12.2266 11.6239C12.2656 11.7591 12.3436 11.8492 12.4281 11.9463C12.5126 12.0433 12.6004 12.1439 12.6556 12.2999L12.6231 12.3137C12.5711 12.1647 12.4866 12.0676 12.4054 11.974C12.3209 11.8769 12.2396 11.7833 12.1974 11.6377C12.1389 11.4401 12.0186 11.3361 11.9309 11.2633C11.8984 11.2356 11.8691 11.2079 11.8464 11.1836C11.8009 11.1247 11.7976 11.0692 11.7944 11.0311C11.7944 11.0241 11.7944 11.0137 11.7911 11.0068C11.7879 11.0103 11.7879 11.0137 11.7846 11.0207C11.7716 11.0484 11.7684 11.1281 11.8236 11.2252C11.8496 11.2703 11.8789 11.298 11.9146 11.3327C11.9829 11.3985 12.0609 11.4783 12.1324 11.7071C12.1811 11.8735 12.2526 11.9567 12.3176 12.0399C12.3761 12.1127 12.4314 12.182 12.4704 12.2929L13.0911 12.9065L13.0651 12.9308L12.4931 12.3657V12.3692L12.4574 12.3796C12.4509 12.3553 12.4444 12.3345 12.4379 12.3137L11.4401 11.3223C11.4369 11.3188 11.4206 11.3049 11.4174 11.3119C11.4174 11.3119 11.4141 11.3153 11.4174 11.3223C11.4206 11.3292 11.4271 11.3361 11.4271 11.3361L12.9351 13.0695L12.9091 13.0972Z" fill="#85340A"/>
<path d="M12.207 13.1489C11.9112 13.1662 11.7812 13.343 11.5147 13.3083C11.726 13.3846 11.8917 13.2009 12.2037 13.2113L12.207 13.1489ZM12.9772 12.9443L11.5927 13.6203L13.0195 13.0553" fill="#85340A"/>
<path d="M12.2135 12.8127C11.9372 12.7087 11.752 12.8196 11.518 12.6775C11.687 12.8335 11.9047 12.7295 12.1907 12.8682L12.2135 12.8127ZM12.9967 12.941L11.4757 12.9999L12.9967 13.0588" fill="#85340A"/>
<path d="M12.3404 12.5079C12.1226 12.2965 11.9114 12.3242 11.7456 12.0989C11.8431 12.3138 12.0836 12.3069 12.2981 12.5495L12.3404 12.5079ZM13.0196 12.9447L11.5929 12.3762L12.9774 13.0522" fill="#85340A"/>
<path d="M12.5675 12.2753C12.4408 11.9911 12.236 11.9321 12.1645 11.6548C12.1808 11.894 12.4018 11.9841 12.5123 12.2961L12.5675 12.2753ZM13.0388 12.9548L11.924 11.8489L12.9608 13.038" fill="#85340A"/>
<path d="M13.1042 12.955L12.1779 10.8057C12.1779 10.8057 12.1617 10.7641 12.1357 10.7745C12.1097 10.7849 12.1259 10.8265 12.1259 10.8265L12.8962 13.0451L13.1042 12.955ZM12.9189 12.2097C12.9287 11.8838 12.7402 11.7035 12.7662 11.4123C12.7922 11.1211 12.6394 10.9547 12.6069 10.8403C12.5712 10.7259 12.6459 10.6601 12.6134 10.6427C12.5809 10.6254 12.5127 10.7155 12.5354 10.8785C12.5582 11.0414 12.6719 11.0865 12.6459 11.4435C12.6199 11.8006 12.7824 11.8838 12.7434 12.2097" fill="#F6B40E"/>
<path d="M12.8796 13.0519L12.1093 10.8333C12.1093 10.8333 12.1028 10.8194 12.1028 10.8055C12.1028 10.7813 12.1093 10.7639 12.1288 10.757C12.1581 10.7431 12.1841 10.7674 12.1938 10.7986L12.7268 12.0327C12.7203 11.9634 12.7008 11.901 12.6813 11.8421C12.6488 11.7346 12.6131 11.6237 12.6293 11.4434C12.6456 11.2146 12.6033 11.1141 12.5676 11.0274C12.5481 10.9823 12.5286 10.9373 12.5221 10.8818C12.5058 10.757 12.5383 10.6669 12.5806 10.6357C12.6033 10.6183 12.6196 10.6218 12.6261 10.6287C12.6521 10.6426 12.6423 10.6738 12.6358 10.6981C12.6261 10.7327 12.6098 10.7778 12.6293 10.8367C12.6391 10.8645 12.6553 10.8991 12.6748 10.9373C12.7301 11.0447 12.8081 11.1938 12.7886 11.4157C12.7756 11.5578 12.8178 11.6722 12.8601 11.7935C12.9023 11.9183 12.9478 12.0466 12.9413 12.213H12.9056C12.9121 12.0535 12.8666 11.9287 12.8243 11.8074C12.7788 11.6826 12.7398 11.5613 12.7528 11.4122C12.7691 11.2042 12.6976 11.0621 12.6423 10.9581C12.6228 10.9165 12.6033 10.8818 12.5936 10.8506C12.5708 10.7778 12.5903 10.7223 12.6001 10.6877C12.6033 10.6807 12.6066 10.6703 12.6066 10.6634C12.6033 10.6634 12.6001 10.6669 12.5968 10.6703C12.5741 10.6911 12.5416 10.7605 12.5578 10.8749C12.5643 10.9269 12.5806 10.965 12.6033 11.0101C12.6423 11.1002 12.6878 11.2042 12.6683 11.4434C12.6553 11.6167 12.6878 11.7242 12.7203 11.8282C12.7496 11.9183 12.7756 12.005 12.7723 12.1263L13.1233 12.9445L13.0908 12.9618L12.7658 12.2061V12.2095L12.7301 12.2061C12.7333 12.1818 12.7366 12.1575 12.7366 12.1367L12.1678 10.8159C12.1646 10.8125 12.1581 10.7917 12.1483 10.7951C12.1483 10.7951 12.1451 10.7986 12.1451 10.8055C12.1451 10.8125 12.1483 10.8229 12.1483 10.8229L12.9186 13.0415L12.8796 13.0519Z" fill="#85340A"/>
<path d="M13.1107 12.9999L13.0262 10.6356C13.0262 10.6356 13.0262 10.5906 12.9969 10.5906C12.9677 10.5906 12.9677 10.6356 12.9677 10.6356L12.8832 12.9999H13.1107ZM13.2082 12.2372C13.3349 11.9391 13.2277 11.6964 13.3544 11.4364C13.4812 11.1764 13.4032 10.9615 13.4097 10.8436C13.4194 10.7258 13.5104 10.6911 13.4877 10.6634C13.4649 10.6356 13.3707 10.6911 13.3317 10.8471C13.2959 11.0066 13.3837 11.0967 13.2309 11.4156C13.0782 11.7346 13.1984 11.8767 13.0457 12.161" fill="#F6B40E"/>
<path d="M13.0943 12.9999L13.065 12.1679C13.065 12.1679 13.065 12.1714 13.0618 12.1714L13.0293 12.1506C13.0423 12.1298 13.052 12.109 13.0585 12.0882L13.0065 10.6356C13.0065 10.6322 13.0033 10.6114 12.9968 10.6114C12.9903 10.6114 12.987 10.6322 12.987 10.6356L12.9025 12.9999H12.8668L12.9513 10.6356C12.9513 10.6356 12.9513 10.6218 12.9545 10.6079C12.961 10.5871 12.9773 10.5732 12.9968 10.5732C13.0293 10.5732 13.0423 10.6079 13.0423 10.6356L13.091 11.9946C13.1105 11.9252 13.1138 11.8628 13.117 11.797C13.1235 11.6826 13.1333 11.5682 13.2113 11.4052C13.3088 11.2007 13.3055 11.0932 13.3023 10.9962C13.299 10.9442 13.299 10.8991 13.312 10.8402C13.3413 10.7188 13.4063 10.6495 13.455 10.6356C13.481 10.6287 13.494 10.6391 13.5005 10.646C13.52 10.6703 13.5005 10.6946 13.4843 10.7154C13.4615 10.7431 13.4323 10.7778 13.429 10.8402C13.4258 10.8714 13.4323 10.9095 13.4355 10.9511C13.4485 11.0759 13.4648 11.2423 13.3705 11.4399C13.3088 11.5647 13.3055 11.6895 13.299 11.8178C13.2958 11.9495 13.2893 12.0882 13.2243 12.2372L13.1918 12.2199C13.2535 12.0743 13.26 11.9426 13.2633 11.8143C13.2665 11.6791 13.273 11.5543 13.338 11.4191C13.429 11.2354 13.4128 11.0724 13.3998 10.9546C13.3965 10.9095 13.39 10.8679 13.3933 10.8332C13.3998 10.757 13.4355 10.7154 13.4583 10.6842C13.4615 10.6772 13.468 10.6703 13.4713 10.6668C13.468 10.6668 13.4648 10.6668 13.4583 10.6703C13.429 10.6807 13.377 10.7327 13.351 10.8436C13.338 10.8956 13.3413 10.9372 13.3413 10.9858C13.3445 11.0863 13.351 11.1972 13.247 11.4122C13.1723 11.5682 13.1658 11.6791 13.156 11.79C13.1495 11.8836 13.143 11.9738 13.0975 12.0847L13.13 12.986L13.0943 12.9999Z" fill="#85340A"/>
<path d="M13.1039 13.045L13.8742 10.8264C13.8742 10.8264 13.8904 10.7848 13.8644 10.7744C13.8384 10.764 13.8222 10.8056 13.8222 10.8056L12.8959 12.9549L13.1039 13.045ZM13.4679 12.3794C13.6922 12.1576 13.6792 11.8872 13.8904 11.7C14.1017 11.5128 14.1049 11.2805 14.1537 11.1765C14.2057 11.069 14.2999 11.076 14.2902 11.0413C14.2772 11.0066 14.1699 11.017 14.0789 11.1488C13.9879 11.2805 14.0367 11.4018 13.7832 11.6306C13.5264 11.8629 13.5882 12.0432 13.3444 12.2442" fill="#F6B40E"/>
<path d="M13.12 13.0521L13.0875 13.0383L13.3573 12.2583L13.354 12.2617L13.3313 12.2305C13.3508 12.2167 13.367 12.1993 13.3833 12.1855L13.8578 10.8231C13.8578 10.8196 13.8643 10.7988 13.8578 10.7953C13.8513 10.7919 13.8415 10.8127 13.8383 10.8161L12.912 12.9655L12.8795 12.9481L13.8058 10.7988C13.8058 10.7953 13.8188 10.7676 13.8383 10.7607C13.848 10.7572 13.8578 10.7572 13.8708 10.7607C13.9 10.7745 13.9 10.8092 13.8903 10.8369L13.4483 12.1127C13.4905 12.0572 13.5165 12.0017 13.5425 11.9428C13.5913 11.8423 13.64 11.7383 13.77 11.6204C13.9358 11.4713 13.9683 11.3708 14.0008 11.2807C14.017 11.2321 14.0333 11.1871 14.0658 11.142C14.1373 11.0415 14.2218 11.0033 14.2705 11.0103C14.2965 11.0137 14.3063 11.0311 14.3095 11.038C14.3193 11.0692 14.2933 11.0831 14.2705 11.0935C14.2413 11.1073 14.2023 11.1316 14.173 11.1871C14.16 11.2148 14.1503 11.2495 14.1373 11.2945C14.1048 11.4124 14.0593 11.5788 13.9033 11.7175C13.7993 11.8076 13.7538 11.9185 13.7018 12.0399C13.6498 12.1612 13.5978 12.286 13.4808 12.3969L13.4548 12.3692C13.5653 12.2617 13.6173 12.1404 13.666 12.0225C13.718 11.9012 13.7668 11.7833 13.8773 11.6897C14.0268 11.558 14.069 11.3985 14.1015 11.2841C14.1145 11.2391 14.1243 11.2009 14.1373 11.1697C14.1698 11.1004 14.2185 11.0761 14.251 11.0588C14.2575 11.0553 14.2673 11.0519 14.2705 11.0484C14.2673 11.0484 14.264 11.0449 14.2575 11.0449C14.2283 11.0449 14.16 11.0692 14.095 11.1628C14.0658 11.2044 14.0528 11.246 14.0365 11.2911C14.004 11.3847 13.9683 11.4921 13.796 11.6481C13.6725 11.7625 13.6238 11.8631 13.5783 11.9601C13.5393 12.0433 13.5003 12.1265 13.4158 12.2097L13.12 13.0521Z" fill="#85340A"/>
<path d="M13.0781 13.083L14.5861 11.3497C14.5861 11.3497 14.6153 11.3185 14.5958 11.2977C14.5763 11.2769 14.5471 11.3081 14.5471 11.3081L12.9221 12.9166L13.0781 13.083ZM13.6533 12.6185C13.9393 12.5041 14.0238 12.251 14.2871 12.1609C14.5503 12.0742 14.6348 11.8627 14.7193 11.783C14.8038 11.7067 14.8916 11.7518 14.8916 11.7137C14.8948 11.6755 14.7908 11.6443 14.6576 11.7275C14.5276 11.8107 14.5276 11.9425 14.2091 12.0534C13.8906 12.1643 13.8808 12.355 13.5851 12.4417" fill="#F6B40E"/>
<path d="M13.0913 13.0972L13.0653 13.0695L13.5951 12.4593H13.5918L13.5821 12.4212C13.6048 12.4143 13.6243 12.4073 13.6438 12.4004L14.5701 11.3327C14.5733 11.3292 14.5863 11.3119 14.5798 11.3084H14.5766C14.5701 11.3084 14.5603 11.3153 14.5571 11.3188L12.9353 12.9308L12.9093 12.9031L14.5343 11.2945C14.5376 11.2911 14.5571 11.2703 14.5798 11.2703C14.5896 11.2703 14.5993 11.2737 14.6091 11.2841C14.6318 11.3084 14.6188 11.3431 14.5993 11.3639L13.7316 12.3623C13.7901 12.3276 13.8356 12.286 13.8811 12.2444C13.9623 12.1716 14.0436 12.0953 14.2061 12.0399C14.4108 11.9705 14.4823 11.8908 14.5408 11.818C14.5733 11.7799 14.6026 11.7452 14.6513 11.714C14.7521 11.6481 14.8463 11.6481 14.8886 11.6759C14.9113 11.6897 14.9146 11.7071 14.9146 11.7175C14.9113 11.7487 14.8821 11.7521 14.8561 11.7521C14.8236 11.7556 14.7781 11.7591 14.7326 11.7972C14.7098 11.818 14.6871 11.8457 14.6611 11.8804C14.5896 11.9775 14.4888 12.1092 14.2906 12.1751C14.1638 12.2167 14.0793 12.2999 13.9883 12.39C13.8973 12.4801 13.8031 12.5737 13.6568 12.6327L13.6438 12.598C13.7836 12.5425 13.8746 12.4524 13.9623 12.3657C14.0533 12.2756 14.1411 12.1889 14.2776 12.1439C14.4628 12.0815 14.5603 11.9532 14.6286 11.8596C14.6546 11.8249 14.6806 11.7937 14.7033 11.7695C14.7586 11.7209 14.8106 11.7175 14.8463 11.714C14.8528 11.714 14.8626 11.714 14.8691 11.7105C14.8658 11.7071 14.8626 11.7071 14.8561 11.7036C14.8301 11.6897 14.7553 11.6863 14.6643 11.7452C14.6221 11.7729 14.5961 11.8041 14.5636 11.8423C14.5018 11.9151 14.4271 11.9983 14.2126 12.0745C14.0566 12.1265 13.9786 12.2028 13.9006 12.2721C13.8323 12.3345 13.7673 12.3935 13.6633 12.4351L13.0913 13.0972Z" fill="#85340A"/>
<path d="M12.8602 12.1542C12.8439 11.8387 12.6782 11.7 12.7107 11.4158C12.6392 11.6411 12.8114 11.8179 12.8017 12.1507L12.8602 12.1542ZM13.0519 12.9758L12.4182 11.499L12.9479 13.0208" fill="#85340A"/>
<path d="M13.1754 12.1612C13.2729 11.8665 13.1689 11.6689 13.3021 11.4193C13.1559 11.5996 13.2534 11.8319 13.1234 12.1369L13.1754 12.1612ZM13.0551 12.9967L12.9999 11.3743L12.9446 12.9967" fill="#85340A"/>
<path d="M13.4614 12.2964C13.6597 12.0641 13.6337 11.8388 13.8449 11.662C13.6434 11.766 13.6499 12.0225 13.4224 12.2513L13.4614 12.2964ZM13.0519 13.0209L13.5817 11.499L12.9479 12.9758" fill="#85340A"/>
<path d="M13.6791 12.5387C13.9456 12.4035 14.0009 12.1851 14.2609 12.1088C14.0366 12.1262 13.9521 12.3619 13.6596 12.4798L13.6791 12.5387ZM13.0421 13.0414L14.0789 11.8523L12.9641 12.9582" fill="#85340A"/>
<path d="M13.0422 13.1108L15.0572 12.1228C15.0572 12.1228 15.0962 12.1055 15.0865 12.0778C15.0767 12.05 15.0377 12.0674 15.0377 12.0674L12.9577 12.889L13.0422 13.1108ZM13.741 12.9132C14.0465 12.9236 14.2155 12.7226 14.4885 12.7503C14.7615 12.778 14.9175 12.6151 15.0247 12.5804C15.132 12.5423 15.1937 12.622 15.21 12.5874C15.2262 12.5527 15.1417 12.4799 14.989 12.5042C14.8362 12.5284 14.794 12.6498 14.4592 12.622C14.1245 12.5943 14.0465 12.7676 13.741 12.726" fill="#F6B40E"/>
<path d="M13.0486 13.1281L13.0324 13.0935L13.7409 12.7468H13.7376L13.7409 12.7087C13.7636 12.7121 13.7864 12.7156 13.8059 12.7156L15.0441 12.1089C15.0474 12.1055 15.0669 12.0985 15.0636 12.0881C15.0636 12.0847 15.0636 12.0847 15.0604 12.0847C15.0539 12.0812 15.0409 12.0847 15.0376 12.0881L12.9576 12.9097L12.9446 12.8751L15.0246 12.0535C15.0279 12.0535 15.0539 12.0431 15.0734 12.05C15.0831 12.0535 15.0896 12.0639 15.0961 12.0743C15.1026 12.0916 15.0994 12.1124 15.0799 12.1297C15.0701 12.1401 15.0571 12.1436 15.0571 12.1436L13.9001 12.7121C13.9651 12.7052 14.0236 12.6844 14.0789 12.6636C14.1796 12.6289 14.2836 12.5908 14.4526 12.6081C14.6704 12.6255 14.7614 12.5804 14.8426 12.5423C14.8849 12.5215 14.9271 12.5007 14.9791 12.4937C15.0961 12.4764 15.1806 12.5111 15.2099 12.5561C15.2261 12.5804 15.2196 12.5977 15.2164 12.6047C15.2034 12.6324 15.1741 12.622 15.1514 12.6151C15.1189 12.6047 15.0766 12.5873 15.0214 12.6081C14.9954 12.6185 14.9629 12.6359 14.9271 12.6567C14.8264 12.7156 14.6866 12.7988 14.4786 12.778C14.3454 12.7641 14.2381 12.8092 14.1244 12.8543C14.0074 12.8993 13.8871 12.9479 13.7311 12.9409V12.9028C13.8806 12.9097 13.9976 12.8612 14.1114 12.8161C14.2284 12.7711 14.3421 12.726 14.4819 12.7399C14.6769 12.7572 14.8101 12.6809 14.9076 12.622C14.9466 12.6012 14.9791 12.5804 15.0084 12.57C15.0766 12.5457 15.1286 12.5665 15.1611 12.5769C15.1676 12.5804 15.1774 12.5839 15.1839 12.5839C15.1839 12.5804 15.1806 12.5769 15.1774 12.5735C15.1579 12.5492 15.0929 12.5145 14.9856 12.5319C14.9369 12.5388 14.9011 12.5561 14.8589 12.5804C14.7744 12.622 14.6769 12.6705 14.4526 12.6497C14.2901 12.6359 14.1894 12.6705 14.0919 12.7052C14.0074 12.7364 13.9261 12.7641 13.8124 12.7607L13.0486 13.1281Z" fill="#85340A"/>
<path d="M13 13.1179L15.2165 13.0278C15.2165 13.0278 15.2587 13.0278 15.2587 12.9966C15.2587 12.9654 15.2165 12.9654 15.2165 12.9654L13 12.8752V13.1179ZM13.715 13.2219C13.9945 13.3571 14.222 13.2427 14.4657 13.3779C14.7095 13.5131 14.911 13.4299 15.0215 13.4368C15.132 13.4472 15.1645 13.5443 15.1905 13.52C15.2165 13.4958 15.1645 13.3952 15.0182 13.3536C14.8687 13.3155 14.7842 13.4091 14.4852 13.2462C14.1862 13.0832 14.053 13.2115 13.7865 13.0486" fill="#F6B40E"/>
<path d="M15.1808 13.5443C15.1645 13.5443 15.1483 13.5304 15.1353 13.5166C15.1093 13.4923 15.0768 13.4611 15.0183 13.4576C14.989 13.4542 14.9533 13.4611 14.9143 13.4646C14.7973 13.4784 14.6413 13.4992 14.456 13.3952C14.339 13.3294 14.222 13.3259 14.1018 13.319C13.9783 13.3155 13.8483 13.3086 13.7085 13.2392L13.7248 13.2046C13.8613 13.2704 13.9848 13.2774 14.105 13.2808C14.2318 13.2843 14.3488 13.2912 14.4755 13.3606C14.6478 13.4576 14.8005 13.4403 14.911 13.4264C14.9533 13.423 14.9923 13.416 15.0215 13.4195C15.093 13.4264 15.132 13.4646 15.1613 13.4888C15.1678 13.4923 15.1743 13.4992 15.1775 13.5027C15.1775 13.4992 15.1775 13.4958 15.1743 13.4888C15.1645 13.4576 15.1158 13.4022 15.0118 13.3744C14.963 13.3606 14.924 13.364 14.8785 13.364C14.7843 13.3675 14.6803 13.3744 14.4788 13.2635C14.3325 13.1838 14.2285 13.1768 14.1245 13.1664C14.0368 13.1595 13.9523 13.1526 13.8483 13.104L13.0033 13.1387V13.1006L13.7833 13.0694C13.7833 13.0694 13.78 13.0694 13.78 13.0659L13.7995 13.0312C13.819 13.0451 13.8385 13.0555 13.858 13.0624L15.2198 13.007C15.223 13.007 15.2425 13.0035 15.2425 12.9966C15.2425 12.9966 15.2425 12.9931 15.2328 12.9896C15.2263 12.9862 15.2165 12.9862 15.2165 12.9862L13 12.896V12.8579L15.2165 12.948C15.2165 12.948 15.2295 12.948 15.2425 12.9515C15.262 12.9584 15.275 12.9758 15.275 12.9966C15.275 13.0312 15.2425 13.0451 15.2165 13.0451L13.9425 13.0971C14.0075 13.1179 14.066 13.1214 14.1278 13.1248C14.235 13.1318 14.3423 13.1422 14.495 13.2254C14.6868 13.3294 14.7875 13.3259 14.8785 13.3224C14.9273 13.319 14.9695 13.319 15.0248 13.3328C15.1385 13.364 15.2035 13.4334 15.2165 13.4854C15.223 13.5131 15.2133 13.527 15.2068 13.5339C15.1938 13.5408 15.1873 13.5443 15.1808 13.5443Z" fill="#85340A"/>
<path d="M12.9577 13.111L15.0377 13.9326C15.0377 13.9326 15.0767 13.95 15.0865 13.9222C15.0962 13.8945 15.0572 13.8772 15.0572 13.8772L13.0422 12.8892L12.9577 13.111ZM13.5817 13.4993C13.7897 13.7385 14.0432 13.7246 14.2187 13.95C14.3942 14.1753 14.612 14.1788 14.7095 14.2308C14.8102 14.2862 14.8037 14.3868 14.8362 14.3764C14.8687 14.3625 14.859 14.2481 14.7355 14.151C14.612 14.054 14.4982 14.106 14.2837 13.8356C14.066 13.5617 13.897 13.6276 13.7085 13.3676" fill="#F6B40E"/>
<path d="M14.8297 14.3935C14.8102 14.3935 14.7972 14.3692 14.7874 14.3484C14.7744 14.3172 14.7517 14.2756 14.6997 14.2444C14.6737 14.2306 14.6412 14.2202 14.5989 14.2063C14.4884 14.1716 14.3324 14.1231 14.2024 13.9567C14.1179 13.8458 14.0139 13.7972 13.9002 13.7418C13.7864 13.6863 13.6694 13.6308 13.5654 13.506L13.5914 13.4783C13.6922 13.5962 13.8059 13.6516 13.9164 13.7036C14.0302 13.7591 14.1374 13.8111 14.2284 13.929C14.3519 14.0884 14.5014 14.1335 14.6087 14.1682C14.6509 14.182 14.6867 14.1924 14.7159 14.2063C14.7809 14.241 14.8037 14.293 14.8199 14.3276C14.8232 14.3346 14.8264 14.345 14.8297 14.3484C14.8297 14.345 14.8329 14.3415 14.8329 14.3346C14.8329 14.3034 14.8102 14.2306 14.7224 14.1612C14.6834 14.13 14.6444 14.1162 14.6022 14.0988C14.5144 14.0642 14.4137 14.026 14.2674 13.8423C14.1602 13.7106 14.0659 13.6586 13.9749 13.61C13.8969 13.5684 13.8189 13.5268 13.7409 13.4367L12.9479 13.1247L12.9609 13.09L13.6922 13.3778L13.6889 13.3743L13.7182 13.35C13.7312 13.3708 13.7474 13.3882 13.7604 13.4055L15.0377 13.9116C15.0409 13.9116 15.0604 13.9186 15.0637 13.9116C15.0669 13.9047 15.0474 13.8943 15.0442 13.8908L13.0292 12.9028L13.0454 12.8682L15.0604 13.8562C15.0637 13.8562 15.0897 13.87 15.0962 13.8908C15.0994 13.9012 15.0994 13.9116 15.0962 13.9255C15.0832 13.9567 15.0507 13.9567 15.0247 13.9463L13.8287 13.4748C13.8807 13.5199 13.9327 13.5476 13.9879 13.5754C14.0822 13.6274 14.1797 13.6794 14.2902 13.818C14.4299 13.9948 14.5242 14.0295 14.6087 14.0642C14.6542 14.0815 14.6964 14.0988 14.7387 14.1335C14.8329 14.2098 14.8687 14.2999 14.8622 14.3519C14.8589 14.3796 14.8427 14.39 14.8362 14.3935C14.8394 14.3935 14.8329 14.3935 14.8297 14.3935Z" fill="#85340A"/>
<path d="M12.9221 13.0834L14.5471 14.6919C14.5471 14.6919 14.5763 14.7231 14.5958 14.7023C14.6153 14.6815 14.5861 14.6503 14.5861 14.6503L13.0781 12.917L12.9221 13.0834ZM13.3576 13.697C13.4648 14.0021 13.7021 14.0922 13.7866 14.373C13.8678 14.6538 14.0661 14.7439 14.1408 14.8341C14.2123 14.9242 14.1701 15.0178 14.2058 15.0178C14.2416 15.0213 14.2708 14.9103 14.1928 14.7682C14.1148 14.6261 13.9913 14.6295 13.8873 14.2898C13.7833 13.9501 13.6046 13.9397 13.5233 13.6242" fill="#F6B40E"/>
<path d="M14.2061 15.0383C14.2028 15.0383 14.2028 15.0383 14.2061 15.0383C14.1736 15.0348 14.1703 15.0036 14.1703 14.9759C14.1671 14.9412 14.1638 14.8927 14.1281 14.8442C14.1086 14.8199 14.0826 14.7956 14.0501 14.7679C13.9591 14.6916 13.8356 14.5842 13.7738 14.3727C13.7348 14.2375 13.6568 14.1474 13.5723 14.0503C13.4878 13.9532 13.4001 13.8527 13.3448 13.6967L13.3773 13.6828C13.4293 13.8319 13.5138 13.929 13.5951 14.0226C13.6796 14.1196 13.7608 14.2132 13.8031 14.3588C13.8616 14.5564 13.9818 14.6604 14.0696 14.7332C14.1021 14.761 14.1313 14.7887 14.1541 14.813C14.1996 14.8719 14.2028 14.9274 14.2061 14.9655C14.2061 14.9724 14.2061 14.9828 14.2093 14.9898C14.2126 14.9863 14.2126 14.9828 14.2158 14.9759C14.2288 14.9482 14.2321 14.8684 14.1768 14.7714C14.1508 14.7263 14.1216 14.6986 14.0858 14.6639C14.0176 14.598 13.9396 14.5183 13.8681 14.2895C13.8193 14.1231 13.7478 14.0399 13.6828 13.9567C13.6243 13.8839 13.5691 13.8146 13.5301 13.7036L12.9093 13.09L12.9353 13.0623L13.5073 13.6274V13.6239L13.5431 13.6135C13.5496 13.6378 13.5561 13.6586 13.5626 13.6828L14.5636 14.6708C14.5668 14.6743 14.5831 14.6882 14.5863 14.6812C14.5928 14.6743 14.5798 14.6604 14.5766 14.657L13.0653 12.9306L13.0913 12.9028L14.5993 14.6362C14.5993 14.6362 14.6091 14.6466 14.6156 14.6604C14.6253 14.6812 14.6221 14.702 14.6091 14.7159C14.5863 14.7402 14.5538 14.7263 14.5343 14.7055L13.5983 13.7799C13.6308 13.8423 13.6698 13.8908 13.7088 13.9394C13.7771 14.026 13.8486 14.1127 13.9006 14.286C13.9656 14.5044 14.0403 14.5807 14.1086 14.6431C14.1443 14.6778 14.1768 14.709 14.2061 14.761C14.2678 14.8684 14.2678 14.969 14.2418 15.014C14.2288 15.0348 14.2126 15.0383 14.2061 15.0383Z" fill="#85340A"/>
<path d="M13.7931 12.8509C14.0888 12.8335 14.2188 12.6567 14.4853 12.6914C14.2741 12.6151 14.1083 12.7989 13.7963 12.7885L13.7931 12.8509ZM13.0228 13.0554L14.4073 12.3794L12.9806 12.9445" fill="#85340A"/>
<path d="M13.7865 13.1871C14.0628 13.2911 14.248 13.1801 14.482 13.3223C14.313 13.1663 14.0953 13.2703 13.8093 13.1316L13.7865 13.1871ZM13.0033 13.0588L14.5243 12.9999L13.0033 12.9409" fill="#85340A"/>
<path d="M13.6598 13.4921C13.8776 13.7035 14.0888 13.6758 14.2546 13.9011C14.1571 13.6862 13.9166 13.6931 13.7021 13.4505L13.6598 13.4921ZM12.9806 13.0553L14.4073 13.6203L13.0228 12.9443" fill="#85340A"/>
<path d="M13.4324 13.7246C13.5591 14.0088 13.7639 14.0678 13.8354 14.3451C13.8191 14.1059 13.5981 14.0158 13.4876 13.7038L13.4324 13.7246ZM12.9611 13.0451L14.0759 14.151L13.0391 12.9619" fill="#85340A"/>
<path d="M13.0003 13.9636C13.4993 13.9636 13.9038 13.5321 13.9038 12.9999C13.9038 12.4676 13.4993 12.0361 13.0003 12.0361C12.5013 12.0361 12.0968 12.4676 12.0968 12.9999C12.0968 13.5321 12.5013 13.9636 13.0003 13.9636Z" fill="#F6B40E"/>
<path d="M13 13.988C12.4897 13.988 12.0737 13.5442 12.0737 13C12.0737 12.4557 12.4897 12.012 13 12.012C13.5102 12.012 13.9262 12.4557 13.9262 13C13.9262 13.5442 13.5102 13.988 13 13.988ZM13 12.064C12.5157 12.064 12.1225 12.4834 12.1225 13C12.1225 13.5165 12.5157 13.936 13 13.936C13.4842 13.936 13.8775 13.5165 13.8775 13C13.8775 12.4834 13.4842 12.064 13 12.064Z" fill="#85340A"/>
<path d="M13.3087 12.7957C13.247 12.7957 13.1885 12.8234 13.1527 12.8823C13.221 12.9482 13.377 12.9551 13.481 12.8754C13.4355 12.8234 13.3705 12.7957 13.3087 12.7957ZM13.3055 12.8095C13.364 12.8095 13.4225 12.8373 13.429 12.8685C13.3607 12.9517 13.247 12.9413 13.1787 12.8823C13.2112 12.8303 13.26 12.8095 13.3055 12.8095Z" fill="#843511"/>
<path d="M13.3186 12.7468C13.2276 12.7468 13.2081 12.7676 13.1658 12.8058C13.1236 12.8439 13.1041 12.837 13.0976 12.8439C13.0911 12.8508 13.0976 12.8751 13.1106 12.8647C13.1236 12.8543 13.1528 12.8439 13.1951 12.8058C13.2373 12.7676 13.2796 12.7676 13.3186 12.7676C13.4421 12.7676 13.5136 12.8786 13.5266 12.8716C13.5428 12.8682 13.4583 12.7468 13.3186 12.7468Z" fill="#85340A"/>
<path d="M13.5686 12.792C13.4094 12.6429 13.2079 12.6221 13.0974 12.7331C13.0714 12.7712 13.0519 12.8128 13.0454 12.8579C13.0324 12.9411 13.0551 13.0347 13.1169 13.1283C13.1104 13.1283 13.0974 13.1352 13.0876 13.1421C13.0324 13.0312 13.0129 12.9133 13.0324 12.8059C13.0356 12.7781 13.0454 12.7504 13.0551 12.7227C13.2079 12.584 13.4159 12.5701 13.5686 12.792Z" fill="#85340A"/>
<path d="M13.3055 12.9308C13.3396 12.9308 13.3673 12.9013 13.3673 12.8649C13.3673 12.8286 13.3396 12.7991 13.3055 12.7991C13.2714 12.7991 13.2438 12.8286 13.2438 12.8649C13.2438 12.9013 13.2714 12.9308 13.3055 12.9308Z" fill="#85340A"/>
<path d="M13.4877 12.9099C13.3707 13.0069 13.2504 13 13.1822 12.9549C13.1139 12.9099 13.1139 12.896 13.1269 12.896C13.1399 12.896 13.1562 12.9099 13.2114 12.9411C13.2634 12.9723 13.3479 12.9723 13.4877 12.9099Z" fill="#85340A"/>
<path d="M12.8636 13.1318C12.8344 13.1388 12.8116 13.1665 12.8116 13.1977C12.8116 13.2358 12.8409 13.2636 12.8734 13.2636C12.8929 13.2636 12.9124 13.2532 12.9254 13.2358C12.9481 13.2566 12.9839 13.2566 13.0001 13.2566C13.0034 13.2566 13.0066 13.2566 13.0099 13.2566C13.0261 13.2566 13.0619 13.2532 13.0846 13.2358C13.0976 13.2532 13.1139 13.2636 13.1366 13.2636C13.1724 13.2636 13.1984 13.2358 13.1984 13.1977C13.1984 13.1665 13.1789 13.1388 13.1464 13.1318C13.1626 13.1388 13.1724 13.1561 13.1724 13.1734C13.1724 13.1977 13.1529 13.2185 13.1301 13.2185C13.1074 13.2185 13.0911 13.2012 13.0879 13.1769C13.0814 13.1908 13.0554 13.2358 13.0001 13.2358C12.9481 13.2324 12.9221 13.1908 12.9124 13.1769C12.9124 13.2012 12.8929 13.2185 12.8701 13.2185C12.8474 13.2185 12.8279 13.1977 12.8279 13.1734C12.8344 13.1561 12.8441 13.1388 12.8636 13.1318Z" fill="#85340A"/>
<path d="M12.9286 13.3293C12.8603 13.3293 12.8311 13.3952 12.7693 13.4403C12.8051 13.4264 12.8311 13.3952 12.8798 13.3675C12.9286 13.3363 12.9708 13.3744 12.9968 13.3744C13.0261 13.3744 13.0651 13.3397 13.1138 13.3675C13.1626 13.3987 13.1918 13.4264 13.2243 13.4403C13.1626 13.3952 13.1333 13.3293 13.0651 13.3293C13.0521 13.3293 13.0228 13.3363 12.9968 13.3536C12.9708 13.3397 12.9448 13.3293 12.9286 13.3293Z" fill="#85340A"/>
<path d="M12.9058 13.4194C12.8798 13.4194 12.8408 13.4263 12.7888 13.4437C12.9123 13.4125 12.9416 13.4575 12.9968 13.4575C13.0521 13.4575 13.0813 13.4125 13.2048 13.4437C13.0651 13.3986 13.0391 13.4298 12.9968 13.4298C12.9741 13.4263 12.9513 13.4159 12.9058 13.4194Z" fill="#85340A"/>
<path d="M12.7983 13.4401C12.7918 13.4401 12.7821 13.4401 12.7723 13.4401C12.9186 13.454 12.8471 13.5441 12.9998 13.5441C13.1526 13.5441 13.0843 13.454 13.2306 13.4401C13.0778 13.4263 13.1266 13.5199 12.9998 13.5199C12.8828 13.5233 12.9186 13.4401 12.7983 13.4401Z" fill="#85340A"/>
<path d="M13.1265 13.683C13.1265 13.6102 13.0713 13.5513 13.003 13.5513C12.9348 13.5513 12.8795 13.6102 12.8795 13.683C12.8925 13.6206 12.9445 13.579 13.003 13.579C13.0583 13.5755 13.1103 13.6206 13.1265 13.683Z" fill="#85340A"/>
<path d="M12.4379 12.792C12.5971 12.6429 12.7986 12.6221 12.9091 12.7331C12.9351 12.7712 12.9546 12.8128 12.9611 12.8579C12.9741 12.9411 12.9514 13.0347 12.8896 13.1283C12.8961 13.1283 12.9091 13.1352 12.9189 13.1421C12.9741 13.0312 12.9936 12.9133 12.9741 12.8059C12.9709 12.7781 12.9611 12.7504 12.9514 12.7227C12.7986 12.584 12.5906 12.5701 12.4379 12.792Z" fill="#85340A"/>
<path d="M12.6878 12.7468C12.7788 12.7468 12.7983 12.7676 12.8405 12.8058C12.8828 12.8439 12.9023 12.837 12.9088 12.8439C12.9153 12.8508 12.9088 12.8751 12.8958 12.8647C12.8828 12.8543 12.8535 12.8439 12.8113 12.8058C12.769 12.7676 12.7268 12.7676 12.6878 12.7676C12.5643 12.7676 12.4928 12.8786 12.4798 12.8716C12.4668 12.8682 12.548 12.7468 12.6878 12.7468Z" fill="#85340A"/>
<path d="M12.6849 12.7957C12.6232 12.7957 12.5647 12.8234 12.5289 12.8823C12.5972 12.9482 12.7532 12.9551 12.8572 12.8754C12.8117 12.8234 12.7467 12.7957 12.6849 12.7957ZM12.6849 12.8095C12.7434 12.8095 12.8019 12.8373 12.8084 12.8685C12.7402 12.9517 12.6264 12.9413 12.5582 12.8823C12.5874 12.8303 12.6362 12.8095 12.6849 12.8095Z" fill="#843511"/>
<path d="M12.6914 12.9308C12.7255 12.9308 12.7531 12.9013 12.7531 12.8649C12.7531 12.8286 12.7255 12.7991 12.6914 12.7991C12.6573 12.7991 12.6296 12.8286 12.6296 12.8649C12.6296 12.9013 12.6573 12.9308 12.6914 12.9308Z" fill="#85340A"/>
<path d="M12.5223 12.9099C12.6393 13.0069 12.7595 13 12.8278 12.9549C12.896 12.9099 12.896 12.896 12.883 12.896C12.87 12.896 12.8538 12.9099 12.7985 12.9411C12.7433 12.9723 12.662 12.9723 12.5223 12.9099Z" fill="#85340A"/>
</g>
<rect x="0.270833" y="4.60409" width="25.4583" height="16.7917" rx="1.89583" stroke="#7F7F7F" stroke-width="0.541667"/>
</g>
<defs>
<clipPath id="clip0_29826_19137">
<rect width="26" height="26" fill="white"/>
</clipPath>
<clipPath id="clip1_29826_19137">
<rect y="4.33325" width="26" height="17.3333" rx="2.16667" fill="white"/>
</clipPath>
</defs>
</svg>
