<svg width="26" height="26" viewBox="0 0 26 26" fill="none" xmlns="http://www.w3.org/2000/svg">
<g clip-path="url(#clip0_17013_110038)">
<path d="M23.8333 4.33325H2.16667C0.97005 4.33325 0 5.3033 0 6.49992V19.4999C0 20.6965 0.970049 21.6666 2.16667 21.6666H23.8333C25.0299 21.6666 26 20.6965 26 19.4999V6.49992C26 5.3033 25.03 4.33325 23.8333 4.33325Z" fill="#180087"/>
<path d="M6.83979 14.9524L7.23602 16.3598L8.44458 15.8359L7.72933 17.0662L8.84081 17.8196L7.55328 17.9482L7.73021 19.41L6.83979 18.3405L5.94981 19.41L6.12763 17.9482L4.84009 17.8196L5.95113 17.0662L5.23632 15.8359L6.44444 16.3598L6.83979 14.9524Z" fill="white"/>
<path d="M20.5199 17.4841L20.7088 18.1528L21.2837 17.9047L20.9439 18.4901L21.473 18.8492L20.8597 18.9102L20.9444 19.606L20.5199 19.0962L20.0963 19.606L20.1806 18.9102L19.5677 18.8492L20.0968 18.4901L19.7561 17.9047L20.3319 18.1528L20.5199 17.4841Z" fill="white"/>
<path d="M17.1 11.2961L17.2889 11.9658L17.8638 11.7162L17.5232 12.3031L18.0522 12.6607L17.4398 12.7217L17.524 13.4181L17.1 12.9088L16.6755 13.4181L16.7603 12.7217L16.1474 12.6607L16.6764 12.3031L16.3362 11.7162L16.9116 11.9658L17.1 11.2961Z" fill="white"/>
<path d="M20.5199 7.06128L20.7088 7.73093L21.2837 7.48233L20.9439 8.06778L21.473 8.42731L20.8597 8.48782L20.9444 9.1842L20.5199 8.6749L20.0963 9.1842L20.1806 8.48782L19.5677 8.42731L20.0968 8.06778L19.7561 7.48233L20.3319 7.73093L20.5199 7.06128Z" fill="white"/>
<path d="M23.5603 10.2537L23.7482 10.9223L24.324 10.6742L23.9834 11.2597L24.5129 11.6182L23.8996 11.6797L23.9838 12.3766L23.5603 11.8663L23.1358 12.3766L23.2205 11.6797L22.6072 11.6182L23.1367 11.2597L22.7956 10.6742L23.3718 10.9223L23.5603 10.2537Z" fill="white"/>
<path d="M21.8883 13.3894L22.037 13.8069L22.4302 13.8397L22.1292 14.1307L22.2232 14.5684L21.8883 14.3309L21.553 14.5684L21.6469 14.1307L21.3456 13.8397L21.7392 13.8069L21.8883 13.3894Z" fill="white"/>
<path d="M5.69994 4.33325V6.93824H0V9.54475H5.69994V12.1513H7.98027V9.54475H13.6807V6.93824H7.98027V4.33325H5.69994Z" fill="white"/>
<path d="M1.08332 4.95239L0.541656 5.57144L12.1509 12.1513H13.6798V11.277L2.16666 4.95239H1.08332Z" fill="white"/>
<path d="M12.1509 4.33325L0 11.2769V12.1513H1.52978L13.6798 5.20663V4.33325H12.1509Z" fill="white"/>
<path d="M6.15619 4.33325V7.46015H0V9.02335H6.15619V12.1513H7.52447V9.02335H13.6798V7.46015H7.52447V4.33325H6.15619Z" fill="#EA0020"/>
<path d="M0.962952 4.83306V5.41659L3.54046 6.93824H4.56038L0.962952 4.83306ZM12.6606 4.33325L8.10068 6.93824H9.12016L13.6799 4.33325H12.6606Z" fill="#EA0020"/>
<path d="M4.5604 9.54468L0 12.1512H1.01993L5.57971 9.54468H4.5604ZM9.12017 9.54468L13.6806 12.1512V11.5681L10.1401 9.54468H9.12017Z" fill="#EA0020"/>
<rect x="0.270833" y="4.60409" width="25.4583" height="16.7917" rx="1.89583" stroke="#7F7F7F" stroke-width="0.541667"/>
</g>
<defs>
<clipPath id="clip0_17013_110038">
<rect width="26" height="26" fill="white"/>
</clipPath>
</defs>
</svg>
