<svg width="26" height="26" viewBox="0 0 26 26" fill="none" xmlns="http://www.w3.org/2000/svg">
<g clip-path="url(#clip0_23993_129)">
<g clip-path="url(#clip1_23993_129)">
<path d="M26 4.33325H0V21.6666H26V4.33325Z" fill="#002395"/>
<path d="M4.33334 4.33325H21.6667V21.6666L4.33334 4.33325Z" fill="#FECB00"/>
<path d="M2.70496 7.01388L3.57594 4.33325L4.44693 7.01388L2.16666 5.35716H4.98523L2.70496 7.01388Z" fill="white"/>
<path d="M4.65472 8.96383L5.52571 6.2832L6.3967 8.96383L4.11642 7.30711H6.935L4.65472 8.96383Z" fill="white"/>
<path d="M6.60443 10.9135L7.47542 8.23291L8.34641 10.9135L6.06613 9.25682H8.88471L6.60443 10.9135Z" fill="white"/>
<path d="M8.55432 12.8632L9.42531 10.1826L10.2963 12.8632L8.01602 11.2065H10.8346L8.55432 12.8632Z" fill="white"/>
<path d="M10.5041 14.8132L11.3751 12.1326L12.2461 14.8132L9.96579 13.1565H12.7844L10.5041 14.8132Z" fill="white"/>
<path d="M12.4538 16.7629L13.3248 14.0823L14.1958 16.7629L11.9155 15.1062H14.7341L12.4538 16.7629Z" fill="white"/>
<path d="M14.4032 18.7124L15.2742 16.0317L16.1451 18.7124L13.8649 17.0556H16.6834L14.4032 18.7124Z" fill="white"/>
<path d="M16.3529 20.6623L17.2239 17.9817L18.0949 20.6623L15.8146 19.0056H18.6332L16.3529 20.6623Z" fill="white"/>
<path d="M18.3026 22.612L19.1736 19.9314L20.0446 22.612L17.7643 20.9553H20.5829L18.3026 22.612Z" fill="white"/>
</g>
<rect x="0.270833" y="4.60409" width="25.4583" height="16.7917" rx="1.89583" stroke="#7F7F7F" stroke-width="0.541667"/>
</g>
<defs>
<clipPath id="clip0_23993_129">
<rect width="26" height="26" fill="white"/>
</clipPath>
<clipPath id="clip1_23993_129">
<rect y="4.33325" width="26" height="17.3333" rx="2.16667" fill="white"/>
</clipPath>
</defs>
</svg>
