<svg width="26" height="26" viewBox="0 0 26 26" fill="none" xmlns="http://www.w3.org/2000/svg">
<g clip-path="url(#clip0_17015_110062)">
<path d="M23.8333 4.33325H2.16667C0.97005 4.33325 0 5.3033 0 6.49992V19.4999C0 20.6965 0.970049 21.6666 2.16667 21.6666H23.8333C25.0299 21.6666 26 20.6965 26 19.4999V6.49992C26 5.3033 25.0299 4.33325 23.8333 4.33325Z" fill="#3C9242"/>
<path d="M6.40701 11.2492C5.22111 12.1146 5.22104 13.884 6.40688 14.7495L11.7227 18.6293C12.4836 19.1847 13.5163 19.1847 14.2773 18.6293L19.5934 14.7495C20.7792 13.884 20.7792 12.1145 19.5932 11.2491L14.2772 7.36997C13.5162 6.81471 12.4837 6.81472 11.7228 7.37L6.40701 11.2492Z" fill="#EDC226"/>
<path d="M16.7916 12.9995C16.7916 13.8565 16.5694 14.6943 16.1528 15.4069C15.7363 16.1196 15.1442 16.6751 14.4514 17.0031C13.7586 17.3312 12.9963 17.4171 12.2608 17.25C11.5253 17.0829 10.8497 16.6703 10.3194 16.0643C9.78911 15.4584 9.42793 14.6863 9.28155 13.8458C9.13518 13.0052 9.21018 12.134 9.49707 11.3421C9.78396 10.5503 10.2699 9.87351 10.8933 9.39729C11.5168 8.92107 12.2498 8.66684 12.9997 8.66675C14.0051 8.6671 14.9693 9.12367 15.6803 9.93611C16.3913 10.7485 16.791 11.8504 16.7916 12.9995Z" fill="#2D146E"/>
<path d="M10.8335 11.1428C10.4602 11.143 10.0873 11.1687 9.71686 11.2199C9.60151 11.2358 9.50464 11.3136 9.46715 11.4239C9.3908 11.6484 9.59221 11.8592 9.82728 11.8282C10.1611 11.7841 10.4971 11.7619 10.8335 11.7618C12.7986 11.759 14.7005 12.5219 16.229 13.915C16.4066 14.0769 16.6959 13.9998 16.7329 13.7623C16.7479 13.6658 16.7131 13.5679 16.6416 13.5012C15.0029 11.9738 12.9511 11.1395 10.8335 11.1428Z" fill="white"/>
<path fill-rule="evenodd" clip-rule="evenodd" d="Mnan nanL9.76556 11.7333C9.80228 11.7327 9.83796 11.7193 9.86789 11.6949C9.89781 11.6706 9.92058 11.6365 9.93317 11.597C9.94577 11.5576 9.94761 11.5147 9.93844 11.4741C9.92928 11.4334 9.90954 11.3969 9.88184 11.3694C9.85414 11.3418 9.81978 11.3245 9.78329 11.3197C9.7468 11.3149 9.7099 11.3229 9.67746 11.3426C9.64503 11.3623 9.61858 11.3928 9.6016 11.43C9.58463 11.4672 9.57794 11.5094 9.5824 11.5511C9.58571 11.603 9.60682 11.6512 9.64113 11.6853C9.67544 11.7195 9.72017 11.7367 9.76556 11.7333Lnan nanZM9.75779 11.657C9.78135 11.6583 9.80469 11.6514 9.82466 11.637C9.84463 11.6227 9.86026 11.6017 9.86944 11.5769C9.87862 11.552 9.88091 11.5246 9.87599 11.4982C9.87107 11.4719 9.85918 11.4479 9.84193 11.4295C9.82469 11.4111 9.80292 11.3992 9.77957 11.3954C9.75622 11.3917 9.73242 11.3962 9.71139 11.4084C9.69036 11.4206 9.67312 11.4399 9.662 11.4636C9.65087 11.4874 9.64641 11.5145 9.64921 11.5413C9.64967 11.557 9.65285 11.5725 9.65857 11.5869C9.66428 11.6012 9.67241 11.6141 9.6825 11.6249C9.69258 11.6356 9.70442 11.644 9.71735 11.6495C9.73027 11.655 9.74401 11.6576 9.75779 11.657Z" fill="#3C9242"/>
<path fill-rule="evenodd" clip-rule="evenodd" d="M10.0583 11.6617C10.0592 11.6806 10.0757 11.695 10.0946 11.6933C10.1125 11.6917 10.126 11.6762 10.125 11.6582L10.1225 11.6144C10.1201 11.5718 10.1521 11.535 10.1946 11.5315L10.2617 11.526C10.2766 11.5248 10.2912 11.5204 10.3046 11.5128C10.318 11.5052 10.33 11.4947 10.3398 11.4818C10.3496 11.4689 10.3572 11.4539 10.3619 11.4377C10.3667 11.4215 10.3686 11.4044 10.3675 11.3873C10.3665 11.3702 10.3625 11.3536 10.3558 11.3383C10.3491 11.323 10.3398 11.3094 10.3285 11.2982C10.3172 11.287 10.304 11.2785 10.2898 11.2731C10.2756 11.2678 10.2606 11.2657 10.2457 11.267L10.2385 11.2676C10.1279 11.2766 10.0444 11.3716 10.0497 11.4825L10.0583 11.6617ZM10.1097 11.4073C10.1115 11.4368 10.1372 11.4591 10.1667 11.4568L10.2522 11.4501C10.2644 11.4491 10.2757 11.4425 10.2837 11.4319C10.2917 11.4213 10.2957 11.4075 10.2948 11.3935C10.2945 11.3866 10.293 11.3798 10.2903 11.3736C10.2876 11.3673 10.2839 11.3618 10.2793 11.3572C10.2747 11.3527 10.2694 11.3493 10.2636 11.3471C10.2578 11.345 10.2517 11.3442 10.2457 11.3448L10.1586 11.3512C10.1297 11.3534 10.1079 11.3784 10.1097 11.4073Z" fill="#3C9242"/>
<path d="M10.3661 11.6717C10.3631 11.6126 10.3549 11.4826 10.2782 11.4895L10.1804 11.4974C10.2928 11.4885 10.301 11.6176 10.3045 11.6762" fill="#3C9242"/>
<path fill-rule="evenodd" clip-rule="evenodd" d="M10.515 11.493C10.5165 11.5868 10.5941 11.6615 10.6879 11.6593C10.7083 11.6591 10.7284 11.6542 10.7471 11.645C10.7657 11.6358 10.7827 11.6224 10.7968 11.6057C10.811 11.589 10.8221 11.5692 10.8295 11.5476C10.8369 11.5259 10.8405 11.5028 10.84 11.4795L10.8387 11.4205C10.8379 11.3736 10.8209 11.329 10.7915 11.2965C10.762 11.2639 10.7224 11.2459 10.6814 11.2466C10.5873 11.2485 10.5124 11.3261 10.5139 11.4203L10.515 11.493ZM10.582 11.4881C10.5829 11.5419 10.6276 11.5846 10.6814 11.583C10.6942 11.5827 10.7069 11.5796 10.7187 11.5737C10.7304 11.5678 10.7411 11.5594 10.7499 11.5488C10.7588 11.5382 10.7658 11.5258 10.7705 11.5121C10.7751 11.4984 10.7774 11.4839 10.7771 11.4692V11.4337C10.7769 11.419 10.7741 11.4045 10.769 11.391C10.7638 11.3776 10.7564 11.3654 10.7471 11.3552C10.7378 11.345 10.7268 11.3371 10.7148 11.3318C10.7028 11.3265 10.69 11.324 10.6771 11.3244C10.6231 11.3252 10.58 11.3697 10.5809 11.4237L10.582 11.4881Z" fill="#3C9242"/>
<path d="M10.9812 11.4975C10.9786 11.5864 11.0479 11.6609 11.1368 11.6646L11.2624 11.6699C11.2837 11.6708 11.3017 11.654 11.3023 11.6327C11.3029 11.6117 11.2865 11.5942 11.2656 11.5933L11.093 11.5864C11.0639 11.5852 11.0411 11.5608 11.0419 11.5317C11.0428 11.502 11.0677 11.4788 11.0973 11.4801L11.2146 11.4849C11.2343 11.4857 11.251 11.4703 11.2516 11.4505C11.2522 11.431 11.2369 11.4147 11.2174 11.4139L11.0865 11.4088C11.0639 11.4079 11.0463 11.389 11.047 11.3664C11.0478 11.3436 11.067 11.3258 11.0898 11.3267L11.2569 11.3335C11.2787 11.3344 11.297 11.3171 11.2972 11.2952C11.2975 11.2742 11.281 11.2568 11.26 11.256L11.1461 11.2515C11.0595 11.2481 10.9867 11.316 10.9841 11.4027L10.9812 11.4975Z" fill="#3C9242"/>
<path d="M11.4372 11.6501C11.4359 11.6671 11.4486 11.682 11.4656 11.6835C11.4828 11.6851 11.4981 11.6722 11.4994 11.655C11.5021 11.6185 11.5547 11.616 11.5609 11.652L11.5638 11.6689C11.5663 11.6834 11.5781 11.6945 11.5927 11.6962L11.5989 11.6969C11.6144 11.6987 11.629 11.6894 11.634 11.6747L11.6379 11.6632C11.6499 11.6281 11.7022 11.6395 11.6993 11.6766C11.698 11.6932 11.7101 11.7079 11.7267 11.7097C11.744 11.7115 11.7593 11.6987 11.7607 11.6814L11.7858 11.351C11.7879 11.3235 11.7677 11.2993 11.7402 11.2966C11.7167 11.2942 11.6946 11.3084 11.687 11.3308L11.6842 11.3389C11.6637 11.3994 11.5761 11.3925 11.5651 11.3296L11.5628 11.316C11.5589 11.2935 11.5404 11.2764 11.5176 11.2742C11.4893 11.2715 11.4644 11.2925 11.4622 11.3208L11.4372 11.6501Z" fill="#3C9242"/>
<path d="M12.202 11.6474C12.1912 11.7196 12.2392 11.7875 12.3109 11.8014L12.4147 11.8216C12.434 11.8253 12.4526 11.8123 12.4556 11.7928C12.4585 11.7744 12.4463 11.757 12.4281 11.7534L12.2984 11.7278C12.2737 11.7229 12.2572 11.6994 12.261 11.6745C12.265 11.6479 12.2904 11.6301 12.3167 11.6353L12.4 11.6518C12.4198 11.6557 12.4389 11.6422 12.4418 11.6222C12.4445 11.6036 12.4321 11.5861 12.4136 11.5825L12.3093 11.5621C12.2923 11.5588 12.281 11.5427 12.2836 11.5256C12.2863 11.5074 12.3038 11.4951 12.3218 11.4988L12.4514 11.5247C12.4712 11.5287 12.4902 11.5154 12.4934 11.4955C12.4963 11.4767 12.4839 11.4589 12.4653 11.4552L12.3738 11.437C12.2996 11.4223 12.2281 11.4726 12.2169 11.5474L12.202 11.6474Z" fill="#3C9242"/>
<path fill-rule="evenodd" clip-rule="evenodd" d="M12.8755 11.8994C12.8714 11.9169 12.8817 11.9346 12.8989 11.9395C12.9175 11.9449 12.9367 11.9335 12.941 11.9147L12.9499 11.8757C12.959 11.8355 13.0001 11.8114 13.0396 11.823L13.1063 11.8425C13.1207 11.8468 13.1358 11.8479 13.1506 11.8455C13.1654 11.8432 13.1796 11.8376 13.1925 11.829C13.2053 11.8203 13.2166 11.8089 13.2256 11.7953C13.2346 11.7817 13.2412 11.7662 13.245 11.7497C13.2487 11.7332 13.2496 11.716 13.2476 11.6991C13.2455 11.6822 13.2406 11.666 13.233 11.6513C13.2255 11.6365 13.2154 11.6237 13.2035 11.6134C13.1916 11.6031 13.1781 11.5956 13.1636 11.5913C13.0549 11.5592 12.9415 11.6247 12.915 11.7349L12.8755 11.8994ZM12.9944 11.6789C12.9883 11.7058 13.0041 11.7329 13.0306 11.7408L13.1188 11.7672C13.1307 11.7705 13.1433 11.7683 13.1538 11.761C13.1642 11.7538 13.1718 11.7422 13.1748 11.7286C13.1778 11.7151 13.176 11.7007 13.1698 11.6886C13.1636 11.6766 13.1535 11.6678 13.1417 11.6642L13.0605 11.6402C13.0314 11.6316 13.0011 11.6494 12.9944 11.6789Z" fill="#3C9242"/>
<path fill-rule="evenodd" clip-rule="evenodd" d="M13.32 12.0353C13.3151 12.0523 13.3241 12.0701 13.3406 12.0762C13.3592 12.0831 13.3796 12.0726 13.3848 12.0536L13.3953 12.0154C13.406 11.9762 13.4478 11.9544 13.4862 11.9681L13.5531 11.992C13.5672 11.9972 13.5822 11.9992 13.5971 11.9978C13.6119 11.9964 13.6264 11.9917 13.6397 11.9839C13.6529 11.9761 13.6647 11.9654 13.6743 11.9524C13.684 11.9394 13.6913 11.9244 13.6958 11.9081C13.7003 11.8919 13.702 11.8748 13.7008 11.8578C13.6995 11.8408 13.6954 11.8243 13.6885 11.8092C13.6816 11.794 13.6722 11.7806 13.6608 11.7696C13.6494 11.7587 13.6362 11.7504 13.622 11.7452C13.5149 11.7066 13.3975 11.7665 13.366 11.8759L13.32 12.0353ZM13.4488 11.823C13.4415 11.8494 13.4558 11.877 13.4816 11.8863L13.5681 11.9176C13.5799 11.9219 13.5927 11.9207 13.6037 11.9142C13.6147 11.9078 13.623 11.8966 13.6268 11.8831C13.6305 11.8697 13.6295 11.8551 13.6238 11.8425C13.6182 11.8299 13.6084 11.8205 13.5966 11.8161L13.5172 11.7876C13.4884 11.7772 13.4569 11.7935 13.4488 11.823Z" fill="#3C9242"/>
<path d="M13.6041 12.1712C13.62 12.1156 13.6536 11.992 13.5804 11.9649L13.4865 11.9314C13.595 11.9703 13.5605 12.0939 13.5446 12.15" fill="#3C9242"/>
<path fill-rule="evenodd" clip-rule="evenodd" d="Mnan nanL13.8994 12.2924C13.9323 12.3111 13.9693 12.3181 14.0057 12.3123C14.0421 12.3065 14.0761 12.2883 14.1032 12.2599C14.1303 12.2316 14.1493 12.1946 14.1576 12.1537C14.1659 12.1128 14.1632 12.07 14.1497 12.0309C14.1363 11.9918 14.1129 11.9583 14.0824 11.9348C14.052 11.9113 14.0161 11.8989 13.9793 11.8992C13.9426 11.8995 13.9068 11.9125 13.8767 11.9366C13.8466 11.9606 13.8236 11.9945 13.8107 12.0338C13.7925 12.0816 13.7916 12.1356 13.8083 12.1841C13.8249 12.2325 13.8577 12.2715 13.8994 12.2924Lnan nanZM13.9231 12.2204C13.9435 12.2342 13.9671 12.2404 13.9907 12.2383C14.0143 12.2361 14.0367 12.2258 14.055 12.2086C14.0732 12.1913 14.0864 12.1681 14.0927 12.1421C14.099 12.116 14.0981 12.0883 14.0901 12.0629C14.0822 12.0374 14.0676 12.0153 14.0483 11.9997C14.029 11.984 14.006 11.9755 13.9823 11.9754C13.9587 11.9752 13.9355 11.9834 13.9161 11.9988C13.8966 12.0142 13.8818 12.036 13.8736 12.0614C13.8619 12.09 13.8605 12.1228 13.8698 12.1525C13.879 12.1823 13.8982 12.2067 13.9231 12.2204Z" fill="#3C9242"/>
<path fill-rule="evenodd" clip-rule="evenodd" d="Mnan nanL14.325 12.4884C14.3569 12.509 14.3936 12.5181 14.4302 12.5145C14.4668 12.5108 14.5016 12.4946 14.5299 12.4679C14.5583 12.4412 14.5789 12.4053 14.589 12.3649C14.5991 12.3245 14.5983 12.2816 14.5867 12.2418C14.575 12.202 14.553 12.1672 14.5237 12.1419C14.4944 12.1166 14.459 12.1021 14.4223 12.1003C14.3856 12.0985 14.3493 12.1094 14.3181 12.1316C14.287 12.1539 14.2625 12.1864 14.2478 12.2249C14.2276 12.2716 14.2243 12.3255 14.2388 12.3749C14.2532 12.4242 14.2842 12.4651 14.325 12.4884Lnan nanZM14.3062 12.3522C14.3223 12.4034 14.3834 12.4345 14.4301 12.408C14.4544 12.3942 14.4737 12.371 14.4845 12.3426C14.4953 12.3141 14.497 12.2822 14.4893 12.2525C14.4887 12.2503 14.4881 12.2482 14.4874 12.2461C14.4715 12.1947 14.4103 12.1634 14.3635 12.1899C14.3392 12.2037 14.3198 12.2269 14.309 12.2554C14.2982 12.2838 14.2965 12.3158 14.3043 12.3456C14.3049 12.3478 14.3055 12.35 14.3062 12.3522Z" fill="#3C9242"/>
<path d="M14.5205 12.3593L14.4472 12.323C14.4327 12.3158 14.4163 12.3223 14.4106 12.3374C14.4048 12.3525 14.412 12.3706 14.4264 12.3777L14.4997 12.414C14.5142 12.4212 14.5306 12.4147 14.5363 12.3996C14.5421 12.3845 14.535 12.3664 14.5205 12.3593Z" fill="#3C9242"/>
<path d="M14.4883 12.3764C14.4938 12.3619 14.5106 12.3552 14.5245 12.362C14.5368 12.368 14.5425 12.3823 14.5377 12.3951L14.4847 12.5348C14.4791 12.5495 14.4621 12.5561 14.4481 12.5492C14.4359 12.5431 14.4303 12.5288 14.4352 12.516L14.4883 12.3764Z" fill="#3C9242"/>
<path fill-rule="evenodd" clip-rule="evenodd" d="M14.6073 12.5983C14.6 12.6145 14.6062 12.6335 14.6217 12.6423C14.6393 12.6522 14.6617 12.6447 14.6699 12.6262L14.6846 12.5926C14.7006 12.5559 14.7449 12.5412 14.7797 12.561L14.8434 12.5973C14.8567 12.6051 14.8712 12.6098 14.8861 12.6111C14.901 12.6124 14.916 12.6103 14.9302 12.605C14.9444 12.5996 14.9575 12.5911 14.9688 12.5799C14.9801 12.5687 14.9893 12.555 14.9959 12.5397C15.0093 12.5088 15.0115 12.473 15.0019 12.4402C14.9923 12.4074 14.9717 12.3804 14.9447 12.3649C14.8458 12.3088 14.7202 12.3497 14.6732 12.4531L14.6073 12.5983ZM14.763 12.4128C14.7524 12.4371 14.7618 12.4654 14.7849 12.4785L14.8693 12.5264C14.8747 12.5295 14.8806 12.5314 14.8867 12.5319C14.8927 12.5324 14.8988 12.5315 14.9046 12.5293C14.9104 12.5271 14.9157 12.5237 14.9203 12.5191C14.9249 12.5145 14.9286 12.509 14.9313 12.5028C14.9368 12.4901 14.9377 12.4756 14.9338 12.4622C14.9299 12.4489 14.9216 12.4378 14.9106 12.4313L14.8361 12.3886C14.8094 12.3733 14.7753 12.3846 14.763 12.4128Z" fill="#3C9242"/>
<path d="M14.8698 12.7829C14.8926 12.7308 14.943 12.615 14.8741 12.5751L14.7866 12.5249C14.8879 12.5825 14.8375 12.6992 14.8146 12.7514" fill="#3C9242"/>
<path d="M15.07 12.731C15.0323 12.8073 15.0578 12.8998 15.1293 12.9459L15.2519 13.025C15.2704 13.037 15.2952 13.0302 15.305 13.0104C15.3134 12.9936 15.3078 12.9732 15.2921 12.963L15.1289 12.857C15.1072 12.8428 15.0995 12.8146 15.1112 12.7915C15.1248 12.7644 15.1588 12.7552 15.1842 12.7715L15.2837 12.8357C15.3008 12.8467 15.3237 12.8405 15.3328 12.8223C15.3407 12.8067 15.3355 12.7877 15.3208 12.7782L15.1969 12.6986C15.1799 12.6876 15.1737 12.6656 15.1826 12.6474C15.1931 12.6258 15.2201 12.6182 15.2403 12.6313L15.3831 12.7238C15.4017 12.7358 15.4267 12.7289 15.4366 12.709C15.4449 12.6921 15.4392 12.6716 15.4234 12.6614L15.3318 12.6023C15.2517 12.5506 15.1446 12.5802 15.1024 12.6656L15.07 12.731Z" fill="#3C9242"/>
<path d="M15.5002 13.0444C15.5176 13.0569 15.5208 13.0813 15.5238 13.1024C15.5272 13.1265 15.5455 13.1507 15.5741 13.1717C15.6177 13.2032 15.6474 13.2017 15.6599 13.18C15.7 13.1091 15.4716 13.0057 15.5418 12.8821C15.6022 12.7762 15.706 12.8585 15.7452 12.8871C15.7598 12.8949 15.7729 12.906 15.7836 12.9199C15.7943 12.9337 15.8024 12.9499 15.8073 12.9675C15.8123 12.985 15.8141 13.0035 15.8125 13.0219C15.8123 13.0245 15.812 13.027 15.8116 13.0296C15.8083 13.0537 15.7801 13.0609 15.7605 13.0465C15.7444 13.0348 15.7418 13.0122 15.7401 12.9924C15.738 12.9678 15.7193 12.9451 15.6948 12.9284C15.662 12.9023 15.6341 12.8919 15.6138 12.9284C15.5802 12.986 15.8042 13.0944 15.7353 13.218C15.6853 13.3086 15.597 13.2687 15.5384 13.2263C15.4966 13.1958 15.4384 13.1314 15.4472 13.0613C15.4503 13.0364 15.4799 13.0298 15.5002 13.0444Z" fill="#3C9242"/>
<path d="M15.889 13.3352C15.9058 13.3488 15.9076 13.3736 15.9097 13.3951C15.912 13.4192 15.9293 13.4441 15.9569 13.4669C15.9986 13.5013 16.0284 13.5018 16.0422 13.4801C16.0853 13.4127 15.8612 13.2954 15.9375 13.1763C16.003 13.0734 16.103 13.162 16.1409 13.193C16.1551 13.2018 16.1675 13.2137 16.1775 13.2282C16.1875 13.2427 16.1948 13.2593 16.199 13.2771C16.2032 13.2949 16.2041 13.3135 16.2017 13.3318C16.2014 13.3339 16.2011 13.3361 16.2007 13.3383C16.1965 13.3627 16.1675 13.3687 16.1483 13.353C16.1327 13.3404 16.1312 13.3176 16.1303 13.2976C16.1292 13.2733 16.112 13.2498 16.0883 13.2304C16.0564 13.2039 16.0297 13.1916 16.0077 13.2265C15.9715 13.2817 16.19 13.4033 16.1154 13.522C16.0611 13.6102 15.9745 13.5653 15.9185 13.5196C15.8787 13.4866 15.8233 13.4195 15.8347 13.3497C15.8388 13.3246 15.8691 13.3193 15.889 13.3352Z" fill="#3C9242"/>
<path fill-rule="evenodd" clip-rule="evenodd" d="Mnan nanL16.2848 13.8343C16.311 13.8635 16.3444 13.8829 16.3805 13.89C16.4166 13.8971 16.4537 13.8915 16.4869 13.874C16.5202 13.8565 16.5481 13.8279 16.5668 13.792C16.5856 13.756 16.5944 13.7144 16.592 13.6727C16.5897 13.6309 16.5763 13.5909 16.5537 13.558C16.5311 13.5251 16.5003 13.5007 16.4653 13.4882C16.4304 13.4757 16.3929 13.4756 16.3579 13.4879C16.3229 13.5002 16.292 13.5243 16.2692 13.5571C16.2392 13.5962 16.2239 13.6474 16.2269 13.6994C16.2298 13.7513 16.2506 13.7999 16.2848 13.8343Lnan nanZM16.3265 13.7742C16.3423 13.7942 16.363 13.8083 16.386 13.8144C16.4089 13.8205 16.433 13.8184 16.4548 13.8084C16.4767 13.7984 16.4954 13.781 16.5083 13.7585C16.5212 13.736 16.5278 13.7095 16.5271 13.6825C16.5264 13.6556 16.5185 13.6296 16.5045 13.608C16.4904 13.5864 16.4709 13.5702 16.4486 13.5617C16.4262 13.5531 16.4021 13.5526 16.3795 13.5603C16.3569 13.5679 16.3369 13.5833 16.3222 13.6043C16.3127 13.6158 16.3052 13.6292 16.3002 13.644C16.2953 13.6588 16.2929 13.6745 16.2933 13.6903C16.2937 13.7061 16.2969 13.7217 16.3026 13.7361C16.3083 13.7505 16.3164 13.7634 16.3265 13.7742Z" fill="#3C9242"/>
<path d="M9.92453 12.1886C9.92011 12.1544 9.87197 12.1508 9.86252 12.184C9.85798 12.1999 9.86643 12.2166 9.88191 12.2224C9.90431 12.2308 9.92759 12.2123 9.92453 12.1886Z" fill="white"/>
<path d="M9.88469 12.1884C9.88919 12.1541 9.93747 12.1505 9.94695 12.1838C9.95151 12.1998 9.943 12.2166 9.92742 12.2224C9.90491 12.2308 9.88157 12.2122 9.88469 12.1884Z" fill="white"/>
<path d="M9.94703 12.2278C9.97739 12.2106 9.96518 12.1643 9.93028 12.1643C9.91151 12.1643 9.8963 12.1795 9.8963 12.1983C9.8963 12.2243 9.92438 12.2407 9.94703 12.2278Z" fill="white"/>
<path d="M9.92899 12.1895C9.96345 12.1829 9.9841 12.2265 9.95707 12.2489C9.94145 12.2619 9.91804 12.2583 9.907 12.2413C9.89392 12.2211 9.90539 12.1941 9.92899 12.1895Z" fill="white"/>
<path d="M9.88002 12.1896C9.84566 12.1829 9.82505 12.2265 9.852 12.2488C9.86766 12.2618 9.89114 12.2581 9.90206 12.2409C9.91485 12.2208 9.9034 12.1942 9.88002 12.1896Z" fill="white"/>
<path d="M9.86209 12.2278C9.83172 12.2106 9.84394 12.1643 9.87884 12.1643C9.89761 12.1643 9.91282 12.1795 9.91282 12.1983C9.91282 12.2243 9.88474 12.2407 9.86209 12.2278Z" fill="white"/>
<path d="M9.90334 12.26C9.92624 12.2866 9.9692 12.2634 9.95967 12.2297C9.95445 12.2112 9.93451 12.2012 9.91654 12.208C9.89526 12.216 9.88847 12.2428 9.90334 12.26Z" fill="white"/>
<path d="M9.94127 12.2424C9.9555 12.2739 9.91732 12.3029 9.89079 12.2808C9.87831 12.2704 9.87543 12.2524 9.88403 12.2386C9.89779 12.2166 9.93057 12.2188 9.94127 12.2424Z" fill="white"/>
<path d="M9.86748 12.2422C9.85308 12.2739 9.89143 12.3033 9.91828 12.2811C9.93106 12.2706 9.93397 12.2522 9.92508 12.2382C9.91109 12.2162 9.87826 12.2185 9.86748 12.2422Z" fill="white"/>
<path d="M9.90567 12.2602C9.88261 12.2868 9.83959 12.2635 9.84923 12.2297C9.8545 12.2112 9.87444 12.2011 9.89244 12.2079C9.91388 12.216 9.9207 12.2429 9.90567 12.2602Z" fill="white"/>
<path d="M10.2598 14.0101C10.2552 13.9759 10.207 13.9724 10.1976 14.0056C10.1931 14.0216 10.2016 14.0384 10.2171 14.0442C10.2396 14.0525 10.263 14.0339 10.2598 14.0101Z" fill="white"/>
<path d="M10.2196 14.0105C10.224 13.9765 10.272 13.9729 10.2813 14.006C10.2858 14.0218 10.2774 14.0384 10.2621 14.0441C10.2398 14.0525 10.2166 14.0342 10.2196 14.0105Z" fill="white"/>
<path d="M10.2819 14.0501C10.3122 14.0329 10.3 13.9866 10.2651 13.9866C10.2464 13.9866 10.2311 14.0018 10.2311 14.0205C10.2311 14.0466 10.2592 14.0629 10.2819 14.0501Z" fill="white"/>
<path d="M10.2643 14.0111C10.2986 14.0046 10.319 14.0483 10.2919 14.0704C10.2763 14.0832 10.2529 14.0795 10.2421 14.0624C10.2292 14.0423 10.2408 14.0155 10.2643 14.0111Z" fill="white"/>
<path d="M10.2147 14.011C10.1802 14.0045 10.1598 14.0483 10.1869 14.0705C10.2025 14.0833 10.2257 14.0798 10.2368 14.0629C10.25 14.0427 10.2384 14.0154 10.2147 14.011Z" fill="white"/>
<path d="M10.1971 14.0502C10.1667 14.033 10.1789 13.9866 10.2138 13.9866C10.2326 13.9866 10.2479 14.0018 10.2479 14.0206C10.2479 14.0466 10.2198 14.063 10.1971 14.0502Z" fill="white"/>
<path d="M10.2389 14.0816C10.2618 14.1081 10.3048 14.085 10.2952 14.0512C10.29 14.0328 10.2702 14.0228 10.2523 14.0294C10.2308 14.0374 10.2239 14.0643 10.2389 14.0816Z" fill="white"/>
<path d="M10.2765 14.0642C10.2909 14.0956 10.2529 14.1247 10.2263 14.1027C10.2137 14.0923 10.2108 14.074 10.2197 14.0602C10.2336 14.0386 10.2658 14.0409 10.2765 14.0642Z" fill="white"/>
<path d="M10.2032 14.0642C10.1889 14.0956 10.2269 14.1247 10.2534 14.1027C10.2661 14.0923 10.2689 14.074 10.26 14.0602C10.2462 14.0386 10.2139 14.0409 10.2032 14.0642Z" fill="white"/>
<path d="M10.241 14.0816C10.218 14.1081 10.175 14.0848 10.1847 14.0511C10.1899 14.0328 10.2097 14.0227 10.2276 14.0294C10.2491 14.0373 10.256 14.0643 10.241 14.0816Z" fill="white"/>
<path d="M9.79002 14.4101C9.787 14.3871 9.7546 14.3846 9.74815 14.4069C9.74503 14.4177 9.75079 14.4291 9.76134 14.433C9.77647 14.4386 9.79211 14.4261 9.79002 14.4101Z" fill="white"/>
<path d="M9.76207 14.4098C9.76524 14.3867 9.79776 14.3844 9.80416 14.4068C9.80725 14.4177 9.80143 14.4291 9.79082 14.433C9.77557 14.4386 9.75986 14.4259 9.76207 14.4098Z" fill="white"/>
<path d="M9.80471 14.4367C9.825 14.4248 9.81661 14.3938 9.79314 14.3938C9.78044 14.3938 9.77014 14.4041 9.77014 14.4168C9.77014 14.4345 9.78939 14.4456 9.80471 14.4367Z" fill="white"/>
<path d="M9.79191 14.4106C9.81524 14.4061 9.82929 14.4355 9.81112 14.4508C9.80032 14.4599 9.78398 14.4572 9.77662 14.4452C9.76823 14.4315 9.77612 14.4136 9.79191 14.4106Z" fill="white"/>
<path d="M9.75871 14.4105C9.73547 14.406 9.72138 14.4353 9.73941 14.4507C9.75018 14.4598 9.76658 14.4572 9.77395 14.4451C9.78232 14.4314 9.77446 14.4136 9.75871 14.4105Z" fill="white"/>
<path d="M9.74608 14.4367C9.7258 14.4248 9.73418 14.3938 9.75766 14.3938C9.77036 14.3938 9.78065 14.4041 9.78065 14.4168C9.78065 14.4345 9.76141 14.4456 9.74608 14.4367Z" fill="white"/>
<path d="M9.77518 14.4578C9.79051 14.4755 9.81918 14.46 9.81275 14.4375C9.80928 14.4253 9.79625 14.4187 9.78434 14.4229C9.76986 14.4281 9.76511 14.4462 9.77518 14.4578Z" fill="white"/>
<path d="M9.80026 14.446C9.80988 14.4672 9.7842 14.4868 9.76627 14.472C9.75775 14.4649 9.75582 14.4526 9.76178 14.4433C9.77115 14.4286 9.79307 14.4302 9.80026 14.446Z" fill="white"/>
<path d="M9.75122 14.4461C9.74165 14.4672 9.76724 14.4867 9.78504 14.4718C9.79344 14.4648 9.79537 14.4527 9.78954 14.4434C9.78028 14.4288 9.7584 14.4302 9.75122 14.4461Z" fill="white"/>
<path d="M9.77631 14.4574C9.76119 14.475 9.7327 14.4597 9.73907 14.4374C9.74252 14.4253 9.75549 14.4187 9.76729 14.423C9.78148 14.4282 9.78614 14.4459 9.77631 14.4574Z" fill="white"/>
<path d="M10.6213 13.7615C10.6191 13.7451 10.596 13.7435 10.5915 13.7594C10.5893 13.7671 10.5933 13.7751 10.6008 13.7779C10.6116 13.782 10.6229 13.773 10.6213 13.7615Z" fill="white"/>
<path d="M10.602 13.7617C10.6041 13.7452 10.6273 13.7434 10.6319 13.7593C10.6342 13.767 10.6302 13.7751 10.6227 13.778C10.6118 13.7821 10.6005 13.7732 10.602 13.7617Z" fill="white"/>
<path d="M10.6323 13.7817C10.6468 13.7734 10.6409 13.7512 10.6241 13.7512C10.6151 13.7512 10.6078 13.7585 10.6078 13.7676C10.6078 13.7801 10.6214 13.788 10.6323 13.7817Z" fill="white"/>
<path d="M10.6225 13.7631C10.6392 13.7599 10.6492 13.781 10.6361 13.7919C10.6285 13.7983 10.617 13.7965 10.6117 13.7881C10.6055 13.7782 10.6111 13.7653 10.6225 13.7631Z" fill="white"/>
<path d="M10.5992 13.763C10.5826 13.7598 10.5725 13.7807 10.5854 13.7917C10.593 13.7982 10.6045 13.7965 10.6099 13.7881C10.6163 13.7783 10.6107 13.7652 10.5992 13.763Z" fill="white"/>
<path d="M10.5903 13.7816C10.5759 13.7732 10.5818 13.7512 10.5985 13.7512C10.6074 13.7512 10.6147 13.7585 10.6147 13.7675C10.6147 13.7801 10.6011 13.7879 10.5903 13.7816Z" fill="white"/>
<path d="M10.6112 13.7954C10.6222 13.8081 10.6427 13.797 10.6381 13.7808C10.6356 13.772 10.626 13.7672 10.6175 13.7705C10.6073 13.7744 10.6041 13.7872 10.6112 13.7954Z" fill="white"/>
<path d="M10.6286 13.7883C10.6354 13.8033 10.6174 13.8171 10.6047 13.8067C10.5987 13.8017 10.5973 13.7931 10.6015 13.7865C10.608 13.7761 10.6235 13.7771 10.6286 13.7883Z" fill="white"/>
<path d="M10.5938 13.7883C10.587 13.8033 10.6051 13.8173 10.6179 13.8068C10.624 13.8018 10.6254 13.793 10.6212 13.7863C10.6145 13.7759 10.5989 13.777 10.5938 13.7883Z" fill="white"/>
<path d="M10.6124 13.7953C10.6015 13.808 10.5809 13.7969 10.5855 13.7808C10.5881 13.772 10.5976 13.7672 10.6062 13.7705C10.6163 13.7744 10.6194 13.7871 10.6124 13.7953Z" fill="white"/>
<path d="M11.0458 14.4467C11.042 14.4182 11.0019 14.4152 10.9941 14.4429C10.9904 14.4561 10.9973 14.4699 11.01 14.4748C11.0287 14.482 11.0484 14.4666 11.0458 14.4467Z" fill="white"/>
<path d="M11.0124 14.4465C11.0161 14.4179 11.0564 14.4149 11.0643 14.4427C11.0681 14.4559 11.0612 14.4699 11.0483 14.4748C11.0295 14.482 11.0098 14.4665 11.0124 14.4465Z" fill="white"/>
<path d="M11.065 14.479C11.0904 14.4643 11.08 14.4255 11.0506 14.4255C11.0348 14.4255 11.022 14.4384 11.022 14.4542C11.022 14.4763 11.0459 14.4901 11.065 14.479Z" fill="white"/>
<path d="M11.0501 14.446C11.079 14.4405 11.0962 14.477 11.0737 14.4958C11.0605 14.5069 11.0405 14.5038 11.0313 14.4892C11.0206 14.4722 11.0303 14.4497 11.0501 14.446Z" fill="white"/>
<path d="M11.0083 14.446C10.9792 14.4405 10.962 14.4772 10.9847 14.4961C10.9979 14.5071 11.0178 14.504 11.0271 14.4894C11.038 14.4724 11.0281 14.4497 11.0083 14.446Z" fill="white"/>
<path d="M10.9931 14.4792C10.9676 14.4645 10.978 14.4255 11.0074 14.4255C11.0233 14.4255 11.0361 14.4384 11.0361 14.4543C11.0361 14.4764 11.0122 14.4902 10.9931 14.4792Z" fill="white"/>
<path d="M11.0282 14.5056C11.0473 14.5276 11.0829 14.5083 11.0749 14.4803C11.0705 14.4651 11.0542 14.4568 11.0393 14.4623C11.0215 14.4688 11.0157 14.4912 11.0282 14.5056Z" fill="white"/>
<path d="M11.0597 14.4906C11.0717 14.5169 11.0399 14.5412 11.0177 14.5229C11.0071 14.5141 11.0047 14.4989 11.0121 14.4873C11.0236 14.4692 11.0508 14.471 11.0597 14.4906Z" fill="white"/>
<path d="M10.9986 14.4907C10.9867 14.5168 11.0183 14.541 11.0404 14.5227C11.0509 14.5141 11.0533 14.499 11.0461 14.4875C11.0346 14.4693 11.0075 14.4711 10.9986 14.4907Z" fill="white"/>
<path d="M11.0304 14.5054C11.0114 14.5273 10.9759 14.508 10.984 14.4801C10.9883 14.465 11.0046 14.4568 11.0194 14.4623C11.0371 14.4688 11.0428 14.4911 11.0304 14.5054Z" fill="white"/>
<path d="M10.9317 14.8766C10.928 14.8481 10.8879 14.8452 10.8801 14.8729C10.8764 14.886 10.8833 14.8998 10.896 14.9047C10.9147 14.9119 10.9343 14.8965 10.9317 14.8766Z" fill="white"/>
<path d="M10.8983 14.8762C10.9021 14.8475 10.9425 14.8446 10.9505 14.8725C10.9543 14.8858 10.9472 14.8998 10.9343 14.9048C10.9154 14.912 10.8956 14.8963 10.8983 14.8762Z" fill="white"/>
<path d="M10.952 14.9094C10.9775 14.8946 10.967 14.8557 10.9375 14.8557C10.9216 14.8557 10.9088 14.8686 10.9088 14.8845C10.9088 14.9067 10.9328 14.9206 10.952 14.9094Z" fill="white"/>
<path d="M10.9361 14.8766C10.9651 14.871 10.9824 14.9076 10.9598 14.9265C10.9465 14.9376 10.9265 14.9345 10.9173 14.9198C10.9066 14.9028 10.9163 14.8804 10.9361 14.8766Z" fill="white"/>
<path d="M10.8952 14.8766C10.8663 14.871 10.8489 14.9076 10.8715 14.9265C10.8848 14.9376 10.9048 14.9344 10.914 14.9197C10.9246 14.9027 10.9148 14.8804 10.8952 14.8766Z" fill="white"/>
<path d="M10.879 14.9094C10.8536 14.8946 10.8641 14.8557 10.8935 14.8557C10.9094 14.8557 10.9223 14.8686 10.9223 14.8845C10.9223 14.9067 10.8982 14.9206 10.879 14.9094Z" fill="white"/>
<path d="M10.9145 14.9353C10.9334 14.9575 10.9692 14.9385 10.9613 14.9104C10.9571 14.8952 10.9406 14.8868 10.9258 14.8923C10.9081 14.8989 10.9023 14.921 10.9145 14.9353Z" fill="white"/>
<path d="M10.946 14.9215C10.958 14.9479 10.9259 14.9723 10.9037 14.9537C10.8931 14.9449 10.8908 14.9296 10.8982 14.918C10.9099 14.8998 10.9371 14.9018 10.946 14.9215Z" fill="white"/>
<path d="M10.8848 14.9215C10.8728 14.9479 10.9049 14.9723 10.9271 14.9537C10.9377 14.9449 10.94 14.9296 10.9326 14.918C10.9209 14.8998 10.8937 14.9018 10.8848 14.9215Z" fill="white"/>
<path d="M10.9166 14.9356C10.8975 14.9578 10.8617 14.9385 10.8696 14.9104C10.874 14.8951 10.8904 14.8868 10.9053 14.8922C10.9231 14.8988 10.9289 14.9211 10.9166 14.9356Z" fill="white"/>
<path d="M14.1965 11.6231C14.192 11.5886 14.1436 11.585 14.1341 11.6184C14.1295 11.6344 14.138 11.6512 14.1537 11.6571C14.1762 11.6654 14.1995 11.6469 14.1965 11.6231Z" fill="white"/>
<path d="M14.1562 11.6229C14.1608 11.5886 14.2091 11.5851 14.2185 11.6185C14.223 11.6345 14.2145 11.6512 14.1989 11.657C14.1764 11.6654 14.153 11.6468 14.1562 11.6229Z" fill="white"/>
<path d="M14.2198 11.6617C14.2502 11.6441 14.2377 11.5977 14.2026 11.5977C14.1836 11.5977 14.1683 11.613 14.1683 11.632C14.1683 11.6584 14.1969 11.6749 14.2198 11.6617Z" fill="white"/>
<path d="M14.2003 11.6225C14.2349 11.6159 14.2556 11.6597 14.2286 11.6823C14.2127 11.6954 14.1889 11.6917 14.1779 11.6743C14.165 11.654 14.1767 11.627 14.2003 11.6225Z" fill="white"/>
<path d="M14.151 11.6224C14.1163 11.6158 14.0956 11.6598 14.1227 11.6824C14.1385 11.6955 14.1622 11.6919 14.1734 11.6746C14.1866 11.6542 14.1749 11.627 14.151 11.6224Z" fill="white"/>
<path d="M14.1322 11.6618C14.1018 11.6442 14.1142 11.5977 14.1494 11.5977C14.1684 11.5977 14.1838 11.613 14.1838 11.632C14.1838 11.6584 14.1552 11.675 14.1322 11.6618Z" fill="white"/>
<path d="M14.1749 11.6934C14.1977 11.7198 14.2405 11.6966 14.2308 11.663C14.2256 11.6448 14.2061 11.6349 14.1883 11.6414C14.1669 11.6492 14.1599 11.6761 14.1749 11.6934Z" fill="white"/>
<path d="M14.2124 11.6767C14.2268 11.7081 14.1887 11.7374 14.162 11.7154C14.1494 11.705 14.1464 11.6869 14.1551 11.673C14.1688 11.6509 14.2016 11.6531 14.2124 11.6767Z" fill="white"/>
<path d="M14.1394 11.6768C14.125 11.7083 14.1631 11.7374 14.1898 11.7154C14.2024 11.705 14.2053 11.6869 14.1966 11.6731C14.1829 11.651 14.1501 11.6532 14.1394 11.6768Z" fill="white"/>
<path d="M14.1772 11.6936C14.1543 11.7201 14.1114 11.6969 14.121 11.6633C14.1261 11.645 14.1458 11.6349 14.1636 11.6414C14.1851 11.6492 14.1922 11.6762 14.1772 11.6936Z" fill="white"/>
<path d="M15.6769 14.4886C15.6723 14.4541 15.6239 14.4506 15.6144 14.484C15.6098 14.5002 15.6185 14.5171 15.6343 14.5229C15.6569 14.5311 15.6801 14.5124 15.6769 14.4886Z" fill="white"/>
<path d="M15.6361 14.4886C15.6407 14.4542 15.6891 14.4506 15.6987 14.484C15.7033 14.5001 15.6947 14.5172 15.6788 14.5229C15.6563 14.5311 15.633 14.5125 15.6361 14.4886Z" fill="white"/>
<path d="M15.6998 14.5267C15.7301 14.5094 15.7178 14.4631 15.6829 14.4631C15.6641 14.4631 15.6489 14.4784 15.6489 14.4972C15.6489 14.5233 15.6771 14.5397 15.6998 14.5267Z" fill="white"/>
<path d="M15.6806 14.488C15.7153 14.4814 15.7361 14.5252 15.709 14.5479C15.6931 14.5612 15.6691 14.5573 15.6581 14.5397C15.6453 14.5194 15.657 14.4926 15.6806 14.488Z" fill="white"/>
<path d="M15.6317 14.488C15.5969 14.4813 15.5761 14.5253 15.6032 14.5479C15.6192 14.5612 15.6432 14.5575 15.6542 14.5399C15.6671 14.5195 15.6554 14.4925 15.6317 14.488Z" fill="white"/>
<path d="M15.6132 14.5268C15.5829 14.5095 15.5952 14.4631 15.6301 14.4631C15.649 14.4631 15.6642 14.4784 15.6642 14.4972C15.6642 14.5234 15.6359 14.5398 15.6132 14.5268Z" fill="white"/>
<path d="M15.6554 14.5584C15.6782 14.5849 15.7212 14.5619 15.7116 14.5282C15.7064 14.5099 15.6868 14.4999 15.669 14.5065C15.6476 14.5143 15.6406 14.5411 15.6554 14.5584Z" fill="white"/>
<path d="M15.6936 14.5414C15.708 14.5731 15.6694 14.6024 15.6427 14.5801C15.6299 14.5695 15.6271 14.551 15.6361 14.537C15.6502 14.5152 15.6829 14.5176 15.6936 14.5414Z" fill="white"/>
<path d="M15.6194 14.5414C15.6051 14.5731 15.6435 14.6022 15.6702 14.5799C15.6828 14.5694 15.6856 14.5511 15.6768 14.5372C15.6627 14.5153 15.63 14.5177 15.6194 14.5414Z" fill="white"/>
<path d="M15.6575 14.5586C15.6347 14.5852 15.5916 14.5621 15.6011 14.5284C15.6062 14.51 15.6259 14.4999 15.6438 14.5064C15.6653 14.5143 15.6724 14.5412 15.6575 14.5586Z" fill="white"/>
<path d="M16.197 14.5395C16.1939 14.5164 16.1614 14.514 16.1549 14.5364C16.1517 14.5473 16.1576 14.5588 16.1682 14.5626C16.1834 14.5682 16.1991 14.5556 16.197 14.5395Z" fill="white"/>
<path d="M16.1694 14.5395C16.1725 14.5164 16.205 14.514 16.2114 14.5364C16.2146 14.5473 16.2088 14.5588 16.1981 14.5626C16.1829 14.5682 16.1672 14.5556 16.1694 14.5395Z" fill="white"/>
<path d="M16.2111 14.5665C16.2313 14.5549 16.2231 14.5239 16.1998 14.5239C16.1872 14.5239 16.177 14.5341 16.177 14.5467C16.177 14.5642 16.1959 14.5751 16.2111 14.5665Z" fill="white"/>
<path d="M16.1992 14.5407C16.2224 14.5362 16.2363 14.5654 16.2183 14.5806C16.2077 14.5896 16.1915 14.587 16.1841 14.5751C16.1757 14.5615 16.1835 14.5437 16.1992 14.5407Z" fill="white"/>
<path d="M16.1668 14.5407C16.1435 14.5362 16.1296 14.5656 16.1478 14.5808C16.1584 14.5897 16.1745 14.5872 16.1819 14.5754C16.1905 14.5617 16.1827 14.5437 16.1668 14.5407Z" fill="white"/>
<path d="M16.1538 14.5664C16.1336 14.5548 16.1418 14.5239 16.1651 14.5239C16.1776 14.5239 16.1878 14.5341 16.1878 14.5467C16.1878 14.5641 16.1689 14.5751 16.1538 14.5664Z" fill="white"/>
<path d="M16.182 14.5867C16.1972 14.6043 16.2257 14.5889 16.2193 14.5666C16.2158 14.5544 16.2027 14.5477 16.1908 14.5522C16.1767 14.5575 16.1721 14.5753 16.182 14.5867Z" fill="white"/>
<path d="M16.2074 14.576C16.217 14.597 16.1916 14.6166 16.1737 14.6019C16.1652 14.595 16.1632 14.5828 16.1691 14.5735C16.1783 14.5588 16.2002 14.5602 16.2074 14.576Z" fill="white"/>
<path d="M16.1578 14.5761C16.1482 14.597 16.1736 14.6165 16.1913 14.6018C16.1997 14.5949 16.2017 14.5829 16.196 14.5736C16.1868 14.5589 16.165 14.5603 16.1578 14.5761Z" fill="white"/>
<path d="M16.1831 14.5873C16.1677 14.6051 16.1388 14.5895 16.1452 14.5668C16.1487 14.5545 16.162 14.5477 16.174 14.5521C16.1886 14.5574 16.1933 14.5756 16.1831 14.5873Z" fill="white"/>
<path d="M15.8278 14.8762C15.824 14.8475 15.7836 14.8446 15.7756 14.8725C15.7718 14.8858 15.7789 14.8998 15.7918 14.9048C15.8108 14.912 15.8305 14.8963 15.8278 14.8762Z" fill="white"/>
<path d="M15.7944 14.8765C15.7981 14.8479 15.8384 14.8448 15.8464 14.8726C15.8502 14.8858 15.8433 14.8998 15.8304 14.9048C15.8116 14.912 15.7919 14.8965 15.7944 14.8765Z" fill="white"/>
<path d="M15.8485 14.9094C15.8739 14.8946 15.8634 14.8557 15.834 14.8557C15.8181 14.8557 15.8052 14.8686 15.8052 14.8845C15.8052 14.9067 15.8293 14.9206 15.8485 14.9094Z" fill="white"/>
<path d="M15.8319 14.8766C15.8608 14.871 15.8782 14.9075 15.8557 14.9265C15.8424 14.9376 15.8224 14.9345 15.8132 14.9198C15.8025 14.9028 15.8122 14.8804 15.8319 14.8766Z" fill="white"/>
<path d="M15.7904 14.8765C15.7614 14.8709 15.744 14.9076 15.7666 14.9265C15.7799 14.9376 15.7999 14.9346 15.8091 14.92C15.82 14.9029 15.8103 14.8803 15.7904 14.8765Z" fill="white"/>
<path d="M15.7748 14.9095C15.7493 14.8947 15.7598 14.8557 15.7893 14.8557C15.8052 14.8557 15.8181 14.8686 15.8181 14.8845C15.8181 14.9068 15.794 14.9206 15.7748 14.9095Z" fill="white"/>
<path d="M15.8099 14.9358C15.8291 14.958 15.865 14.9385 15.857 14.9103C15.8526 14.8951 15.8362 14.8867 15.8212 14.8922C15.8033 14.8987 15.7974 14.9213 15.8099 14.9358Z" fill="white"/>
<path d="M15.8413 14.9214C15.8533 14.9476 15.8214 14.9719 15.7993 14.9534C15.7889 14.9447 15.7865 14.9297 15.7937 14.9182C15.8052 14.9 15.8323 14.9018 15.8413 14.9214Z" fill="white"/>
<path d="M15.7806 14.9216C15.7688 14.9479 15.8007 14.9721 15.8228 14.9535C15.8333 14.9448 15.8356 14.9297 15.8283 14.9182C15.8167 14.9 15.7895 14.9019 15.7806 14.9216Z" fill="white"/>
<path d="M15.8123 14.9358C15.7932 14.958 15.7572 14.9388 15.7651 14.9105C15.7694 14.8952 15.7859 14.8868 15.8009 14.8922C15.8188 14.8988 15.8247 14.9213 15.8123 14.9358Z" fill="white"/>
<path d="M14.9151 15.7847C14.9114 15.7561 14.8712 15.7531 14.8633 15.7809C14.8596 15.7941 14.8666 15.808 14.8794 15.8129C14.8981 15.8199 14.9176 15.8045 14.9151 15.7847Z" fill="white"/>
<path d="M14.8812 15.7845C14.885 15.7558 14.9253 15.7529 14.9332 15.7807C14.937 15.794 14.9299 15.808 14.917 15.8129C14.8982 15.8199 14.8786 15.8044 14.8812 15.7845Z" fill="white"/>
<path d="M14.9346 15.8179C14.96 15.8032 14.9496 15.7644 14.9203 15.7644C14.9044 15.7644 14.8916 15.7772 14.8916 15.7931C14.8916 15.8152 14.9155 15.8289 14.9346 15.8179Z" fill="white"/>
<path d="M14.9192 15.7844C14.9482 15.779 14.9654 15.8156 14.9428 15.8345C14.9296 15.8455 14.9097 15.8424 14.9004 15.828C14.8894 15.8109 14.8992 15.7881 14.9192 15.7844Z" fill="white"/>
<path d="M14.8775 15.7845C14.8486 15.7791 14.8315 15.8157 14.8542 15.8344C14.8675 15.8454 14.8874 15.8422 14.8965 15.8276C14.9071 15.8105 14.8972 15.7882 14.8775 15.7845Z" fill="white"/>
<path d="M14.8614 15.8178C14.8361 15.8031 14.8465 15.7644 14.8758 15.7644C14.8916 15.7644 14.9044 15.7772 14.9044 15.793C14.9044 15.8151 14.8805 15.8289 14.8614 15.8178Z" fill="white"/>
<path d="M14.8977 15.8437C14.9167 15.8658 14.9524 15.8466 14.9445 15.8186C14.9402 15.8033 14.9238 15.795 14.9089 15.8004C14.8911 15.807 14.8853 15.8293 14.8977 15.8437Z" fill="white"/>
<path d="M14.9287 15.8292C14.9407 15.8556 14.9087 15.88 14.8864 15.8615C14.8757 15.8527 14.8733 15.8372 14.8809 15.8255C14.8927 15.8075 14.9198 15.8095 14.9287 15.8292Z" fill="white"/>
<path d="M14.8678 15.8291C14.8558 15.8553 14.8876 15.8797 14.9098 15.8613C14.9203 15.8525 14.9227 15.8373 14.9153 15.8258C14.9037 15.8077 14.8768 15.8096 14.8678 15.8291Z" fill="white"/>
<path d="M14.8992 15.8435C14.8802 15.8655 14.8446 15.8462 14.8526 15.8183C14.857 15.8032 14.8733 15.7949 14.8881 15.8004C14.9058 15.807 14.9115 15.8292 14.8992 15.8435Z" fill="white"/>
<path d="M14.9069 16.2259C14.9038 16.203 14.8715 16.2006 14.8651 16.2229C14.862 16.2337 14.8677 16.245 14.8783 16.2489C14.8934 16.2545 14.909 16.2419 14.9069 16.2259Z" fill="white"/>
<path d="M14.8798 16.2258C14.8829 16.2027 14.9153 16.2003 14.9218 16.2227C14.925 16.2336 14.9192 16.245 14.9085 16.2489C14.8933 16.2545 14.8776 16.2419 14.8798 16.2258Z" fill="white"/>
<path d="M14.9225 16.2533C14.9428 16.2415 14.9344 16.2104 14.9109 16.2104C14.8982 16.2104 14.8879 16.2207 14.8879 16.2334C14.8879 16.2512 14.9072 16.2622 14.9225 16.2533Z" fill="white"/>
<path d="M14.909 16.2268C14.9323 16.2224 14.9461 16.2518 14.928 16.2669C14.9173 16.2758 14.9012 16.2732 14.8939 16.2615C14.8853 16.2478 14.8932 16.2298 14.909 16.2268Z" fill="white"/>
<path d="M14.8761 16.2267C14.853 16.2223 14.8391 16.2515 14.8571 16.2667C14.8678 16.2757 14.8839 16.2732 14.8913 16.2614C14.8998 16.2477 14.892 16.2297 14.8761 16.2267Z" fill="white"/>
<path d="M14.8634 16.2532C14.8432 16.2414 14.8516 16.2104 14.875 16.2104C14.8877 16.2104 14.898 16.2207 14.898 16.2334C14.898 16.2512 14.8788 16.2622 14.8634 16.2532Z" fill="white"/>
<path d="M14.8927 16.2739C14.9079 16.2915 14.9365 16.2761 14.9301 16.2537C14.9267 16.2414 14.9135 16.2347 14.9016 16.2392C14.8873 16.2445 14.8827 16.2624 14.8927 16.2739Z" fill="white"/>
<path d="M14.9178 16.2624C14.9274 16.2835 14.9019 16.3031 14.8839 16.2884C14.8754 16.2813 14.8734 16.269 14.8794 16.2596C14.8887 16.245 14.9106 16.2465 14.9178 16.2624Z" fill="white"/>
<path d="M14.8688 16.2622C14.8591 16.2832 14.8846 16.3029 14.9025 16.2882C14.9111 16.2813 14.9131 16.269 14.9072 16.2597C14.8979 16.245 14.8761 16.2464 14.8688 16.2622Z" fill="white"/>
<path d="M14.8942 16.2741C14.8787 16.2917 14.8501 16.276 14.8566 16.2535C14.8602 16.2413 14.8733 16.2347 14.8853 16.2391C14.8997 16.2444 14.9043 16.2626 14.8942 16.2741Z" fill="white"/>
<path d="M15.2888 15.448C15.2856 15.4249 15.2531 15.4225 15.2467 15.4449C15.2435 15.4559 15.2494 15.4674 15.2602 15.4712C15.2754 15.4767 15.2909 15.464 15.2888 15.448Z" fill="white"/>
<path d="M15.261 15.4482C15.2641 15.4252 15.2965 15.4229 15.3029 15.4452C15.3059 15.456 15.3001 15.4674 15.2895 15.4712C15.2744 15.4766 15.2589 15.4641 15.261 15.4482Z" fill="white"/>
<path d="M15.3036 15.4747C15.324 15.4629 15.3157 15.4316 15.2921 15.4316C15.2794 15.4316 15.269 15.442 15.269 15.4547C15.269 15.4724 15.2883 15.4835 15.3036 15.4747Z" fill="white"/>
<path d="M15.2907 15.4488C15.3139 15.4442 15.328 15.4735 15.3099 15.4888C15.2993 15.4978 15.2831 15.4953 15.2756 15.4835C15.2671 15.4698 15.2749 15.4519 15.2907 15.4488Z" fill="white"/>
<path d="M15.2583 15.4488C15.2351 15.4442 15.2209 15.4735 15.239 15.4888C15.2497 15.4978 15.2659 15.4953 15.2733 15.4835C15.2819 15.4698 15.2741 15.4519 15.2583 15.4488Z" fill="white"/>
<path d="M15.2454 15.4746C15.2251 15.4628 15.2334 15.4316 15.257 15.4316C15.2697 15.4316 15.28 15.4419 15.28 15.4547C15.28 15.4724 15.2608 15.4835 15.2454 15.4746Z" fill="white"/>
<path d="M15.2746 15.4956C15.2898 15.5133 15.3183 15.4979 15.3119 15.4755C15.3084 15.4633 15.2953 15.4567 15.2834 15.4611C15.2693 15.4664 15.2647 15.4842 15.2746 15.4956Z" fill="white"/>
<path d="M15.2995 15.4842C15.309 15.5053 15.2834 15.5248 15.2656 15.5099C15.257 15.5028 15.2552 15.4904 15.2613 15.4811C15.2708 15.4667 15.2924 15.4685 15.2995 15.4842Z" fill="white"/>
<path d="M15.2505 15.4842C15.2411 15.5053 15.2666 15.5246 15.2843 15.5098C15.2927 15.5027 15.2945 15.4905 15.2885 15.4813C15.2791 15.4669 15.2576 15.4686 15.2505 15.4842Z" fill="white"/>
<path d="M15.2759 15.4954C15.2608 15.513 15.2324 15.4977 15.2388 15.4754C15.2422 15.4633 15.2553 15.4567 15.2672 15.4612C15.2812 15.4665 15.2857 15.484 15.2759 15.4954Z" fill="white"/>
<path d="M15.5954 15.2253C15.5918 15.1969 15.5518 15.1939 15.544 15.2215C15.5403 15.2346 15.5472 15.2484 15.56 15.2532C15.5785 15.2603 15.5979 15.245 15.5954 15.2253Z" fill="white"/>
<path d="M15.562 15.2251C15.5658 15.1966 15.6059 15.1937 15.6137 15.2213C15.6174 15.2345 15.6104 15.2484 15.5976 15.2532C15.5789 15.2603 15.5594 15.2449 15.562 15.2251Z" fill="white"/>
<path d="M15.6149 15.2576C15.6403 15.2429 15.6299 15.2041 15.6006 15.2041C15.5847 15.2041 15.5719 15.2169 15.5719 15.2328C15.5719 15.2549 15.5958 15.2686 15.6149 15.2576Z" fill="white"/>
<path d="M15.5997 15.2246C15.6283 15.2191 15.6454 15.2554 15.6229 15.274C15.6099 15.2848 15.5903 15.2818 15.5812 15.2675C15.5704 15.2507 15.58 15.2283 15.5997 15.2246Z" fill="white"/>
<path d="M15.558 15.2246C15.5293 15.2191 15.5123 15.2555 15.5348 15.2741C15.5479 15.2849 15.5674 15.2818 15.5766 15.2675C15.5873 15.2507 15.5777 15.2283 15.558 15.2246Z" fill="white"/>
<path d="M15.5424 15.2576C15.517 15.2429 15.5274 15.2041 15.5567 15.2041C15.5726 15.2041 15.5854 15.2169 15.5854 15.2328C15.5854 15.2549 15.5615 15.2686 15.5424 15.2576Z" fill="white"/>
<path d="M15.5782 15.2839C15.5973 15.306 15.6331 15.2867 15.6252 15.2586C15.6209 15.2433 15.6044 15.2349 15.5895 15.2403C15.5715 15.2469 15.5657 15.2694 15.5782 15.2839Z" fill="white"/>
<path d="M15.6099 15.2692C15.6217 15.2952 15.5901 15.3194 15.5681 15.301C15.5577 15.2924 15.5553 15.2774 15.5626 15.2659C15.574 15.2478 15.601 15.2497 15.6099 15.2692Z" fill="white"/>
<path d="M15.5487 15.2692C15.5368 15.2954 15.5686 15.3197 15.5908 15.3013C15.6014 15.2925 15.6037 15.2772 15.5962 15.2656C15.5846 15.2476 15.5576 15.2496 15.5487 15.2692Z" fill="white"/>
<path d="M15.5806 15.2833C15.5617 15.3052 15.5262 15.286 15.5342 15.2582C15.5386 15.2431 15.5549 15.2349 15.5696 15.2404C15.5872 15.247 15.5928 15.269 15.5806 15.2833Z" fill="white"/>
<path d="M14.8971 15.3655C14.894 15.3425 14.8615 15.3402 14.8551 15.3625C14.852 15.3733 14.8577 15.3847 14.8682 15.3886C14.8835 15.3944 14.8994 15.3817 14.8971 15.3655Z" fill="white"/>
<path d="M14.869 15.3658C14.8721 15.3428 14.9044 15.3404 14.9108 15.3626C14.914 15.3734 14.9083 15.3847 14.8979 15.3886C14.8827 15.3944 14.8669 15.3819 14.869 15.3658Z" fill="white"/>
<path d="M14.9119 15.3925C14.9322 15.3806 14.9238 15.3496 14.9003 15.3496C14.8876 15.3496 14.8773 15.3599 14.8773 15.3726C14.8773 15.3903 14.8966 15.4014 14.9119 15.3925Z" fill="white"/>
<path d="M14.8997 15.3659C14.9229 15.3615 14.9368 15.3908 14.9187 15.406C14.908 15.4149 14.8919 15.4124 14.8846 15.4006C14.876 15.3869 14.8839 15.3689 14.8997 15.3659Z" fill="white"/>
<path d="M14.8664 15.3659C14.8431 15.3616 14.8293 15.3909 14.8474 15.406C14.8581 15.4149 14.8742 15.4124 14.8815 15.4006C14.8901 15.3869 14.8822 15.3689 14.8664 15.3659Z" fill="white"/>
<path d="M14.8533 15.3925C14.833 15.3806 14.8414 15.3496 14.8649 15.3496C14.8776 15.3496 14.8879 15.3599 14.8879 15.3726C14.8879 15.3903 14.8686 15.4014 14.8533 15.3925Z" fill="white"/>
<path d="M14.8815 15.4126C14.8966 15.4303 14.9253 15.415 14.9189 15.3926C14.9155 15.3805 14.9026 15.3739 14.8908 15.378C14.8764 15.3831 14.8716 15.401 14.8815 15.4126Z" fill="white"/>
<path d="M14.9066 15.4014C14.9162 15.4225 14.8907 15.4419 14.873 15.4271C14.8646 15.4202 14.8627 15.408 14.8685 15.3988C14.8778 15.3842 14.8995 15.3858 14.9066 15.4014Z" fill="white"/>
<path d="M14.8583 15.4014C14.8488 15.4225 14.8743 15.4419 14.892 15.4271C14.9004 15.4202 14.9023 15.408 14.8965 15.3988C14.8872 15.3842 14.8655 15.3858 14.8583 15.4014Z" fill="white"/>
<path d="M14.8835 15.413C14.8682 15.4309 14.8394 15.4154 14.8457 15.3928C14.8491 15.3806 14.8621 15.3738 14.874 15.378C14.8887 15.383 14.8936 15.4013 14.8835 15.413Z" fill="white"/>
<path d="M11.5719 13.149C11.5681 13.1204 11.5278 13.1176 11.52 13.1453C11.5163 13.1587 11.5234 13.1727 11.5364 13.1775C11.5552 13.1844 11.5746 13.1688 11.5719 13.149Z" fill="white"/>
<path d="M11.5383 13.1493C11.5419 13.1208 11.5821 13.1178 11.5899 13.1454C11.5937 13.1587 11.5866 13.1727 11.5737 13.1775C11.555 13.1844 11.5357 13.169 11.5383 13.1493Z" fill="white"/>
<path d="M11.5914 13.1813C11.6167 13.1666 11.6063 13.1279 11.5771 13.1279C11.5613 13.1279 11.5485 13.1407 11.5485 13.1565C11.5485 13.1785 11.5724 13.1923 11.5914 13.1813Z" fill="white"/>
<path d="M11.5757 13.1488C11.6046 13.1432 11.622 13.1797 11.5995 13.1986C11.5862 13.2098 11.5661 13.2066 11.557 13.1919C11.5464 13.1749 11.5561 13.1526 11.5757 13.1488Z" fill="white"/>
<path d="M11.5349 13.1489C11.5061 13.1433 11.4887 13.1798 11.5113 13.1986C11.5246 13.2098 11.5447 13.2065 11.5537 13.1917C11.5642 13.1748 11.5545 13.1526 11.5349 13.1489Z" fill="white"/>
<path d="M11.5192 13.1813C11.4938 13.1667 11.5042 13.1279 11.5335 13.1279C11.5493 13.1279 11.5621 13.1407 11.5621 13.1565C11.5621 13.1786 11.5383 13.1923 11.5192 13.1813Z" fill="white"/>
<path d="M11.5543 13.2085C11.5733 13.2306 11.609 13.2114 11.6011 13.1833C11.5968 13.1681 11.5804 13.1597 11.5655 13.1652C11.5477 13.1717 11.5419 13.1941 11.5543 13.2085Z" fill="white"/>
<path d="M11.5865 13.1945C11.5983 13.2208 11.5664 13.2449 11.5443 13.2265C11.5338 13.2177 11.5315 13.2026 11.5387 13.1911C11.5503 13.1728 11.5776 13.1747 11.5865 13.1945Z" fill="white"/>
<path d="M11.5244 13.1942C11.5124 13.2207 11.5444 13.2451 11.5667 13.2266C11.5774 13.2178 11.5798 13.2025 11.5724 13.1908C11.5607 13.1725 11.5333 13.1744 11.5244 13.1942Z" fill="white"/>
<path d="M11.5565 13.2085C11.5374 13.2305 11.5017 13.2111 11.5098 13.1831C11.5142 13.1679 11.5305 13.1597 11.5453 13.1651C11.5632 13.1717 11.569 13.1941 11.5565 13.2085Z" fill="white"/>
<path d="M14.0456 12.7592C14.0425 12.7361 14.01 12.7336 14.0035 12.756C14.0004 12.7668 14.0061 12.7783 14.0166 12.7822C14.0319 12.7879 14.0477 12.7753 14.0456 12.7592Z" fill="white"/>
<path d="M14.0186 12.7592C14.0217 12.7361 14.0541 12.7336 14.0607 12.756C14.0638 12.7668 14.0581 12.7783 14.0475 12.7822C14.0323 12.7879 14.0164 12.7753 14.0186 12.7592Z" fill="white"/>
<path d="M14.0613 12.7863C14.0816 12.7744 14.0732 12.7434 14.0497 12.7434C14.037 12.7434 14.0267 12.7537 14.0267 12.7664C14.0267 12.7841 14.046 12.7952 14.0613 12.7863Z" fill="white"/>
<path d="M14.0477 12.7606C14.0709 12.756 14.085 12.7852 14.067 12.8004C14.0563 12.8095 14.0401 12.8069 14.0327 12.795C14.0243 12.7814 14.0321 12.7637 14.0477 12.7606Z" fill="white"/>
<path d="M14.0156 12.7606C13.9924 12.756 13.9784 12.7853 13.9964 12.8005C14.0071 12.8096 14.0233 12.807 14.0307 12.7951C14.0391 12.7815 14.0313 12.7637 14.0156 12.7606Z" fill="white"/>
<path d="M14.002 12.7862C13.9818 12.7744 13.9902 12.7434 14.0136 12.7434C14.0263 12.7434 14.0366 12.7537 14.0366 12.7664C14.0366 12.7841 14.0173 12.7952 14.002 12.7862Z" fill="white"/>
<path d="M14.0307 12.8072C14.046 12.8249 14.0746 12.8095 14.0682 12.7871C14.0647 12.7749 14.0517 12.7683 14.0398 12.7726C14.0255 12.7778 14.0208 12.7957 14.0307 12.8072Z" fill="white"/>
<path d="M14.0562 12.7957C14.0658 12.8168 14.0402 12.8363 14.0224 12.8214C14.014 12.8144 14.012 12.8023 14.0179 12.7931C14.0271 12.7784 14.049 12.7799 14.0562 12.7957Z" fill="white"/>
<path d="M14.0067 12.7957C13.9972 12.8169 14.0229 12.8364 14.0407 12.8216C14.0492 12.8145 14.0511 12.8022 14.0452 12.7929C14.0358 12.7783 14.0139 12.7799 14.0067 12.7957Z" fill="white"/>
<path d="M14.0321 12.8074C14.0169 12.8252 13.9882 12.8098 13.9945 12.7872C13.9979 12.775 14.011 12.7683 14.0229 12.7726C14.0374 12.7777 14.0422 12.7958 14.0321 12.8074Z" fill="white"/>
<path d="M13.0196 14.912C13.0151 14.8777 12.9667 14.8741 12.9573 14.9075C12.9527 14.9235 12.9612 14.9403 12.9768 14.9461C12.9993 14.9545 13.0227 14.9359 13.0196 14.912Z" fill="white"/>
<path d="M12.9794 14.912C12.9839 14.8777 13.0322 14.8741 13.0417 14.9075C13.0462 14.9235 13.0377 14.9403 13.0221 14.9461C12.9996 14.9545 12.9763 14.9359 12.9794 14.912Z" fill="white"/>
<path d="M13.0431 14.9513C13.0734 14.9339 13.061 14.8875 13.026 14.8875C13.0071 14.8875 12.9918 14.9028 12.9918 14.9217C12.9918 14.9479 13.0203 14.9644 13.0431 14.9513Z" fill="white"/>
<path d="M13.0252 14.9118C13.0599 14.9053 13.0807 14.9491 13.0536 14.9718C13.0377 14.9851 13.0138 14.9815 13.0026 14.9641C12.9895 14.9436 13.0013 14.9163 13.0252 14.9118Z" fill="white"/>
<path d="M12.9755 14.9119C12.9408 14.9053 12.92 14.9492 12.9472 14.9719C12.963 14.9851 12.987 14.9814 12.9981 14.9639C13.0111 14.9435 12.9993 14.9164 12.9755 14.9119Z" fill="white"/>
<path d="M12.9572 14.9513C12.9268 14.9339 12.9392 14.8875 12.9742 14.8875C12.9931 14.8875 13.0084 14.9028 13.0084 14.9217C13.0084 14.9479 12.98 14.9644 12.9572 14.9513Z" fill="white"/>
<path d="M12.9983 14.9835C13.0211 15.01 13.064 14.9869 13.0544 14.9532C13.0492 14.9349 13.0295 14.9249 13.0116 14.9315C12.9902 14.9395 12.9834 14.9663 12.9983 14.9835Z" fill="white"/>
<path d="M13.0367 14.966C13.051 14.9975 13.0129 15.0267 12.9862 15.0046C12.9735 14.9941 12.9706 14.9759 12.9794 14.962C12.9933 14.9401 13.0259 14.9424 13.0367 14.966Z" fill="white"/>
<path d="M12.9631 14.966C12.9488 14.9974 12.9869 15.0265 13.0135 15.0045C13.026 14.994 13.0289 14.976 13.0202 14.9622C13.0065 14.9403 12.9739 14.9425 12.9631 14.966Z" fill="white"/>
<path d="M13.0009 14.9837C12.978 15.0103 12.935 14.9872 12.9445 14.9534C12.9497 14.9349 12.9695 14.9249 12.9875 14.9315C13.0089 14.9395 13.0159 14.9664 13.0009 14.9837Z" fill="white"/>
<path d="M13.4551 14.0568C13.4513 14.0281 13.4109 14.025 13.4029 14.0529C13.399 14.0663 13.4061 14.0805 13.4192 14.0853C13.4381 14.0924 13.4577 14.0768 13.4551 14.0568Z" fill="white"/>
<path d="M13.4214 14.0565C13.4253 14.0277 13.4658 14.0248 13.4738 14.0528C13.4776 14.0663 13.4704 14.0804 13.4573 14.0853C13.4383 14.0924 13.4186 14.0766 13.4214 14.0565Z" fill="white"/>
<path d="M13.475 14.0903C13.5003 14.0757 13.4899 14.0369 13.4606 14.0369C13.4448 14.0369 13.4319 14.0497 13.4319 14.0655C13.4319 14.0876 13.4559 14.1014 13.475 14.0903Z" fill="white"/>
<path d="M13.4588 14.0573C13.4877 14.0519 13.5048 14.0884 13.4822 14.1071C13.469 14.118 13.4493 14.1149 13.4401 14.1005C13.4294 14.0835 13.4391 14.0611 13.4588 14.0573Z" fill="white"/>
<path d="M13.4176 14.0573C13.3888 14.0519 13.3716 14.0884 13.3943 14.1071C13.4074 14.118 13.4272 14.1149 13.4363 14.1005C13.4471 14.0835 13.4373 14.0611 13.4176 14.0573Z" fill="white"/>
<path d="M13.4016 14.0903C13.3763 14.0757 13.3867 14.0369 13.416 14.0369C13.4318 14.0369 13.4447 14.0497 13.4447 14.0655C13.4447 14.0876 13.4208 14.1014 13.4016 14.0903Z" fill="white"/>
<path d="M13.4368 14.1166C13.4559 14.1387 13.4917 14.1195 13.4838 14.0914C13.4795 14.076 13.4629 14.0676 13.4479 14.0732C13.4301 14.0799 13.4244 14.1022 13.4368 14.1166Z" fill="white"/>
<path d="M13.4685 14.1021C13.4804 14.1284 13.4485 14.1526 13.4264 14.1341C13.4161 14.1254 13.4137 14.1104 13.4208 14.099C13.4323 14.0806 13.4596 14.0824 13.4685 14.1021Z" fill="white"/>
<path d="M13.408 14.1019C13.3959 14.1282 13.4278 14.1526 13.45 14.1341C13.4605 14.1254 13.4629 14.1104 13.4557 14.0988C13.4443 14.0804 13.417 14.0822 13.408 14.1019Z" fill="white"/>
<path d="M13.4394 14.1166C13.4203 14.1387 13.3845 14.1193 13.3926 14.0912C13.397 14.0758 13.4135 14.0675 13.4284 14.0731C13.4462 14.0798 13.4519 14.1022 13.4394 14.1166Z" fill="white"/>
<path d="M13.0169 13.6678C13.0131 13.6391 12.9727 13.6362 12.9648 13.664C12.961 13.6774 12.9681 13.6915 12.9811 13.6964C13 13.7034 13.0196 13.6878 13.0169 13.6678Z" fill="white"/>
<path d="M12.9833 13.6679C12.9871 13.6392 13.0275 13.6361 13.0355 13.664C13.0394 13.6774 13.0323 13.6915 13.0192 13.6964C13.0003 13.7035 12.9807 13.6879 12.9833 13.6679Z" fill="white"/>
<path d="M13.0367 13.7011C13.0621 13.6863 13.0516 13.6475 13.0222 13.6475C13.0063 13.6475 12.9934 13.6604 12.9934 13.6763C12.9934 13.6985 13.0175 13.7123 13.0367 13.7011Z" fill="white"/>
<path d="M13.0204 13.6679C13.0491 13.6625 13.0662 13.6989 13.0437 13.7175C13.0306 13.7282 13.011 13.7252 13.0019 13.7109C12.9911 13.6941 13.0008 13.6716 13.0204 13.6679Z" fill="white"/>
<path d="M12.9793 13.6679C12.9506 13.6625 12.9335 13.6989 12.9561 13.7175C12.9691 13.7282 12.9887 13.7252 12.9978 13.7109C13.0086 13.6941 12.9989 13.6716 12.9793 13.6679Z" fill="white"/>
<path d="M12.9634 13.7011C12.938 13.6863 12.9485 13.6475 12.9779 13.6475C12.9938 13.6475 13.0067 13.6604 13.0067 13.6763C13.0067 13.6985 12.9826 13.7123 12.9634 13.7011Z" fill="white"/>
<path d="M12.9986 13.7268C13.0176 13.749 13.0535 13.7298 13.0455 13.7016C13.0411 13.6864 13.0247 13.678 13.0098 13.6835C12.992 13.6901 12.9862 13.7124 12.9986 13.7268Z" fill="white"/>
<path d="M13.0301 13.713C13.0421 13.7392 13.0103 13.7636 12.9881 13.7452C12.9776 13.7365 12.9752 13.7214 12.9824 13.7099C12.9938 13.6915 13.0211 13.6933 13.0301 13.713Z" fill="white"/>
<path d="M12.9691 13.713C12.9571 13.7393 12.989 13.7637 13.0113 13.7453C13.0219 13.7366 13.0243 13.7213 13.017 13.7097C13.0054 13.6914 12.9781 13.6932 12.9691 13.713Z" fill="white"/>
<path d="M13.0011 13.7268C12.982 13.749 12.9461 13.7296 12.9542 13.7015C12.9586 13.6863 12.9749 13.678 12.9898 13.6835C13.0077 13.69 13.0135 13.7124 13.0011 13.7268Z" fill="white"/>
<path d="M12.6316 14.0624C12.6286 14.0392 12.596 14.0367 12.5895 14.0591C12.5863 14.0701 12.5922 14.0817 12.603 14.0855C12.6182 14.0909 12.6337 14.0784 12.6316 14.0624Z" fill="white"/>
<path d="M12.6044 14.0622C12.6076 14.0391 12.6401 14.0368 12.6465 14.0593C12.6496 14.0702 12.6437 14.0817 12.633 14.0855C12.6178 14.0909 12.6022 14.0782 12.6044 14.0622Z" fill="white"/>
<path d="M12.6477 14.0888C12.668 14.0769 12.6596 14.0459 12.6361 14.0459C12.6234 14.0459 12.6131 14.0562 12.6131 14.0689C12.6131 14.0866 12.6323 14.0977 12.6477 14.0888Z" fill="white"/>
<path d="M12.6342 14.063C12.6574 14.0584 12.6715 14.0878 12.6534 14.1031C12.6428 14.1121 12.6266 14.1096 12.6191 14.0977C12.6106 14.0841 12.6184 14.0661 12.6342 14.063Z" fill="white"/>
<path d="M12.6018 14.063C12.5786 14.0584 12.5645 14.0878 12.5825 14.1031C12.5932 14.1121 12.6094 14.1096 12.6168 14.0977C12.6254 14.0841 12.6176 14.0661 12.6018 14.063Z" fill="white"/>
<path d="M12.5889 14.0888C12.5686 14.077 12.5769 14.0459 12.6005 14.0459C12.6132 14.0459 12.6235 14.0562 12.6235 14.0689C12.6235 14.0867 12.6043 14.0977 12.5889 14.0888Z" fill="white"/>
<path d="M12.6171 14.1097C12.6323 14.1274 12.6611 14.1121 12.6548 14.0896C12.6514 14.0773 12.6383 14.0705 12.6263 14.0748C12.6119 14.08 12.6071 14.098 12.6171 14.1097Z" fill="white"/>
<path d="M12.6428 14.0991C12.6523 14.1201 12.6269 14.1396 12.6091 14.1249C12.6006 14.1179 12.5987 14.1057 12.6045 14.0965C12.6138 14.0818 12.6356 14.0833 12.6428 14.0991Z" fill="white"/>
<path d="M12.5936 14.099C12.584 14.12 12.6094 14.1396 12.6273 14.1249C12.6358 14.1179 12.6378 14.1057 12.6319 14.0964C12.6227 14.0817 12.6008 14.0832 12.5936 14.099Z" fill="white"/>
<path d="M12.6189 14.1095C12.6037 14.1271 12.5751 14.1117 12.5815 14.0893C12.585 14.0772 12.598 14.0705 12.6098 14.0748C12.6242 14.08 12.6289 14.0979 12.6189 14.1095Z" fill="white"/>
<path d="M12.8188 14.3686C12.8164 14.3521 12.7932 14.3506 12.7887 14.3666C12.7865 14.3745 12.7907 14.3827 12.7985 14.3854C12.8094 14.3892 12.8204 14.3801 12.8188 14.3686Z" fill="white"/>
<path d="M12.7996 14.3689C12.8017 14.3523 12.825 14.3504 12.8298 14.3664C12.8322 14.3744 12.8279 14.3827 12.8201 14.3855C12.8092 14.3893 12.7981 14.3803 12.7996 14.3689Z" fill="white"/>
<path d="M12.829 14.3884C12.8435 14.38 12.8376 14.3579 12.8209 14.3579C12.8119 14.3579 12.8046 14.3652 12.8046 14.3742C12.8046 14.3868 12.8182 14.3946 12.829 14.3884Z" fill="white"/>
<path d="M12.8203 14.3702C12.8369 14.3669 12.847 14.3878 12.8341 14.3988C12.8264 14.4053 12.8148 14.4034 12.8095 14.3948C12.8036 14.3851 12.8092 14.3725 12.8203 14.3702Z" fill="white"/>
<path d="M12.7973 14.3702C12.7807 14.3669 12.7705 14.3879 12.7835 14.3989C12.7911 14.4054 12.8027 14.4036 12.8081 14.3951C12.8143 14.3853 12.8087 14.3724 12.7973 14.3702Z" fill="white"/>
<path d="M12.788 14.3884C12.7736 14.38 12.7795 14.3579 12.7962 14.3579C12.8052 14.3579 12.8125 14.3652 12.8125 14.3742C12.8125 14.3868 12.7989 14.3946 12.788 14.3884Z" fill="white"/>
<path d="M12.808 14.4032C12.819 14.4158 12.8394 14.4046 12.8347 14.3886C12.8321 14.3797 12.8225 14.3751 12.8139 14.3785C12.804 14.3825 12.801 14.3951 12.808 14.4032Z" fill="white"/>
<path d="M12.8267 14.3954C12.8336 14.4107 12.8152 14.4248 12.8022 14.4141C12.7961 14.409 12.7947 14.4001 12.799 14.3934C12.8058 14.3828 12.8216 14.384 12.8267 14.3954Z" fill="white"/>
<path d="M12.7913 14.3955C12.7845 14.4106 12.8028 14.4246 12.8156 14.414C12.8217 14.409 12.8231 14.4002 12.8188 14.3936C12.8122 14.383 12.7964 14.3841 12.7913 14.3955Z" fill="white"/>
<path d="M12.8098 14.4036C12.7987 14.4164 12.778 14.4052 12.7826 14.389C12.7851 14.3799 12.7949 14.3751 12.8036 14.3785C12.8138 14.3825 12.817 14.3954 12.8098 14.4036Z" fill="white"/>
<path d="M14.1515 15.8904C14.1477 15.8616 14.1072 15.8586 14.0992 15.8865C14.0953 15.9 14.1026 15.9142 14.1158 15.919C14.1346 15.9259 14.1541 15.9103 14.1515 15.8904Z" fill="white"/>
<path d="M14.1183 15.8903C14.1221 15.8616 14.1626 15.8587 14.1705 15.8866C14.1743 15.9 14.1671 15.9142 14.154 15.919C14.1351 15.9259 14.1156 15.9102 14.1183 15.8903Z" fill="white"/>
<path d="M14.1713 15.9238C14.1967 15.909 14.1863 15.8701 14.1568 15.8701C14.1409 15.8701 14.1281 15.883 14.1281 15.8989C14.1281 15.9211 14.1521 15.935 14.1713 15.9238Z" fill="white"/>
<path d="M14.1553 15.891C14.1842 15.8854 14.2015 15.922 14.1789 15.9408C14.1657 15.9517 14.1459 15.9486 14.1367 15.9341C14.126 15.9172 14.1357 15.8948 14.1553 15.891Z" fill="white"/>
<path d="M14.1142 15.891C14.0853 15.8854 14.068 15.922 14.0906 15.9408C14.1038 15.9517 14.1236 15.9486 14.1328 15.9341C14.1435 15.9172 14.1339 15.8948 14.1142 15.891Z" fill="white"/>
<path d="M14.0982 15.9239C14.0727 15.9091 14.0832 15.8701 14.1127 15.8701C14.1286 15.8701 14.1415 15.883 14.1415 15.8989C14.1415 15.9212 14.1174 15.935 14.0982 15.9239Z" fill="white"/>
<path d="M14.1333 15.9501C14.1526 15.9722 14.1884 15.9528 14.1804 15.9246C14.176 15.9092 14.1594 15.9008 14.1445 15.9064C14.1265 15.9131 14.1208 15.9356 14.1333 15.9501Z" fill="white"/>
<path d="M14.1652 15.9356C14.1772 15.9618 14.1454 15.9861 14.1232 15.9677C14.1127 15.959 14.1103 15.9438 14.1177 15.9322C14.1293 15.9142 14.1563 15.9161 14.1652 15.9356Z" fill="white"/>
<path d="M14.1039 15.9357C14.092 15.962 14.1239 15.9863 14.1461 15.9678C14.1567 15.959 14.159 15.9437 14.1516 15.9321C14.1399 15.9141 14.1128 15.9161 14.1039 15.9357Z" fill="white"/>
<path d="M14.1352 15.9498C14.1161 15.972 14.0803 15.9527 14.0882 15.9246C14.0926 15.9092 14.1091 15.9008 14.1241 15.9065C14.1419 15.9131 14.1476 15.9354 14.1352 15.9498Z" fill="white"/>
<path d="M14.4738 15.5126C14.4707 15.4895 14.4382 15.4871 14.4317 15.5094C14.4286 15.5202 14.4343 15.5317 14.4449 15.5356C14.4601 15.5414 14.476 15.5287 14.4738 15.5126Z" fill="white"/>
<path d="M14.4463 15.5126C14.4494 15.4895 14.4818 15.4871 14.4883 15.5094C14.4915 15.5202 14.4858 15.5317 14.4752 15.5356C14.4599 15.5414 14.4441 15.5287 14.4463 15.5126Z" fill="white"/>
<path d="M14.4883 15.5397C14.5085 15.5282 14.5004 15.4973 14.4771 15.4973C14.4646 15.4973 14.4545 15.5074 14.4545 15.52C14.4545 15.5373 14.4732 15.5482 14.4883 15.5397Z" fill="white"/>
<path d="M14.4766 15.514C14.4997 15.5096 14.5135 15.5387 14.4955 15.5537C14.485 15.5624 14.4693 15.56 14.4619 15.5486C14.4532 15.5351 14.4609 15.517 14.4766 15.514Z" fill="white"/>
<path d="M14.4432 15.514C14.4201 15.5095 14.4063 15.5387 14.4244 15.5538C14.4348 15.5625 14.4505 15.5601 14.4579 15.5488C14.4668 15.5352 14.4591 15.517 14.4432 15.514Z" fill="white"/>
<path d="M14.4313 15.5397C14.4111 15.5282 14.4192 15.4973 14.4425 15.4973C14.455 15.4973 14.4651 15.5074 14.4651 15.52C14.4651 15.5373 14.4464 15.5482 14.4313 15.5397Z" fill="white"/>
<path d="M14.4591 15.5602C14.4744 15.5779 14.5031 15.5624 14.4967 15.5399C14.4932 15.5275 14.4799 15.5208 14.4678 15.5254C14.4536 15.5308 14.4491 15.5487 14.4591 15.5602Z" fill="white"/>
<path d="M14.4844 15.5494C14.494 15.5704 14.4686 15.5899 14.4508 15.5753C14.4423 15.5684 14.4403 15.5561 14.4462 15.5469C14.4554 15.5322 14.4772 15.5337 14.4844 15.5494Z" fill="white"/>
<path d="M14.4353 15.5496C14.4258 15.5705 14.4512 15.5899 14.4689 15.5753C14.4774 15.5683 14.4793 15.5562 14.4735 15.5469C14.4643 15.5323 14.4424 15.5338 14.4353 15.5496Z" fill="white"/>
<path d="M14.4605 15.5599C14.4454 15.5776 14.4168 15.5624 14.423 15.5399C14.4265 15.5276 14.4398 15.5208 14.4518 15.5254C14.4659 15.5308 14.4703 15.5485 14.4605 15.5599Z" fill="white"/>
<path d="M13.8496 15.4064C13.8466 15.3834 13.8143 15.3809 13.8078 15.4032C13.8047 15.4139 13.8103 15.4252 13.8208 15.4292C13.8359 15.4349 13.8517 15.4224 13.8496 15.4064Z" fill="white"/>
<path d="M13.822 15.4059C13.8252 15.3827 13.8577 15.3803 13.8643 15.4028C13.8675 15.4137 13.8617 15.4252 13.851 15.4292C13.8356 15.4349 13.8197 15.4222 13.822 15.4059Z" fill="white"/>
<path d="M13.8651 15.4334C13.8854 15.4215 13.8769 15.3904 13.8534 15.3904C13.8406 15.3904 13.8303 15.4007 13.8303 15.4135C13.8303 15.4314 13.8497 15.4425 13.8651 15.4334Z" fill="white"/>
<path d="M13.852 15.4071C13.8752 15.4026 13.8892 15.432 13.8711 15.4472C13.8604 15.4561 13.8443 15.4536 13.8369 15.4418C13.8284 15.4281 13.8362 15.4101 13.852 15.4071Z" fill="white"/>
<path d="M13.819 15.4071C13.7958 15.4026 13.7818 15.4319 13.7998 15.4471C13.8105 15.4561 13.8267 15.4536 13.8341 15.4418C13.8426 15.4281 13.8348 15.4101 13.819 15.4071Z" fill="white"/>
<path d="M13.8059 15.4334C13.7856 15.4215 13.7941 15.3904 13.8176 15.3904C13.8304 15.3904 13.8408 15.4007 13.8408 15.4135C13.8408 15.4314 13.8213 15.4425 13.8059 15.4334Z" fill="white"/>
<path d="M13.835 15.4552C13.8505 15.4729 13.8792 15.4572 13.8727 15.4346C13.8692 15.4222 13.8558 15.4155 13.8438 15.4201C13.8294 15.4255 13.8249 15.4436 13.835 15.4552Z" fill="white"/>
<path d="M13.8598 15.4422C13.8694 15.4631 13.844 15.4827 13.8263 15.4679C13.8178 15.4609 13.8159 15.4487 13.8219 15.4395C13.8311 15.4251 13.8526 15.4266 13.8598 15.4422Z" fill="white"/>
<path d="M13.8114 15.4423C13.8018 15.4632 13.8272 15.4827 13.8449 15.4679C13.8533 15.4609 13.8552 15.4488 13.8492 15.4396C13.84 15.4252 13.8185 15.4267 13.8114 15.4423Z" fill="white"/>
<path d="M13.8363 15.455C13.821 15.4726 13.7923 15.4571 13.7988 15.4346C13.8023 15.4222 13.8156 15.4155 13.8276 15.4201C13.8419 15.4255 13.8463 15.4435 13.8363 15.455Z" fill="white"/>
<path d="M11.4984 15.2663C11.4938 15.232 11.4456 15.2285 11.4361 15.2618C11.4317 15.2776 11.44 15.2943 11.4553 15.3002C11.4779 15.3089 11.5016 15.2903 11.4984 15.2663Z" fill="white"/>
<path d="M11.4579 15.2664C11.4624 15.2321 11.5106 15.2285 11.5201 15.2617C11.5247 15.2776 11.5163 15.2943 11.5009 15.3002C11.4784 15.3089 11.4547 15.2903 11.4579 15.2664Z" fill="white"/>
<path d="M11.5212 15.3056C11.5515 15.2884 11.5393 15.2422 11.5045 15.2422C11.4857 15.2422 11.4705 15.2574 11.4705 15.2761C11.4705 15.3022 11.4986 15.3185 11.5212 15.3056Z" fill="white"/>
<path d="M11.503 15.2667C11.5376 15.2602 11.5581 15.304 11.531 15.3264C11.5151 15.3395 11.4914 15.3357 11.4804 15.3183C11.4677 15.298 11.4794 15.2712 11.503 15.2667Z" fill="white"/>
<path d="M11.4532 15.2667C11.4186 15.2602 11.3981 15.304 11.4252 15.3264C11.4411 15.3395 11.4648 15.3357 11.4757 15.3183C11.4885 15.298 11.4768 15.2712 11.4532 15.2667Z" fill="white"/>
<path d="M11.4348 15.3056C11.4045 15.2884 11.4168 15.2422 11.4516 15.2422C11.4704 15.2422 11.4856 15.2574 11.4856 15.2761C11.4856 15.3022 11.4575 15.3185 11.4348 15.3056Z" fill="white"/>
<path d="M11.477 15.3378C11.5001 15.3643 11.5432 15.3411 11.5336 15.3072C11.5284 15.2885 11.5082 15.2784 11.4901 15.2854C11.4688 15.2936 11.462 15.3205 11.477 15.3378Z" fill="white"/>
<path d="M11.5143 15.32C11.5286 15.3515 11.4905 15.3807 11.4638 15.3586C11.4511 15.3481 11.4482 15.3299 11.457 15.316C11.4709 15.2941 11.5035 15.2964 11.5143 15.32Z" fill="white"/>
<path d="M11.4407 15.32C11.4264 15.3517 11.4647 15.3809 11.4914 15.3587C11.5041 15.3482 11.507 15.3298 11.4981 15.3159C11.4841 15.294 11.4514 15.2964 11.4407 15.32Z" fill="white"/>
<path d="M11.479 15.3376C11.456 15.3641 11.413 15.3408 11.4227 15.307C11.4279 15.2885 11.448 15.2784 11.466 15.2854C11.4873 15.2936 11.4939 15.3204 11.479 15.3376Z" fill="white"/>
<path d="M13.0068 16.3791C13.0053 16.3674 12.9888 16.3662 12.9856 16.3775C12.984 16.3829 12.9869 16.3886 12.9921 16.3907C12.9998 16.3937 13.0079 16.3873 13.0068 16.3791Z" fill="white"/>
<path d="M12.9927 16.3789C12.9943 16.3671 13.0109 16.3658 13.0143 16.3773C13.0159 16.3828 13.013 16.3887 13.0076 16.3907C12.9998 16.3937 12.9916 16.3872 12.9927 16.3789Z" fill="white"/>
<path d="M13.014 16.3921C13.0243 16.3863 13.0201 16.3706 13.0083 16.3706C13.002 16.3706 12.9968 16.3758 12.9968 16.3821C12.9968 16.3909 13.0063 16.3965 13.014 16.3921Z" fill="white"/>
<path d="M13.0083 16.3788C13.02 16.3766 13.027 16.3915 13.0178 16.3991C13.0123 16.4035 13.0042 16.4022 13.0006 16.3962C12.9964 16.3893 13.0004 16.3803 13.0083 16.3788Z" fill="white"/>
<path d="M12.9922 16.3788C12.9805 16.3766 12.9735 16.3914 12.9827 16.399C12.9881 16.4035 12.9962 16.4022 12.9999 16.3963C13.0043 16.3894 13.0003 16.3802 12.9922 16.3788Z" fill="white"/>
<path d="M12.9864 16.3921C12.9762 16.3863 12.9803 16.3706 12.9921 16.3706C12.9985 16.3706 13.0036 16.3758 13.0036 16.3821C13.0036 16.3909 12.9941 16.3965 12.9864 16.3921Z" fill="white"/>
<path d="M12.9993 16.403C13.007 16.412 13.0216 16.4043 13.0185 16.3928C13.0168 16.3865 13.0101 16.383 13.0039 16.3853C12.9966 16.388 12.9943 16.3971 12.9993 16.403Z" fill="white"/>
<path d="M13.0118 16.3976C13.0165 16.4081 13.0038 16.4177 12.995 16.4103C12.9909 16.4068 12.99 16.4009 12.9928 16.3963C12.9974 16.389 13.0083 16.3897 13.0118 16.3976Z" fill="white"/>
<path d="M12.9879 16.3975C12.9831 16.408 12.9959 16.4177 13.0047 16.4103C13.0089 16.4068 13.0098 16.4008 13.007 16.3963C13.0024 16.3889 12.9915 16.3896 12.9879 16.3975Z" fill="white"/>
<path d="M13.0007 16.4028C12.993 16.4117 12.9785 16.4039 12.9818 16.3926C12.9835 16.3864 12.9902 16.383 12.9962 16.3853C13.0034 16.388 13.0057 16.397 13.0007 16.4028Z" fill="white"/>
<rect x="0.270833" y="4.60409" width="25.4583" height="16.7917" rx="1.89583" stroke="#7F7F7F" stroke-width="0.541667"/>
</g>
<defs>
<clipPath id="clip0_17015_110062">
<rect width="26" height="26" fill="white"/>
</clipPath>
</defs>
</svg>
