<svg width="26" height="26" viewBox="0 0 26 26" fill="none" xmlns="http://www.w3.org/2000/svg">
<g clip-path="url(#clip0_17015_110064)">
<path d="M6.21325 4.33325H2.16667C0.97005 4.33325 0 5.3033 0 6.49992V19.4999C0 20.6965 0.970049 21.6666 2.16667 21.6666H6.21325V4.33325Z" fill="#EA0020"/>
<path d="M23.8333 4.33325H20.2222V21.6666H23.8333C25.0299 21.6666 26 20.6965 26 19.4999V6.49992C26 5.3033 25.0299 4.33325 23.8333 4.33325Z" fill="#EA0020"/>
<path d="M20.1988 4.33325H6.21317V21.6666H20.1988V4.33325Z" fill="white"/>
<path d="M13.2058 6.58105L12.2899 8.58387C12.1861 8.80151 11.9996 8.78134 11.8134 8.65921L11.1504 8.2569L11.6446 11.3337C11.7486 11.8951 11.4148 11.8951 11.2505 11.6524L10.0931 10.1336L9.90508 10.9043C9.89058 10.9663 9.85563 11.0196 9.80736 11.0536C9.75908 11.0875 9.70112 11.0995 9.64528 11.087L8.18172 10.7265L8.56627 12.3644C8.64857 12.7288 8.71244 12.8805 8.48308 12.9765L7.96155 13.2632L10.4809 15.6624C10.5317 15.7104 10.5693 15.7735 10.5896 15.8445C10.6098 15.9155 10.6118 15.9915 10.5954 16.0637L10.3747 16.9122C11.2421 16.795 12.0202 16.6901 12.8874 16.5729C12.9644 16.5719 13.0924 16.6492 13.0918 16.7532L12.9767 19.8605H13.3984L13.3321 16.7591C13.3314 16.6556 13.4474 16.5719 13.5247 16.5729C14.3919 16.6901 15.1697 16.795 16.0373 16.9122L15.8167 16.0637C15.8002 15.9915 15.8023 15.9155 15.8225 15.8445C15.8427 15.7735 15.8804 15.7104 15.9311 15.6624L18.4505 13.2632L17.9288 12.9765C17.6992 12.8805 17.7635 12.7288 17.8458 12.3644L18.2301 10.7265L16.7668 11.087C16.711 11.0995 16.653 11.0876 16.6047 11.0536C16.5564 11.0197 16.5215 10.9663 16.507 10.9043L16.3188 10.1336L15.1616 11.6524C14.9968 11.8951 14.6635 11.8951 14.7674 11.3337L15.2617 8.2569L14.5985 8.65921C14.4125 8.78134 14.2259 8.80151 14.1222 8.58387L13.2058 6.58105Z" fill="#EA0020"/>
<rect x="0.270833" y="4.60409" width="25.4583" height="16.7917" rx="1.89583" stroke="#7F7F7F" stroke-width="0.541667"/>
</g>
<defs>
<clipPath id="clip0_17015_110064">
<rect width="26" height="26" fill="white"/>
</clipPath>
</defs>
</svg>
