<svg width="26" height="26" viewBox="0 0 26 26" fill="none" xmlns="http://www.w3.org/2000/svg">
<g clip-path="url(#clip0_29826_19329)">
<g clip-path="url(#clip1_29826_19329)">
<rect y="4.33325" width="26" height="17.3333" rx="2.16667" fill="white"/>
<path d="M26 4.33325H0V21.6666H26V4.33325Z" fill="white"/>
<path d="M13.3787 18.9708C13.3758 18.968 13.37 18.968 13.37 18.9651L13.3671 18.9622C13.3498 18.9477 13.3353 18.9304 13.3209 18.916C13.2833 18.8726 13.2313 18.8091 13.1851 18.7513C13.0956 18.6386 13.0204 18.5433 13.006 18.5231L12.9829 18.4942L12.7576 18.4248L12.5929 18.3497L12.6796 18.2515L12.98 18.3815L13.2053 18.4277L13.6213 18.734C13.6213 18.734 13.5607 18.7831 13.5029 18.838C13.4769 18.8611 13.4422 18.8928 13.4191 18.9188C13.4104 18.9304 13.4018 18.9391 13.3931 18.9506C13.3873 18.9535 13.3816 18.9622 13.3787 18.9708ZM11.8389 18.5086C11.6367 18.5057 11.4373 18.4508 11.264 18.3468C11.2842 18.3122 11.3131 18.2804 11.3478 18.2573C11.4027 18.2168 11.5038 18.1677 11.6684 18.1677H11.6713C11.8649 18.1677 12.1018 18.2342 12.3762 18.3642C12.2115 18.4595 12.0267 18.5115 11.8389 18.5086ZM10.9895 18.3208C10.9549 18.3208 10.9231 18.3064 10.8971 18.2833C10.8769 18.2602 10.8624 18.2313 10.8567 18.1995C10.848 18.1591 10.8451 18.1186 10.8451 18.0782C10.8595 18.0724 10.874 18.0695 10.8913 18.0666H10.8942C10.9664 18.0666 11.0242 18.1302 11.0473 18.1908C11.0618 18.2197 11.0647 18.2486 11.056 18.2804C11.0444 18.3064 11.0184 18.3237 10.9895 18.3208ZM12.4831 18.1475C11.9804 18.0753 11.7695 17.8933 11.68 17.7546C11.6222 17.6708 11.5962 17.5697 11.6049 17.4657C11.6309 17.46 11.6569 17.4571 11.6829 17.4571C11.8129 17.46 12.1538 17.5264 12.4831 18.1475ZM11.4547 18.0493C11.2409 18.0493 11.0762 18.0117 10.9693 17.9395C10.9231 17.9106 10.8855 17.8702 10.8624 17.8211C10.8538 17.8037 10.848 17.7835 10.8451 17.7633C10.9173 17.7344 10.9924 17.7171 11.0704 17.7171C11.082 17.7171 11.0935 17.7171 11.1051 17.7171C11.2698 17.7171 11.5211 17.772 11.7869 18.0291C11.6771 18.0406 11.5644 18.0493 11.4547 18.0493ZM10.4175 18.0088C10.1922 18.0088 9.88021 17.9395 9.68665 17.746C9.83399 17.7113 9.98421 17.6911 10.1344 17.6853C10.1489 17.6853 10.1633 17.6853 10.1778 17.6853C10.3887 17.6853 10.5504 17.7257 10.6602 17.8066C10.6891 17.824 10.7122 17.8528 10.7238 17.8875C10.7267 17.9135 10.7151 17.9366 10.692 17.9482C10.6429 17.9857 10.5562 18.0031 10.4349 18.006L10.4175 18.0088ZM9.68377 17.6333C9.65488 17.6333 9.62888 17.6217 9.61154 17.5986C9.59421 17.5784 9.58554 17.5524 9.57977 17.5264C9.5711 17.4917 9.56821 17.4571 9.5711 17.4195C9.58265 17.4137 9.59421 17.4108 9.60577 17.4108C9.63465 17.4108 9.66065 17.4253 9.68088 17.4455C9.70399 17.4657 9.71843 17.4917 9.72999 17.5206C9.74154 17.5437 9.74154 17.5726 9.73577 17.5957C9.7271 17.6188 9.70688 17.6333 9.68377 17.6333ZM11.3767 17.5957C11.342 17.5957 11.3102 17.5813 11.2842 17.5582C11.264 17.5351 11.2495 17.5062 11.2438 17.4744C11.2351 17.434 11.2322 17.3935 11.2322 17.3531C11.2467 17.3473 11.2611 17.3444 11.2784 17.3415H11.2813C11.3535 17.3415 11.4113 17.4051 11.4344 17.4657C11.4489 17.4946 11.4518 17.5235 11.4431 17.5553C11.4315 17.5813 11.4055 17.5957 11.3767 17.5957ZM10.5533 17.5611C10.0998 17.5437 9.86288 17.4166 9.74443 17.3097C9.69532 17.2664 9.65199 17.2115 9.6231 17.1537C9.61154 17.1306 9.60288 17.1075 9.5971 17.0844C9.63465 17.0728 9.67221 17.0671 9.70977 17.0671H9.72132C9.87154 17.0642 10.1835 17.1306 10.5533 17.5611ZM11.0473 17.5148C10.6804 17.46 10.4753 17.3011 10.3655 17.1797C10.2991 17.1075 10.2471 17.0208 10.2153 16.9284C10.2529 16.9197 10.2904 16.914 10.328 16.914C10.3338 16.914 10.3367 16.914 10.3424 16.914C10.3482 16.914 10.354 16.914 10.3598 16.914C10.5418 16.9197 10.874 17.0006 11.0473 17.5148ZM9.16954 17.3386C9.05399 17.3386 8.93843 17.3242 8.82287 17.2982C8.63221 17.2491 8.54843 17.1768 8.51376 17.1248C8.49932 17.1017 8.48776 17.0786 8.48487 17.0526C8.48198 17.0411 8.48198 17.0324 8.48487 17.0208C8.5831 16.9977 8.68421 16.9833 8.78821 16.9833C8.79399 16.9833 8.80265 16.9833 8.80843 16.9833C8.89221 16.9833 8.9731 16.992 9.05687 17.0064C9.24176 17.044 9.40643 17.148 9.52199 17.2982C9.40354 17.3271 9.2851 17.3415 9.16954 17.3386ZM10.016 17.0324C9.98132 17.0324 9.94954 17.0208 9.92354 16.9948C9.90332 16.9717 9.88888 16.9428 9.8831 16.9111C9.87443 16.8706 9.87154 16.8302 9.87154 16.7897C9.88599 16.784 9.90043 16.7811 9.91777 16.7782H9.92065C9.99288 16.7782 10.0507 16.8417 10.0738 16.9024C10.0882 16.9284 10.0882 16.9602 10.0795 16.9891C10.0709 17.018 10.0449 17.0324 10.016 17.0324ZM9.37754 16.9428C9.25621 16.9082 9.14065 16.8591 9.03087 16.7926C8.87199 16.6944 8.67554 16.5182 8.64954 16.2495C8.6611 16.2466 8.67265 16.2466 8.6871 16.2437C8.68999 16.2437 8.69287 16.2437 8.69576 16.2437C8.74487 16.2437 8.84021 16.2582 8.95865 16.3477C9.11465 16.4633 9.25332 16.6626 9.37754 16.9428ZM9.79643 16.9284C9.69821 16.8822 9.60577 16.8244 9.52199 16.7522C9.30821 16.5702 9.14354 16.3391 9.03954 16.0791C9.06554 16.0675 9.09443 16.0588 9.12332 16.0588C9.12621 16.0588 9.1291 16.0588 9.13199 16.0588C9.13488 16.0588 9.14065 16.0588 9.14643 16.0588C9.21576 16.0617 9.32265 16.0906 9.4411 16.2177C9.57399 16.3622 9.69243 16.602 9.79643 16.9284ZM8.71599 16.8966C8.57732 16.8966 8.52821 16.8215 8.51376 16.7897C8.49932 16.7551 8.49354 16.7204 8.49643 16.6828C8.51954 16.6771 8.54265 16.6742 8.56576 16.6742H8.57154C8.66399 16.6713 8.75065 16.7117 8.80554 16.784C8.81421 16.7955 8.83443 16.8331 8.8171 16.862C8.80265 16.8851 8.76799 16.8966 8.71599 16.8966ZM8.40687 16.5066C8.29998 16.5066 8.19021 16.498 8.08621 16.4777C7.96198 16.4546 7.89265 16.3506 7.85509 16.264C7.82909 16.2062 7.81176 16.1455 7.80309 16.082C8.18732 16.0935 8.36932 16.2062 8.4531 16.2986C8.5051 16.3535 8.53687 16.4228 8.54554 16.498C8.54265 16.5008 8.48776 16.5066 8.40687 16.5066ZM8.80554 16.108C8.80554 16.108 8.76221 16.0531 8.71887 15.9866C8.67265 15.9173 8.63221 15.8422 8.63221 15.7815C8.63221 15.7237 8.61776 15.5995 8.6091 15.5331C8.59754 15.4464 8.58887 15.3742 8.58598 15.3655C8.59465 15.3684 8.82576 15.4551 8.82576 15.6717C8.82576 15.8884 8.80554 16.1051 8.80554 16.108ZM8.50798 16.0877C8.5051 16.0877 8.50221 16.0877 8.49932 16.0877C8.42998 16.0762 8.31154 16.0242 8.17865 15.9491C8.03132 15.8653 7.91287 15.7757 7.84354 15.6948C7.77998 15.6226 7.74243 15.5071 7.73087 15.3568C7.72509 15.2875 7.72798 15.2182 7.73376 15.1488C7.74532 15.146 7.75976 15.1431 7.77132 15.1431C7.82332 15.1431 7.87532 15.1662 7.95043 15.2182C8.01687 15.2644 8.08043 15.3193 8.13821 15.3771C8.21043 15.4493 8.27976 15.5273 8.34621 15.6082C8.35487 15.6226 8.41843 15.7411 8.47043 15.8566C8.49643 15.9086 8.51665 15.9664 8.52821 16.0213C8.53398 16.0386 8.53398 16.056 8.52821 16.0733C8.52532 16.0791 8.52243 16.082 8.51665 16.0848C8.51665 16.0877 8.51087 16.0877 8.50798 16.0877Z" fill="#4E5B31"/>
<path d="M12.6218 18.9708C12.6247 18.968 12.6305 18.968 12.6305 18.9651L12.6334 18.9622C12.6507 18.9477 12.6652 18.9304 12.6796 18.916C12.7172 18.8726 12.7692 18.8091 12.8154 18.7513C12.9049 18.6386 12.98 18.5433 12.9945 18.5231L13.0176 18.4942L13.2429 18.4248L13.4076 18.3497L13.3209 18.2515L13.0205 18.3815L12.7952 18.4277L12.3792 18.734C12.3792 18.734 12.4398 18.7831 12.4976 18.838C12.5236 18.8611 12.5583 18.8928 12.5814 18.9188C12.59 18.9304 12.5987 18.9391 12.6074 18.9506C12.6132 18.9535 12.6189 18.9622 12.6218 18.9708ZM14.1616 18.5086C14.3638 18.5057 14.5632 18.4508 14.7365 18.3468C14.7163 18.3122 14.6874 18.2804 14.6527 18.2573C14.5978 18.2168 14.4967 18.1677 14.332 18.1677H14.3292C14.1356 18.1677 13.8987 18.2342 13.6243 18.3642C13.7889 18.4595 13.9738 18.5115 14.1616 18.5086ZM15.0109 18.3208C15.0456 18.3208 15.0774 18.3064 15.1034 18.2833C15.1236 18.2602 15.138 18.2313 15.1438 18.1995C15.1525 18.1591 15.1554 18.1186 15.1554 18.0782C15.1409 18.0724 15.1265 18.0695 15.1092 18.0666H15.1063C15.034 18.0666 14.9763 18.1302 14.9531 18.1908C14.9387 18.2197 14.9358 18.2486 14.9445 18.2804C14.956 18.3064 14.982 18.3237 15.0109 18.3208ZM13.5174 18.1475C14.02 18.0753 14.2309 17.8933 14.3205 17.7546C14.3783 17.6708 14.4043 17.5697 14.3956 17.4657C14.3696 17.46 14.3436 17.4571 14.3176 17.4571C14.1876 17.46 13.8467 17.5264 13.5174 18.1475ZM14.5458 18.0493C14.7596 18.0493 14.9243 18.0117 15.0312 17.9395C15.0774 17.9106 15.1149 17.8702 15.138 17.8211C15.1467 17.8037 15.1525 17.7835 15.1554 17.7633C15.0831 17.7344 15.008 17.7171 14.93 17.7171C14.9185 17.7171 14.9069 17.7171 14.8954 17.7171C14.7307 17.7171 14.4794 17.772 14.2136 18.0291C14.3234 18.0406 14.436 18.0493 14.5458 18.0493ZM15.5829 18.0088C15.8083 18.0088 16.1203 17.9395 16.3138 17.746C16.1665 17.7113 16.0163 17.6911 15.866 17.6853C15.8516 17.6853 15.8372 17.6853 15.8227 17.6853C15.6118 17.6853 15.45 17.7257 15.3403 17.8066C15.3114 17.824 15.2883 17.8528 15.2767 17.8875C15.2738 17.9135 15.2854 17.9366 15.3085 17.9482C15.3576 17.9857 15.4443 18.0031 15.5656 18.006L15.5829 18.0088ZM16.3167 17.6333C16.3456 17.6333 16.3716 17.6217 16.3889 17.5986C16.4063 17.5784 16.4149 17.5524 16.4207 17.5264C16.4294 17.4917 16.4323 17.4571 16.4294 17.4195C16.4178 17.4137 16.4063 17.4108 16.3947 17.4108C16.3658 17.4108 16.3398 17.4253 16.3196 17.4455C16.2965 17.4657 16.282 17.4917 16.2705 17.5206C16.2589 17.5437 16.2589 17.5726 16.2647 17.5957C16.2734 17.6188 16.2936 17.6333 16.3167 17.6333ZM14.6238 17.5957C14.6585 17.5957 14.6903 17.5813 14.7163 17.5582C14.7365 17.5351 14.7509 17.5062 14.7567 17.4744C14.7654 17.434 14.7683 17.3935 14.7683 17.3531C14.7538 17.3473 14.7394 17.3444 14.722 17.3415H14.7192C14.6469 17.3415 14.5892 17.4051 14.566 17.4657C14.5516 17.4946 14.5487 17.5235 14.5574 17.5553C14.5689 17.5813 14.5949 17.5957 14.6238 17.5957ZM15.4472 17.5611C15.9007 17.5437 16.1376 17.4166 16.256 17.3097C16.3052 17.2664 16.3485 17.2115 16.3774 17.1537C16.3889 17.1306 16.3976 17.1075 16.4034 17.0844C16.3658 17.0728 16.3283 17.0671 16.2907 17.0671H16.2792C16.1289 17.0642 15.8169 17.1306 15.4472 17.5611ZM14.956 17.5148C15.3229 17.46 15.528 17.3011 15.6378 17.1797C15.7043 17.1075 15.7563 17.0208 15.788 16.9284C15.7505 16.9197 15.7129 16.914 15.6754 16.914C15.6696 16.914 15.6667 16.914 15.6609 16.914C15.6551 16.914 15.6494 16.914 15.6436 16.914C15.4587 16.9197 15.1265 17.0006 14.956 17.5148ZM16.8338 17.3386C16.9494 17.3386 17.0649 17.3242 17.1805 17.2982C17.3712 17.2491 17.4549 17.1768 17.4896 17.1248C17.504 17.1017 17.5156 17.0786 17.5185 17.0526C17.5214 17.0411 17.5214 17.0324 17.5185 17.0208C17.4203 16.9977 17.3192 16.9833 17.2152 16.9833C17.2094 16.9833 17.2007 16.9833 17.1949 16.9833C17.1112 16.9833 17.0303 16.992 16.9465 17.0064C16.7616 17.044 16.5969 17.148 16.4814 17.2982C16.5969 17.3271 16.7154 17.3415 16.8338 17.3386ZM15.9845 17.0324C16.0192 17.0324 16.0509 17.0208 16.0769 16.9948C16.0972 16.9717 16.1116 16.9428 16.1174 16.9111C16.126 16.8706 16.1289 16.8302 16.1289 16.7897C16.1145 16.784 16.1 16.7811 16.0827 16.7782H16.0798C16.0076 16.7782 15.9498 16.8417 15.9267 16.9024C15.9123 16.9284 15.9123 16.9602 15.9209 16.9891C15.9296 17.018 15.9556 17.0324 15.9845 17.0324ZM16.6229 16.9428C16.7443 16.9082 16.8598 16.8591 16.9696 16.7926C17.1285 16.6944 17.3249 16.5182 17.3509 16.2495C17.3394 16.2466 17.3278 16.2466 17.3134 16.2437C17.3105 16.2437 17.3076 16.2437 17.3047 16.2437C17.2556 16.2437 17.1603 16.2582 17.0418 16.3477C16.8858 16.4633 16.7472 16.6626 16.6229 16.9428ZM16.204 16.9284C16.3023 16.8822 16.3947 16.8244 16.4785 16.7522C16.6923 16.5702 16.8569 16.3391 16.9609 16.0791C16.9349 16.0675 16.906 16.0588 16.8772 16.0588C16.8743 16.0588 16.8714 16.0588 16.8685 16.0588C16.8656 16.0588 16.8598 16.0588 16.854 16.0588C16.7847 16.0617 16.6778 16.0906 16.5594 16.2177C16.4265 16.3622 16.308 16.602 16.204 16.9284ZM17.2845 16.8966C17.4232 16.8966 17.4723 16.8215 17.4867 16.7897C17.5012 16.7551 17.5069 16.7204 17.504 16.6828C17.4809 16.6771 17.4578 16.6742 17.4347 16.6742H17.4289C17.3365 16.6713 17.2498 16.7117 17.1949 16.784C17.1863 16.7955 17.166 16.8331 17.1834 16.862C17.1978 16.8851 17.2325 16.8966 17.2845 16.8966ZM17.5936 16.5066C17.7005 16.5066 17.8103 16.498 17.9143 16.4777C18.0385 16.4546 18.1078 16.3506 18.1454 16.264C18.1714 16.2062 18.1887 16.1455 18.1974 16.082C17.8132 16.0935 17.6312 16.2062 17.5474 16.2986C17.4954 16.3535 17.4636 16.4228 17.4549 16.498C17.4578 16.5008 17.5127 16.5066 17.5936 16.5066ZM17.1949 16.108C17.1949 16.108 17.2383 16.0531 17.2816 15.9866C17.3278 15.9173 17.3683 15.8422 17.3683 15.7815C17.3683 15.7237 17.3827 15.5995 17.3914 15.5331C17.4029 15.4464 17.4116 15.3742 17.4145 15.3655C17.4058 15.3684 17.1747 15.4551 17.1747 15.6717C17.1747 15.8884 17.1949 16.1051 17.1949 16.108ZM17.4925 16.0877C17.4954 16.0877 17.4983 16.0877 17.5012 16.0877C17.5705 16.0762 17.6889 16.0242 17.8218 15.9491C17.9692 15.8653 18.0876 15.7757 18.1569 15.6948C18.2205 15.6226 18.258 15.5071 18.2696 15.3568C18.2754 15.2875 18.2725 15.2182 18.2667 15.1488C18.2552 15.146 18.2407 15.1431 18.2292 15.1431C18.1772 15.1431 18.1252 15.1662 18.05 15.2182C17.9836 15.2644 17.92 15.3193 17.8623 15.3771C17.79 15.4493 17.7207 15.5273 17.6543 15.6082C17.6456 15.6226 17.582 15.7411 17.53 15.8566C17.504 15.9086 17.4838 15.9664 17.4723 16.0213C17.4665 16.0386 17.4665 16.056 17.4723 16.0733C17.4752 16.0791 17.478 16.082 17.4838 16.0848C17.4838 16.0877 17.4896 16.0877 17.4925 16.0877Z" fill="#4E5B31"/>
<path d="M21.0052 7.33765L20.9359 7.36365L20.9099 7.3752L20.8261 7.36942L20.7481 7.40698L20.6123 7.49942L20.6066 7.5052L20.5546 7.51965L20.5083 7.49942L20.4823 7.51098L20.4737 7.56587L20.4477 7.60631L20.4159 7.62942L20.3061 7.64098L20.2137 7.6872L20.0923 7.65542L20.0375 7.67854L19.919 7.78542L19.8583 7.81431H19.8381L19.7572 7.81142L19.7226 7.82298L19.6706 7.87209L19.5752 7.88076L19.5463 7.90098L19.5001 7.99631L19.4481 8.04831L19.4192 8.05409L19.3875 8.04254L19.3643 8.04542L19.3528 8.10609L19.3297 8.13209L19.2661 8.1552L19.2141 8.19854L19.1679 8.22165L19.1072 8.21876H19.0928L19.0321 8.25054L18.9195 8.2592L18.8732 8.30253L18.8617 8.3112L18.8386 8.32565L18.8039 8.34587L18.7952 8.35165L18.7519 8.34298L18.6999 8.3632L18.6797 8.33142L18.645 8.35165L18.5988 8.35454L18.541 8.32854L18.4977 8.30831L18.4659 8.31409L18.4543 8.36898V8.37476L18.4197 8.42098L18.3561 8.45854L18.3475 8.47009L18.2752 8.56253L18.1395 8.70698L18.0239 8.76476L17.9055 8.80231L17.8217 8.87165L17.6021 8.98142L17.2555 9.15476L17.1832 9.17787L17.0821 9.1952L16.9001 9.26165L16.7412 9.31076L16.7326 9.31365L16.7008 9.32231L16.4755 9.39165L16.3715 9.38009L16.3079 9.4032L16.1461 9.38587L16.0335 9.38876L15.9612 9.4032L15.8284 9.46676L15.603 9.57653L15.5279 9.64587L15.4124 9.70653L15.2766 9.74987V9.69209V9.6892L15.2304 9.70365L15.1957 9.7152L15.0859 9.73253H15.0252L14.9877 9.72098L14.9819 9.72387L14.7566 9.79898L14.5052 9.82209L14.3781 9.86253L14.2828 9.85965L14.225 9.87698L14.1095 9.89142L14.069 9.87987L14.0604 9.87698L13.7195 9.89142L13.5635 9.87409L13.4884 9.89142L13.3641 9.85098L13.1821 9.83076L13.1388 9.8192L13.0435 9.79031L13.0001 9.81631L12.9684 9.8192L12.8904 9.79031H12.8615L12.7979 9.81342L12.769 9.7932L12.7344 9.7672L12.6535 9.75565L12.6044 9.7152L12.3328 9.74987L12.2577 9.72676L12.0092 9.65453L11.9688 9.65742L11.9197 9.69498L11.8475 9.72098L11.7839 9.73831L11.6972 9.7412L11.5961 9.7152L11.4921 9.66609L11.4546 9.65742L11.3679 9.66609L11.3419 9.66898L11.183 9.5852L10.9808 9.45809L10.8421 9.39165L10.7901 9.38298L10.7844 9.40898L10.8104 9.48987L10.819 9.57076L10.8161 9.64587V9.69209L10.8277 9.73253L10.8768 9.78742L10.897 9.84231L10.9115 9.99542V10.1514L10.8884 10.3999L10.8797 10.4374L10.8508 10.5645L10.8248 10.683L10.7237 10.995L10.6948 11.0325L10.6255 11.0788L10.4695 11.1856L10.3539 11.2521L10.3164 11.2665H10.2268L10.169 11.2636L10.0968 11.2232L10.0246 11.2059L9.93213 11.1394L9.82813 11.1192L9.71546 11.0528L9.68658 11.0181L9.62591 11.0123L9.53924 10.9863L9.50747 10.9776L9.48435 10.9719L9.37458 10.969L9.27347 10.9228L9.21858 10.9112L9.14635 10.9083L9.06835 10.943L9.02791 10.9603L8.9788 10.9401L8.94413 10.943L8.90369 11.0036L8.89791 11.0123L8.86902 11.0268H8.83435H8.80835L8.77947 11.0383L8.73902 11.0556L8.70435 11.0701L8.68702 11.0788L8.67547 11.0816L8.65813 11.0845L8.63502 11.0903L8.59458 11.0672L8.57147 11.0556L8.53391 11.047L8.51369 11.0614L8.5108 11.1279L8.49347 11.1683L8.43569 11.2174L8.37791 11.2694L8.33747 11.3272L8.23058 11.5699L8.16413 11.6681L8.14391 11.6912L8.07458 11.7692L8.01391 11.8183L7.87236 11.9281L7.73658 11.9772L7.62102 12.0003H7.56324L7.45636 11.9859L7.36102 11.957L7.25702 11.8905L7.14147 11.7981L6.97391 11.6334L6.9508 11.619L6.94502 11.6161L6.89302 11.5814H6.85258L6.83813 11.6074L6.82947 11.645L6.82369 11.6768L6.80347 11.8616V11.8732L6.81213 11.9483L6.93924 12.1245L6.97969 12.2199L6.98547 12.2314L7.01147 12.2748L7.03169 12.3094L7.03458 12.3123L7.07791 12.4423L7.04613 12.5145L7.06058 12.5636L7.02302 12.5925L7.01724 12.6359L7.1328 12.7803L7.1588 12.8439L7.12991 12.9305L7.08658 12.9796L7.07502 12.9941L7.0808 13.0316L7.1328 13.0779L7.22236 13.1588L7.26858 13.2772L7.30613 13.309L7.34947 13.3003L7.37258 13.3176H7.40724L7.44191 13.3523L7.46502 13.3639L7.49969 13.3812L7.52858 13.4188L7.53435 13.5314L7.58636 13.673V13.7481V13.7596L7.61813 13.8145L7.62969 13.8579L7.61236 13.9763L7.6528 14.0139L7.69902 14.0052L7.72791 14.011L7.77413 14.0514L7.83191 14.1381L7.8868 14.1294L7.92147 14.1468L8.09191 14.2999L8.12947 14.3201H8.13235L8.16124 14.3345L8.19591 14.3692L8.2508 14.3345H8.25658L8.31435 14.3288L8.34036 14.3461L8.38947 14.3779H8.45302L8.59169 14.4212L8.65235 14.4356L8.77658 14.5108L8.82858 14.5425L8.86035 14.5685L8.9008 14.6032L8.98169 14.6379L9.05102 14.6552L9.08858 14.6639L9.11747 14.6754V14.6725V14.6754L9.27058 14.7332L9.35435 14.7534L9.42947 14.7823L9.48435 14.8025H9.5248L9.58258 14.7534L9.63747 14.7505L9.68369 14.7621L9.72991 14.7534L9.80213 14.7101L9.81658 14.6899L9.86858 14.6668L10.039 14.6465L10.0881 14.6639L10.2181 14.609L10.3048 14.6321L10.3799 14.6061L10.5475 14.6436L10.5908 14.6754L10.6399 14.7332H10.6457H10.7006L10.6775 14.7708L10.7497 14.8459L10.8161 14.9441L10.8219 14.9585L10.871 15.1001L10.9057 15.1492L10.9317 15.2185V15.2648L10.8941 15.2936L10.8884 15.311L10.8855 15.3168L10.8941 15.337L10.9086 15.3283L10.9375 15.3139L10.9721 15.3081L11.0328 15.3139L11.0732 15.3168L11.1368 15.285L11.1772 15.2648L11.2437 15.2936H11.3159L11.3477 15.3081L11.4344 15.3485L11.4777 15.3514L11.495 15.3399L11.5066 15.3139L11.5008 15.285L11.4661 15.2474L11.3939 15.1636L11.365 15.1203L11.3419 15.0568L11.3361 14.9759L11.3304 14.921L11.339 14.8488L11.3592 14.8228L11.3737 14.765L11.3766 14.7505L11.417 14.6956L11.5239 14.6263L11.6395 14.5223L11.7319 14.4616L11.8272 14.4212L11.8301 14.4096L11.8417 14.4125L12.0815 14.3316H12.0844L12.1912 14.3143L12.9106 14.3663L12.9366 14.3576L12.9597 14.2912L12.9712 14.2796L12.9799 14.271L13.0579 14.2363L13.0955 14.2305L13.1995 14.2565L13.2428 14.2681L13.3092 14.2305H13.3584L13.4566 14.1756L13.5172 14.1785L13.5404 14.1699L13.6588 14.0832L13.7744 14.0514L13.8032 14.037L13.8148 14.0312L13.9332 13.9705L14.0084 13.9128L14.0719 13.8781L14.1412 13.8608L14.3261 13.8492L14.3637 13.7885L14.4417 13.777L14.4908 13.7221L14.5457 13.699L14.5861 13.6412L14.6179 13.595L14.6641 13.569L14.8115 13.5603L14.9848 13.5805L15.0079 13.5661L15.0484 13.4245L15.0888 13.3985L15.2015 13.2368V13.179V13.1299L15.2188 13.0605L15.2072 12.9334L15.2217 12.8063L15.291 12.6445L15.3517 12.5781L15.4499 12.5116L15.499 12.4885L15.5684 12.477L15.5799 12.4741L15.5972 12.4712L15.8399 12.4683C15.8428 12.4654 15.9295 12.4683 15.9295 12.4683H16.0104L16.2155 12.5059L16.2299 12.5088L16.2992 12.5319L16.3801 12.5954L16.4639 12.6792L16.4812 12.6936L16.5361 12.7168L16.5535 12.7254L16.5997 12.7168L16.6632 12.6821L16.7124 12.6416L16.7788 12.6041L16.7817 12.6012L16.8192 12.5463L16.8337 12.5232L16.9608 12.4741L17.111 12.4654L17.1284 12.4568L17.137 12.451L17.1775 12.4048H17.215L17.3046 12.4365L17.3681 12.425L17.4201 12.4452L17.4606 12.4394L17.5357 12.4308L17.6166 12.4856L17.6628 12.4914L17.8275 12.5868H17.8361H17.8419L17.8506 12.5896L17.8708 12.5839L17.8997 12.5752H17.9026L17.9055 12.581L17.9228 12.607L17.9488 12.6099L17.9777 12.5694L17.9661 12.5521L17.9604 12.5463L17.9026 12.5348L17.8506 12.4452L17.8997 12.3903L17.8217 12.295L17.8072 12.2776L17.8015 12.2719L17.7755 12.2314L17.6397 12.0234L17.4606 11.8819L17.397 11.8328L17.3739 11.8154L17.2786 11.7172L17.2092 11.6276L17.2006 11.6074L17.1861 11.5756L17.1457 11.4861L17.0735 11.4312L17.0157 11.3676L17.0128 11.3648L16.8944 11.203L16.8741 11.177L16.8452 11.1596H16.7846V11.1221L16.7817 11.1192L16.7846 11.1163L16.8135 11.0874L16.8452 11.0788L16.8597 11.047L16.799 10.8708V10.865L16.7932 10.8101L16.8424 10.553L16.8481 10.5212L16.9319 10.3479L16.9839 10.3045L17.0417 10.1919L17.0908 10.1196L17.137 10.0734L17.1457 10.0676L17.2295 10.0156L17.3017 10.007L17.3681 9.99831L17.4866 10.0359L17.5992 10.033L17.6223 10.0301L17.6743 10.0243L17.7581 9.99831L17.7986 9.9752L17.8188 9.94342L17.8621 9.79898L17.8766 9.75276L17.9026 9.70365L18.0557 9.52742L18.1712 9.42054L18.4312 9.22987L18.5584 9.15476L18.6248 9.1172L19.2055 8.86009L19.3557 8.70698L19.4337 8.62609L19.5723 8.53365L19.7341 8.4672L19.8757 8.35742L19.9075 8.31987L19.945 8.19565L19.9768 8.18698L20.0057 8.12342L20.0143 8.10609L20.1299 8.0252L20.1415 8.01942L20.5863 7.79698L20.6499 7.80565L20.6846 7.75365L20.8146 7.73054L20.8377 7.72765L20.8695 7.71031L20.8955 7.66409V7.65542L20.8983 7.5312L20.9272 7.49654L20.9417 7.41565L20.9561 7.39542L20.9706 7.3752L21.0081 7.3492L21.0052 7.33765Z" fill="#D57800"/>
</g>
<rect x="0.270833" y="4.60409" width="25.4583" height="16.7917" rx="1.89583" stroke="#7F7F7F" stroke-width="0.541667"/>
</g>
<defs>
<clipPath id="clip0_29826_19329">
<rect width="26" height="26" fill="white"/>
</clipPath>
<clipPath id="clip1_29826_19329">
<rect y="4.33325" width="26" height="17.3333" rx="2.16667" fill="white"/>
</clipPath>
</defs>
</svg>
