<svg width="26" height="26" viewBox="0 0 26 26" fill="none" xmlns="http://www.w3.org/2000/svg">
<g clip-path="url(#clip0_17015_110063)">
<path d="M23.8333 4.33325H2.16667C0.97005 4.33325 0 5.3033 0 6.49992V10.111H26V6.49992C26 5.3033 25.03 4.33325 23.8333 4.33325Z" fill="black"/>
<path d="M26 10.1111H0V15.8888H26V10.1111Z" fill="#E1001F"/>
<path d="M26 15.8889H0V19.5001C0 20.6967 0.970049 21.6667 2.16667 21.6667H23.8333C25.03 21.6667 26 20.6967 26 19.5001V15.8889Z" fill="#F6D928"/>
<path d="M13.3634 9.29106C13.3871 9.26296 13.4184 9.24391 13.4533 9.23216C13.5898 9.18612 13.5382 9.01469 13.3996 8.97542C13.2752 8.94016 13.1535 8.8922 13.0362 8.83197C12.891 8.74826 12.6368 8.56207 12.6368 8.91467C12.6368 9.00649 12.6588 9.09266 12.6905 9.17502C12.7587 9.35234 13.2408 9.4362 13.3634 9.29106Z" fill="black"/>
<rect x="0.270833" y="4.60409" width="25.4583" height="16.7917" rx="1.89583" stroke="#7F7F7F" stroke-width="0.541667"/>
</g>
<defs>
<clipPath id="clip0_17015_110063">
<rect width="26" height="26" fill="white"/>
</clipPath>
</defs>
</svg>
