<svg width="26" height="26" viewBox="0 0 26 26" fill="none" xmlns="http://www.w3.org/2000/svg">
<g clip-path="url(#clip0_17015_110058)">
<path d="M25.9741 15.8796H0.0269775V19.4704C0.0269775 20.6671 0.997025 21.6371 2.19364 21.6371H23.8074C25.004 21.6371 25.9741 20.6671 25.9741 19.4704V15.8796Z" fill="black"/>
<path d="M26 19.5001C26 20.6967 25.03 21.6667 23.8333 21.6667H2.16667C0.970049 21.6667 0 20.6967 0 19.5001V18.016C0 16.8194 0.97005 15.8494 2.16667 15.8494H23.8333C25.03 15.8494 26 16.8194 26 18.016V19.5001ZM0.0532824 19.4402C0.0532824 20.6368 1.02333 21.6068 2.21995 21.6068H23.7805C24.9771 21.6068 25.9471 20.6368 25.9471 19.4402V18.0759C25.9471 16.8793 24.9771 15.9092 23.7804 15.9092H2.21995C1.02333 15.9092 0.0532824 16.8793 0.0532824 18.0759V19.4402Z" fill="black"/>
<path d="M25.9741 10.1213H0.0269775V15.8798H25.9741V10.1213Z" fill="white"/>
<path d="M26 13.7425C26 14.9391 25.03 15.9091 23.8333 15.9091H2.16667C0.970049 15.9091 0 14.9391 0 13.7425V12.2585C0 11.0618 0.97005 10.0918 2.16667 10.0918H23.8333C25.03 10.0918 26 11.0618 26 12.2585V13.7425ZM0.0532824 13.6826C0.0532824 14.8792 1.02333 15.8493 2.21995 15.8493H23.7805C24.9771 15.8493 25.9471 14.8792 25.9471 13.6826V12.3183C25.9471 11.1217 24.9771 10.1516 23.7804 10.1516H2.21995C1.02333 10.1516 0.0532824 11.1217 0.0532824 12.3183V13.6826Z" fill="white"/>
<path d="M23.8074 4.36377H2.19364C0.997027 4.36377 0.0269775 5.33382 0.0269775 6.53044V10.1213H25.9741V6.53044C25.9741 5.33382 25.004 4.36377 23.8074 4.36377Z" fill="#BC0030"/>
<path d="M26 7.98492C26 9.18153 25.03 10.1516 23.8333 10.1516H2.16667C0.970049 10.1516 0 9.18153 0 7.98492V6.49992C0 5.3033 0.97005 4.33325 2.16667 4.33325H23.8333C25.03 4.33325 26 5.3033 26 6.49992V7.98492ZM0.0532824 7.92506C0.0532824 9.12168 1.02333 10.0917 2.21995 10.0917H23.7805C24.9771 10.0917 25.9471 9.12168 25.9471 7.92507V6.56078C25.9471 5.36416 24.9771 4.39411 23.7804 4.39411H2.21995C1.02333 4.39411 0.0532824 5.36416 0.0532824 6.56078V7.92506Z" fill="#BC0030"/>
<path d="Mnan nanL12.8562 15.7307C13.2757 15.7426 13.6948 15.6978 14.105 15.5973C14.212 15.575 14.2219 15.5155 14.2228 15.4379C14.2229 15.4233 14.2322 15.4107 14.2446 15.4029C14.2509 15.3989 14.2565 15.3945 14.2616 15.3898C14.2885 15.3644 14.2379 15.091 14.2035 15.0774C14.1841 15.0697 14.1621 15.0548 14.1583 15.0343C14.136 14.9138 14.0119 14.9007 13.9051 14.9416C13.5612 15.0309 13.2085 15.0676 12.8562 15.0506C12.5102 15.0573 12.1646 15.0222 11.8251 14.9458C11.813 14.943 11.8012 14.9392 11.7894 14.9354C11.6872 14.9024 11.5751 14.9204 11.5541 15.0345C11.5504 15.0549 11.5283 15.0697 11.509 15.0773C11.4747 15.0908 11.4242 15.3646 11.451 15.3899C11.456 15.3946 11.4617 15.399 11.468 15.403C11.4803 15.4107 11.4895 15.4233 11.4897 15.4378C11.4906 15.5155 11.5008 15.575 11.6108 15.5973C12.0199 15.698 12.4379 15.7428 12.8562 15.7307Lnan nanZ" fill="white"/>
<path d="Mnan nanL12.8561 15.7875C12.4553 15.8 12.0547 15.7595 11.6623 15.6668C11.6191 15.6566 11.5727 15.6547 11.5334 15.6339C11.5134 15.6233 11.4954 15.6081 11.4807 15.5892C11.466 15.5704 11.4548 15.5483 11.4479 15.5243C11.4349 15.4793 11.4147 15.4343 11.39 15.3945C11.388 15.3913 11.3861 15.388 11.3842 15.3846C11.3704 15.3596 11.3613 15.3315 11.3575 15.3023C11.3571 15.2999 11.3567 15.2975 11.3561 15.2951C11.3547 15.2894 11.3532 15.2827 11.3517 15.2768C11.3501 15.2702 11.3447 15.2655 11.3381 15.2643C11.3265 15.2606 11.3165 15.2524 11.3098 15.2411C11.3031 15.2297 11.3002 15.216 11.3015 15.2025C11.3031 15.1889 11.3089 15.1765 11.318 15.1674C11.3266 15.1588 11.3375 15.1539 11.3489 15.1534C11.35 15.1534 11.3511 15.1535 11.3521 15.1538C11.3525 15.1539 11.3528 15.154 11.3531 15.1541C11.3563 15.1552 11.3597 15.156 11.363 15.1553C11.3712 15.1544 11.391 15.1279 11.4017 15.1132C11.4435 15.0348 11.5082 14.9526 11.5813 14.9022C11.6418 14.8605 11.7302 14.8531 11.8223 14.8874C12.0917 14.9567 12.3674 14.9893 12.6436 14.9846L12.8582 14.9944C13.2046 15.0138 13.5517 14.9778 13.8894 14.8874C13.9862 14.8507 14.0784 14.8609 14.1389 14.9084C14.206 14.9611 14.2684 15.0389 14.3104 15.1132C14.3164 15.1212 14.3255 15.1345 14.3334 15.1441C14.3402 15.1525 14.3508 15.1534 14.3616 15.1534C14.3736 15.1534 14.3852 15.1584 14.3942 15.1674C14.4032 15.1764 14.409 15.1889 14.4106 15.2025C14.412 15.216 14.409 15.2297 14.4023 15.2411C14.3963 15.2513 14.3875 15.259 14.3774 15.2631C14.3752 15.2639 14.3729 15.2641 14.3705 15.2639L14.3686 15.2636C14.3668 15.2634 14.3651 15.2637 14.3635 15.2644L14.3619 15.2652C14.3617 15.2652 14.3615 15.2653 14.3613 15.2653C14.3605 15.2653 14.3599 15.2659 14.3599 15.2667C14.3601 15.2766 14.3588 15.2865 14.356 15.2959C14.3555 15.2977 14.3551 15.2996 14.3548 15.3015C14.3509 15.331 14.3418 15.3593 14.3278 15.3846C14.326 15.3878 14.3241 15.3911 14.3221 15.3942C14.2973 15.4342 14.2771 15.4793 14.2639 15.5245C14.2568 15.5485 14.2456 15.5706 14.2308 15.5895C14.2161 15.6084 14.1981 15.6237 14.178 15.6345C14.1387 15.6554 14.0922 15.6576 14.0488 15.6677C13.6566 15.7595 13.2564 15.7997 12.8561 15.7875Lnan nanZMnan nanL11.4426 15.23C11.4468 15.2438 11.4502 15.2579 11.4529 15.2722C11.4628 15.3203 11.4701 15.3467 11.5049 15.3595C11.5148 15.3633 11.5234 15.3706 11.5295 15.3803C11.5356 15.3899 11.5389 15.4016 11.5389 15.4135C11.5389 15.5018 11.5389 15.5254 11.6193 15.5411C12.0254 15.6423 12.4406 15.6871 12.8561 15.6745C13.2711 15.6869 13.6858 15.6424 14.0915 15.5421C14.1733 15.5254 14.1733 15.5018 14.1733 15.4135C14.1733 15.4016 14.1765 15.3901 14.1825 15.3804C14.1885 15.3707 14.197 15.3634 14.2068 15.3595C14.2425 15.3467 14.2494 15.3203 14.2593 15.2722C14.265 15.2458 14.2579 15.2181 14.2424 15.196C14.2392 15.1914 14.2361 15.1867 14.233 15.1819C14.227 15.1733 14.2215 15.1655 14.2164 15.1588C14.1969 15.1333 14.1599 15.1381 14.1341 15.119C14.1279 15.1139 14.1227 15.1073 14.1189 15.0997C14.1151 15.0921 14.1128 15.0836 14.1122 15.0749C14.1122 15.0503 14.1122 14.9767 14.0107 14.9767C13.9801 14.9771 13.9497 14.983 13.9208 14.9944C13.5723 15.0885 13.2139 15.1265 12.8561 15.1072L12.6402 15.0974C12.3546 15.102 12.0696 15.0673 11.7913 14.9944C11.7624 14.9831 11.732 14.9771 11.7014 14.9767C11.5995 14.9767 11.5996 15.0503 11.5996 15.0749C11.5997 15.0833 11.5981 15.0917 11.5949 15.0993C11.5918 15.107 11.5872 15.1137 11.5815 15.119C11.5759 15.1246 11.5692 15.1285 11.562 15.1304C11.5479 15.1341 11.5318 15.1288 11.5192 15.1362C11.5053 15.1443 11.4948 15.16 11.4796 15.1819C11.4687 15.1992 11.4563 15.2154 11.4426 15.23Lnan nanZ" fill="#F0C727"/>
<path d="M11.7293 15.165C11.6892 15.165 11.6892 15.1886 11.7293 15.1886C11.7472 15.1886 11.7472 15.165 11.7293 15.165Z" fill="#F4D134"/>
<path d="Mnan nanL11.7291 15.2202C11.6758 15.2202 11.6728 15.1839 11.6728 15.177C11.6728 15.1515 11.7063 15.1338 11.7291 15.1338C11.7342 15.1336 11.7393 15.1346 11.744 15.1367C11.7488 15.1388 11.7531 15.1419 11.7568 15.1459C11.7604 15.15 11.7633 15.1548 11.7653 15.1601C11.7673 15.1655 11.7683 15.1712 11.7683 15.177C11.7683 15.1828 11.7673 15.1885 11.7653 15.1939C11.7633 15.1992 11.7604 15.2041 11.7568 15.2081C11.7531 15.2121 11.7488 15.2153 11.744 15.2173C11.7393 15.2194 11.7342 15.2204 11.7291 15.2202Lnan nanZ" fill="#F0C727"/>
<path d="M11.7292 15.0752C11.7069 15.0752 11.7069 15.1203 11.7292 15.1203C11.7689 15.1203 11.7689 15.0752 11.7292 15.0752Z" fill="#F4D134"/>
<path d="Mnan nanL11.7288 15.1504C11.7142 15.1504 11.6858 15.1141 11.6858 15.0974C11.6858 15.0869 11.6984 15.0672 11.7112 15.0553C11.7212 15.046 11.736 15.0423 11.7492 15.0461C11.7558 15.0481 11.762 15.0517 11.7673 15.0567C11.7726 15.0617 11.7769 15.068 11.7798 15.0751C11.7828 15.0823 11.7843 15.09 11.7843 15.0979C11.7843 15.1057 11.7828 15.1135 11.7798 15.1206C11.7769 15.1277 11.7726 15.134 11.7673 15.139C11.762 15.144 11.7558 15.1476 11.7492 15.1496C11.7425 15.1516 11.7355 15.1518 11.7288 15.1504Lnan nanZ" fill="#F0C727"/>
<path d="M11.7292 15.4136C11.7069 15.4136 11.7069 15.4588 11.7292 15.4588C11.747 15.4588 11.747 15.4136 11.7292 15.4136Z" fill="#F4D134"/>
<path d="M11.7288 15.4881C11.7142 15.4881 11.6858 15.4518 11.6858 15.4351C11.6858 15.4193 11.7142 15.3831 11.7288 15.3831C11.7434 15.3831 11.7683 15.4193 11.7683 15.4351C11.7683 15.4518 11.7434 15.4881 11.7288 15.4881Z" fill="#F0C727"/>
<path d="M11.807 15.437C11.7677 15.437 11.7677 15.4821 11.807 15.4821C11.8293 15.4821 11.8293 15.437 11.807 15.437Z" fill="#F4D134"/>
<path d="Mnan nanL11.8071 15.513C11.8004 15.5139 11.7935 15.5133 11.787 15.5111C11.7805 15.5089 11.7745 15.5052 11.7693 15.5002C11.7641 15.4953 11.7598 15.4891 11.7568 15.4822C11.7537 15.4753 11.752 15.4677 11.7516 15.46C11.7516 15.4325 11.783 15.408 11.8071 15.408C11.8217 15.408 11.8501 15.4443 11.8501 15.46C11.8494 15.4731 11.8447 15.4856 11.8369 15.4952C11.829 15.5049 11.8185 15.5112 11.8071 15.513Lnan nanZ" fill="#F0C727"/>
<path d="M11.8857 15.4587C11.8677 15.4587 11.8677 15.5029 11.8857 15.5029C11.9258 15.5029 11.9258 15.4587 11.8857 15.4587Z" fill="#F4D134"/>
<path d="Mnan nanL11.8856 15.5322C11.871 15.5322 11.846 15.4969 11.846 15.4802C11.846 15.4693 11.8568 15.4499 11.8683 15.4378C11.8779 15.4279 11.8929 15.4241 11.9061 15.4279C11.9128 15.4298 11.9191 15.4334 11.9244 15.4385C11.9298 15.4435 11.9341 15.4498 11.937 15.4569C11.94 15.4641 11.9415 15.4719 11.9415 15.4798C11.9415 15.4877 11.94 15.4955 11.937 15.5026C11.9341 15.5097 11.9298 15.516 11.9244 15.5211C11.9191 15.5261 11.9128 15.5297 11.9061 15.5316C11.8994 15.5336 11.8924 15.5338 11.8856 15.5322Lnan nanZ" fill="#F0C727"/>
<path d="M13.1138 15.2339C13.095 15.2339 13.095 15.279 13.1138 15.279C13.1351 15.279 13.1351 15.2339 13.1138 15.2339Z" fill="#F4D134"/>
<path d="M13.1131 15.3086C13.0985 15.3086 13.0727 15.2733 13.0727 15.2566C13.0727 15.2399 13.0985 15.2036 13.1131 15.2036C13.1278 15.2036 13.1553 15.2399 13.1553 15.2566C13.1553 15.2733 13.1278 15.3086 13.1131 15.3086Z" fill="#F0C727"/>
<path d="M13.1345 15.3232C13.0952 15.3232 13.0952 15.3438 13.1345 15.3438C13.1523 15.3438 13.1523 15.3232 13.1345 15.3232Z" fill="#F4D134"/>
<path d="M13.1917 15.5469C13.1734 15.5469 13.1734 15.597 13.1917 15.597C13.2135 15.597 13.2135 15.5469 13.1917 15.5469Z" fill="#F4D134"/>
<path d="M13.1913 15.6263C13.1766 15.6263 13.1513 15.588 13.1513 15.5714C13.1513 15.5556 13.1766 15.5173 13.1913 15.5173C13.2059 15.5173 13.2338 15.5556 13.2338 15.5714C13.2338 15.588 13.2059 15.6263 13.1913 15.6263Z" fill="#F0C727"/>
<path d="M13.2738 15.5469C13.2307 15.5469 13.2307 15.597 13.2738 15.597C13.2926 15.597 13.2926 15.5469 13.2738 15.5469Z" fill="#F4D134"/>
<path d="M13.2923 15.618C13.2817 15.6273 13.2657 15.6289 13.2522 15.6244C13.2454 15.6222 13.2391 15.6184 13.2336 15.6132C13.2281 15.6081 13.2236 15.6017 13.2204 15.5945C13.2171 15.5873 13.2152 15.5794 13.2148 15.5714C13.2148 15.5439 13.235 15.5173 13.2732 15.5173C13.2879 15.5173 13.3137 15.5556 13.3137 15.5714C13.3137 15.588 13.3046 15.6073 13.2923 15.618Z" fill="#F0C727"/>
<path d="M14.0844 15.3682C14.0438 15.3682 14.0438 15.3927 14.0844 15.3927C14.1058 15.3927 14.1058 15.3682 14.0844 15.3682Z" fill="#F4D134"/>
<path d="M14.0839 15.4226C14.0306 15.4226 14.0275 15.3872 14.0275 15.3803C14.0275 15.3548 14.0611 15.3381 14.0839 15.3381C14.0985 15.3381 14.126 15.3637 14.126 15.3803C14.126 15.397 14.0985 15.4226 14.0839 15.4226Z" fill="#F0C727"/>
<path d="Mnan nanL11.9425 15.4517C11.9286 15.4513 11.9149 15.4486 11.9018 15.4436C11.8991 15.4425 11.8963 15.4417 11.8935 15.441C11.8853 15.4391 11.8774 15.4363 11.8698 15.4326C11.8483 15.4222 11.8257 15.4132 11.8027 15.4068C11.7854 15.4021 11.7659 15.3973 11.7529 15.385C11.7431 15.3758 11.7334 15.3614 11.7271 15.3427C11.7177 15.3146 11.7255 15.2844 11.7345 15.2562C11.7482 15.2129 11.7595 15.1688 11.7683 15.1239L11.7816 15.067C11.7824 15.0631 11.7839 15.0595 11.786 15.0563C11.7881 15.0532 11.7908 15.0505 11.7938 15.0486C11.7968 15.0466 11.8002 15.0454 11.8036 15.0451C11.8071 15.0447 11.8106 15.0451 11.8139 15.0463C11.8207 15.0484 11.8266 15.0535 11.8301 15.0606C11.8337 15.0676 11.8346 15.0759 11.8328 15.0837L11.8195 15.1386C11.8094 15.1924 11.795 15.2451 11.7766 15.2959C11.7725 15.3072 11.7713 15.3202 11.7783 15.33C11.7794 15.3315 11.7806 15.3329 11.7818 15.3343C11.7846 15.3375 11.7903 15.34 11.7943 15.3412C11.8114 15.3463 11.8284 15.3355 11.8338 15.3185C11.8344 15.3164 11.8351 15.3143 11.8358 15.3123C11.8366 15.3097 11.8372 15.3071 11.8375 15.3044C11.8397 15.2845 11.8428 15.2696 11.847 15.2589C11.8529 15.2439 11.8713 15.2473 11.878 15.262C11.8783 15.2626 11.8786 15.2633 11.8788 15.264C11.8806 15.268 11.8832 15.2716 11.8867 15.2744C11.8926 15.2792 11.8954 15.2863 11.894 15.2938C11.8938 15.295 11.8936 15.2962 11.8933 15.2975C11.8926 15.3015 11.8928 15.3056 11.8924 15.3097C11.8923 15.3102 11.8923 15.3108 11.8922 15.3114C11.8905 15.3199 11.8886 15.3283 11.8866 15.3366C11.8817 15.3564 11.8897 15.3784 11.9095 15.3832C11.9117 15.3838 11.9139 15.3844 11.916 15.3852C11.9278 15.3898 11.9393 15.3939 11.9469 15.3917C11.9496 15.3909 11.952 15.3893 11.9539 15.3873C11.9621 15.379 11.9699 15.3553 11.9774 15.3189C11.9775 15.3182 11.9784 15.3178 11.979 15.3183C11.98 15.319 11.9813 15.3178 11.9805 15.3168L11.9604 15.291C11.9589 15.2891 11.9589 15.2865 11.9604 15.2847C11.9649 15.2794 11.9703 15.2751 11.9763 15.2723C11.9899 15.2657 12.0057 15.2729 12.0143 15.2854C12.0186 15.2917 12.0223 15.2987 12.025 15.3061C12.0292 15.3171 12.0297 15.3291 12.028 15.3408C12.0255 15.3577 12.0207 15.3742 12.0138 15.3896C12.0049 15.4092 11.9927 15.4266 11.9778 15.4408C11.9764 15.4422 11.9747 15.4435 11.9729 15.4444C11.9635 15.4496 11.953 15.4521 11.9425 15.4517Lnan nanZ" fill="#F0C727"/>
<path d="M11.7856 15.3986C11.7832 15.3987 11.7807 15.3984 11.7783 15.3976C11.7189 15.379 11.6807 15.3407 11.6816 15.2995C11.682 15.274 11.6966 15.2406 11.7624 15.2249C11.7693 15.2234 11.7764 15.2251 11.7822 15.2295C11.7881 15.2339 11.7922 15.2407 11.7938 15.2484C11.7951 15.2562 11.7937 15.2643 11.7898 15.2709C11.786 15.2775 11.78 15.2822 11.7732 15.2838C11.747 15.2899 11.7438 15.3181 11.7677 15.3303C11.7755 15.3343 11.7839 15.3372 11.7925 15.3387C11.7992 15.3409 11.8049 15.3461 11.8084 15.3531C11.8119 15.36 11.8128 15.3683 11.811 15.376C11.8094 15.3823 11.806 15.3879 11.8015 15.392C11.7969 15.396 11.7914 15.3983 11.7856 15.3986Z" fill="#F0C727"/>
<path d="Mnan nanL12.357 15.5815C12.3516 15.5814 12.3462 15.5804 12.3411 15.5786C12.3306 15.575 12.3102 15.5711 12.3016 15.5639C12.2921 15.5559 12.2821 15.5395 12.278 15.5107C12.2758 15.4948 12.2637 15.4818 12.2492 15.4749C12.2378 15.4695 12.2243 15.4677 12.2127 15.4724C12.1956 15.4794 12.178 15.4838 12.1601 15.4857C12.1172 15.4903 12.0739 15.5102 12.0358 15.5304C12.0294 15.5335 12.0222 15.5337 12.0156 15.531C12.0091 15.5282 12.0037 15.5228 12.0005 15.5157C11.9991 15.512 11.9983 15.5081 11.9982 15.5041C11.998 15.5001 11.9986 15.4961 11.9999 15.4924C12.0011 15.4887 12.003 15.4853 12.0054 15.4824C12.0078 15.4794 12.0107 15.4771 12.0138 15.4755C12.0179 15.4733 12.0218 15.4708 12.0254 15.4679C12.0421 15.4546 12.0407 15.4309 12.038 15.4098C12.0366 15.3989 12.0339 15.388 12.0315 15.3773C12.0305 15.3723 12.03 15.3672 12.03 15.362C12.0303 15.3416 12.0498 15.3255 12.0697 15.33C12.0896 15.3344 12.0996 15.351 12.1083 15.3765C12.1096 15.3803 12.1102 15.3842 12.1102 15.3882C12.1102 15.3889 12.1101 15.3896 12.1101 15.3903C12.1097 15.4089 12.1204 15.4274 12.1389 15.4278C12.1636 15.4284 12.1713 15.3984 12.1675 15.374C12.1673 15.3729 12.1671 15.3718 12.167 15.3707C12.1648 15.3528 12.1673 15.3346 12.1742 15.3184C12.1826 15.2985 12.197 15.2828 12.2148 15.2739C12.2165 15.2731 12.2182 15.2723 12.22 15.2716C12.2521 15.2585 12.2904 15.2767 12.3067 15.3074C12.3152 15.3234 12.3196 15.3419 12.3191 15.3606C12.3189 15.3753 12.3156 15.3897 12.3095 15.4027C12.3076 15.4069 12.3053 15.4109 12.3029 15.4147C12.2951 15.4265 12.2953 15.4435 12.3073 15.451C12.3123 15.4542 12.316 15.4592 12.3174 15.465C12.3296 15.5176 12.3351 15.5176 12.3424 15.5176C12.354 15.5176 12.3729 15.4784 12.3729 15.4372V15.234C12.3729 15.2006 12.4258 15.2006 12.4258 15.234V15.4372C12.4258 15.4928 12.3999 15.5648 12.3646 15.5802C12.3641 15.5804 12.3636 15.5805 12.3631 15.5806L12.357 15.5815Lnan nanZ" fill="#F0C727"/>
<path d="Mnan nanL12.4602 15.5128C12.4531 15.5127 12.4463 15.5095 12.4413 15.5038C12.4363 15.4981 12.4335 15.4904 12.4335 15.4823C12.4351 15.4383 12.439 15.3943 12.4451 15.3508C12.4505 15.3121 12.4537 15.2731 12.455 15.234C12.455 15.2006 12.5079 15.2006 12.5079 15.234C12.5064 15.2758 12.5028 15.3174 12.4971 15.3586C12.4916 15.3996 12.4882 15.4409 12.4868 15.4823C12.4868 15.4904 12.484 15.4981 12.479 15.5038C12.474 15.5095 12.4672 15.5127 12.4602 15.5128Lnan nanZ" fill="#F0C727"/>
<path d="Mnan nanL12.5215 15.6471C12.5175 15.6469 12.5135 15.6458 12.5099 15.6438C12.5063 15.6417 12.503 15.6388 12.5005 15.6353C12.4983 15.6322 12.4967 15.6286 12.4958 15.6248C12.4949 15.621 12.4946 15.617 12.4951 15.613C12.4955 15.6091 12.4966 15.6053 12.4984 15.6019C12.5001 15.5984 12.5024 15.5954 12.5052 15.5931C12.5226 15.5802 12.5377 15.5638 12.5497 15.5448C12.563 15.5238 12.5544 15.4975 12.54 15.4773C12.5333 15.4671 12.5292 15.455 12.5283 15.4423C12.528 15.4386 12.528 15.435 12.5283 15.4313C12.5296 15.4137 12.5406 15.397 12.557 15.3906C12.5667 15.3868 12.5776 15.3866 12.5866 15.3917C12.6014 15.4001 12.6142 15.4188 12.623 15.4452C12.6236 15.4469 12.6239 15.4488 12.6241 15.4506C12.6242 15.4526 12.6243 15.4547 12.6243 15.4567C12.6246 15.4651 12.6305 15.4726 12.6389 15.4723C12.6396 15.4723 12.6447 15.4679 12.6483 15.4465C12.6502 15.4347 12.6433 15.4234 12.6381 15.4126C12.6351 15.4066 12.6336 15.3998 12.6338 15.3928C12.6338 15.3762 12.6544 15.3438 12.669 15.3438C12.6752 15.3438 12.6825 15.3495 12.6887 15.3573C12.6992 15.3705 12.7117 15.3825 12.7285 15.3829C12.7339 15.3831 12.7413 15.3843 12.7463 15.3863C12.7883 15.4033 12.834 15.4053 12.8772 15.3918C12.9111 15.3849 12.9303 15.401 12.9387 15.4334C12.9469 15.465 12.9414 15.4986 12.9301 15.5293C12.9229 15.5504 12.9162 15.569 12.9075 15.5826C12.8943 15.6032 12.8654 15.607 12.8442 15.5948C12.822 15.582 12.8233 15.5451 12.7998 15.535C12.7949 15.533 12.7881 15.5322 12.7779 15.5322H12.6389C12.6261 15.5328 12.6134 15.5394 12.6081 15.5511C12.5916 15.5871 12.5674 15.6178 12.5375 15.6402C12.5329 15.6443 12.5273 15.6467 12.5215 15.6471Lnan nanZMnan nanL12.6974 15.4723H12.7779C12.8147 15.4723 12.8358 15.4845 12.8476 15.5001C12.8548 15.5096 12.8779 15.5127 12.8831 15.5019C12.8834 15.5012 12.8837 15.5004 12.8839 15.4996C12.8841 15.4987 12.8843 15.4978 12.8844 15.4969C12.889 15.4744 12.8664 15.4584 12.8434 15.4605C12.8057 15.464 12.7675 15.4576 12.7319 15.4416C12.7282 15.44 12.7241 15.4395 12.7201 15.4401C12.7194 15.4402 12.7187 15.4403 12.718 15.4404C12.7093 15.4415 12.7018 15.448 12.7005 15.4567C12.6997 15.462 12.6987 15.4672 12.6974 15.4723Lnan nanZ" fill="#F0C727"/>
<path d="M12.9958 15.532C12.9844 15.532 12.974 15.5242 12.9626 15.5246C12.9608 15.5247 12.9591 15.5248 12.9573 15.525C12.9476 15.5261 12.9377 15.5286 12.9284 15.5255C12.916 15.5213 12.9037 15.5124 12.9037 15.5006C12.9037 15.4862 12.9031 15.4754 12.9124 15.4728C12.9151 15.472 12.9175 15.4745 12.9175 15.4773C12.9175 15.483 12.9252 15.4845 12.9274 15.4794L12.9303 15.4724C12.9312 15.4704 12.9329 15.4689 12.935 15.4685C12.9373 15.468 12.9395 15.4675 12.9419 15.467C12.9523 15.4648 12.9593 15.455 12.9606 15.4444C12.9611 15.4398 12.962 15.4352 12.9633 15.4307C12.9664 15.4201 12.9714 15.4105 12.9781 15.4025C12.9865 15.393 12.9973 15.3866 13.009 15.3842C13.0206 15.3817 13.0326 15.3833 13.0435 15.3888C13.0554 15.3946 13.0654 15.4044 13.0724 15.4168C13.0794 15.4292 13.0829 15.4437 13.0826 15.4585C13.0826 15.5056 13.0228 15.532 12.9966 15.532H12.9958Z" fill="#F0C727"/>
<path d="Mnan nanL13.1553 15.5272C13.1483 15.5272 13.1413 15.5258 13.1347 15.5231C13.1335 15.5226 13.1324 15.5219 13.1314 15.5212C13.1257 15.5169 13.1208 15.5115 13.117 15.5051C13.1086 15.4914 13.1115 15.4738 13.1211 15.4608C13.1261 15.454 13.1318 15.4479 13.1381 15.4424C13.1595 15.4238 13.1815 15.4014 13.1816 15.373C13.1818 15.3287 13.1767 15.2845 13.1665 15.2416C13.1648 15.2339 13.1659 15.2258 13.1694 15.219C13.1729 15.2122 13.1787 15.2072 13.1854 15.2051C13.1921 15.2031 13.1992 15.2041 13.2052 15.208C13.2113 15.2119 13.2157 15.2183 13.2177 15.2259C13.23 15.2793 13.2355 15.3343 13.2339 15.3893C13.2332 15.4138 13.249 15.4516 13.2736 15.4516C13.2809 15.4509 13.2867 15.4493 13.2912 15.4454C13.3142 15.4256 13.2891 15.3843 13.2822 15.3547C13.2798 15.3442 13.284 15.3382 13.2925 15.3315C13.2948 15.3296 13.2974 15.328 13.3001 15.3267C13.3144 15.3196 13.3318 15.3258 13.3421 15.3379C13.3431 15.339 13.344 15.3401 13.3449 15.3413C13.3482 15.3458 13.3511 15.3507 13.3534 15.356C13.3568 15.3639 13.3574 15.3726 13.3572 15.3811C13.3571 15.3863 13.3576 15.3914 13.3572 15.3965C13.3572 15.3972 13.3571 15.3979 13.357 15.3986C13.3543 15.468 13.341 15.4986 13.3067 15.5086C13.2857 15.5147 13.2635 15.5214 13.2415 15.5207C13.2307 15.5204 13.2201 15.5171 13.2106 15.511C13.2102 15.5107 13.2098 15.5103 13.2094 15.5098C13.2079 15.5076 13.2047 15.5073 13.2026 15.5091C13.1889 15.5205 13.1724 15.5269 13.1553 15.5272Lnan nanZ" fill="#F0C727"/>
<path d="Mnan nanL13.3912 15.6019C13.3843 15.6018 13.3776 15.5986 13.3727 15.593C13.3703 15.5903 13.3683 15.587 13.367 15.5834C13.3657 15.5797 13.365 15.5759 13.365 15.5719C13.365 15.568 13.3657 15.5641 13.367 15.5605C13.3683 15.5569 13.3703 15.5536 13.3727 15.5509C13.4062 15.5104 13.3732 15.455 13.3657 15.403C13.3652 15.3992 13.365 15.3958 13.365 15.3928C13.365 15.3801 13.365 15.3408 13.3917 15.329C13.4497 15.3066 13.4869 15.4029 13.4741 15.4638C13.4638 15.5129 13.4366 15.5624 13.4097 15.593C13.4074 15.5959 13.4045 15.5981 13.4013 15.5997C13.3981 15.6012 13.3947 15.6019 13.3912 15.6019Lnan nanZ" fill="#F0C727"/>
<path d="Mnan nanL13.5306 15.5577C13.5253 15.5576 13.5201 15.5557 13.5157 15.5522C13.5113 15.5487 13.508 15.5438 13.5062 15.5381C13.5037 15.5306 13.5038 15.5223 13.5067 15.515C13.5119 15.5011 13.5294 15.4981 13.5407 15.4885C13.541 15.4882 13.5414 15.4879 13.5417 15.4876C13.5502 15.48 13.5422 15.4684 13.5312 15.4656C13.5078 15.4596 13.4977 15.4418 13.4941 15.4252C13.4922 15.408 13.4952 15.3906 13.5027 15.3756C13.5103 15.3605 13.5219 15.3486 13.5358 15.3418C13.5373 15.341 13.5388 15.3403 13.5403 15.3396C13.5651 15.3288 13.5955 15.3386 13.6067 15.3632C13.616 15.3835 13.6351 15.4026 13.6569 15.3979C13.7252 15.383 13.7911 15.3562 13.8523 15.3182C13.8552 15.316 13.8585 15.3144 13.8619 15.3137C13.8653 15.313 13.8689 15.3131 13.8723 15.314C13.8757 15.3149 13.8789 15.3167 13.8816 15.3191C13.8844 15.3215 13.8867 15.3245 13.8884 15.328C13.892 15.335 13.8931 15.3434 13.8914 15.3512C13.8897 15.3591 13.8854 15.366 13.8794 15.3703C13.8153 15.4102 13.7462 15.4383 13.6746 15.4535C13.6381 15.4613 13.6106 15.4919 13.5877 15.5214C13.575 15.5377 13.5585 15.5496 13.5401 15.5557C13.537 15.5569 13.5339 15.5575 13.5306 15.5577Lnan nanZ" fill="#F0C727"/>
<path d="Mnan nanL13.7681 15.4722C13.76 15.4723 13.7519 15.471 13.7441 15.4683C13.7392 15.4666 13.7354 15.4629 13.733 15.4583C13.7253 15.4436 13.7186 15.4283 13.7129 15.4125C13.7091 15.4018 13.6958 15.402 13.6959 15.4133C13.6959 15.4467 13.643 15.4467 13.643 15.4133C13.6417 15.3929 13.6449 15.3724 13.6524 15.3537C13.6575 15.3409 13.6644 15.3292 13.6729 15.3191C13.6801 15.3106 13.6842 15.2996 13.6821 15.2887L13.6619 15.1974C13.6603 15.1897 13.6613 15.1815 13.6647 15.1746C13.6681 15.1677 13.6737 15.1625 13.6804 15.1601C13.6837 15.1588 13.6873 15.1584 13.6909 15.1589C13.6944 15.1593 13.6978 15.1606 13.7009 15.1626C13.704 15.1646 13.7067 15.1674 13.7088 15.1707C13.7109 15.174 13.7123 15.1777 13.7131 15.1817L13.7333 15.2749C13.7345 15.2804 13.7398 15.2838 13.7454 15.2835C13.758 15.2828 13.7707 15.2856 13.7823 15.2916C13.7964 15.2971 13.8087 15.3074 13.8175 15.3211C13.8188 15.3231 13.8201 15.3252 13.8212 15.3274C13.8344 15.3522 13.8414 15.3821 13.837 15.4098C13.8347 15.424 13.8285 15.4369 13.8193 15.4467C13.8127 15.4547 13.8048 15.4611 13.796 15.4655C13.7872 15.4699 13.7777 15.4722 13.7681 15.4722Lnan nanZ" fill="#F0C727"/>
<path d="Mnan nanL13.9141 15.4086C13.8984 15.4098 13.8827 15.4051 13.8695 15.3951C13.8605 15.3883 13.853 15.3794 13.8474 15.369C13.8422 15.3592 13.84 15.3481 13.8398 15.3371C13.8393 15.3134 13.8493 15.2902 13.8676 15.2752C13.8706 15.2728 13.8737 15.2705 13.8769 15.2684C13.8897 15.26 13.904 15.2545 13.9187 15.2523C13.9334 15.2501 13.9484 15.2513 13.9627 15.2557C13.9634 15.2559 13.9641 15.2561 13.9648 15.2564C13.9922 15.2654 14.0125 15.2914 14.0116 15.3202C14.0111 15.335 14.007 15.3493 13.9997 15.3615C13.9895 15.3762 13.9764 15.388 13.9616 15.3962C13.9468 15.4044 13.9306 15.4086 13.9141 15.4086Lnan nanZ" fill="#F0C727"/>
<path d="Mnan nanL14.0788 15.3321C14.0677 15.3321 14.0568 15.3291 14.047 15.3232C14.0022 15.2968 13.9786 15.2271 13.9786 15.1201C13.9786 15.0985 13.973 15.0838 13.9614 15.0789C13.9517 15.0758 13.9414 15.0759 13.9317 15.079C13.922 15.0821 13.9132 15.0882 13.9063 15.0965C13.9014 15.1022 13.8946 15.1054 13.8876 15.1054C13.8806 15.1054 13.8739 15.1022 13.8689 15.0965C13.8665 15.0938 13.8645 15.0905 13.8632 15.0869C13.8619 15.0833 13.8612 15.0794 13.8612 15.0754C13.8612 15.0715 13.8619 15.0676 13.8632 15.064C13.8645 15.0604 13.8665 15.0571 13.8689 15.0543C13.8829 15.0371 13.9011 15.0249 13.9211 15.0193C13.9411 15.0137 13.9622 15.015 13.9816 15.0229C13.9976 15.0313 14.011 15.0451 14.02 15.0625C14.0289 15.0799 14.0329 15.1 14.0315 15.1201C14.0315 15.2133 14.0521 15.2585 14.0715 15.2703C14.0775 15.2733 14.0841 15.2745 14.0906 15.2737C14.0948 15.2732 14.0979 15.2698 14.0991 15.2656C14.0993 15.2648 14.0996 15.2639 14.1 15.2632C14.1072 15.2504 14.1342 15.2174 14.1471 15.2231C14.1537 15.2253 14.1602 15.2384 14.1647 15.2519C14.1703 15.269 14.1648 15.2874 14.1513 15.2993C14.1304 15.3177 14.1053 15.3291 14.0788 15.3321Lnan nanZ" fill="#F0C727"/>
<path d="M12.3855 13.6445C12.6509 13.3697 13.0952 13.3689 13.3573 13.6468C13.7812 14.0963 14.5359 13.7804 14.5132 13.1629L14.4581 11.6643C14.4396 11.1677 14.0616 11.2815 13.7873 11.4601C13.648 11.5552 13.4909 11.611 13.3289 11.6232C13.0223 11.6461 12.6896 11.6461 12.383 11.6231C12.2211 11.611 12.0641 11.5552 11.9248 11.4601C11.65 11.2815 11.2716 11.1677 11.254 11.6643L11.199 13.1516C11.1757 13.78 11.9487 14.0968 12.3855 13.6445Z" fill="white"/>
<path d="Mnan nanL11.1333 14.971C11.1295 14.9709 11.1257 14.9699 11.1222 14.9681C11.1175 14.9655 11.1136 14.9615 11.1109 14.9564C11.1082 14.9513 11.1069 14.9455 11.1071 14.9396L11.2284 11.6633C11.2396 11.3444 11.3935 11.2776 11.5208 11.2776C11.6691 11.2915 11.8123 11.3453 11.9388 11.4346C12.0748 11.527 12.2281 11.5812 12.3861 11.5928C12.6853 11.6148 13.0091 11.6138 13.3086 11.5952C13.3116 11.5951 13.3146 11.5949 13.3176 11.5946C13.4786 11.583 13.6349 11.5282 13.7737 11.4346C13.9003 11.3455 14.0435 11.2917 14.1917 11.2776C14.319 11.2776 14.4734 11.3444 14.4854 11.6633L14.6058 14.9396C14.606 14.9456 14.6046 14.9515 14.6019 14.9565C14.5991 14.9616 14.5951 14.9656 14.5904 14.9681C14.5857 14.9707 14.5804 14.9716 14.5753 14.9707C14.5701 14.9698 14.5653 14.9672 14.5615 14.9631L14.4335 14.8275C13.5852 13.9289 12.1585 13.9205 11.2998 14.8091L11.151 14.9631C11.1461 14.9681 11.1399 14.971 11.1333 14.971Lnan nanZMnan nanL11.5208 11.3375C11.3673 11.3375 11.289 11.4454 11.2813 11.6653L11.2529 12.4307C11.2212 13.2874 12.2632 13.7314 12.859 13.115C12.8613 13.1123 12.8641 13.1102 12.8671 13.1087C12.8701 13.1073 12.8734 13.1065 12.8767 13.1065C12.88 13.1065 12.8832 13.1073 12.8862 13.1087C12.8893 13.1102 12.892 13.1123 12.8943 13.115C13.4694 13.7241 14.4923 13.2955 14.4614 12.4584L14.4321 11.6653C14.4188 11.2943 14.1625 11.2511 13.8008 11.4867C13.6581 11.5836 13.4974 11.6406 13.3317 11.653C13.3288 11.6533 13.326 11.6535 13.3231 11.6536C13.0143 11.674 12.6802 11.6753 12.3717 11.6513C12.2088 11.6387 12.051 11.5819 11.9113 11.4857C11.7937 11.4007 11.6596 11.3498 11.5208 11.3375Lnan nanZ" fill="#F0C727"/>
<path d="Mnan nanL13.1345 11.6437C13.1603 11.6595 13.1871 11.6725 13.2147 11.6827C13.284 11.7082 13.3243 11.626 13.2872 11.5621C13.2501 11.498 13.2198 11.4289 13.197 11.3562C13.1556 11.2239 13.1403 11.0828 13.1521 10.9429C13.1917 10.5808 13.1135 10.3773 12.9173 10.3324C12.8761 10.3224 12.8344 10.3151 12.7925 10.3104C12.7826 10.3093 12.772 10.3065 12.7621 10.3053C12.6822 10.2964 12.5763 10.3841 12.5048 10.3473C12.5026 10.3462 12.5004 10.345 12.4982 10.3437C12.4868 10.337 12.4756 10.3295 12.4626 10.3269C12.4072 10.3159 12.3346 10.343 12.3229 10.458C12.3214 10.4733 12.3375 10.4836 12.3514 10.4768C12.3566 10.4742 12.3627 10.474 12.3681 10.4762C12.3926 10.4865 12.4163 10.4995 12.4385 10.5152C12.4465 10.5208 12.4547 10.5261 12.4629 10.5313C12.4976 10.5533 12.5277 10.5838 12.5509 10.6207C12.5769 10.662 12.5934 10.71 12.5991 10.7604C12.6301 10.9323 12.6207 11.1106 12.5719 11.2771C12.5329 11.4105 12.4696 11.5325 12.3866 11.6355C12.3626 11.6653 12.3812 11.7099 12.419 11.7036C12.4425 11.6997 12.4657 11.6938 12.4884 11.686C12.5136 11.6773 12.5395 11.7058 12.5234 11.7271C12.5093 11.7458 12.5238 11.7719 12.5464 11.7653C12.578 11.7561 12.6084 11.7421 12.6369 11.7235C12.6612 11.7077 12.6838 11.6889 12.7042 11.6673C12.7296 11.6405 12.7811 11.6408 12.8026 11.671C12.8253 11.7028 12.8871 11.7028 12.9099 11.671C12.9314 11.6409 12.9829 11.6404 13.0084 11.6672C13.0288 11.6888 13.0514 11.7077 13.0757 11.7235C13.0891 11.7322 13.103 11.74 13.1173 11.7467C13.1556 11.7647 13.1819 11.7191 13.1588 11.6836C13.1503 11.6706 13.1422 11.6573 13.1345 11.6437Lnan nanZ" fill="white"/>
<path d="M12.4853 11.8055C12.4603 11.8108 12.4429 11.7812 12.4598 11.762L12.4638 11.7574C12.4763 11.7441 12.4627 11.7234 12.4448 11.727C12.404 11.7351 12.3625 11.7384 12.321 11.7368C12.2972 11.7368 12.2849 11.7083 12.3013 11.6909L12.3043 11.6878C12.4175 11.5754 12.5022 11.4304 12.5497 11.268C12.5972 11.1056 12.6057 10.9316 12.5743 10.7642C12.5712 10.7237 12.5595 10.6847 12.54 10.6506C12.5206 10.6166 12.4941 10.5885 12.463 10.5688L12.435 10.5453C12.4142 10.5305 12.3925 10.5176 12.37 10.5067C12.3612 10.5024 12.3509 10.503 12.3424 10.5079L12.3339 10.5128C12.3173 10.5224 12.2965 10.5105 12.2965 10.4913C12.2965 10.3706 12.3482 10.3144 12.4056 10.3C12.4609 10.2861 12.5121 10.3311 12.5687 10.3372C12.6103 10.3436 12.6552 10.3271 12.6891 10.3023C12.7089 10.2878 12.7315 10.2789 12.755 10.2764C12.7967 10.2768 12.8382 10.2837 12.8783 10.297C12.9033 10.305 12.9302 10.306 12.9549 10.3146C13.142 10.3798 13.2152 10.5919 13.1764 10.9467C13.1646 11.0814 13.1791 11.2174 13.2187 11.345C13.2581 11.4717 13.3213 11.5871 13.4039 11.6829C13.405 11.6842 13.4062 11.6853 13.4075 11.6864L13.4088 11.6874C13.4292 11.7039 13.4176 11.7368 13.3914 11.7368C13.3501 11.7384 13.3088 11.7351 13.2681 11.7271C13.2496 11.7234 13.2359 11.744 13.2482 11.7584L13.2513 11.7619C13.2682 11.7809 13.2512 11.8106 13.2263 11.8055C13.1394 11.795 13.0579 11.7542 12.9926 11.6893C12.9736 11.6704 12.9406 11.6717 12.9252 11.6936C12.9076 11.7166 12.8916 11.7413 12.8775 11.7673C12.8689 11.7854 12.8431 11.7854 12.8345 11.7673C12.8202 11.7414 12.8043 11.7168 12.7868 11.6936C12.7709 11.672 12.7384 11.6705 12.7194 11.6894C12.6541 11.7545 12.5724 11.7953 12.4853 11.8055ZMnan nanL12.9549 11.5415L12.9773 11.5847C12.9976 11.6215 13.0242 11.6533 13.0554 11.6782C13.0688 11.6889 13.0829 11.6982 13.0976 11.7061C13.1181 11.7171 13.1371 11.6971 13.1249 11.6773C13.1193 11.6683 13.1185 11.6538 13.1252 11.6456L13.1283 11.6417C13.1387 11.6288 13.1572 11.626 13.1718 11.634C13.1799 11.6385 13.1882 11.6426 13.1966 11.6464C13.2447 11.6683 13.2795 11.6133 13.255 11.5665C13.1569 11.3791 13.1119 11.1605 13.1278 10.9408C13.1622 10.6231 13.107 10.4377 12.959 10.3749C12.9298 10.3625 12.8955 10.3601 12.865 10.3509C12.8345 10.3422 12.8032 10.3372 12.7717 10.3362C12.7506 10.3372 12.7301 10.3448 12.7124 10.3581C12.6948 10.3714 12.6806 10.39 12.6715 10.4118L12.6709 10.413C12.6648 10.4261 12.6482 10.4302 12.6367 10.4216C12.6136 10.4055 12.5875 10.3958 12.5606 10.3932C12.541 10.3908 12.5218 10.3854 12.5036 10.3771C12.4781 10.3656 12.4539 10.3462 12.4261 10.3497C12.4122 10.3515 12.3988 10.3571 12.3872 10.3661C12.3755 10.3751 12.366 10.3871 12.3593 10.4012C12.3527 10.4152 12.3492 10.4308 12.349 10.4467C12.349 10.4469 12.3492 10.4471 12.3494 10.4471C12.3843 10.4516 12.4176 10.4658 12.4466 10.4883L12.4909 10.5217C12.5276 10.5462 12.5587 10.5801 12.5817 10.6209C12.6047 10.6617 12.619 10.708 12.6233 10.7563C12.652 10.9208 12.6451 11.0908 12.6032 11.2516C12.5737 11.365 12.5273 11.4715 12.4664 11.5665C12.4379 11.6109 12.4702 11.6673 12.518 11.6449C12.5254 11.6415 12.5326 11.6379 12.5398 11.634C12.5544 11.626 12.5728 11.6287 12.5834 11.6416L12.5866 11.6454C12.5934 11.6537 12.5925 11.6684 12.5869 11.6776C12.5747 11.6975 12.5938 11.7172 12.6143 11.7062C12.6291 11.6982 12.6433 11.6888 12.6567 11.678C12.6879 11.6531 12.7144 11.6214 12.7347 11.5847L12.7351 11.584C12.7441 11.5665 12.7693 11.567 12.7777 11.5847C12.7917 11.6107 12.8075 11.6353 12.8251 11.6583C12.8403 11.6792 12.8717 11.6795 12.8865 11.6583C12.9042 11.6353 12.9201 11.6107 12.9343 11.5847L12.9549 11.5415Lnan nanZ" fill="#F0C727"/>
<path d="Mnan nanL13.1465 11.6937C13.1416 11.6937 13.1368 11.6922 13.1326 11.6892C13.1285 11.6863 13.1251 11.6821 13.1229 11.6771C13.0508 11.5359 13.0111 11.3762 13.0077 11.2128C13.0077 11.1794 13.061 11.1794 13.061 11.2128C13.0641 11.3669 13.1016 11.5175 13.1698 11.6505C13.1714 11.654 13.1724 11.6579 13.1727 11.6618C13.173 11.6657 13.1726 11.6697 13.1715 11.6735C13.1704 11.6772 13.1687 11.6807 13.1664 11.6837C13.1641 11.6866 13.1613 11.6891 13.1582 11.6908C13.1547 11.6932 13.1506 11.6942 13.1465 11.6937Lnan nanZ" fill="#F0C727"/>
<path d="Mnan nanL12.9562 11.629C12.9518 11.6289 12.9474 11.6277 12.9435 11.6253C12.9355 11.6203 12.932 11.6108 12.9286 11.6021C12.8812 11.4799 12.8609 11.3462 12.8694 11.2128C12.8694 11.1794 12.9227 11.1794 12.9227 11.2128C12.9144 11.3392 12.9336 11.466 12.9786 11.5818C12.9824 11.5886 12.9837 11.5968 12.9822 11.6047C12.9808 11.6126 12.9767 11.6195 12.9708 11.624C12.9664 11.6271 12.9614 11.6288 12.9562 11.629Lnan nanZ" fill="#F0C727"/>
<path d="Mnan nanL12.5655 11.6937C12.5613 11.6942 12.5571 11.6932 12.5535 11.6908C12.5504 11.689 12.5477 11.6865 12.5454 11.6835C12.5432 11.6805 12.5415 11.6771 12.5405 11.6733C12.5394 11.6696 12.5391 11.6656 12.5394 11.6617C12.5397 11.6578 12.5407 11.654 12.5423 11.6505C12.6102 11.5174 12.6476 11.3668 12.6511 11.2128C12.6511 11.1794 12.704 11.1794 12.704 11.2128C12.701 11.3765 12.6615 11.5366 12.5891 11.678C12.5869 11.6829 12.5835 11.687 12.5793 11.6898C12.5751 11.6926 12.5703 11.6939 12.5655 11.6937Lnan nanZ" fill="#F0C727"/>
<path d="Mnan nanL12.7564 11.629C12.7512 11.6288 12.7462 11.6271 12.7418 11.624C12.7359 11.6196 12.7317 11.6127 12.7303 11.6048C12.7274 11.5892 12.7371 11.5745 12.7424 11.5596C12.782 11.45 12.7987 11.3312 12.7908 11.2128C12.7908 11.1794 12.8437 11.1794 12.8437 11.2128C12.8527 11.3511 12.8302 11.4897 12.7783 11.6152C12.7759 11.6194 12.7727 11.6228 12.7689 11.6252C12.765 11.6276 12.7608 11.6289 12.7564 11.629Lnan nanZ" fill="#F0C727"/>
<path d="Mnan nanL12.3343 10.4705C12.3722 10.4768 12.4085 10.4923 12.4406 10.5159C12.4472 10.5208 12.4542 10.5253 12.4613 10.5294C12.4951 10.5488 12.5248 10.5764 12.5482 10.6104C12.5497 10.6126 12.5511 10.6147 12.5525 10.6169C12.559 10.6268 12.626 10.6228 12.6377 10.621C12.6468 10.6195 12.6518 10.6076 12.6473 10.5996C12.6175 10.5461 12.574 10.504 12.5224 10.4795C12.4626 10.451 12.3959 10.4479 12.3343 10.4705Lnan nanZ" fill="#F0C727"/>
<path d="Mnan nanL12.599 10.7542C12.5964 10.7542 12.5939 10.7532 12.5918 10.7515C12.5897 10.7497 12.5881 10.7473 12.5873 10.7444L12.5869 10.7425C12.5857 10.7367 12.5828 10.7225 12.5818 10.7164C12.5818 10.7161 12.5818 10.7159 12.5818 10.7156C12.5818 10.7152 12.5817 10.7148 12.5816 10.7144C12.5714 10.6754 12.5541 10.6394 12.5307 10.6087C12.5081 10.5792 12.4805 10.5553 12.4495 10.5385C12.4468 10.5371 12.4445 10.5351 12.4426 10.5327L12.4277 10.5129C12.4255 10.5101 12.4213 10.5105 12.4197 10.5136C12.4183 10.5163 12.4149 10.517 12.4125 10.5153C12.4022 10.5079 12.3912 10.5016 12.3799 10.4967C12.3577 10.4872 12.3434 10.4604 12.364 10.4479C12.3642 10.4478 12.3644 10.4477 12.3645 10.4476C12.3909 10.4319 12.4245 10.4376 12.4548 10.4426C12.4928 10.4489 12.5295 10.4638 12.5627 10.4866C12.6091 10.5185 12.6467 10.5647 12.6712 10.6198C12.673 10.6237 12.6639 10.6266 12.6613 10.6306C12.6592 10.6345 12.6475 10.6345 12.6428 10.6345C12.6425 10.6345 12.6423 10.6346 12.6421 10.6348C12.6097 10.6621 12.6037 10.6856 12.6058 10.7101C12.606 10.7116 12.6059 10.7132 12.6055 10.7147C12.6049 10.7175 12.6046 10.7204 12.6059 10.7229C12.6082 10.7275 12.6099 10.7324 12.611 10.7376C12.6116 10.741 12.611 10.7446 12.6093 10.7475C12.6076 10.7504 12.605 10.7525 12.602 10.7533L12.599 10.7542Lnan nanZMnan nanL12.3766 10.4706C12.3955 10.4738 12.4134 10.4819 12.4291 10.4942L12.4575 10.5118C12.5052 10.5376 12.5456 10.5779 12.5743 10.6281C12.5798 10.6377 12.5959 10.6373 12.6028 10.6286C12.6076 10.6219 12.6137 10.6165 12.6205 10.6128C12.6294 10.6079 12.6358 10.5961 12.6301 10.5878C12.6026 10.5482 12.5671 10.5165 12.5265 10.4957C12.4796 10.4716 12.4277 10.4629 12.3766 10.4706Lnan nanZ" fill="#F0C727"/>
<path d="M12.856 13.4956C12.9016 13.4956 12.9408 13.528 12.9494 13.5728L13.1658 14.6983C13.1705 14.7229 13.1636 14.7484 13.147 14.7672L13.1448 14.7696C13.1168 14.8014 13.0686 14.805 13.0363 14.7776C13.0213 14.765 13.0117 14.7472 13.0093 14.7277L12.8769 13.6509L12.9332 14.7316C12.9341 14.7487 12.9293 14.7656 12.9196 14.7797C12.8888 14.8242 12.8229 14.8242 12.7922 14.7795C12.7826 14.7655 12.7779 14.7488 12.7787 14.7318L12.8342 13.6509L12.7023 14.7276C12.6999 14.7471 12.6902 14.765 12.6751 14.7777C12.6427 14.8049 12.5943 14.8012 12.5665 14.7692L12.5646 14.767C12.5483 14.7483 12.5415 14.7231 12.5462 14.6987L12.7626 13.5728C12.7712 13.528 12.8104 13.4956 12.856 13.4956Z" fill="#F0C727"/>
<path d="Mnan nanL12.8562 14.913L12.7844 14.8087C12.7687 14.786 12.7609 14.7587 12.7622 14.7311L12.7848 14.2407L12.7249 14.7272C12.7222 14.7496 12.7118 14.7704 12.6955 14.7861L12.6939 14.7876C12.6581 14.822 12.6021 14.8234 12.5645 14.791C12.5387 14.7687 12.5266 14.7344 12.5328 14.7009L12.7409 13.5697C12.7496 13.5223 12.7883 13.4863 12.8362 13.481C12.8921 13.4749 12.9435 13.5123 12.9549 13.5674L13.1859 14.6855C13.192 14.7147 13.1852 14.7452 13.1674 14.7692L13.1611 14.7776C13.1325 14.816 13.0794 14.8265 13.0384 14.8018C13.014 14.7871 12.9976 14.7621 12.994 14.7339L12.9297 14.2339L12.9544 14.7117C12.956 14.7412 12.9482 14.7703 12.9322 14.7951L12.8562 14.913Lnan nanZM12.8562 13.6695L12.8008 14.7406C12.8001 14.753 12.804 14.7653 12.8117 14.7752C12.8333 14.8031 12.8758 14.802 12.8959 14.773L12.9047 14.7603C12.9128 14.7486 12.9168 14.7346 12.9159 14.7204L12.8562 13.6695ZMnan nanL12.9129 13.5016L12.8343 13.513C12.8004 13.518 12.7734 13.5441 12.7674 13.5778L12.5664 14.7114C12.5629 14.7312 12.5698 14.7514 12.5847 14.765C12.6104 14.7885 12.6509 14.7845 12.6715 14.7563L12.6754 14.7511C12.682 14.7421 12.6861 14.7315 12.6874 14.7204L12.8081 13.6859C12.8107 13.6643 12.8302 13.6489 12.8517 13.6513C12.8547 13.6517 12.8576 13.6517 12.8606 13.6513C12.8819 13.6489 12.9013 13.6641 12.9039 13.6854L13.0324 14.7299C13.0344 14.7459 13.0429 14.7604 13.056 14.7697C13.0839 14.7897 13.1228 14.7811 13.1397 14.7513L13.1452 14.7416C13.1532 14.7275 13.1558 14.7109 13.1526 14.695L12.9129 13.5016Lnan nanZ" fill="#F0C727"/>
<path d="Mnan nanL11.4501 11.55L11.3341 14.6998C11.3332 14.7237 11.3234 14.7465 11.3067 14.7636C11.2452 14.8263 11.1387 14.7805 11.1419 14.6927L11.2515 11.7323C11.2531 11.6886 11.2719 11.6466 11.3077 11.6216C11.3521 11.5907 11.4 11.5666 11.4501 11.55Lnan nanZ" fill="#F0C727"/>
<path d="Mnan nanL11.6893 11.7768L11.5903 14.4114C11.5895 14.4328 11.5815 14.4534 11.5675 14.4697C11.5088 14.5381 11.3968 14.4941 11.4003 14.4041L11.5037 11.7786C11.5063 11.7136 11.5916 11.6808 11.6382 11.7261C11.6621 11.7494 11.6817 11.7685 11.6893 11.7768Lnan nanZ" fill="#F0C727"/>
<path d="Mnan nanL11.9072 11.9814L11.8299 14.1775C11.8293 14.1956 11.8223 14.2128 11.8102 14.2262C11.7621 14.2796 11.6736 14.2436 11.6764 14.1718L11.7628 11.9857C11.7648 11.9361 11.8313 11.9101 11.8679 11.9435C11.8852 11.9593 11.8997 11.9728 11.9072 11.9814Lnan nanZ" fill="#F0C727"/>
<path d="Mnan nanL12.1428 12.0948L12.0654 13.9589C12.0645 13.9789 12.0558 13.9977 12.0411 14.0113C11.9916 14.0572 11.9114 14.0203 11.9139 13.9529L11.9813 12.136C11.9831 12.0875 12.0379 12.0586 12.0832 12.076C12.1027 12.0835 12.1226 12.0898 12.1428 12.0948Lnan nanZ" fill="#F0C727"/>
<path d="M12.2693 12.1155C12.3138 12.1114 12.3586 12.1437 12.357 12.1883L12.3038 13.6474C12.3031 13.6653 12.2962 13.6825 12.2842 13.6959C12.2363 13.7494 12.1476 13.7138 12.1501 13.6419L12.2007 12.1821C12.202 12.146 12.2333 12.1189 12.2693 12.1155Z" fill="#F0C727"/>
<path d="M14.4163 11.6304C14.3476 11.5797 14.265 11.6407 14.2681 11.7259L14.3785 14.7001C14.3793 14.7238 14.389 14.7464 14.4056 14.7634C14.4667 14.8261 14.573 14.7806 14.5698 14.693L14.4596 11.7162C14.4584 11.6828 14.4432 11.6502 14.4163 11.6304Z" fill="#F0C727"/>
<path d="Mnan nanL14.023 11.7768L14.1214 14.4068C14.1223 14.431 14.1323 14.454 14.1495 14.4712C14.2113 14.5327 14.3165 14.4865 14.313 14.3994L14.2087 11.7785C14.2061 11.7135 14.1207 11.6806 14.074 11.726C14.0501 11.7493 14.0305 11.7684 14.023 11.7768Lnan nanZ" fill="#F0C727"/>
<path d="M13.8168 11.9692C13.8047 11.9811 13.8054 11.9908 13.8061 12.0077L13.8861 14.1743C13.8868 14.1942 13.8955 14.2131 13.9101 14.2267C13.9593 14.2723 14.0392 14.2356 14.0365 14.1685L13.9507 12.0139C13.9483 11.9539 13.8597 11.9273 13.8168 11.9692Z" fill="#F0C727"/>
<path d="Mnan nanL13.5697 12.0948L13.6471 13.9256C13.6479 13.9455 13.6566 13.9644 13.6713 13.9779C13.7208 14.0237 13.801 13.9869 13.7984 13.9195L13.7308 12.1359C13.729 12.0876 13.6742 12.0588 13.629 12.0761C13.6096 12.0836 13.5898 12.0899 13.5697 12.0948Lnan nanZ" fill="#F0C727"/>
<path d="Mnan nanL13.3523 12.095L13.4085 13.6472C13.4091 13.6653 13.4161 13.6825 13.4282 13.696C13.4763 13.7495 13.5651 13.7138 13.5626 13.6418L13.5126 12.1979C13.511 12.1532 13.4718 12.1198 13.4276 12.1137C13.4021 12.1102 13.3769 12.1039 13.3523 12.095Lnan nanZ" fill="#F0C727"/>
<path d="M12.696 13.4349C12.5445 13.239 12.2338 13.3047 12.1744 13.5451L11.9296 14.5357C11.8847 14.7174 12.0033 14.8991 12.1877 14.9311C12.3611 14.9613 12.5267 14.8469 12.5599 14.6741L12.7527 13.672C12.7687 13.5885 12.7481 13.5021 12.696 13.4349Z" fill="white"/>
<path d="Mnan nanL12.5 15.0142L12.4965 15.0132L11.8433 14.8994C11.8399 14.8988 11.8366 14.8974 11.8336 14.8952C11.8307 14.8931 11.8282 14.8902 11.8263 14.8869C11.8243 14.8836 11.8231 14.8798 11.8225 14.8759C11.822 14.8719 11.8222 14.8679 11.8231 14.8641L12.2978 12.9432C12.2989 12.9383 12.3012 12.9337 12.3044 12.9301C12.3076 12.9265 12.3115 12.9239 12.3159 12.9226C12.3202 12.922 12.3246 12.9225 12.3288 12.924C12.333 12.9255 12.3368 12.9281 12.34 12.9315C12.6303 13.3074 12.7468 13.7892 12.6603 14.2563L12.5241 14.9916C12.523 14.998 12.52 15.0038 12.5156 15.0079C12.5112 15.012 12.5057 15.0143 12.5 15.0142Lnan nanZMnan nanL11.8781 14.8483L12.182 14.9013C12.3478 14.9302 12.5061 14.8209 12.5379 14.6557L12.7301 13.6575C12.7451 13.5798 12.7253 13.4994 12.676 13.4375C12.5359 13.2617 12.255 13.3231 12.2011 13.5413L11.8781 14.8483Lnan nanZ" fill="#F0C727"/>
<path d="M13.0171 13.4349C13.1686 13.2391 13.4792 13.3048 13.5385 13.5452L13.783 14.5365C13.8277 14.7178 13.7094 14.8991 13.5254 14.9311C13.3522 14.9613 13.1869 14.8472 13.1536 14.6746L12.9605 13.672C12.9444 13.5885 12.965 13.5021 13.0171 13.4349Z" fill="white"/>
<path d="Mnan nanL13.2132 15.0142C13.2075 15.0143 13.2019 15.012 13.1975 15.0079C13.1931 15.0038 13.1901 14.998 13.1891 14.9916L13.0564 14.3027C12.9637 13.8214 13.0788 13.3234 13.3731 12.9315C13.3763 12.9281 13.3802 12.9255 13.3843 12.924C13.3925 12.921 13.4022 12.9233 13.4081 12.9297C13.4083 12.9299 13.4084 12.9301 13.4086 12.9303C13.4117 12.9339 13.4141 12.9383 13.4153 12.9432L13.8896 14.8641C13.8905 14.8679 13.8907 14.8719 13.8901 14.8759C13.8896 14.8798 13.8883 14.8836 13.8864 14.8869C13.8845 14.8902 13.882 14.8931 13.8791 14.8952C13.8761 14.8974 13.8728 14.8988 13.8694 14.8994L13.217 15.0132L13.2132 15.0142Lnan nanZM13.5169 13.5628C13.4616 13.3386 13.1717 13.2773 13.0304 13.4601C12.9815 13.5233 12.9624 13.6047 12.9781 13.6831L13.1749 14.6682C13.2067 14.8273 13.3597 14.9319 13.5195 14.9037C13.6897 14.8738 13.799 14.706 13.7576 14.5381L13.5169 13.5628Z" fill="#F0C727"/>
<path d="M12.2215 13.7941C12.2183 13.7941 12.2151 13.7939 12.2122 13.7926C12.2095 13.7915 12.207 13.7898 12.2047 13.7877C12.2013 13.7844 12.1986 13.7802 12.197 13.7754L12.1398 13.6174C12.1371 13.61 12.1371 13.6018 12.1398 13.5944C12.1424 13.5871 12.1475 13.5812 12.1539 13.5782C12.1571 13.5765 12.1605 13.5755 12.164 13.5754C12.1675 13.5753 12.1709 13.576 12.1741 13.5775C12.1774 13.5789 12.1803 13.5812 12.1828 13.584C12.1852 13.5868 12.1871 13.5901 12.1884 13.5938C12.2064 13.644 12.2725 13.655 12.3058 13.6133L12.3802 13.5202C12.3824 13.5172 12.3853 13.5147 12.3884 13.513C12.3916 13.5112 12.395 13.5102 12.3985 13.51C12.402 13.5099 12.4055 13.5105 12.4088 13.5119C12.4121 13.5133 12.4151 13.5155 12.4176 13.5183C12.4201 13.5209 12.4222 13.5241 12.4237 13.5276C12.4252 13.5312 12.426 13.535 12.4262 13.5389C12.4263 13.5429 12.4258 13.5468 12.4246 13.5505C12.4234 13.5542 12.4216 13.5576 12.4193 13.5605L12.2408 13.7852C12.2383 13.7881 12.2353 13.7904 12.2319 13.7919C12.2286 13.7934 12.2251 13.7942 12.2215 13.7941Z" fill="#F0C727"/>
<path d="Mnan nanL12.4426 13.9296C12.4404 13.9295 12.4383 13.929 12.4363 13.928C12.4359 13.9278 12.4355 13.9276 12.4351 13.9275C12.4302 13.9259 12.4258 13.9228 12.4225 13.9184C12.419 13.9138 12.4169 13.9082 12.4163 13.9022L12.3553 13.271C12.355 13.2671 12.3553 13.2632 12.3564 13.2595C12.3574 13.2557 12.359 13.2522 12.3612 13.2492C12.3634 13.2462 12.3661 13.2437 12.3692 13.2419C12.3722 13.2401 12.3755 13.239 12.379 13.2387C12.3858 13.2379 12.3927 13.2402 12.3981 13.2452C12.4035 13.2501 12.407 13.2573 12.4078 13.2652L12.4345 13.5411C12.4435 13.6349 12.5653 13.6655 12.6176 13.5871C12.6222 13.5812 12.6286 13.5774 12.6355 13.5765C12.6424 13.5756 12.6493 13.5776 12.655 13.5822C12.6605 13.5871 12.6641 13.5943 12.665 13.6022C12.6659 13.6101 12.664 13.6181 12.6598 13.6244L12.4637 13.9179C12.4611 13.9214 12.4579 13.9243 12.4542 13.9263C12.4506 13.9284 12.4466 13.9295 12.4426 13.9296Lnan nanZ" fill="#F0C727"/>
<path d="Mnan nanL12.6773 14.0874C12.6721 14.0875 12.6669 14.0858 12.6625 14.0824C12.6582 14.0791 12.6548 14.0743 12.6528 14.0688L12.5354 13.7302C12.5341 13.7266 12.5334 13.7227 12.5334 13.7188C12.5335 13.7149 12.5342 13.711 12.5356 13.7075C12.5369 13.7039 12.5389 13.7007 12.5414 13.698C12.5439 13.6953 12.5468 13.6932 12.55 13.6919C12.5532 13.6902 12.5566 13.6893 12.5601 13.6892C12.5636 13.6891 12.5671 13.6899 12.5703 13.6915C12.5735 13.6931 12.5764 13.6954 12.5788 13.6984C12.5811 13.7013 12.5829 13.7048 12.584 13.7086L12.7014 14.0462C12.7027 14.0499 12.7034 14.0538 12.7034 14.0578C12.7034 14.0617 12.7026 14.0657 12.7013 14.0693C12.6999 14.073 12.6979 14.0763 12.6955 14.0791C12.693 14.0818 12.69 14.084 12.6868 14.0855C12.6838 14.087 12.6806 14.0877 12.6773 14.0874Lnan nanZ" fill="#F0C727"/>
<path d="Mnan nanL12.4996 14.3603L12.4931 14.3593C12.4888 14.3582 12.4848 14.3557 12.4815 14.3523C12.4781 14.3489 12.4757 14.3445 12.4742 14.3397L12.4347 14.1953C12.4205 14.1432 12.3492 14.1369 12.3259 14.1856C12.3236 14.1904 12.3199 14.1959 12.3157 14.1995C12.3081 14.2059 12.2954 14.2023 12.2877 14.1961C12.2835 14.1927 12.2803 14.1881 12.2786 14.1826C12.2473 14.0972 12.1375 14.0737 12.074 14.1389L12.064 14.1493C12.0587 14.1542 12.052 14.1568 12.0452 14.1564C12.0383 14.156 12.0319 14.1528 12.027 14.1473C12.0223 14.1413 12.0198 14.1334 12.0201 14.1253C12.0204 14.1172 12.0235 14.1096 12.0287 14.1041L12.2033 13.9255C12.2062 13.9218 12.21 13.9192 12.2142 13.918C12.2184 13.9168 12.2229 13.917 12.227 13.9186C12.2311 13.9197 12.2349 13.9219 12.2381 13.9249C12.2413 13.928 12.2438 13.9319 12.2454 13.9363L12.2496 13.9477C12.2705 14.0052 12.3502 14.0091 12.3766 13.9539C12.3794 13.9492 12.3832 13.9453 12.3876 13.9426C12.392 13.9398 12.397 13.9384 12.402 13.9383C12.4072 13.9387 12.4122 13.9408 12.4164 13.9445C12.4205 13.9482 12.4236 13.9532 12.4252 13.9589L12.4596 14.0841C12.4819 14.1654 12.5857 14.1892 12.6411 14.1257C12.6461 14.1201 12.6528 14.1169 12.6598 14.1169C12.6668 14.1169 12.6735 14.1201 12.6785 14.1257C12.6834 14.1315 12.6862 14.1392 12.6862 14.1473C12.6862 14.1554 12.6834 14.1632 12.6785 14.1689L12.5181 14.3514C12.5157 14.3543 12.5129 14.3566 12.5097 14.3581C12.5065 14.3596 12.5031 14.3603 12.4996 14.3603Lnan nanZ" fill="#F0C727"/>
<path d="Mnan nanL12.56 14.7679C12.5539 14.7678 12.548 14.7653 12.5433 14.7608C12.5386 14.7563 12.5354 14.7502 12.5342 14.7433L12.5225 14.6768C12.5088 14.5994 12.4081 14.5775 12.3635 14.6422C12.3607 14.6467 12.3567 14.6501 12.3522 14.652C12.3477 14.6539 12.3428 14.6543 12.3381 14.653C12.3335 14.652 12.3291 14.6497 12.3255 14.6463C12.3219 14.6428 12.3191 14.6384 12.3175 14.6334L12.3074 14.5985C12.2863 14.5249 12.189 14.5093 12.1459 14.5725C12.1428 14.5764 12.139 14.5794 12.1347 14.5815C12.1305 14.5835 12.126 14.5844 12.1214 14.5843C12.1167 14.5837 12.1124 14.5816 12.1087 14.5783C12.1051 14.575 12.1023 14.5706 12.1007 14.5656L11.979 14.228C11.9777 14.2244 11.977 14.2205 11.977 14.2165C11.9769 14.2126 11.9776 14.2086 11.9789 14.205C11.9802 14.2013 11.9822 14.198 11.9846 14.1952C11.9871 14.1924 11.99 14.1902 11.9932 14.1888C11.9964 14.1871 11.9998 14.1862 12.0033 14.186C12.0067 14.1859 12.0102 14.1866 12.0134 14.1881C12.0166 14.1896 12.0196 14.1918 12.022 14.1946C12.0244 14.1974 12.0264 14.2008 12.0276 14.2045L12.0653 14.3093C12.0932 14.3867 12.1971 14.4 12.2435 14.3321C12.2467 14.3282 12.2506 14.3253 12.2549 14.3234C12.2592 14.3215 12.2638 14.3208 12.2684 14.3213C12.2731 14.3222 12.2774 14.3246 12.281 14.328C12.2847 14.3314 12.2874 14.3359 12.2891 14.3409L12.2904 14.3456C12.3151 14.4314 12.4285 14.4499 12.4791 14.3762C12.4822 14.3717 12.4864 14.3683 12.4911 14.3665C12.4959 14.3647 12.501 14.3647 12.5058 14.3664C12.5108 14.3677 12.5153 14.3707 12.5188 14.3749C12.5223 14.379 12.5246 14.3843 12.5256 14.39L12.5862 14.7315C12.5869 14.7354 12.5869 14.7395 12.5862 14.7434C12.5855 14.7473 12.5842 14.751 12.5822 14.7542C12.5802 14.7575 12.5777 14.7603 12.5748 14.7625C12.5719 14.7647 12.5686 14.7662 12.5652 14.7669L12.56 14.7679Lnan nanZ" fill="#F0C727"/>
<path d="Mnan nanL12.3999 15.0162L12.3933 15.0152C12.3928 15.0152 12.3924 15.0151 12.392 15.0149C12.3881 15.0134 12.3846 15.011 12.3817 15.0078C12.3787 15.0044 12.3764 15.0002 12.375 14.9956L12.3677 14.9704C12.3485 14.9037 12.2577 14.8947 12.2258 14.9563C12.2232 14.9612 12.2194 14.9663 12.2151 14.9695C12.207 14.9755 12.1946 14.9717 12.187 14.9651C12.1831 14.9616 12.1801 14.9568 12.1785 14.9514L12.1486 14.8627C12.1274 14.7997 12.0427 14.7893 12.0069 14.8454C12.0026 14.8516 11.9963 14.8557 11.9894 14.8568C11.9826 14.8579 11.9756 14.8559 11.9699 14.8513C11.9672 14.849 11.9648 14.8461 11.963 14.8428C11.9613 14.8395 11.9601 14.8358 11.9596 14.832C11.959 14.8281 11.9592 14.8242 11.96 14.8205C11.9608 14.8167 11.9623 14.8131 11.9643 14.81L12.0817 14.6265C12.0846 14.6222 12.0885 14.6189 12.0928 14.6169C12.0972 14.6148 12.102 14.6141 12.1067 14.6147C12.1114 14.6152 12.1159 14.6172 12.1196 14.6205C12.1234 14.6238 12.1262 14.6283 12.1277 14.6334L12.1456 14.6863C12.1691 14.7559 12.2646 14.7633 12.2985 14.6982C12.3008 14.693 12.3045 14.6888 12.3091 14.6862C12.3136 14.6835 12.3188 14.6826 12.3238 14.6834C12.3289 14.684 12.3337 14.6863 12.3377 14.69C12.3416 14.6936 12.3446 14.6985 12.3462 14.704L12.3779 14.8137C12.3938 14.869 12.4626 14.8878 12.5044 14.8483C12.5071 14.8458 12.5102 14.844 12.5136 14.8429C12.5169 14.8418 12.5204 14.8415 12.5238 14.8419C12.5273 14.8424 12.5306 14.8436 12.5336 14.8456C12.5366 14.8475 12.5393 14.8501 12.5414 14.8532C12.5458 14.8594 12.5479 14.8673 12.5472 14.8751C12.5466 14.883 12.5433 14.8903 12.538 14.8954L12.4167 15.0093C12.4118 15.0134 12.406 15.0158 12.3999 15.0162Lnan nanZ" fill="#F0C727"/>
<path d="M13.4909 13.7943C13.4873 13.7944 13.4837 13.7937 13.4804 13.7922C13.4771 13.7907 13.4741 13.7884 13.4715 13.7855L13.2935 13.5607C13.2888 13.5548 13.2864 13.547 13.2867 13.539C13.2871 13.531 13.2902 13.5236 13.2954 13.5182C13.3006 13.5129 13.3075 13.5101 13.3144 13.5105C13.3214 13.511 13.328 13.5145 13.3326 13.5204L13.4063 13.6132C13.4395 13.655 13.5058 13.6443 13.524 13.5941C13.5253 13.5904 13.5272 13.587 13.5296 13.5842C13.532 13.5813 13.535 13.5791 13.5382 13.5776C13.5414 13.5762 13.5449 13.5755 13.5484 13.5756C13.5518 13.5757 13.5553 13.5767 13.5584 13.5784C13.5648 13.5815 13.5699 13.5873 13.5726 13.5947C13.5752 13.602 13.5752 13.6103 13.5726 13.6176L13.5154 13.7757C13.5137 13.7804 13.511 13.7846 13.5075 13.7878C13.5053 13.7899 13.5028 13.7916 13.5001 13.7928C13.4972 13.7941 13.494 13.7943 13.4909 13.7943Z" fill="#F0C727"/>
<path d="Mnan nanL13.2733 13.9292C13.2693 13.9292 13.2654 13.9282 13.2618 13.9261C13.2582 13.9241 13.2551 13.9211 13.2527 13.9175L13.0527 13.624C13.0485 13.6177 13.0467 13.6097 13.0476 13.6018C13.0484 13.594 13.052 13.5868 13.0575 13.5819C13.063 13.577 13.0699 13.5748 13.0768 13.5757C13.0837 13.5766 13.0901 13.5805 13.0944 13.5867C13.1481 13.6656 13.2711 13.6338 13.2797 13.5387L13.3047 13.2647C13.305 13.2608 13.3061 13.257 13.3077 13.2536C13.3093 13.2501 13.3116 13.247 13.3143 13.2446C13.3169 13.2421 13.32 13.2403 13.3233 13.2392C13.3267 13.2381 13.3301 13.2378 13.3335 13.2382C13.337 13.2385 13.3403 13.2396 13.3433 13.2414C13.3464 13.2432 13.3491 13.2457 13.3513 13.2487C13.3534 13.2517 13.355 13.2553 13.356 13.259C13.3569 13.2628 13.3572 13.2667 13.3568 13.2706L13.2995 13.9017C13.299 13.9076 13.2969 13.9132 13.2935 13.9178C13.2902 13.9222 13.2859 13.9254 13.2811 13.9271C13.2808 13.9272 13.2805 13.9273 13.2801 13.9275C13.278 13.9285 13.2756 13.9291 13.2733 13.9292Lnan nanZ" fill="#F0C727"/>
<path d="Mnan nanL13.0345 14.0875C13.0311 14.0878 13.0277 14.0871 13.0246 14.0855C13.0182 14.0824 13.0131 14.0766 13.0104 14.0692C13.0076 14.0619 13.0075 14.0537 13.01 14.0463L13.1278 13.7086C13.1289 13.7048 13.1307 13.7013 13.133 13.6984C13.1354 13.6954 13.1383 13.6931 13.1415 13.6915C13.1447 13.6899 13.1482 13.6891 13.1517 13.6892C13.1552 13.6893 13.1586 13.6902 13.1618 13.6919C13.1649 13.6933 13.1678 13.6954 13.1703 13.6981C13.1728 13.7008 13.1747 13.704 13.1761 13.7076C13.1775 13.7111 13.1782 13.715 13.1782 13.7189C13.1783 13.7228 13.1776 13.7266 13.1764 13.7302L13.059 14.0688C13.057 14.0744 13.0536 14.0791 13.0492 14.0824C13.0448 14.0857 13.0397 14.0875 13.0345 14.0875Lnan nanZ" fill="#F0C727"/>
<path d="Mnan nanL13.2132 14.3605C13.2097 14.3606 13.2062 14.3598 13.203 14.3583C13.1997 14.3567 13.1968 14.3545 13.1943 14.3517L13.0374 14.1692C13.0324 14.1634 13.0296 14.1556 13.0296 14.1476C13.0296 14.1395 13.0324 14.1317 13.0374 14.1259C13.0423 14.1203 13.0491 14.1171 13.0561 14.1171C13.0631 14.1171 13.0698 14.1203 13.0748 14.1259C13.1258 14.1855 13.2229 14.161 13.2395 14.0844L13.2661 13.9611C13.2673 13.9554 13.27 13.9502 13.2737 13.9462C13.2775 13.9422 13.2821 13.9395 13.2872 13.9385C13.2923 13.9377 13.2975 13.9386 13.3023 13.941C13.307 13.9434 13.311 13.9473 13.3139 13.9522C13.3498 14.0139 13.4413 14.0057 13.4657 13.9387L13.4665 13.9365C13.4682 13.9321 13.4707 13.9283 13.4739 13.9252C13.4771 13.9221 13.4809 13.9199 13.485 13.9189C13.4891 13.9175 13.4934 13.9174 13.4975 13.9186C13.5016 13.9198 13.5053 13.9223 13.5082 13.9257L13.6871 14.1043C13.6923 14.1096 13.6954 14.117 13.6958 14.125C13.6962 14.1329 13.6939 14.1406 13.6893 14.1466C13.6847 14.1525 13.6782 14.1562 13.6713 14.1567C13.6644 14.1573 13.6576 14.1547 13.6523 14.1495L13.6402 14.1374C13.5755 14.0726 13.4653 14.0969 13.4339 14.1829C13.4321 14.188 13.4291 14.1925 13.4252 14.1958C13.4214 14.1991 13.4167 14.2011 13.4119 14.2015C13.4071 14.2019 13.4024 14.2008 13.398 14.1984C13.3937 14.196 13.3901 14.1924 13.3874 14.1878C13.3576 14.1364 13.2801 14.1486 13.2675 14.2067L13.239 14.338C13.2378 14.3431 13.2354 14.3478 13.2321 14.3516C13.2287 14.3554 13.2246 14.3581 13.2201 14.3596C13.2179 14.3604 13.2156 14.3607 13.2132 14.3605Lnan nanZ" fill="#F0C727"/>
<path d="Mnan nanL13.1522 14.7679L13.1471 14.7669C13.1437 14.7661 13.1404 14.7646 13.1376 14.7624C13.1347 14.7602 13.1322 14.7574 13.1303 14.7541C13.1284 14.7509 13.1271 14.7472 13.1264 14.7433C13.1257 14.7394 13.1257 14.7354 13.1264 14.7316L13.1875 14.39C13.1884 14.3843 13.1908 14.3791 13.1943 14.3749C13.1978 14.3707 13.2023 14.3678 13.2072 14.3664C13.2121 14.3647 13.2174 14.3649 13.2222 14.3668C13.227 14.3688 13.2311 14.3724 13.2339 14.3772C13.2844 14.4505 13.3974 14.4321 13.422 14.3466L13.4236 14.341C13.4252 14.336 13.4279 14.3315 13.4314 14.3281C13.4349 14.3246 13.4392 14.3223 13.4438 14.3213C13.4485 14.3204 13.4533 14.321 13.4577 14.3229C13.4622 14.3248 13.4661 14.328 13.4692 14.3321C13.5156 14.4001 13.6195 14.3868 13.6473 14.3093L13.685 14.2045C13.6863 14.2008 13.6882 14.1975 13.6906 14.1946C13.6931 14.1918 13.696 14.1896 13.6992 14.1881C13.7024 14.1866 13.7059 14.1859 13.7094 14.186C13.7129 14.1862 13.7163 14.1871 13.7194 14.1888C13.7226 14.1903 13.7255 14.1925 13.728 14.1953C13.7305 14.1981 13.7324 14.2014 13.7337 14.205C13.735 14.2087 13.7357 14.2126 13.7357 14.2165C13.7357 14.2205 13.735 14.2244 13.7336 14.228L13.6124 14.5657C13.6107 14.5706 13.6079 14.5749 13.6043 14.5782C13.6006 14.5815 13.5963 14.5836 13.5917 14.5843C13.5871 14.5847 13.5825 14.5838 13.5782 14.5818C13.574 14.5798 13.5702 14.5766 13.5672 14.5726C13.5238 14.5092 13.4262 14.5248 13.4048 14.5986L13.3948 14.6334C13.3932 14.6384 13.3905 14.6429 13.3869 14.6463C13.3834 14.6497 13.3791 14.6521 13.3745 14.653C13.3699 14.6542 13.365 14.6538 13.3605 14.6519C13.356 14.65 13.3521 14.6467 13.3492 14.6423C13.3047 14.5775 13.2041 14.5992 13.1903 14.6766L13.1785 14.7433C13.1773 14.7503 13.174 14.7565 13.1692 14.761C13.1644 14.7655 13.1584 14.7679 13.1522 14.7679Lnan nanZ" fill="#F0C727"/>
<path d="M13.3166 15.0157C13.3142 15.016 13.3118 15.0162 13.3094 15.0157C13.3047 15.0148 13.3001 15.0126 13.2962 15.0093L13.1754 14.8954C13.1701 14.8904 13.1667 14.8831 13.166 14.8752C13.1653 14.8674 13.1673 14.8595 13.1717 14.8533C13.176 14.8471 13.1823 14.8431 13.1892 14.8422C13.1961 14.8413 13.203 14.8435 13.2085 14.8483C13.2503 14.8878 13.3191 14.869 13.335 14.8137L13.3667 14.704C13.3683 14.6985 13.3712 14.6936 13.3752 14.69C13.3791 14.6863 13.3839 14.6841 13.3889 14.6834C13.394 14.6828 13.3991 14.6839 13.4036 14.6865C13.4081 14.6891 13.4119 14.6931 13.4145 14.6981C13.4481 14.7632 13.5434 14.756 13.5669 14.6865L13.5848 14.6334C13.5863 14.6282 13.5891 14.6237 13.5928 14.6204C13.5966 14.6171 13.6011 14.6151 13.6058 14.6147C13.6105 14.6141 13.6152 14.6148 13.6195 14.6169C13.6238 14.619 13.6275 14.6223 13.6304 14.6265L13.7482 14.81C13.7502 14.8131 13.7517 14.8167 13.7525 14.8205C13.7533 14.8243 13.7534 14.8282 13.7529 14.8321C13.7523 14.836 13.7511 14.8396 13.7492 14.8429C13.7474 14.8462 13.745 14.8491 13.7422 14.8513C13.7366 14.8559 13.7297 14.8579 13.7229 14.8568C13.716 14.8557 13.7099 14.8516 13.7056 14.8454C13.6698 14.7893 13.585 14.7997 13.5638 14.8628L13.534 14.9514C13.5324 14.9568 13.5294 14.9615 13.5254 14.965C13.5178 14.9716 13.5056 14.9753 13.4974 14.9695C13.493 14.9663 13.4891 14.9612 13.4863 14.9563C13.4547 14.8951 13.3645 14.9039 13.3453 14.9701L13.3379 14.9955C13.3366 15.0002 13.3343 15.0044 13.3312 15.0078C13.329 15.0102 13.3265 15.0122 13.3238 15.0136C13.3216 15.0148 13.3191 15.0153 13.3166 15.0157Z" fill="#F0C727"/>
<path d="Mnan nanL12.8562 11.8469C12.9599 11.9372 13.076 12.0045 13.1987 12.047C13.4134 12.1212 13.6238 12.2857 13.5943 12.5108C13.5684 12.7079 13.5158 12.9 13.4378 13.0801C13.2116 13.6024 12.501 13.6022 12.2748 13.08C12.1969 12.9001 12.1443 12.7083 12.1183 12.5116C12.0886 12.2862 12.2995 12.1217 12.5143 12.0472C12.6368 12.0048 12.7528 11.9373 12.8562 11.8469Lnan nanZ" fill="white"/>
<path d="Mnan nanL12.8558 13.8547C12.8522 13.8547 12.8487 13.8537 12.8455 13.8517C12.5944 13.6614 12.3918 13.3988 12.2582 13.0905C12.1295 12.7936 12.0691 12.4645 12.0825 12.1341C12.0834 12.1105 12.0974 12.0886 12.1203 12.0827C12.1413 12.0772 12.163 12.0753 12.1846 12.0771Lnan nanL12.1846 12.0771C12.315 12.0807 12.4438 12.0561 12.5646 12.0059C12.7412 11.9324 12.9507 11.9276 13.1276 12.0003C13.1419 12.0061 13.1562 12.0116 13.1706 12.0168C13.4012 12.1001 13.6295 12.2741 13.6006 12.5176C13.5775 12.712 13.5282 12.902 13.4536 13.0807C13.323 13.394 13.1198 13.6606 12.8661 13.8517C12.863 13.8536 12.8594 13.8546 12.8558 13.8547Lnan nanZM12.1846 12.1193C12.1393 12.1193 12.1004 12.1542 12.1008 12.1995C12.1036 12.5029 12.1677 12.8018 12.2885 13.0729C12.5134 13.5775 13.2057 13.5712 13.4233 13.0634C13.5429 12.7845 13.6011 12.4768 13.5933 12.1671C13.5929 12.1514 13.5432 12.1193 13.5276 12.1193C13.5211 12.1195 13.5146 12.1195 13.5081 12.1195C13.0959 12.1194 12.5964 12.1376 12.1846 12.1193Z" fill="#F0C727"/>
<path d="Mnan nanL12.8561 13.7438C13.0738 13.5634 13.2493 13.3246 13.3669 13.0485C13.432 12.8955 13.4783 12.7336 13.5049 12.5675C13.5402 12.347 13.3433 12.1803 13.1349 12.1002C12.9609 12.0334 12.7487 12.0318 12.5746 12.0981C12.3605 12.1795 12.1588 12.3551 12.2005 12.5803C12.2304 12.7416 12.2782 12.8986 12.3432 13.0472C12.4635 13.3224 12.6393 13.5611 12.8561 13.7438Lnan nanZ" fill="#F0C727"/>
<path d="Mnan nanL12.856 13.7725C12.8511 13.7724 12.8463 13.7707 12.8422 13.7675C12.6226 13.5819 12.4445 13.3397 12.3223 13.0607C12.2002 12.7817 12.1374 12.4737 12.1391 12.1618C12.139 12.158 12.1395 12.1542 12.1407 12.1507C12.1419 12.1471 12.1437 12.1439 12.1461 12.1412C12.1483 12.1384 12.151 12.1361 12.154 12.1346C12.1571 12.1331 12.1603 12.1323 12.1637 12.1323C12.4044 12.149 12.6429 12.0722 12.8405 11.9145C12.8452 11.9105 12.8508 11.9085 12.8566 11.9087C12.8624 11.9089 12.8679 11.9113 12.8724 11.9155C13.063 12.0727 13.2956 12.1494 13.5303 12.1323C13.5336 12.1323 13.5369 12.133 13.54 12.1345C13.543 12.136 13.5458 12.1383 13.5479 12.1412C13.5503 12.1439 13.5522 12.1471 13.5535 12.1506C13.5547 12.1542 13.5553 12.158 13.5553 12.1618C13.5649 12.473 13.5075 12.7822 13.3879 13.0622C13.2684 13.3422 13.0905 13.5844 12.8698 13.7675C12.8657 13.7706 12.8609 13.7723 12.856 13.7725Lnan nanZM12.5893 12.123C12.3802 12.2033 12.1874 12.3777 12.2304 12.5975C12.2602 12.7497 12.3061 12.8976 12.3675 13.038C12.5603 13.4786 13.1538 13.4817 13.3424 13.0393C13.4043 12.8942 13.449 12.741 13.4757 12.5838C13.5123 12.3685 13.3241 12.2019 13.1203 12.1235C12.9546 12.0598 12.7551 12.0593 12.5893 12.123Z" fill="#F0C727"/>
<path d="Mnan nanL12.1822 14.8716C12.3402 14.9017 12.5008 14.91 12.6605 14.8961C12.7387 14.8961 12.7955 15.0503 12.6389 15.0748C12.4804 15.0897 12.3209 15.0815 12.1642 15.0503C12.0991 15.0374 11.9839 15.0138 11.873 14.9866C11.762 14.9595 11.5916 14.8986 11.6529 14.8022C11.6735 14.7698 11.7123 14.7486 11.747 14.7577C11.889 14.8099 12.0346 14.848 12.1822 14.8716Lnan nanZ" fill="white"/>
<path d="Mnan nanL12.5033 15.1133C12.388 15.1131 12.273 15.1023 12.1592 15.0809C12.095 15.0676 11.9726 15.0422 11.8562 15.0132C11.7515 14.9871 11.6069 14.9535 11.6113 14.8457C11.6115 14.8394 11.6123 14.834 11.6131 14.8296C11.6199 14.8 11.635 14.7738 11.6562 14.755C11.6964 14.7192 11.756 14.7349 11.8073 14.751C11.9315 14.7898 12.0576 14.82 12.185 14.8414C12.3408 14.8705 12.4989 14.8791 12.6564 14.8669H12.6568C12.6836 14.8671 12.7094 14.8787 12.7292 14.8993C12.749 14.92 12.7613 14.9483 12.7639 14.9788C12.7669 15.0298 12.7364 15.0907 12.6422 15.1054C12.5961 15.1112 12.5497 15.1139 12.5033 15.1133Lnan nanZM11.737 14.7864C11.7214 14.7854 11.7059 14.7903 11.6928 14.8002C11.6798 14.8101 11.6699 14.8245 11.6647 14.8414C11.6579 14.8777 11.6948 14.9022 11.7176 14.913C11.8539 14.9572 12.0741 15.0024 12.1683 15.022C12.3224 15.0518 12.4791 15.0597 12.6349 15.0455C12.6852 15.0377 12.7131 15.0151 12.711 14.9827C12.7097 14.968 12.7039 14.9542 12.6945 14.944C12.6851 14.9337 12.6728 14.9276 12.6598 14.9268C12.4988 14.9387 12.3371 14.9301 12.1777 14.9013C12.029 14.8778 11.8824 14.8395 11.7395 14.7869C11.7387 14.7866 11.7378 14.7864 11.737 14.7864Z" fill="#F0C727"/>
<path d="Mnan nanL13.5307 14.8716C13.3739 14.9017 13.2145 14.9099 13.0559 14.8961C12.9738 14.8961 12.9174 15.0503 13.074 15.0748C13.2324 15.0897 13.3918 15.0815 13.5483 15.0503C13.6136 15.0375 13.7284 15.0139 13.8391 14.9868C13.9506 14.9595 14.1218 14.8979 14.0595 14.8016C14.0387 14.7695 14.0002 14.7487 13.9659 14.7577C13.8239 14.81 13.6783 14.8481 13.5307 14.8716Lnan nanZ" fill="white"/>
<path d="M13.2089 15.1132C13.1627 15.1138 13.1164 15.1111 13.0705 15.1053C12.9759 15.0906 12.9453 15.0307 12.9484 14.9796C12.951 14.949 12.9634 14.9205 12.9832 14.8995C13.003 14.8786 13.0288 14.8666 13.0558 14.8658C13.2132 14.8795 13.3715 14.8713 13.5272 14.8413C13.6431 14.8229 13.7577 14.7956 13.8703 14.7594C13.9288 14.7406 13.9951 14.7128 14.0453 14.7483C14.0714 14.7668 14.0906 14.7957 14.0991 14.8295C14.0999 14.8339 14.1006 14.8395 14.1008 14.8459C14.1046 14.9508 13.9661 14.9848 13.8644 15.0106C13.7445 15.041 13.6185 15.0672 13.553 15.0808C13.4392 15.1022 13.3242 15.113 13.2089 15.1132ZMnan nanL13.0528 14.9267C13.0399 14.928 13.0276 14.9344 13.0183 14.9447C13.0089 14.9551 13.0029 14.9688 13.0012 14.9836C12.9995 15.015 13.027 15.0376 13.0773 15.0454C13.2331 15.0591 13.3898 15.0512 13.5439 15.0219C13.62 15.006 13.7782 14.9735 13.9101 14.9378C13.9692 14.9218 14.0582 14.9016 14.0475 14.8413C14.0428 14.8255 14.0341 14.8119 14.0224 14.802C14.0001 14.7833 13.9681 14.7914 13.9404 14.8006C13.8073 14.8448 13.6717 14.8784 13.5345 14.9012C13.3753 14.9308 13.2137 14.9394 13.0528 14.9267Lnan nanZ" fill="#F0C727"/>
<path d="M11.6727 14.8523C11.6678 14.8179 11.6489 14.7794 11.618 14.7952C11.5956 14.8066 11.5763 14.8247 11.5621 14.8476C11.5479 14.8704 11.5394 14.8972 11.5373 14.9251C11.5351 14.9553 11.588 14.9708 11.6156 14.9583C11.6383 14.9481 11.6599 14.9371 11.6679 14.9169C11.6778 14.8851 11.6749 14.8678 11.6727 14.8523Z" fill="white"/>
<path d="Mnan nanL11.5506 15.0363C11.5457 15.0363 11.5409 15.0348 11.5367 15.0318C11.5325 15.0289 11.5291 15.0247 11.5269 15.0197C11.5153 14.9897 11.5104 14.9569 11.5125 14.9242C11.5146 14.8915 11.5237 14.8599 11.539 14.8322C11.5518 14.8071 11.5702 14.7862 11.5923 14.7717C11.6144 14.7573 11.6395 14.7497 11.665 14.7498C11.674 14.7508 11.6959 14.7596 11.6989 14.7694C11.7028 14.7782 11.7161 14.791 11.711 14.7989C11.6955 14.8253 11.6968 14.8332 11.6989 14.8479C11.7005 14.8573 11.7012 14.8667 11.7011 14.8761C11.7009 14.9102 11.6875 14.9444 11.6615 14.9664C11.6368 14.9874 11.5973 14.9884 11.5774 15.0139C11.5762 15.0155 11.5753 15.0171 11.5747 15.0187C11.5731 15.0244 11.5699 15.0294 11.5655 15.0326C11.561 15.0358 11.5558 15.0371 11.5506 15.0363Lnan nanZMnan nanL11.6469 14.8145C11.634 14.8172 11.6216 14.823 11.6107 14.8314C11.5998 14.8399 11.5906 14.8508 11.5837 14.8636C11.5758 14.8784 11.5702 14.8946 11.5672 14.9114C11.5641 14.9289 11.5831 14.9397 11.5996 14.9333C11.6185 14.9245 11.6396 14.9146 11.6439 14.9038C11.649 14.8892 11.65 14.8731 11.6469 14.8577C11.6441 14.8435 11.6441 14.8287 11.6469 14.8145Lnan nanZ" fill="#F0C727"/>
<path d="M12.164 15.1987C12.164 15.1094 12.2426 15.1202 12.2426 15.0309C12.2426 14.9857 12.2216 14.917 12.182 14.917C12.1616 14.9185 12.1424 14.9283 12.1279 14.9448C12.1135 14.9612 12.1047 14.9831 12.1033 15.0063C12.0857 15.0956 12.164 15.1094 12.164 15.1987Z" fill="white"/>
<path d="M12.1637 15.2288C12.1603 15.2287 12.1568 15.2279 12.1536 15.2264C12.1504 15.2248 12.1475 15.2226 12.1451 15.2198C12.1427 15.2169 12.1407 15.2136 12.1394 15.2099C12.1381 15.2062 12.1375 15.2023 12.1375 15.1984C12.1364 15.171 12.1265 15.1451 12.1096 15.1257C12.0954 15.1093 12.085 15.0892 12.0794 15.0671C12.0738 15.045 12.073 15.0216 12.0773 14.9991C12.0796 14.969 12.0915 14.9408 12.1108 14.92C12.13 14.8992 12.1553 14.8872 12.1818 14.8862C12.2411 14.8862 12.2691 14.9716 12.2691 15.0305C12.2692 15.0513 12.2647 15.0719 12.2563 15.0904C12.2478 15.1088 12.2355 15.1247 12.2205 15.1365C12.2113 15.1431 12.2037 15.1522 12.1985 15.163C12.1932 15.1738 12.1904 15.186 12.1904 15.1984C12.1903 15.2064 12.1875 15.2141 12.1825 15.2198C12.1776 15.2255 12.1708 15.2287 12.1637 15.2288ZM12.1818 14.9461C12.1684 14.9479 12.156 14.9548 12.1465 14.9656C12.1369 14.9765 12.1309 14.9907 12.1293 15.006C12.1262 15.0207 12.1265 15.0361 12.1304 15.0506C12.134 15.0644 12.1408 15.0769 12.1499 15.0869C12.1508 15.0879 12.1516 15.089 12.1523 15.0901C12.1524 15.0903 12.1526 15.0905 12.1527 15.0907C12.1593 15.1012 12.1759 15.1024 12.1842 15.093C12.1852 15.0919 12.1863 15.0909 12.1876 15.09C12.1961 15.0839 12.2031 15.0756 12.2081 15.0656C12.2135 15.0549 12.2162 15.0428 12.2162 15.0305C12.2162 14.9913 12.1977 14.9461 12.1818 14.9461Z" fill="#F0C727"/>
<path d="Mnan nanL12.7287 14.9414C12.788 14.9414 12.8144 14.9869 12.8186 15.0435C12.8224 15.0941 12.6776 15.1256 12.6776 15.0749C12.6776 15.0062 12.7675 15.0062 12.7287 14.9414Lnan nanZ" fill="white"/>
<path d="Mnan nanL12.7773 15.24C12.7745 15.2399 12.7718 15.2392 12.7692 15.2381C12.7638 15.2362 12.7591 15.2324 12.7558 15.2273C12.7525 15.2222 12.7507 15.216 12.7507 15.2096C12.7507 15.19 12.7279 15.1723 12.7055 15.1547C12.6788 15.134 12.6509 15.1115 12.6509 15.0752C12.6518 15.0577 12.6564 15.0408 12.6642 15.0258C12.6643 15.0256 12.6644 15.0253 12.6646 15.0251C12.6772 15.0011 12.6894 14.9668 12.6995 14.9417C12.7042 14.9318 12.7188 14.9103 12.7287 14.9103C12.7496 14.9092 12.7702 14.9151 12.7882 14.9271C12.8062 14.9391 12.8208 14.9567 12.8302 14.978C12.8436 15.0192 12.8477 15.0636 12.8422 15.1072C12.8367 15.1507 12.8218 15.192 12.7988 15.2273C12.7963 15.2311 12.7931 15.2343 12.7894 15.2365C12.7857 15.2387 12.7815 15.2399 12.7773 15.24Lnan nanZM12.7833 15.0055C12.7773 14.9918 12.7599 14.9973 12.752 15.01C12.7465 15.0189 12.7396 15.0267 12.7317 15.033C12.73 15.0343 12.7284 15.0356 12.7269 15.0371C12.7255 15.0386 12.724 15.04 12.7227 15.0413C12.7043 15.0597 12.7109 15.0882 12.7324 15.1028C12.7333 15.1034 12.7343 15.104 12.7352 15.1046C12.757 15.1199 12.7894 15.1134 12.7917 15.0869C12.7942 15.0596 12.7914 15.0318 12.7833 15.0055Z" fill="#F0C727"/>
<path d="Mnan nanL14.023 14.7825C14.0474 14.7793 14.0721 14.7837 14.0945 14.7952C14.1169 14.8066 14.1362 14.8247 14.1504 14.8476C14.1646 14.8704 14.1731 14.8972 14.1751 14.9251C14.1773 14.9553 14.1244 14.9708 14.0968 14.9583C14.074 14.9481 14.0523 14.9371 14.0441 14.9169C14.023 14.8473 14.0621 14.8473 14.023 14.7825Lnan nanZ" fill="white"/>
<path d="M14.1751 15.0319C14.1672 15.0376 14.156 15.0364 14.1477 15.0314C14.1431 15.0287 14.1397 15.0248 14.1373 15.0188C14.1363 15.0163 14.1346 15.0139 14.1323 15.0116C14.1106 14.9903 14.0772 14.9879 14.0532 14.9692C14.0263 14.9482 14.0114 14.9132 14.0108 14.879C14.0106 14.8687 14.0113 14.8583 14.0131 14.848C14.0152 14.8333 14.0165 14.8254 14.001 14.7989C13.9984 14.7949 13.9968 14.7901 13.9963 14.7852C13.9957 14.7802 13.9963 14.7751 13.998 14.7705C13.9998 14.7659 14.0025 14.7619 14.006 14.7588C14.0094 14.7558 14.0135 14.7537 14.0178 14.7528C14.0477 14.7462 14.0786 14.7503 14.1064 14.7646C14.1342 14.7788 14.1575 14.8024 14.173 14.8323C14.1883 14.8601 14.1973 14.8917 14.1993 14.9244C14.2013 14.9571 14.1963 14.9898 14.1846 15.0198C14.1825 15.0247 14.1792 15.029 14.1751 15.0319ZM14.1014 14.8299C14.0864 14.8177 14.0687 14.8337 14.0659 14.8528C14.0657 14.8545 14.0654 14.8561 14.0651 14.8578C14.0619 14.8739 14.0633 14.8907 14.0689 14.9059C14.0724 14.9147 14.0935 14.9246 14.1124 14.9334C14.1288 14.9399 14.1478 14.929 14.1446 14.9116C14.1416 14.8948 14.1361 14.8786 14.1283 14.8637C14.1215 14.8504 14.1123 14.8389 14.1014 14.8299Z" fill="#F0C727"/>
<path d="M13.5482 15.1987C13.5482 15.1094 13.4695 15.1202 13.4695 15.0309C13.4695 14.9857 13.491 14.917 13.5305 14.917C13.5509 14.9185 13.5701 14.9283 13.5846 14.9448C13.5991 14.9612 13.6078 14.9831 13.6092 15.0063C13.6269 15.0956 13.5482 15.1094 13.5482 15.1987Z" fill="white"/>
<path d="Mnan nanL13.548 15.2288C13.5445 15.2287 13.5411 15.2279 13.5379 15.2264C13.5347 15.2248 13.5318 15.2226 13.5293 15.2198C13.5269 15.2169 13.525 15.2136 13.5236 15.2099C13.5223 15.2062 13.5217 15.2023 13.5217 15.1984C13.5217 15.186 13.5189 15.1738 13.5136 15.163C13.5083 15.1522 13.5008 15.1431 13.4916 15.1365C13.4766 15.1246 13.4643 15.1088 13.4558 15.0903C13.4474 15.0719 13.443 15.0513 13.443 15.0305C13.443 14.9716 13.4705 14.8862 13.5303 14.8862C13.5578 14.8877 13.5838 14.9007 13.6033 14.9229C13.6228 14.945 13.6343 14.9746 13.6357 15.006C13.6391 15.0275 13.6379 15.0497 13.6322 15.0706C13.6264 15.0914 13.6162 15.1104 13.6026 15.1257C13.5855 15.145 13.5755 15.171 13.5746 15.1984C13.5746 15.2064 13.5718 15.2141 13.5668 15.2198C13.5618 15.2255 13.555 15.2287 13.548 15.2288Lnan nanZMnan nanL13.5303 14.9461C13.5144 14.9461 13.4959 14.9913 13.4959 15.0305C13.4959 15.0428 13.4986 15.0548 13.5039 15.0655C13.5088 15.0754 13.5158 15.0839 13.5242 15.09C13.5254 15.0909 13.5265 15.0919 13.5275 15.093C13.5359 15.1025 13.553 15.1009 13.5598 15.0902C13.5605 15.0889 13.5614 15.0879 13.5624 15.0868C13.5708 15.0778 13.5772 15.0666 13.5809 15.054C13.5848 15.0408 13.5856 15.0265 13.5832 15.0128C13.5826 14.9964 13.5769 14.9808 13.5673 14.9686C13.5576 14.9564 13.5445 14.9484 13.5303 14.9461Lnan nanZ" fill="#F0C727"/>
<path d="M13.021 15.0336C12.9915 14.9943 12.9163 14.9571 12.901 15.0038C12.897 15.016 12.8945 15.0295 12.8935 15.0437C12.8897 15.0945 13.0349 15.1258 13.0349 15.0749C13.0349 15.0574 13.029 15.0444 13.021 15.0336Z" fill="white"/>
<path d="Mnan nanL12.935 15.24C12.9308 15.2399 12.9267 15.2387 12.923 15.2365C12.9192 15.2343 12.916 15.2311 12.9135 15.2273C12.8905 15.192 12.8756 15.1507 12.8701 15.1072C12.8646 15.0636 12.8688 15.0192 12.8821 14.978C12.8915 14.9567 12.9061 14.939 12.9241 14.927C12.9421 14.915 12.9627 14.9092 12.9836 14.9103C12.9884 14.9105 12.9931 14.9121 12.9972 14.9151C13.0013 14.918 13.0046 14.9221 13.0069 14.927C13.0091 14.9319 13.0101 14.9374 13.0099 14.9429C13.0095 14.9529 13.0087 14.9637 13.0142 14.9721C13.0396 15.0107 13.0614 15.0346 13.0614 15.0752C13.0614 15.1115 13.0335 15.1341 13.0068 15.1547C12.984 15.1723 12.9612 15.19 12.9612 15.2096C12.9612 15.2159 12.9594 15.2221 12.9562 15.2272C12.953 15.2323 12.9484 15.2361 12.9432 15.2381C12.9405 15.2392 12.9378 15.2398 12.935 15.24Lnan nanZMnan nanL12.9484 14.9809C12.94 14.9869 12.9333 14.9954 12.929 15.0055C12.9208 15.0319 12.9179 15.0598 12.9204 15.0872C12.9228 15.1137 12.9551 15.1201 12.9767 15.1046C13.0008 15.0898 13.0071 15.0585 12.9868 15.0388C12.9855 15.0376 12.9841 15.0363 12.9827 15.0349C12.9659 15.0223 12.9536 15.0031 12.9484 14.9809Lnan nanZ" fill="#F0C727"/>
<path d="M11.7859 14.8486C11.7741 14.844 11.7768 14.8329 11.7887 14.8373C11.7896 14.8376 11.7905 14.838 11.7913 14.8383C11.8033 14.843 11.7979 14.8532 11.7859 14.8486Z" fill="white"/>
<path d="Mnan nanL11.8464 14.8933L11.8408 14.8913L11.7229 14.8472C11.7189 14.8453 11.7155 14.842 11.7132 14.8378C11.711 14.8335 11.71 14.8285 11.7105 14.8236C11.7113 14.8187 11.7136 14.8143 11.717 14.8111C11.7204 14.8078 11.7246 14.806 11.729 14.8059C11.7731 14.8056 11.8161 14.8211 11.852 14.8502C11.8581 14.8552 11.8641 14.8611 11.8649 14.869C11.8653 14.873 11.8647 14.8771 11.8632 14.8807C11.8617 14.8844 11.8593 14.8875 11.8563 14.8897C11.8534 14.892 11.8499 14.8932 11.8464 14.8933Lnan nanZ" fill="#F0C727"/>
<path d="M11.9934 14.9188C11.9856 14.9162 11.9872 14.9096 11.9951 14.9122C12.0029 14.9147 12.0013 14.9213 11.9934 14.9188Z" fill="white"/>
<path d="Mnan nanL12.0638 14.9619L12.0591 14.9609L11.9202 14.9168C11.9158 14.9155 11.912 14.9123 11.9095 14.908C11.9071 14.9036 11.9061 14.8984 11.9069 14.8932C11.9107 14.8549 12.0161 14.8864 12.0728 14.9217C12.0767 14.9243 12.0797 14.9283 12.0812 14.9332C12.0827 14.9381 12.0827 14.9434 12.081 14.9482C12.0797 14.9522 12.0774 14.9557 12.0743 14.9581C12.0712 14.9606 12.0676 14.9619 12.0638 14.9619Lnan nanZ" fill="#F0C727"/>
<path d="M12.5696 14.9958C12.5797 14.9943 12.5792 14.9856 12.5691 14.9871C12.5686 14.9871 12.5681 14.9872 12.5676 14.9873C12.5575 14.9888 12.5595 14.9973 12.5696 14.9958Z" fill="white"/>
<path d="M12.4997 15.027C12.4961 15.027 12.4926 15.0259 12.4896 15.0238C12.4866 15.0217 12.4841 15.0187 12.4824 15.0152C12.481 15.011 12.4807 15.0064 12.4816 15.002C12.4834 14.9935 12.4915 14.9885 12.4993 14.985C12.5391 14.9669 12.582 14.9595 12.6247 14.9634C12.6339 14.9643 12.6446 14.9636 12.6511 14.9702C12.6545 14.9736 12.6567 14.9785 12.657 14.9838C12.6575 14.9892 12.6562 14.9946 12.6532 14.9988C12.6502 15.0031 12.6459 15.0058 12.6411 15.0064L12.5048 15.0266C12.5031 15.0269 12.5014 15.027 12.4997 15.027Z" fill="#F0C727"/>
<path d="M12.3513 14.9859C12.3701 14.9859 12.3734 14.9678 12.3546 14.9673C12.3535 14.9673 12.3524 14.9673 12.3513 14.9673C12.3502 14.9673 12.3491 14.9673 12.3481 14.9673C12.3292 14.9678 12.3325 14.9859 12.3513 14.9859Z" fill="white"/>
<path d="Mnan nanL12.4214 15.0071H12.282C12.278 15.0071 12.274 15.0056 12.2707 15.0027C12.2675 14.9999 12.2651 14.9959 12.264 14.9914C12.263 14.9868 12.2633 14.9819 12.2649 14.9774C12.2665 14.973 12.2694 14.9693 12.273 14.9669C12.3082 14.9463 12.387 14.9159 12.4347 14.9708C12.4373 14.9737 12.439 14.9774 12.4397 14.9814C12.4403 14.9855 12.44 14.9896 12.4386 14.9934C12.4372 14.9974 12.4349 15.0008 12.4318 15.0033C12.4288 15.0057 12.4251 15.0071 12.4214 15.0071Lnan nanZ" fill="#F0C727"/>
<path d="M13.9261 14.8486C13.9375 14.8443 13.9348 14.8337 13.9234 14.8379C13.9226 14.8382 13.9218 14.8385 13.921 14.8388C13.9095 14.8432 13.9146 14.853 13.9261 14.8486Z" fill="white"/>
<path d="Mnan nanL13.8652 14.8933C13.862 14.8931 13.8589 14.8921 13.8562 14.8902C13.8535 14.8883 13.8513 14.8856 13.8497 14.8825C13.8474 14.8784 13.8465 14.8735 13.847 14.8686C13.8476 14.8638 13.8496 14.8593 13.8527 14.856C13.8906 14.824 13.9363 14.8065 13.9834 14.8059C13.9878 14.8059 13.9921 14.8077 13.9955 14.811C13.9988 14.8142 14.0011 14.8187 14.0019 14.8236C14.0025 14.8286 14.0015 14.8336 13.9993 14.8378C13.997 14.8421 13.9936 14.8454 13.9895 14.8472L13.8712 14.8913L13.8652 14.8933Lnan nanZ" fill="#F0C727"/>
<path d="M13.7191 14.9188C13.727 14.9162 13.7253 14.9096 13.7174 14.9121C13.7096 14.9147 13.7112 14.9213 13.7191 14.9188Z" fill="white"/>
<path d="M13.6531 14.9611C13.65 14.9618 13.6467 14.9624 13.6437 14.9615C13.6416 14.9609 13.6396 14.9599 13.6379 14.9584C13.6348 14.956 13.6324 14.9524 13.6312 14.9484C13.6294 14.9436 13.6292 14.9382 13.6308 14.9333C13.6323 14.9284 13.6354 14.9243 13.6394 14.9219C13.6996 14.8856 13.8011 14.8552 13.8062 14.8935C13.8068 14.8986 13.8057 14.9038 13.8032 14.9082C13.8007 14.9125 13.7969 14.9156 13.7925 14.917L13.6531 14.9611Z" fill="#F0C727"/>
<path d="M13.1426 14.9958C13.1325 14.9943 13.1331 14.9856 13.1432 14.9871C13.1436 14.9871 13.1441 14.9872 13.1446 14.9873C13.1547 14.9888 13.1527 14.9973 13.1426 14.9958Z" fill="white"/>
<path d="Mnan nanL13.2133 15.0265H13.2109C13.2108 15.0265 13.2107 15.0265 13.2106 15.0265L13.0714 15.0059C13.0667 15.0054 13.0623 15.0028 13.0593 14.9987C13.0562 14.9945 13.0547 14.9892 13.0551 14.9838C13.0554 14.9785 13.0576 14.9734 13.0611 14.9699C13.0678 14.9631 13.0787 14.9638 13.0882 14.9629C13.1309 14.959 13.1738 14.9664 13.2136 14.9845C13.2215 14.9881 13.2297 14.993 13.2315 15.0015C13.2324 15.0059 13.2321 15.0105 13.2305 15.0147C13.2289 15.0183 13.2264 15.0212 13.2233 15.0233C13.2203 15.0254 13.2168 15.0265 13.2133 15.0265Lnan nanZ" fill="#F0C727"/>
<path d="M13.3608 14.9859C13.342 14.9859 13.3388 14.9678 13.3576 14.9673C13.3587 14.9673 13.3597 14.9673 13.3608 14.9673C13.3619 14.9673 13.363 14.9673 13.364 14.9673C13.3829 14.9678 13.3796 14.9859 13.3608 14.9859Z" fill="white"/>
<path d="Mnan nanL13.4309 15.0074H13.2911C13.2875 15.0072 13.2839 15.0058 13.2809 15.0034C13.2779 15.001 13.2756 14.9976 13.2744 14.9936C13.2729 14.9897 13.2726 14.9853 13.2733 14.9811C13.2748 14.973 13.2818 14.9674 13.2888 14.9628C13.31 14.949 13.3341 14.9414 13.3587 14.9409C13.3873 14.9404 13.4154 14.9495 13.4395 14.9671C13.4432 14.9693 13.4462 14.9728 13.4479 14.9772C13.4497 14.9815 13.4501 14.9864 13.4491 14.9911C13.4481 14.9957 13.4458 14.9999 13.4425 15.0028C13.4392 15.0058 13.4351 15.0074 13.4309 15.0074Lnan nanZ" fill="#F0C727"/>
<path d="Mnan nanL13.1343 10.5367C13.1194 10.4823 13.0927 10.4331 13.0566 10.3938C13.0205 10.3545 12.9762 10.3263 12.9279 10.3119C12.8879 10.302 12.8472 10.2972 12.8063 10.2975C12.7824 10.2977 12.7579 10.2922 12.7346 10.2977C12.6529 10.317 12.6689 10.4508 12.733 10.5049C12.7364 10.5078 12.74 10.5102 12.7438 10.5121C12.804 10.5367 12.8345 10.5121 12.8956 10.4474C12.9151 10.4295 12.9381 10.4176 12.9627 10.4125C12.9872 10.4074 13.0125 10.4094 13.0362 10.4182C13.0599 10.4271 13.0812 10.4426 13.0984 10.4632C13.1155 10.4839 13.1279 10.5092 13.1343 10.5367Lnan nanZ" fill="#F0C727"/>
<path d="M12.7858 10.5355C12.77 10.5348 12.7545 10.5311 12.7398 10.5246C12.7218 10.5142 12.7066 10.4987 12.6955 10.4795C12.662 10.431 12.6359 10.3693 12.6737 10.3241C12.6935 10.3003 12.7194 10.2822 12.7497 10.2822C12.784 10.2842 12.8185 10.2817 12.8529 10.2834C12.8796 10.2848 12.9061 10.2896 12.932 10.2979C12.976 10.3102 13.0169 10.3341 13.0514 10.3677C13.0814 10.3969 13.0401 10.4339 12.9987 10.4277C12.9614 10.4221 12.9277 10.43 12.9045 10.4569C12.8598 10.504 12.8279 10.5355 12.7858 10.5355ZMnan nanL12.7643 10.3136C12.7398 10.3151 12.7161 10.3243 12.6959 10.3403C12.661 10.3679 12.6846 10.4179 12.7098 10.4546C12.7114 10.457 12.7129 10.4594 12.7144 10.4618C12.7329 10.4901 12.7656 10.5129 12.7986 10.5057C12.8237 10.5003 12.8477 10.4787 12.8873 10.4363C12.9136 10.4116 12.9461 10.3973 12.9801 10.3953C12.9945 10.3945 13.0117 10.3654 12.9995 10.3578C12.9764 10.3434 12.9517 10.3325 12.926 10.3254C12.8948 10.3163 12.8627 10.3123 12.8305 10.3136H12.7643Lnan nanZ" fill="#F0C727"/>
<path d="Mnan nanL12.7571 10.3616C12.7492 10.3618 12.7416 10.3655 12.736 10.3719C12.7304 10.3783 12.7273 10.387 12.7273 10.3959C12.7273 10.4049 12.7304 10.4135 12.736 10.4199C12.7416 10.4263 12.7492 10.4301 12.7571 10.4303C12.7651 10.4301 12.7727 10.4263 12.7782 10.4199C12.7838 10.4135 12.7869 10.4049 12.7869 10.3959C12.7869 10.387 12.7838 10.3783 12.7782 10.3719C12.7727 10.3655 12.7651 10.3618 12.7571 10.3616Lnan nanZ" fill="white"/>
<path d="Mnan nanL12.7565 10.4608C12.7491 10.4608 12.7417 10.4592 12.7348 10.456C12.728 10.4527 12.7217 10.4479 12.7165 10.4419C12.7113 10.4359 12.7072 10.4287 12.7045 10.4208C12.7017 10.4129 12.7004 10.4045 12.7006 10.396C12.7006 10.3224 12.812 10.3224 12.812 10.396C12.8122 10.4044 12.8109 10.4128 12.8082 10.4207C12.8055 10.4286 12.8014 10.4357 12.7962 10.4418C12.791 10.4478 12.7849 10.4526 12.778 10.4559C12.7712 10.4591 12.7639 10.4608 12.7565 10.4608Lnan nanZ" fill="white"/>
<path d="Mnan nanL13.0989 12.087V13.4002C13.0989 13.4701 13.075 13.5396 13.0271 13.5904C12.9334 13.6897 12.7796 13.6896 12.6858 13.5904C12.6378 13.5395 12.6139 13.47 12.6139 13.4001V12.2065C12.6139 12.1319 12.6602 12.0664 12.7248 12.0291C12.7324 12.0247 12.74 12.0202 12.7475 12.0156C12.8129 11.9752 12.8979 11.9777 12.9627 12.0191C13.0059 12.0467 13.0515 12.0695 13.0989 12.087Lnan nanZ" fill="white"/>
<rect x="0.270833" y="4.60409" width="25.4583" height="16.7917" rx="1.89583" stroke="#7F7F7F" stroke-width="0.541667"/>
</g>
<defs>
<clipPath id="clip0_17015_110058">
<rect width="26" height="26" fill="white"/>
</clipPath>
</defs>
</svg>
