<svg width="26" height="26" viewBox="0 0 26 26" fill="none" xmlns="http://www.w3.org/2000/svg">
<g clip-path="url(#clip0_17015_110065)">
<path d="M23.8333 4.33325H2.16667C0.97005 4.33325 0 5.3033 0 6.49992V19.4999C0 20.6965 0.970049 21.6666 2.16667 21.6666H23.8333C25.03 21.6666 26 20.6965 26 19.4999V6.49992C26 5.3033 25.03 4.33325 23.8333 4.33325Z" fill="#CB1D23"/>
<path d="M12.715 12.5377C12.748 12.638 12.6173 12.7774 12.5352 12.7112C12.2346 12.4689 11.987 12.1459 11.8161 11.7669C11.5636 11.207 11.4954 10.5621 11.6239 9.94962C11.7523 9.3371 12.0689 8.79762 12.516 8.42935C12.8698 8.13802 13.2866 7.96914 13.7171 7.93826C13.8141 7.93131 13.8564 8.08177 13.7968 8.15868C13.7244 8.2523 13.6713 8.36339 13.6416 8.48369C13.6119 8.60399 13.6063 8.7304 13.6252 8.85351C13.6442 8.97663 13.6872 9.09327 13.751 9.19476C13.8328 9.35685 13.8847 9.53636 13.9034 9.72222C13.9222 9.90808 13.9074 10.0964 13.8601 10.2755C13.8128 10.4546 13.7338 10.6207 13.6282 10.7636C13.5225 10.9066 13.3924 11.0232 13.2458 11.1065C13.0921 11.1828 12.9579 11.3027 12.8558 11.4547C12.7538 11.6067 12.6874 11.7859 12.6628 11.9754C12.6381 12.1649 12.6561 12.3584 12.715 12.5377Z" fill="white"/>
<path d="M12.712 9.84524C12.7351 9.96412 12.9002 9.97653 12.9433 9.86336C12.9854 9.75264 12.8609 9.65169 12.7626 9.71789L12.7472 9.72829C12.6488 9.79455 12.6865 9.94747 12.8044 9.96039L12.8247 9.96261C12.9422 9.97548 13.0107 9.83356 12.9275 9.74957L12.9156 9.73758C12.8318 9.65301 12.6893 9.72839 12.712 9.84524Z" fill="#CB1D23"/>
<path d="M12.9985 12.9868C13.0055 12.9717 13.0011 12.9538 12.9881 12.9433C12.6315 12.6561 12.3847 12.223 12.2994 11.7332C12.2141 11.2438 12.2968 10.736 12.5297 10.3148C12.5381 10.2995 12.534 10.2802 12.5198 10.2699C12.5033 10.258 12.4801 10.2629 12.4703 10.2808C12.2301 10.7185 12.1457 11.2454 12.2352 11.7528C12.3243 12.2571 12.5782 12.7028 12.9443 12.9999C12.9622 13.0145 12.9889 13.0079 12.9985 12.9868Z" fill="#CB1D23"/>
<path d="M12.9993 13.0002C13.0376 12.3719 13.2721 11.7802 13.66 11.3328C14.0479 10.8854 14.5634 10.612 15.1128 10.5624C15.6622 10.5128 16.2089 10.6902 16.6535 11.0624C17.0158 11.3658 17.2907 11.7821 17.4473 12.258C17.4731 12.3367 17.3488 12.4074 17.2746 12.3704C17.1744 12.3205 17.0656 12.297 16.9563 12.3019C16.847 12.3067 16.7401 12.3397 16.6436 12.3983C16.547 12.457 16.4633 12.5398 16.3987 12.6407C16.2891 12.7797 16.1557 12.8916 16.0068 12.9695C15.8579 13.0474 15.6967 13.0896 15.5329 13.0935C15.3692 13.0973 15.2066 13.0628 15.055 12.9921C14.9034 12.9213 14.7661 12.8158 14.6516 12.6821C14.5404 12.5387 14.3992 12.43 14.2412 12.3662C14.0831 12.3024 13.9135 12.2857 13.7482 12.3175C13.583 12.3493 13.4275 12.4286 13.2965 12.5481C13.1654 12.6675 13.0632 12.8231 12.9993 13.0002Z" fill="white"/>
<path d="M15.5043 11.7345C15.4059 11.8008 15.4437 11.9539 15.5617 11.9668L15.5823 11.9691C15.6998 11.9819 15.7683 11.8401 15.6853 11.756L15.6732 11.7438C15.5895 11.6591 15.4468 11.7344 15.4695 11.8513C15.4925 11.9702 15.6577 11.9826 15.7008 11.8694C15.7429 11.7586 15.6183 11.6576 15.5201 11.7239L15.5043 11.7345Z" fill="#CB1D23"/>
<path d="M13.0047 12.9942C13.022 12.9976 13.039 12.9868 13.0436 12.9698C13.1725 12.4937 13.4565 12.0918 13.8375 11.8478C14.215 11.606 14.6584 11.5379 15.0775 11.6562C15.0984 11.6621 15.1203 11.6495 15.1251 11.6283C15.1293 11.6094 15.1183 11.5903 15.0997 11.5849C14.661 11.4588 14.1962 11.5297 13.8014 11.784C13.4057 12.0389 13.1115 12.4579 12.9791 12.9535C12.9742 12.9719 12.986 12.9905 13.0047 12.9942Z" fill="#CB1D23"/>
<path d="M12.5266 13.1668C12.6207 13.162 12.7298 13.314 12.6597 13.377C12.3558 13.6504 11.9943 13.8336 11.6075 13.9057C11.0636 14.0071 10.5059 13.882 10.0359 13.5531C9.56594 13.2242 9.21489 12.7134 9.04666 12.1136C8.91185 11.633 8.90161 11.1209 9.01354 10.638C9.03295 10.5543 9.17781 10.5615 9.21716 10.638C9.27259 10.7457 9.34857 10.8377 9.43943 10.9072C9.5303 10.9767 9.63372 11.0218 9.74197 11.0393C9.85023 11.0568 9.96054 11.0461 10.0647 11.0081C10.2248 10.9692 10.3902 10.9683 10.5507 11.0053C10.7111 11.0423 10.8633 11.1165 10.9977 11.2233C11.1321 11.33 11.246 11.4671 11.3322 11.6261C11.4185 11.7851 11.4754 11.9626 11.4994 12.1476C11.5154 12.3383 11.5737 12.5212 11.6687 12.6791C11.7637 12.8369 11.8923 12.9645 12.0424 13.0499C12.1925 13.1352 12.3591 13.1754 12.5266 13.1668Z" fill="white"/>
<path d="M10.3035 12.3396C10.4211 12.3523 10.4894 12.2104 10.4062 12.1264L10.3944 12.1144C10.3105 12.0298 10.1678 12.1053 10.1905 12.2222C10.2137 12.3412 10.3789 12.3537 10.422 12.2404C10.4641 12.1297 10.3395 12.029 10.2413 12.0952L10.226 12.1054C10.1276 12.1717 10.1655 12.3247 10.2834 12.3374L10.3035 12.3396Z" fill="#CB1D23"/>
<path d="M12.9941 13.0042C12.9811 12.9887 12.9578 12.987 12.9423 13.0001C12.5943 13.2955 12.1603 13.4282 11.7289 13.3701C11.2982 13.312 10.9036 13.0682 10.6253 12.6894C10.6127 12.6723 10.588 12.6698 10.5727 12.6844C10.5602 12.6962 10.5583 12.7155 10.5684 12.7294C10.8587 13.1291 11.273 13.386 11.7253 13.4458C12.1757 13.5054 12.6285 13.3648 12.9903 13.0541C13.0051 13.0414 13.0067 13.0191 12.9941 13.0042Z" fill="#CB1D23"/>
<path d="M12.9993 13.0002C13.534 12.8476 14.0989 12.9195 14.5911 13.2028C15.0834 13.4861 15.4703 13.962 15.6814 14.5438C15.8925 15.1256 15.9138 15.7748 15.7414 16.373C15.6058 16.8437 15.3574 17.2583 15.0276 17.5717C14.9593 17.6366 14.8365 17.5463 14.8444 17.4525C14.855 17.3282 14.8409 17.2027 14.8031 17.0855C14.7653 16.9683 14.7049 16.8623 14.6263 16.7755C14.5476 16.6887 14.4529 16.6233 14.3491 16.5842C14.1995 16.5081 14.0652 16.3977 13.9544 16.2599C13.8436 16.1222 13.7587 15.9599 13.7048 15.7832C13.651 15.6065 13.6294 15.4191 13.6414 15.2325C13.6533 15.0458 13.6986 14.864 13.7744 14.6982C13.8595 14.5331 13.9064 14.3459 13.9107 14.1544C13.915 13.9629 13.8766 13.7733 13.799 13.6034C13.7215 13.4335 13.6074 13.289 13.4675 13.1835C13.3275 13.078 13.1664 13.0149 12.9993 13.0002Z" fill="white"/>
<path d="M14.8563 15.3608C14.7725 15.2762 14.6299 15.3516 14.6527 15.4685C14.6758 15.5874 14.8411 15.5993 14.8841 15.4861C14.9262 15.3752 14.8016 15.274 14.7033 15.3402L14.6877 15.3506C14.5892 15.417 14.6269 15.5702 14.745 15.5832L14.7652 15.5854C14.8826 15.5984 14.9511 15.4565 14.868 15.3726L14.8563 15.3608Z" fill="#CB1D23"/>
<path d="M13.0065 13.0056C13.0091 13.0248 13.0258 13.0389 13.0452 13.0387C13.4789 13.0337 13.8984 13.2182 14.2175 13.5552C14.5377 13.8934 14.7319 14.3587 14.7607 14.855C14.7618 14.8737 14.7779 14.888 14.7965 14.8866C14.8142 14.8852 14.8278 14.87 14.8268 14.8522C14.7974 14.334 14.5944 13.8481 14.2593 13.4961C13.9274 13.1475 13.492 12.9574 13.0424 12.9635C13.0202 12.9638 13.0036 12.9836 13.0065 13.0056Z" fill="#CB1D23"/>
<path d="M12.9994 13.0002C13.2916 13.5343 13.4063 14.1704 13.3226 14.7929C13.239 15.4155 12.9625 15.983 12.5436 16.3922C12.1246 16.8014 11.5911 17.0251 11.04 17.0225C10.5929 17.0205 10.1585 16.8697 9.78831 16.5925C9.71724 16.5392 9.77854 16.4032 9.86466 16.3816C9.97144 16.3547 10.0715 16.3006 10.1574 16.2233C10.2434 16.146 10.3129 16.0476 10.3608 15.9353C10.4088 15.823 10.4339 15.6997 10.4343 15.5748C10.4515 15.3887 10.5019 15.2087 10.5824 15.0457C10.6628 14.8828 10.7716 14.7404 10.902 14.6272C11.0324 14.5141 11.1816 14.4327 11.3406 14.388C11.4996 14.3433 11.6649 14.3363 11.8263 14.3673C11.99 14.4087 12.1601 14.4018 12.3208 14.3473C12.4815 14.2928 12.6273 14.1924 12.7447 14.0557C12.862 13.9189 12.947 13.7503 12.9916 13.5656C13.0361 13.381 13.0389 13.1864 12.9994 13.0002Z" fill="white"/>
<path d="M11.6206 15.7154C11.6627 15.6048 11.5383 15.5038 11.4401 15.57L11.4242 15.5807C11.3258 15.647 11.3636 15.8 11.4816 15.8129L11.5023 15.8152C11.6197 15.8281 11.6882 15.6863 11.6051 15.6023L11.593 15.5901C11.5093 15.5056 11.3669 15.5809 11.3896 15.6976C11.4127 15.8163 11.5777 15.8285 11.6206 15.7154Z" fill="#CB1D23"/>
<path d="M12.9939 13.0117C12.9802 13.0194 12.9738 13.0357 12.9783 13.0507C13.1203 13.5235 13.0975 14.0411 12.9142 14.4957C12.7323 14.9468 12.4064 15.3009 12.004 15.4859C11.9862 15.4941 11.9773 15.5142 11.9836 15.5327C11.9907 15.5533 12.0139 15.5636 12.0337 15.5544C12.4509 15.3608 12.7883 14.9923 12.9761 14.5233C13.1643 14.0532 13.1875 13.519 13.0417 13.0307C13.0357 13.0104 13.0123 13.0012 12.9939 13.0117Z" fill="#CB1D23"/>
<path d="M12.9996 12.8853C13.0197 12.8852 13.0393 12.892 13.056 12.9047C13.0727 12.9174 13.0857 12.9355 13.0934 12.9566C13.1011 12.9778 13.1031 13.0011 13.0992 13.0236C13.0953 13.0461 13.0856 13.0667 13.0714 13.0829C13.0572 13.0991 13.0391 13.1101 13.0194 13.1145C12.9997 13.119 12.9794 13.1166 12.9608 13.1078C12.9423 13.099 12.9265 13.084 12.9155 13.0649C12.9044 13.0458 12.8985 13.0234 12.8986 13.0005C12.8986 12.9699 12.9093 12.9406 12.9282 12.919C12.9472 12.8973 12.9729 12.8852 12.9996 12.8853Z" fill="#CB1D23"/>
<rect x="0.270833" y="4.60409" width="25.4583" height="16.7917" rx="1.89583" stroke="#7F7F7F" stroke-width="0.541667"/>
</g>
<defs>
<clipPath id="clip0_17015_110065">
<rect width="26" height="26" fill="white"/>
</clipPath>
</defs>
</svg>
