<svg width="26" height="26" viewBox="0 0 26 26" fill="none" xmlns="http://www.w3.org/2000/svg">
<g clip-path="url(#clip0_29826_19516)">
<g clip-path="url(#clip1_29826_19516)">
<rect y="4.33325" width="26" height="17.3333" rx="2.16667" fill="white"/>
<g clip-path="url(#clip2_29826_19516)">
<path d="M-3.25 4.33325H29.4907V22.7499H-3.25V4.33325Z" fill="white"/>
<path d="M-3.25 6.06079H29.4907V8.93755H-3.25V6.06079Z" fill="#0038B8"/>
<path d="M-3.25 18.1458H29.4907V21.0242H-3.25V18.1458Z" fill="#0038B8"/>
<path d="M13.1204 17.5289L11.9693 15.5355H9.66724L10.8183 13.542L9.66724 11.5486H11.9693L13.1204 9.55518L14.2714 11.5486H16.5735L15.4224 13.542L16.5735 15.5355H14.2714L13.1204 17.5289ZM12.7009 15.5355L13.1204 16.2636L13.5398 15.5355H12.7009ZM14.638 14.9028H15.4787L15.0592 14.1747L14.638 14.9028ZM12.3359 14.9028H13.9065L14.6909 13.542L13.9065 12.1813H12.3359L11.5515 13.542L12.3359 14.9028ZM10.7637 14.9028H11.6027L11.1832 14.1747L10.7637 14.9028ZM14.638 12.1813L15.0575 12.9094L15.477 12.1813H14.638ZM10.7637 12.1813L11.1832 12.9094L11.6027 12.1813H10.7637ZM12.7009 11.5486H13.5416L13.1204 10.8205L12.7009 11.5486Z" fill="#0038B8"/>
</g>
</g>
<rect x="0.270833" y="4.60409" width="25.4583" height="16.7917" rx="1.89583" stroke="#7F7F7F" stroke-width="0.541667"/>
</g>
<defs>
<clipPath id="clip0_29826_19516">
<rect width="26" height="26" fill="white"/>
</clipPath>
<clipPath id="clip1_29826_19516">
<rect y="4.33325" width="26" height="17.3333" rx="2.16667" fill="white"/>
</clipPath>
<clipPath id="clip2_29826_19516">
<rect width="32.7407" height="18.4167" fill="white" transform="translate(-3.25 4.33325)"/>
</clipPath>
</defs>
</svg>
