<svg width="26" height="26" viewBox="0 0 26 26" fill="none" xmlns="http://www.w3.org/2000/svg">
<g clip-path="url(#clip0_29826_26239)">
<g clip-path="url(#clip1_29826_26239)">
<rect y="4.33325" width="26" height="17.3333" rx="2.16667" fill="white"/>
<g clip-path="url(#clip2_29826_26239)">
<path d="M0 4.33325H26V21.6666H0V4.33325Z" fill="#FCD116"/>
<path d="M0 13H26V21.6667H0V13Z" fill="#003893"/>
<path d="M0 17.3333H26V21.6666H0V17.3333Z" fill="#CE1126"/>
</g>
<path d="M27.7189 4.33325H-2.16669V21.4105H27.7189V4.33325Z" fill="#DA0000"/>
<path d="M27.7189 4.33325H-2.16669V15.7186H27.7189V4.33325Z" fill="white"/>
<path d="M27.7189 4.33325H-2.16669V10.0252H27.7189V4.33325Z" fill="#239F40"/>
<path d="M0.754568 9.76109H0.0907183V9.49524H-0.307284V9.6274H-0.0414371V9.75955H-0.43944V9.36155H0.092255V9.0957H0.22441V9.6274H0.356566V9.0957H0.488721V9.6274H0.620876V9.0957H0.753032V9.76109H0.754568ZM-0.573132 9.76109H-1.23698V9.49524H-1.63498V9.76109H-1.76714V9.36309H-1.10329V9.62894H-0.705287V9.49678H-0.971135V9.36462H-0.573132V9.76109ZM-1.37067 9.76109H-1.50283V9.62894H-1.37067V9.76109ZM-0.0414371 9.2294H-1.76868V9.09724H-0.0414371V9.2294Z" fill="white"/>
<path d="M0.754568 10.1589H-0.43944V9.89307H0.756105V10.1589H0.754568ZM-0.573132 10.1589H-1.76868V9.89307H-0.573132V10.1589Z" fill="white"/>
<path d="M0.754568 15.8523H-0.43944V15.5864H0.756105V15.8523H0.754568ZM-0.573132 15.8523H-1.76868V15.5864H-0.573132V15.8523Z" fill="white"/>
<path d="M0.754568 16.6483H0.0907183V16.3824H-0.307284V16.5146H-0.0414371V16.6468H-0.43944V16.2488H0.092255V15.9829H0.22441V16.5146H0.356566V15.9829H0.488721V16.5146H0.620876V15.9829H0.753032V16.6483H0.754568ZM-0.573132 16.6483H-1.23698V16.3824H-1.63498V16.6483H-1.76714V16.2503H-1.10329V16.5161H-0.705287V16.384H-0.971135V16.2518H-0.573132V16.6483ZM-1.37067 16.6483H-1.50283V16.5161H-1.37067V16.6483ZM-0.0414371 16.1181H-1.76868V15.986H-0.0414371V16.1181Z" fill="white"/>
<path d="M3.41118 9.76109H2.74733V9.49524H2.34933V9.6274H2.61518V9.75955H2.21718V9.36155H2.74887V9.0957H2.88103V9.6274H3.01318V9.0957H3.14534V9.6274H3.27749V9.0957H3.40965V9.76109H3.41118ZM2.08348 9.76109H1.41963V9.49524H1.02009V9.76109H0.887939V9.36309H1.55179V9.62894H1.94979V9.49678H1.68394V9.36462H2.08195V9.76109H2.08348ZM1.28594 9.76109H1.15379V9.62894H1.28594V9.76109ZM2.61518 9.2294H0.887939V9.09724H2.61518V9.2294Z" fill="white"/>
<path d="M3.41118 10.1589H2.21564V9.89307H3.41118V10.1589ZM2.08348 10.1589H0.887939V9.89307H2.08348V10.1589Z" fill="white"/>
<path d="M3.41118 15.8523H2.21564V15.5864H3.41118V15.8523ZM2.08348 15.8523H0.887939V15.5864H2.08348V15.8523Z" fill="white"/>
<path d="M3.41118 16.6483H2.74733V16.3824H2.34933V16.5146H2.61518V16.6468H2.21718V16.2488H2.74887V15.9829H2.88103V16.5146H3.01318V15.9829H3.14534V16.5146H3.27749V15.9829H3.40965V16.6483H3.41118ZM2.08348 16.6483H1.41963V16.3824H1.02009V16.6483H0.887939V16.2503H1.55179V16.5161H1.94979V16.384H1.68394V16.2518H2.08195V16.6483H2.08348ZM1.28594 16.6483H1.15379V16.5161H1.28594V16.6483ZM2.61518 16.1181H0.887939V15.986H2.61518V16.1181Z" fill="white"/>
<path d="M6.06853 9.76109H5.40468V9.49524H5.00668V9.6274H5.27253V9.75955H4.87452V9.36155H5.40622V9.0957H5.53837V9.6274H5.67053V9.0957H5.80269V9.6274H5.93484V9.0957H6.067V9.76109H6.06853ZM4.74083 9.76109H4.07698V9.49524H3.67898V9.76109H3.54682V9.36309H4.21068V9.62894H4.60868V9.49678H4.34283V9.36462H4.74083V9.76109ZM3.94329 9.76109H3.81114V9.62894H3.94329V9.76109ZM5.27099 9.2294H3.54529V9.09724H5.27253V9.2294H5.27099Z" fill="white"/>
<path d="M6.06853 10.1589H4.87299V9.89307H6.06853V10.1589ZM4.74083 10.1589H3.54529V9.89307H4.74083V10.1589Z" fill="white"/>
<path d="M6.06853 15.8523H4.87299V15.5864H6.06853V15.8523ZM4.74083 15.8523H3.54529V15.5864H4.74083V15.8523Z" fill="white"/>
<path d="M6.06853 16.6483H5.40468V16.3824H5.00668V16.5146H5.27253V16.6468H4.87452V16.2488H5.40622V15.9829H5.53837V16.5146H5.67053V15.9829H5.80269V16.5146H5.93484V15.9829H6.067V16.6483H6.06853ZM4.74083 16.6483H4.07698V16.3824H3.67898V16.6483H3.54682V16.2503H4.21068V16.5161H4.60868V16.384H4.34283V16.2518H4.74083V16.6483ZM3.94329 16.6483H3.81114V16.5161H3.94329V16.6483ZM5.27099 16.1181H3.54529V15.986H5.27253V16.1181H5.27099Z" fill="white"/>
<path d="M8.7254 9.76109H8.06155V9.49524H7.66355V9.6274H7.9294V9.75955H7.5314V9.36155H8.06309V9.0957H8.19525V9.6274H8.3274V9.0957H8.45956V9.6274H8.59171V9.0957H8.72387V9.76109H8.7254ZM7.39617 9.76109H6.73232V9.49524H6.33431V9.76109H6.20216V9.36309H6.86601V9.62894H7.26401V9.49678H6.99816V9.36462H7.39617V9.76109ZM6.60016 9.76109H6.46801V9.62894H6.60016V9.76109ZM7.92786 9.2294H6.20062V9.09724H7.92786V9.2294Z" fill="white"/>
<path d="M8.7254 10.1589H7.52986V9.89307H8.7254V10.1589ZM7.39617 10.1589H6.20062V9.89307H7.39617V10.1589Z" fill="white"/>
<path d="M8.7254 15.8523H7.52986V15.5864H8.7254V15.8523ZM7.39617 15.8523H6.20062V15.5864H7.39617V15.8523Z" fill="white"/>
<path d="M8.7254 16.6483H8.06155V16.3824H7.66355V16.5146H7.9294V16.6468H7.5314V16.2488H8.06309V15.9829H8.19525V16.5146H8.3274V15.9829H8.45956V16.5146H8.59171V15.9829H8.72387V16.6483H8.7254ZM7.39617 16.6483H6.73232V16.3824H6.33431V16.6483H6.20216V16.2503H6.86601V16.5161H7.26401V16.384H6.99816V16.2518H7.39617V16.6483ZM6.60016 16.6483H6.46801V16.5161H6.60016V16.6483ZM7.92786 16.1181H6.20062V15.986H7.92786V16.1181Z" fill="white"/>
<path d="M11.3807 9.76109H10.7168V9.49524H10.3188V9.6274H10.5847V9.75955H10.1867V9.36155H10.7168V9.0957H10.849V9.6274H10.9811V9.0957H11.1133V9.6274H11.2454V9.0957H11.3776V9.76109H11.3807ZM10.053 9.76109H9.38912V9.49524H8.99111V9.76109H8.85742V9.36309H9.52127V9.62894H9.91927V9.49678H9.65343V9.36462H10.0514V9.76109H10.053ZM9.25542 9.76109H9.12327V9.62894H9.25542V9.76109ZM10.5847 9.2294H8.85742V9.09724H10.5847V9.2294Z" fill="white"/>
<path d="M11.3807 10.1589H10.1851V9.89307H11.3807V10.1589ZM10.053 10.1589H8.85742V9.89307H10.053V10.1589Z" fill="white"/>
<path d="M11.3807 15.8523H10.1851V15.5864H11.3807V15.8523ZM10.053 15.8523H8.85742V15.5864H10.053V15.8523Z" fill="white"/>
<path d="M11.3807 16.6483H10.7168V16.3824H10.3188V16.5146H10.5847V16.6468H10.1867V16.2488H10.7168V15.9829H10.849V16.5146H10.9811V15.9829H11.1133V16.5146H11.2454V15.9829H11.3776V16.6483H11.3807ZM10.053 16.6483H9.38912V16.3824H8.99111V16.6483H8.85742V16.2503H9.52127V16.5161H9.91927V16.384H9.65343V16.2518H10.0514V16.6483H10.053ZM9.25542 16.6483H9.12327V16.5161H9.25542V16.6483ZM10.5847 16.1181H8.85742V15.986H10.5847V16.1181Z" fill="white"/>
<path d="M14.0376 9.76109H13.3737V9.49524H12.9757V9.6274H13.2416V9.75955H12.8436V9.36155H13.3753V9.0957H13.5074V9.6274H13.6396V9.0957H13.7717V9.6274H13.9039V9.0957H14.0361V9.76109H14.0376ZM12.7099 9.76109H12.046V9.49524H11.648V9.76109H11.5159V9.36309H12.1797V9.62894H12.5762V9.49678H12.3103V9.36462H12.7084V9.76109H12.7099ZM11.9123 9.76109H11.7802V9.62894H11.9123V9.76109ZM13.2416 9.2294H11.5143V9.09724H13.2416V9.2294Z" fill="white"/>
<path d="M14.0376 10.1589H12.842V9.89307H14.0376V10.1589ZM12.7099 10.1589H11.5143V9.89307H12.7099V10.1589Z" fill="white"/>
<path d="M14.0376 15.8523H12.842V15.5864H14.0376V15.8523ZM12.7099 15.8523H11.5143V15.5864H12.7099V15.8523Z" fill="white"/>
<path d="M14.0376 16.6483H13.3737V16.3824H12.9757V16.5146H13.2416V16.6468H12.8436V16.2488H13.3753V15.9829H13.5074V16.5146H13.6396V15.9829H13.7717V16.5146H13.9039V15.9829H14.0361V16.6483H14.0376ZM12.7099 16.6483H12.046V16.3824H11.648V16.6483H11.5159V16.2503H12.1797V16.5161H12.5762V16.384H12.3103V16.2518H12.7084V16.6483H12.7099ZM11.9123 16.6483H11.7802V16.5161H11.9123V16.6483ZM13.2416 16.1181H11.5143V15.986H13.2416V16.1181Z" fill="white"/>
<path d="M16.6944 9.76109H16.0305V9.49524H15.6325V9.6274H15.8984V9.75955H15.5004V9.36155H16.0321V9.0957H16.1642V9.6274H16.2964V9.0957H16.4285V9.6274H16.5607V9.0957H16.6929V9.76109H16.6944ZM15.3667 9.76109H14.7028V9.49524H14.3048V9.76109H14.1727V9.36309H14.8365V9.62894H15.2345V9.49678H14.9687V9.36462H15.3667V9.76109ZM14.5692 9.76109H14.437V9.62894H14.5692V9.76109ZM15.8969 9.2294H14.1696V9.09724H15.8969V9.2294Z" fill="white"/>
<path d="M16.6949 10.1589H15.4993V9.89307H16.6949V10.1589ZM15.3672 10.1589H14.1716V9.89307H15.3672V10.1589Z" fill="white"/>
<path d="M16.6949 15.8523H15.4993V15.5864H16.6949V15.8523ZM15.3672 15.8523H14.1716V15.5864H15.3672V15.8523Z" fill="white"/>
<path d="M16.6944 16.6483H16.0305V16.3824H15.6325V16.5146H15.8984V16.6468H15.5004V16.2488H16.0321V15.9829H16.1642V16.5146H16.2964V15.9829H16.4285V16.5146H16.5607V15.9829H16.6929V16.6483H16.6944ZM15.3667 16.6483H14.7028V16.3824H14.3048V16.6483H14.1727V16.2503H14.8365V16.5161H15.2345V16.384H14.9687V16.2518H15.3667V16.6483ZM14.5692 16.6483H14.437V16.5161H14.5692V16.6483ZM15.8969 16.1181H14.1696V15.986H15.8969V16.1181Z" fill="white"/>
<path d="M19.3517 9.76109H18.6878V9.49524H18.2898V9.6274H18.5557V9.75955H18.1577V9.36155H18.6894V9.0957H18.8215V9.6274H18.9537V9.0957H19.0858V9.6274H19.218V9.0957H19.3501V9.76109H19.3517ZM18.0224 9.76109H17.3586V9.49524H16.9606V9.76109H16.8284V9.36309H17.4923V9.62894H17.8903V9.49678H17.6244V9.36462H18.0224V9.76109ZM17.2264 9.76109H17.0943V9.62894H17.2264V9.76109ZM18.5541 9.2294H16.8269V9.09724H18.5541V9.2294Z" fill="white"/>
<path d="M19.3517 10.1589H18.1561V9.89307H19.3517V10.1589ZM18.0224 10.1589H16.8269V9.89307H18.0224V10.1589Z" fill="white"/>
<path d="M19.3517 15.8523H18.1561V15.5864H19.3517V15.8523ZM18.0224 15.8523H16.8269V15.5864H18.0224V15.8523Z" fill="white"/>
<path d="M19.3517 16.6483H18.6878V16.3824H18.2898V16.5146H18.5557V16.6468H18.1577V16.2488H18.6894V15.9829H18.8215V16.5146H18.9537V15.9829H19.0858V16.5146H19.218V15.9829H19.3501V16.6483H19.3517ZM18.0224 16.6483H17.3586V16.3824H16.9606V16.6483H16.8284V16.2503H17.4923V16.5161H17.8903V16.384H17.6244V16.2518H18.0224V16.6483ZM17.2264 16.6483H17.0943V16.5161H17.2264V16.6483ZM18.5541 16.1181H16.8269V15.986H18.5541V16.1181Z" fill="white"/>
<path d="M22.0068 9.76109H21.3429V9.49524H20.9449V9.6274H21.2108V9.75955H20.8128V9.36155H21.3445V9.0957H21.4766V9.6274H21.6088V9.0957H21.7409V9.6274H21.8731V9.0957H22.0052V9.76109H22.0068ZM20.6791 9.76109H20.0152V9.49524H19.6172V9.76109H19.4851V9.36309H20.1489V9.62894H20.5469V9.49678H20.2811V9.36462H20.6791V9.76109ZM19.8815 9.76109H19.7494V9.62894H19.8815V9.76109ZM21.2108 9.2294H19.4835V9.09724H21.2108V9.2294Z" fill="white"/>
<path d="M22.0068 10.1589H20.8112V9.89307H22.0068V10.1589ZM20.6791 10.1589H19.4835V9.89307H20.6791V10.1589Z" fill="white"/>
<path d="M22.0068 15.8523H20.8112V15.5864H22.0068V15.8523ZM20.6791 15.8523H19.4835V15.5864H20.6791V15.8523Z" fill="white"/>
<path d="M22.0068 16.6483H21.3429V16.3824H20.9449V16.5146H21.2108V16.6468H20.8128V16.2488H21.3445V15.9829H21.4766V16.5146H21.6088V15.9829H21.7409V16.5146H21.8731V15.9829H22.0052V16.6483H22.0068ZM20.6791 16.6483H20.0152V16.3824H19.6172V16.6483H19.4851V16.2503H20.1489V16.5161H20.5469V16.384H20.2811V16.2518H20.6791V16.6483ZM19.8815 16.6483H19.7494V16.5161H19.8815V16.6483ZM21.2108 16.1181H19.4835V15.986H21.2108V16.1181Z" fill="white"/>
<path d="M24.6636 9.76109H23.9998V9.49524H23.6018V9.6274H23.8676V9.75955H23.4696V9.36155H24.0013V9.0957H24.1335V9.6274H24.2656V9.0957H24.3978V9.6274H24.5299V9.0957H24.6621V9.76109H24.6636ZM23.3359 9.76109H22.6721V9.49524H22.2725V9.76109H22.1404V9.36309H22.8042V9.62894H23.2022V9.49678H22.9364V9.36462H23.3344V9.76109H23.3359ZM22.5384 9.76109H22.4062V9.62894H22.5384V9.76109ZM23.8661 9.2294H22.1389V9.09724H23.8661V9.2294Z" fill="white"/>
<path d="M24.6637 10.1589H23.4681V9.89307H24.6637V10.1589ZM23.336 10.1589H22.1404V9.89307H23.336V10.1589Z" fill="white"/>
<path d="M24.6637 15.8523H23.4681V15.5864H24.6637V15.8523ZM23.336 15.8523H22.1404V15.5864H23.336V15.8523Z" fill="white"/>
<path d="M24.6636 16.6483H23.9998V16.3824H23.6018V16.5146H23.8676V16.6468H23.4696V16.2488H24.0013V15.9829H24.1335V16.5146H24.2656V15.9829H24.3978V16.5146H24.5299V15.9829H24.6621V16.6483H24.6636ZM23.3359 16.6483H22.6721V16.3824H22.2725V16.6483H22.1404V16.2503H22.8042V16.5161H23.2022V16.384H22.9364V16.2518H23.3344V16.6483H23.3359ZM22.5384 16.6483H22.4062V16.5161H22.5384V16.6483ZM23.8661 16.1181H22.1389V15.986H23.8661V16.1181Z" fill="white"/>
<path d="M27.3207 9.76109H26.6568V9.49524H26.2588V9.6274H26.5247V9.75955H26.1267V9.36155H26.6584V9.0957H26.7905V9.6274H26.9227V9.0957H27.0548V9.6274H27.187V9.0957H27.3191V9.76109H27.3207ZM25.993 9.76109H25.3291V9.49524H24.9311V9.76109H24.799V9.36309H25.4628V9.62894H25.8608V9.49678H25.595V9.36462H25.993V9.76109ZM25.1954 9.76109H25.0633V9.62894H25.1954V9.76109ZM26.5231 9.2294H24.7959V9.09724H26.5231V9.2294Z" fill="white"/>
<path d="M27.3207 10.1589H26.1251V9.89307H27.3207V10.1589ZM25.9914 10.1589H24.7959V9.89307H25.9914V10.1589Z" fill="white"/>
<path d="M27.3207 15.8523H26.1251V15.5864H27.3207V15.8523ZM25.9914 15.8523H24.7959V15.5864H25.9914V15.8523Z" fill="white"/>
<path d="M27.3207 16.6483H26.6568V16.3824H26.2588V16.5146H26.5247V16.6468H26.1267V16.2488H26.6584V15.9829H26.7905V16.5146H26.9227V15.9829H27.0548V16.5146H27.187V15.9829H27.3191V16.6483H27.3207ZM25.993 16.6483H25.3291V16.3824H24.9311V16.6483H24.799V16.2503H25.4628V16.5161H25.8608V16.384H25.595V16.2518H25.993V16.6483ZM25.1954 16.6483H25.0633V16.5161H25.1954V16.6483ZM26.5231 16.1181H24.7959V15.986H26.5231V16.1181Z" fill="white"/>
<path d="M11.605 14.6567C12.63 14.9886 13.7257 14.4292 14.0576 13.4043C14.2989 12.659 14.0714 11.8384 13.4737 11.3267C14.1329 12.304 13.8763 13.6317 12.8989 14.2909C12.5194 14.5522 12.0645 14.6797 11.605 14.6567Z" fill="#DA0000"/>
<path d="M14.0944 14.2864C14.8719 13.8362 15.1424 12.8389 14.6921 12.0567C14.4693 11.6725 14.1036 11.3975 13.6764 11.293C14.6199 11.9998 14.8105 13.3383 14.099 14.2818C14.099 14.2818 14.099 14.2818 14.0944 14.2864Z" fill="#DA0000"/>
<path d="M12.7757 15.0072L12.6666 12.8727L12.7757 11.1931C12.8418 11.2838 12.9279 11.3545 13.0278 11.4067V12.6637L12.9417 14.7844L12.7757 15.0072Z" fill="#DA0000"/>
<path d="M12.7328 11.0611L12.7758 11.0995C12.8757 11.2378 13.0647 11.2701 13.203 11.1748C13.3213 11.0949 13.3644 10.9428 13.3121 10.8091C13.2829 10.9658 13.1323 11.0703 12.971 11.0411C12.8849 11.0273 12.8142 10.975 12.7712 10.8982" fill="#DA0000"/>
<path d="M13.9472 14.6567C12.9222 14.9886 11.8265 14.4292 11.4946 13.4043C11.2534 12.659 11.4808 11.8384 12.0786 11.3267C11.4193 12.304 11.6759 13.6317 12.6533 14.2909C13.0328 14.5522 13.4877 14.6797 13.9472 14.6567Z" fill="#DA0000"/>
<path d="M11.4574 14.2864C10.6798 13.8362 10.4093 12.8389 10.8596 12.0567C11.0824 11.6725 11.4481 11.3975 11.8753 11.293C10.9318 11.9998 10.7413 13.3383 11.4527 14.2818C11.4527 14.2818 11.4527 14.2818 11.4574 14.2864Z" fill="#DA0000"/>
<path d="M12.7759 15.0072L12.885 12.8727L12.7759 11.1931C12.7098 11.2838 12.6238 11.3545 12.5239 11.4067V12.6637L12.6099 14.7844L12.7759 15.0072Z" fill="#DA0000"/>
<path d="M12.819 11.0611L12.776 11.0995C12.6761 11.2378 12.4871 11.2701 12.3488 11.1748C12.2305 11.0949 12.1874 10.9428 12.2397 10.8091C12.2689 10.9658 12.4195 11.0703 12.5808 11.0411C12.6669 11.0273 12.7376 10.975 12.7806 10.8982" fill="#DA0000"/>
</g>
<rect x="0.270833" y="4.60409" width="25.4583" height="16.7917" rx="1.89583" stroke="#7F7F7F" stroke-width="0.541667"/>
</g>
<defs>
<clipPath id="clip0_29826_26239">
<rect width="26" height="26" fill="white"/>
</clipPath>
<clipPath id="clip1_29826_26239">
<rect y="4.33325" width="26" height="17.3333" rx="2.16667" fill="white"/>
</clipPath>
<clipPath id="clip2_29826_26239">
<rect width="26" height="17.3333" fill="white" transform="translate(0 4.33325)"/>
</clipPath>
</defs>
</svg>
