<svg width="26" height="26" viewBox="0 0 26 26" fill="none" xmlns="http://www.w3.org/2000/svg">
<g clip-path="url(#clip0_29826_19261)">
<g clip-path="url(#clip1_29826_19261)">
<path d="M0 4.33325H26V21.6666H0V4.33325Z" fill="#032EA1"/>
<path d="M0 8.66675H26V17.3334H0V8.66675Z" fill="#E00025"/>
<path d="M10.9415 12.4592H15.1029V14.3579H10.9415V12.4592Z" fill="white"/>
<path d="M15.1005 14.3754H10.9419L10.9243 14.3545V12.4591L10.9419 12.4382H15.1032L15.1208 12.4591V14.3577L15.1005 14.3754ZM10.9568 14.3353H15.0815V12.48H10.9568V14.3353Z" fill="black"/>
<path d="M14.8849 13.5072H15.0149V14.2214H14.8849V13.5072ZM10.9415 13.1525H15.1029V13.3724H10.9415V13.1525ZM10.9415 12.854H15.1029V13.0482H10.9415V12.854Z" fill="white"/>
<path d="M15.0179 14.2405H14.8879L14.8703 14.2197V13.5055L14.8879 13.4846H15.0179L15.0355 13.5055V14.2197L15.0179 14.2405ZM14.9041 14.2004H15.0003V13.5263H14.9041V14.2004ZM15.1005 13.3947H10.9419L10.9243 13.3739V13.154L10.9419 13.1331H15.1032L15.1208 13.154V13.3739L15.1005 13.3947ZM10.9568 13.3514H15.0815V13.1733H10.9568V13.3514ZM15.1005 13.0705H10.9419L10.9243 13.0497V12.8539L10.9419 12.833H15.1032L15.1208 12.8539V13.0481L15.1005 13.0705ZM10.9568 13.0272H15.0815V12.8747H10.9568V13.0272Z" fill="black"/>
<path d="M10.9415 12.5552H15.1029V12.7446H10.9415V12.5552Z" fill="white"/>
<path d="M15.1005 12.7641H10.9419L10.9243 12.7432V12.5538L10.9419 12.533H15.1032L15.1208 12.5538V12.7432L15.1005 12.7641ZM10.9568 12.7239H15.0842V12.5747H10.9568V12.7239Z" fill="black"/>
<path d="M12.0357 13.5073H12.1657V14.2215H12.0357V13.5073ZM13.8272 13.5073H13.9572V14.2215H13.8272V13.5073ZM10.9727 13.5073H11.1027V14.2215H10.9727V13.5073ZM11.2286 13.5073H11.3586V14.2215H11.2286V13.5073ZM11.5035 13.5073H11.6335V14.2215H11.5035V13.5073ZM11.777 13.5073H11.907V14.2215H11.777V13.5073ZM14.0764 13.5073H14.2064V14.2215H14.0764V13.5073ZM14.35 13.5073H14.48V14.2215H14.35V13.5073ZM14.6249 13.5073H14.7548V14.2215H14.6249V13.5073Z" fill="white"/>
<path d="M14.7552 14.2408H14.6252L14.6076 14.2199V13.5057L14.6252 13.4849H14.7552L14.7728 13.5057V14.2199L14.7552 14.2408ZM14.6415 14.2007H14.7376V13.5266H14.6415V14.2007ZM14.4803 14.2408H14.3503L14.3327 14.2199V13.5057L14.3503 13.4849H14.4803L14.4979 13.5057V14.2199L14.4803 14.2408ZM14.3666 14.2007H14.4627V13.5266H14.3666V14.2007ZM14.2068 14.2408H14.0768L14.0592 14.2199V13.5057L14.0768 13.4849H14.2068L14.2244 13.5057V14.2199L14.2068 14.2408ZM14.093 14.2007H14.1892V13.5266H14.093V14.2007ZM13.9576 14.2408H13.8276L13.81 14.2199V13.5057L13.8276 13.4849H13.9576L13.9752 13.5057V14.2199L13.9576 14.2408ZM13.8439 14.2007H13.94V13.5266H13.8439V14.2007ZM12.1661 14.2408H12.0361L12.0185 14.2199V13.5057L12.0361 13.4849H12.1661L12.1837 13.5057V14.2199L12.1661 14.2408ZM12.0537 14.2007H12.1498V13.5266H12.0537V14.2007ZM11.9101 14.2408H11.7801L11.7625 14.2199V13.5057L11.7801 13.4849H11.9101L11.9277 13.5057V14.2199L11.9101 14.2408ZM11.7964 14.2007H11.8925V13.5266H11.7964V14.2007ZM11.6366 14.2408H11.5066L11.489 14.2199V13.5057L11.5066 13.4849H11.6366L11.6542 13.5057V14.2199L11.6366 14.2408ZM11.5215 14.2007H11.6176V13.5266H11.5215V14.2007ZM11.3617 14.2408H11.2317L11.2141 14.2199V13.5057L11.2317 13.4849H11.3617L11.3793 13.5057V14.2199L11.3617 14.2408ZM11.2479 14.2007H11.3441V13.5266H11.2479V14.2007ZM11.103 14.2408H10.973L10.9554 14.2199V13.5057L10.973 13.4849H11.103L11.1207 13.5057V14.2199L11.103 14.2408ZM10.992 14.2007H11.0882V13.5266H10.992V14.2007Z" fill="black"/>
<path d="M9.31152 14.4539C9.37517 14.4154 9.44829 14.3239 9.47402 14.2244H16.5333C16.559 14.3239 16.6321 14.417 16.6958 14.4539H9.31152Z" fill="white"/>
<path d="M16.7684 14.4765H9.2392L9.30555 14.4363C9.36513 14.401 9.43555 14.3144 9.45857 14.2197L9.46263 14.2036H16.549L16.5531 14.2197C16.5761 14.3144 16.6465 14.401 16.7061 14.4363L16.7684 14.4765ZM9.37055 14.4347H16.6357C16.5883 14.3914 16.5422 14.324 16.5192 14.2453H9.48701C9.46399 14.324 9.4193 14.3898 9.37055 14.4347Z" fill="black"/>
<path d="M12.9133 9.56881C12.9133 9.56881 12.9093 9.39066 12.996 9.38745C13.0826 9.39066 13.0786 9.56881 13.0786 9.56881H12.9133ZM12.4556 11.9329V11.6921C12.4529 11.5734 12.3554 11.5654 12.3527 11.4755C12.3527 11.4755 12.3392 11.3455 12.369 11.2829C12.4082 11.4594 12.4814 11.4257 12.4814 11.3535C12.4814 11.2909 12.4407 11.2315 12.3554 11.0807C12.3284 11.0325 12.346 10.8768 12.3825 10.8239C12.3961 10.9571 12.415 11.0213 12.4624 11.0213C12.4922 11.0213 12.5152 10.9988 12.5152 10.9314C12.5152 10.8479 12.4678 10.8046 12.4421 10.726C12.415 10.6361 12.4326 10.5446 12.4787 10.4933C12.499 10.6233 12.4922 10.6778 12.5423 10.6778C12.6412 10.6393 12.5423 10.4692 12.522 10.4291C12.4963 10.3809 12.5545 10.2798 12.5545 10.2798C12.587 10.397 12.5951 10.4066 12.6303 10.397C12.6737 10.3841 12.6669 10.3071 12.6141 10.2477C12.5816 10.2092 12.5843 10.153 12.6209 10.1065C12.6574 10.1883 12.7035 10.1851 12.7048 10.137L12.675 9.94757H13.3061L13.2736 10.1321C13.2641 10.1835 13.3237 10.1963 13.3629 10.1097C13.3995 10.1562 13.4022 10.2124 13.3697 10.2509C13.3169 10.3135 13.3128 10.3857 13.3535 10.4002C13.3873 10.4114 13.3968 10.4002 13.4293 10.283C13.4293 10.283 13.4794 10.3504 13.4618 10.4323C13.4415 10.4756 13.3413 10.6457 13.4415 10.681C13.4916 10.681 13.4848 10.6297 13.5051 10.4965C13.5512 10.5478 13.5715 10.6393 13.5417 10.7292C13.5187 10.8046 13.4686 10.8479 13.4686 10.9346C13.4686 11.002 13.4943 11.0245 13.5214 11.0245C13.5688 11.0245 13.585 10.9603 13.6013 10.8271C13.6378 10.8816 13.6568 11.0357 13.6283 11.0839C13.5444 11.2363 13.5024 11.2957 13.5024 11.3567C13.5024 11.4305 13.5755 11.4626 13.6148 11.2861C13.6446 11.3455 13.6311 11.4787 13.6311 11.4787C13.6283 11.5654 13.5308 11.5734 13.5281 11.6954V11.9361H12.457V11.9329H12.4556ZM12.7211 9.93955L12.7075 9.80474H13.2857L13.2722 9.93955H12.7211ZM12.7603 9.80153L12.7495 9.69078H13.2478L13.237 9.80153H12.7603ZM12.8375 9.68597L12.828 9.57523H13.1598L13.1503 9.68597H12.8375ZM14.0468 14.4542C13.9737 14.4221 13.864 14.3275 13.864 14.2344V13.1815L13.9601 13.0355H12.0318L12.1239 13.1815V14.236C12.1239 14.3275 12.0507 14.4221 11.9749 14.4558H14.0468V14.4542Z" fill="white"/>
<path d="M11.8803 14.4767L11.9697 14.4366C12.036 14.4061 12.1065 14.3194 12.1065 14.236V13.1912L11.9968 13.0178H13.9982L13.8845 13.1912V14.236C13.8845 14.3146 13.9833 14.4045 14.0565 14.4366L14.1458 14.4767H11.8803ZM12.0658 13.0563L12.1417 13.1751V14.2344C12.1417 14.3098 12.0983 14.3868 12.0428 14.4318H13.9739C13.9102 14.3836 13.8479 14.3098 13.8479 14.2344V13.1751L13.9251 13.058H12.0658V13.0563ZM13.5527 11.9554H12.4396V11.6954C12.4369 11.6392 12.4139 11.6119 12.3868 11.5846C12.361 11.5573 12.3367 11.5301 12.3367 11.4819C12.3367 11.4771 12.3231 11.3439 12.3543 11.2781L12.3746 11.2347L12.3854 11.2829C12.4057 11.3776 12.4328 11.4001 12.4477 11.3968C12.4572 11.3936 12.464 11.3808 12.464 11.3583C12.464 11.3118 12.4369 11.2668 12.3841 11.1722C12.3705 11.1497 12.357 11.124 12.3407 11.0967C12.3109 11.0405 12.3272 10.8768 12.3678 10.8159L12.3935 10.7773L12.3976 10.8255C12.4111 10.9587 12.4274 11.0036 12.4599 11.0036C12.4694 11.0036 12.4965 11.0036 12.4965 10.9362C12.4965 10.8897 12.4802 10.8576 12.4599 10.8191C12.4491 10.795 12.4342 10.7709 12.426 10.7372C12.3962 10.6457 12.4152 10.543 12.4667 10.482L12.4897 10.4547L12.4937 10.4933C12.4978 10.5205 12.5005 10.5446 12.5032 10.5639C12.5141 10.6457 12.5168 10.6586 12.5371 10.6586C12.5506 10.6538 12.5601 10.6457 12.5628 10.6313C12.5791 10.5831 12.5303 10.4933 12.51 10.4531C12.5073 10.4483 12.5059 10.4419 12.5032 10.4403C12.4734 10.3809 12.5303 10.2798 12.5371 10.267L12.5574 10.2317L12.5682 10.2718C12.598 10.3809 12.6021 10.3809 12.6224 10.3713C12.6292 10.3681 12.6332 10.3633 12.6359 10.3552C12.64 10.3328 12.6319 10.2959 12.5994 10.2573C12.5601 10.2108 12.5628 10.1402 12.6034 10.0872L12.6197 10.0647L12.6305 10.092C12.6481 10.1322 12.6671 10.1466 12.6766 10.1434C12.6806 10.1434 12.6833 10.1354 12.6833 10.1305L12.6508 9.91869H12.6915L12.6779 9.78067H12.7307L12.7172 9.66672H12.8106L12.8011 9.54956H12.8851C12.8851 9.51425 12.8919 9.43882 12.9257 9.39548C12.942 9.37622 12.9623 9.36499 12.9853 9.36499C13.0083 9.36499 13.0286 9.37622 13.0449 9.39548C13.0788 9.43882 13.0842 9.51425 13.0855 9.54956H13.1695L13.16 9.66672H13.2521L13.2385 9.78067H13.2914L13.2778 9.91869H13.3184L13.2914 10.1273C13.2914 10.1322 13.2886 10.1402 13.2954 10.1434C13.3063 10.1482 13.3293 10.1354 13.3482 10.092L13.3591 10.0647L13.3753 10.0872C13.4186 10.1418 13.4186 10.2124 13.3794 10.2573C13.3469 10.2959 13.3388 10.3328 13.3428 10.3552C13.3455 10.3633 13.3496 10.3681 13.3564 10.3713C13.374 10.3761 13.3821 10.3793 13.4119 10.2718L13.4214 10.2365L13.4417 10.2638C13.4444 10.267 13.4985 10.3424 13.4782 10.4323L13.4755 10.4371C13.4728 10.4403 13.4715 10.4451 13.4688 10.4499C13.4511 10.4852 13.4024 10.5799 13.4159 10.6281C13.42 10.6409 13.4268 10.6505 13.4417 10.6554C13.4593 10.6554 13.4647 10.6425 13.4755 10.5607C13.4782 10.5382 13.4796 10.5173 13.485 10.4901L13.4891 10.4515L13.5121 10.4788C13.5676 10.5382 13.5825 10.6409 13.5527 10.734C13.5432 10.7645 13.5297 10.7902 13.5189 10.8159C13.5013 10.8544 13.4823 10.8865 13.4823 10.933C13.4823 11.0004 13.5094 11.0004 13.5189 11.0004C13.5514 11.0004 13.5663 10.9539 13.5812 10.8223L13.5852 10.7741L13.6109 10.8126C13.6543 10.8752 13.6705 11.0373 13.638 11.0935C13.6218 11.124 13.6082 11.1481 13.5947 11.1689C13.5419 11.2636 13.5148 11.3102 13.5148 11.3551C13.5148 11.3744 13.5216 11.3904 13.531 11.3936C13.5419 11.3968 13.5703 11.3744 13.5933 11.2797L13.6042 11.2315L13.6245 11.2749C13.657 11.3391 13.6421 11.4723 13.6421 11.4787C13.6394 11.5252 13.615 11.5541 13.592 11.5814C13.5663 11.6119 13.5419 11.6376 13.5392 11.6922V11.9554H13.5527ZM12.4748 11.912H13.5161V11.6922C13.5189 11.6183 13.5527 11.5814 13.5798 11.5493C13.6028 11.5252 13.6191 11.506 13.6204 11.4739C13.6231 11.4498 13.6245 11.3984 13.6204 11.3519C13.5906 11.4305 13.5568 11.4354 13.5405 11.4338C13.5134 11.4289 13.4931 11.3984 13.4931 11.3551C13.4931 11.2989 13.5202 11.246 13.5771 11.1465C13.5906 11.124 13.6042 11.0983 13.6204 11.071C13.6367 11.0438 13.634 10.9571 13.6177 10.8945C13.6042 10.9812 13.5839 11.0438 13.5283 11.0438C13.508 11.0438 13.4579 11.0325 13.4579 10.933C13.4579 10.8736 13.4782 10.8335 13.4985 10.795C13.5094 10.7725 13.5216 10.7484 13.531 10.7212C13.5487 10.6586 13.5446 10.5944 13.5216 10.5446C13.5216 10.5526 13.5189 10.5607 13.5189 10.5687C13.508 10.6505 13.5026 10.6987 13.4484 10.6987H13.4444C13.4186 10.6875 13.401 10.6714 13.3943 10.6441C13.374 10.5767 13.4241 10.4756 13.4498 10.4307C13.4525 10.4275 13.4539 10.4226 13.4539 10.4194C13.4606 10.3809 13.4511 10.3488 13.443 10.3247C13.42 10.4002 13.4024 10.4275 13.3591 10.4114C13.3388 10.4066 13.3252 10.3873 13.3198 10.3649C13.3103 10.3247 13.3293 10.2702 13.3658 10.2268C13.3861 10.2028 13.3889 10.1707 13.3726 10.137C13.3469 10.1803 13.313 10.1915 13.2927 10.1803C13.2724 10.1723 13.2602 10.145 13.2656 10.1177L13.2927 9.95721H12.7036L12.7294 10.1257V10.1289C12.7267 10.1594 12.7131 10.1771 12.6928 10.1835C12.6698 10.1883 12.6454 10.1723 12.6238 10.137C12.6075 10.1691 12.6102 10.2012 12.6305 10.2268C12.6671 10.2702 12.6847 10.3247 12.6766 10.3649C12.6725 10.3889 12.659 10.405 12.6373 10.4114C12.594 10.4243 12.575 10.4002 12.5533 10.328C12.5398 10.3601 12.5303 10.3986 12.5398 10.4178C12.5425 10.421 12.5439 10.4259 12.5466 10.4307C12.5723 10.4788 12.6224 10.5767 12.6007 10.6441C12.5913 10.6682 12.575 10.6875 12.5506 10.6987H12.5466C12.4924 10.6987 12.4843 10.6505 12.4761 10.5687C12.4761 10.5607 12.4734 10.5526 12.4734 10.5446C12.4477 10.5928 12.4436 10.6618 12.464 10.7212C12.4734 10.7484 12.4843 10.7725 12.4965 10.795C12.5168 10.8351 12.5371 10.8768 12.5371 10.933C12.5371 11.0325 12.487 11.0438 12.4667 11.0438C12.4125 11.0438 12.3908 10.9844 12.3773 10.8945C12.361 10.9571 12.3597 11.0438 12.3732 11.071C12.3895 11.0983 12.403 11.1256 12.4139 11.1465C12.4707 11.246 12.4978 11.2989 12.4978 11.3551C12.4978 11.3952 12.4802 11.4289 12.4504 11.4338C12.4342 11.437 12.3976 11.4305 12.3705 11.3519C12.3665 11.3984 12.3678 11.4498 12.3705 11.4739C12.3705 11.506 12.3881 11.5252 12.4111 11.5493C12.4382 11.5798 12.4734 11.6167 12.4748 11.6905V11.912ZM12.7375 9.91869H13.2561L13.2656 9.824H12.7267L12.7375 9.91869ZM12.7768 9.78067H13.2169L13.2236 9.71005H12.7659L12.7768 9.78067ZM12.8567 9.66351H13.1383L13.1424 9.59289H12.8499L12.8567 9.66351ZM12.9311 9.54956H13.0598C13.0571 9.51425 13.0503 9.45808 13.0273 9.42758C13.0178 9.41635 13.007 9.41153 12.9934 9.41153C12.9799 9.41153 12.9704 9.41635 12.9609 9.43079C12.9406 9.45808 12.9339 9.51425 12.9311 9.54956Z" fill="black"/>
<path d="M12.3742 13.5073H12.5042V14.2215H12.3742V13.5073ZM13.4819 13.5073H13.6119V14.2215H13.4819V13.5073Z" fill="white"/>
<path d="M13.6151 14.2408H13.4851L13.4675 14.2199V13.5057L13.4851 13.4849H13.6151L13.6327 13.5057V14.2199L13.6151 14.2408ZM13.5013 14.2007H13.5975V13.5266H13.5013V14.2007ZM12.5047 14.2408H12.3747L12.3571 14.2199V13.5057L12.3747 13.4849H12.5047L12.5223 13.5057V14.2199L12.5047 14.2408ZM12.3923 14.2007H12.4884V13.5266H12.3923V14.2007Z" fill="black"/>
<path d="M11.9968 11.8381V13.0354H13.9712V12.7786L13.9739 11.8381C13.894 11.8767 13.8778 11.9633 13.8778 11.9633V12.4721H12.0957V11.9633C12.097 11.9633 12.0767 11.8767 11.9968 11.8381Z" fill="white"/>
<path d="M13.9898 13.0562H11.9788V11.8075L12.0018 11.8187C12.0912 11.8589 12.1115 11.9536 12.1142 11.9568V11.9616V12.4511H13.8625V11.9584C13.8625 11.9552 13.8787 11.8605 13.9681 11.8171L13.9938 11.8059L13.9898 13.0562ZM12.0154 13.016H13.9559V12.7785L13.9586 11.8717C13.9126 11.9038 13.9017 11.9552 13.899 11.9632V12.4912H12.0817V11.9632C12.079 11.952 12.0641 11.9006 12.0154 11.8685V13.016Z" fill="black"/>
<path d="M13.7043 14.4541C13.6407 14.422 13.4985 14.3273 13.4985 14.2342V13.0562C13.512 12.992 13.5879 12.9503 13.6353 12.9102H12.3258C12.3881 12.9487 12.4585 12.9808 12.4829 13.0562V14.2358C12.4829 14.3273 12.3705 14.422 12.3068 14.4557H13.7043V14.4541Z" fill="white"/>
<path d="M12.2226 14.4764L12.2984 14.4363C12.3648 14.401 12.4636 14.3143 12.4636 14.2357V13.0609C12.4433 13.0063 12.3946 12.9774 12.3431 12.9437C12.3336 12.9389 12.3255 12.9325 12.3174 12.9277L12.2551 12.8892H13.6905L13.6445 12.9277C13.6336 12.9389 13.6187 12.9469 13.6052 12.9582C13.5646 12.9887 13.5226 13.0176 13.5131 13.0609V14.2357C13.5131 14.3095 13.6296 14.3962 13.7068 14.4363L13.7826 14.4764H12.2226ZM12.3986 12.9325C12.442 12.9598 12.4812 12.9951 12.4988 13.0497L12.5016 13.0529V14.2357C12.5016 14.3111 12.4379 14.3882 12.3756 14.4331H13.6323C13.5686 14.3898 13.482 14.3159 13.482 14.2357V13.0529C13.4928 12.9983 13.5348 12.963 13.5781 12.9341H12.3986V12.9325Z" fill="black"/>
<path d="M13.88 12.9245V12.0771H13.6999V11.9937H12.2794V12.0771H12.0993V12.9245H13.88ZM13.421 14.454C13.3573 14.4219 13.2652 14.3272 13.2652 14.2341V13.2295L13.3181 13.138H12.6708L12.7236 13.2295V14.2358C12.7236 14.3272 12.6315 14.4219 12.5678 14.4556H13.421V14.454Z" fill="white"/>
<path d="M12.4857 14.4765L12.5615 14.4364C12.6238 14.4043 12.7051 14.3176 12.7051 14.2358V13.2359L12.6387 13.1171H13.3523L13.2833 13.2359V14.2358C13.2833 14.3176 13.3672 14.4043 13.4268 14.4364L13.5027 14.4765H12.4857ZM12.7037 13.1605L12.7403 13.2246V14.2374C12.7403 14.3128 12.6875 14.3898 12.6306 14.4348H13.3578C13.3022 14.3866 13.2481 14.3128 13.2481 14.2374V13.2246L13.2846 13.1605H12.7037ZM13.8981 12.9454H12.0835V12.0546H12.2636V11.9712H13.7193V12.0546H13.8994V12.9454H13.8981ZM12.1187 12.9021H13.8629V12.0948H13.6828V12.0113H12.2961V12.0948H12.116V12.9021H12.1187Z" fill="black"/>
<path d="M12.8306 13.1382H13.1569V14.4542H12.8306V13.1382Z" fill="white"/>
<path d="M13.1763 14.4763H12.8134V13.1169H13.1763V14.4763ZM12.8472 14.433H13.1397V13.1603H12.8472V14.433Z" fill="black"/>
<path d="M13.3288 12.8477C13.3288 12.761 13.5414 12.7578 13.6511 12.6824H12.3376C12.4473 12.7562 12.6558 12.7642 12.6558 12.8477L12.6991 13.0162L13.2435 13.0435L13.3288 12.8477Z" fill="white"/>
<path d="M13.2452 13.0643L12.7008 13.037L12.6846 13.0242L12.6385 12.8508C12.6385 12.8155 12.5627 12.7947 12.4963 12.7722C12.4368 12.7529 12.3772 12.7337 12.3298 12.7048L12.3393 12.6663H13.6528L13.6623 12.7048C13.6162 12.7369 13.5526 12.7529 13.493 12.7722C13.4239 12.793 13.3495 12.8155 13.3468 12.8508L13.344 12.8588L13.2574 13.0546L13.2452 13.0643ZM12.7116 12.9969L13.233 13.0209L13.3102 12.8428C13.3143 12.7802 13.3928 12.7561 13.4822 12.7289C13.5093 12.7208 13.535 12.7128 13.5594 12.7048H12.4232C12.4489 12.7128 12.476 12.7208 12.5004 12.7289C12.5898 12.7561 12.6656 12.7802 12.6697 12.8428L12.7116 12.9969Z" fill="black"/>
<path d="M13.5879 11.9329C13.5879 11.721 13.5947 11.6375 13.6502 11.6375V12.3116C13.5148 12.3678 13.42 12.5748 13.42 12.5748H12.5723C12.5723 12.5748 12.4762 12.371 12.3421 12.3116V11.6375C12.4112 11.6375 12.4112 11.7242 12.4112 11.9329H13.5879ZM13.6489 11.8462C13.6489 11.6022 13.8276 11.575 13.8276 11.575V11.7916C13.7586 11.7884 13.7274 11.859 13.7274 11.9682C13.7274 12.0741 13.7829 12.0773 13.7829 12.0773V12.692H13.6502V11.8462H13.6489Z" fill="white"/>
<path d="M13.7973 12.7094H13.6308V12.3435C13.517 12.4109 13.4344 12.581 13.4317 12.5842L13.4276 12.5955H12.5596L12.5555 12.5842C12.5555 12.581 12.4594 12.3868 12.3335 12.3322L12.3226 12.3274V11.618H12.3402C12.4228 11.618 12.4269 11.7095 12.4269 11.9134H13.5712C13.5712 11.7272 13.578 11.618 13.6511 11.618H13.6687V11.6806C13.7242 11.5715 13.8244 11.5555 13.8258 11.5555L13.8461 11.5522V11.8155H13.8285C13.8082 11.8155 13.7919 11.8203 13.7811 11.8347C13.7608 11.8588 13.7472 11.9085 13.7472 11.9695C13.7472 12.0562 13.7838 12.0562 13.7838 12.0562H13.8V12.7094H13.7973ZM13.6673 12.6693H13.7635V12.0931C13.7432 12.0819 13.708 12.0546 13.708 11.9679C13.708 11.8925 13.7242 11.8347 13.7513 11.8026C13.7675 11.7866 13.7851 11.7753 13.8068 11.7721V11.602C13.7635 11.618 13.6646 11.6694 13.6646 11.846L13.6673 12.6693ZM12.5799 12.5553H13.41C13.4303 12.512 13.517 12.3579 13.6335 12.3001V11.6678C13.6132 11.6887 13.6064 11.7593 13.6064 11.9326V11.9535H12.3903V11.9326C12.3903 11.7545 12.3876 11.6806 12.3565 11.6646V12.3018C12.4716 12.3579 12.5583 12.512 12.5799 12.5553Z" fill="black"/>
<path d="M12.339 11.8462C12.339 11.6022 12.1603 11.575 12.1603 11.575V11.7916C12.2293 11.7884 12.2605 11.859 12.2605 11.9682C12.2605 12.0741 12.2063 12.0773 12.2063 12.0773V12.692H12.339V11.8462Z" fill="white"/>
<path d="M12.3556 12.7095H12.189V12.0547H12.2053C12.208 12.0547 12.2419 12.0499 12.2419 11.9681C12.2419 11.9055 12.231 11.8573 12.208 11.8332C12.1945 11.8204 12.1782 11.8124 12.1606 11.814H12.143V11.5508L12.1633 11.554C12.166 11.554 12.3556 11.5861 12.3556 11.8461V12.7095ZM12.2256 12.6694H12.3218V11.8461C12.3218 11.6695 12.2229 11.6166 12.1796 11.6021V11.7723C12.1999 11.7755 12.2202 11.7851 12.2337 11.8028C12.2635 11.8349 12.2771 11.8926 12.2771 11.9681C12.2771 12.0547 12.2432 12.082 12.2229 12.0933V12.6694H12.2256Z" fill="black"/>
<path d="M13.5515 11.4351H12.4384V11.3998H13.5515V11.4351ZM13.542 11.0419H12.4614V11.0066H13.542V11.0419ZM13.4499 10.6984H12.5399V10.6631H13.4499V10.6984ZM13.3795 10.4159H12.6144V10.3806H13.3795V10.4159ZM13.3159 10.1864H12.6889V10.1511H13.3145V10.1864H13.3159Z" fill="black"/>
<path d="M13.3427 13.0032H12.648V12.7159H12.1023V12.6758H13.883V12.7159H13.3441V13.0032H13.3427ZM12.6819 12.9615H13.3062V12.7143H12.6819V12.9615Z" fill="black"/>
<path d="M12.5814 12.0579C12.691 12.2119 12.6802 12.4784 12.6802 12.6324H13.3126C13.3099 12.4784 13.3018 12.2119 13.4115 12.0579H12.5814ZM12.9375 10.2748L12.8508 10.2202V10.0677C12.8874 10.0806 12.9267 10.087 12.9307 10.1512C12.9416 10.0565 12.9646 10.0597 13.0011 10.0244C13.035 10.0629 13.058 10.0565 13.0702 10.1512C13.0743 10.0838 13.1135 10.0774 13.1501 10.0677V10.2202L13.0634 10.2748H12.9375Z" fill="white"/>
<path d="M13.3321 12.6532H12.6617V12.6019C12.6645 12.4446 12.6658 12.2087 12.5683 12.0707L12.5453 12.0353H13.4499L13.4269 12.0707C13.328 12.2119 13.3307 12.4478 13.3334 12.6019L13.3321 12.6532ZM12.6983 12.6131H13.2969V12.6051C13.2941 12.4526 13.2928 12.2344 13.3767 12.0803H12.6157C12.6997 12.2328 12.6983 12.4542 12.6956 12.6051L12.6983 12.6131ZM12.9339 10.2972L12.8337 10.2346V10.042L12.8567 10.05C12.8608 10.05 12.8635 10.0532 12.8676 10.0532C12.8852 10.0581 12.9109 10.0661 12.9272 10.0886C12.9366 10.0581 12.9502 10.0452 12.9678 10.0292C12.9746 10.0244 12.9813 10.0179 12.9881 10.0099L12.9989 9.99707L13.0098 10.0099C13.0165 10.0179 13.0233 10.0227 13.0301 10.0292C13.0477 10.0452 13.0626 10.0597 13.0707 10.0886C13.087 10.0661 13.11 10.0613 13.1303 10.0532C13.1344 10.0532 13.1371 10.05 13.1411 10.05L13.1641 10.042V10.2346L13.0639 10.2972H12.9339ZM12.8703 10.2105L12.9434 10.2571H13.0599L13.133 10.2105V10.0998C13.1059 10.111 13.0924 10.119 13.0897 10.1592L13.0558 10.1624C13.0463 10.0982 13.0355 10.0869 13.0152 10.0677C13.0111 10.0645 13.0084 10.0629 13.0044 10.0565C13.0003 10.0597 12.9976 10.0613 12.9935 10.0677C12.9732 10.0869 12.961 10.0982 12.9529 10.1624L12.919 10.1592C12.9163 10.1207 12.9028 10.111 12.8757 10.0998V10.2105H12.8703Z" fill="black"/>
<path d="M12.9333 10.525L12.7898 10.4078V10.2666C12.8399 10.2794 12.8968 10.2859 12.9022 10.3581C12.9198 10.2522 12.9523 10.1976 13.001 10.1575C13.0511 10.1976 13.0836 10.2522 13.0999 10.3581C13.104 10.2843 13.1622 10.2794 13.2123 10.2666V10.4078L13.0688 10.525H12.9333Z" fill="white"/>
<path d="M13.073 10.546H12.9267L12.771 10.4192V10.2426L12.7913 10.2475C12.7954 10.2507 12.8021 10.2507 12.8076 10.2523C12.8374 10.2603 12.8739 10.2683 12.8969 10.2988C12.9145 10.2314 12.9443 10.1817 12.9904 10.1447L12.9999 10.1367L13.0093 10.1447C13.0554 10.1833 13.0852 10.2282 13.1028 10.2988C13.1258 10.2715 13.1596 10.2603 13.1921 10.2523C13.1962 10.2491 13.203 10.2491 13.2084 10.2475L13.2287 10.2426V10.4192L13.073 10.546ZM12.9376 10.5026H13.0635L13.1962 10.3935V10.2908C13.1502 10.302 13.1204 10.3133 13.119 10.3614L13.0852 10.3646C13.0716 10.278 13.0459 10.2266 13.0026 10.1865C12.9592 10.2266 12.9335 10.278 12.92 10.3646L12.8861 10.3614C12.882 10.3149 12.8536 10.3052 12.8089 10.2908V10.3935L12.9376 10.5026Z" fill="black"/>
<path d="M12.9228 10.9122L12.7562 10.7388V10.535C12.8131 10.5575 12.8795 10.5655 12.8863 10.6698C12.9066 10.5157 12.9431 10.4371 13 10.3745C13.0569 10.4339 13.0934 10.5157 13.1138 10.6698C13.1205 10.5607 13.1842 10.5527 13.2438 10.5318V10.7372L13.0772 10.9106H12.9228V10.9122ZM13.2289 11.1417L13.0785 11.3888H12.9093L12.759 11.1417H13.2289ZM12.6736 11.5541C12.7495 11.6023 12.7766 11.7002 12.7833 11.8815H13.2058C13.2153 11.7002 13.2424 11.6023 13.3155 11.5541H12.6736Z" fill="white"/>
<path d="M13.2218 11.9041H12.7668V11.8848C12.7573 11.7003 12.7302 11.6168 12.6666 11.5735L12.607 11.535H13.3883L13.3288 11.5735C13.2624 11.6168 13.2353 11.7003 13.2286 11.8848L13.2218 11.9041ZM12.7993 11.8624H13.1879C13.1947 11.7372 13.2137 11.6409 13.2638 11.5783H12.7248C12.7763 11.6377 12.7912 11.7388 12.7993 11.8624ZM13.0864 11.4082H12.8995L12.7235 11.1209H13.2624L13.0864 11.4082ZM12.9171 11.3664H13.0674L13.1933 11.1626H12.7912L12.9171 11.3664ZM12.9157 10.9331L12.7397 10.7485V10.5046L12.7627 10.5126C12.7695 10.5158 12.7736 10.5174 12.7803 10.5174C12.8169 10.5287 12.8575 10.5415 12.8832 10.5848C12.9036 10.4821 12.9374 10.4147 12.9902 10.3569L13.0011 10.3457L13.0119 10.3569C13.0647 10.4115 13.0986 10.4821 13.1189 10.5848C13.1446 10.5415 13.1852 10.5287 13.2218 10.5174C13.2286 10.5142 13.2326 10.5142 13.2394 10.5126L13.2624 10.5046V10.7485L13.0864 10.9331H12.9157ZM12.7736 10.7309L12.9293 10.893H13.0728L13.2286 10.7309V10.5624C13.1784 10.5784 13.1392 10.5929 13.1351 10.6731L13.1013 10.6763C13.085 10.5463 13.0552 10.4677 13.0051 10.4083C12.955 10.4677 12.9252 10.5495 12.909 10.6763L12.8751 10.6731C12.8711 10.5913 12.8318 10.5784 12.7817 10.5624V10.7309H12.7736Z" fill="black"/>
<path d="M13.3223 11.1415V10.8944C13.2518 10.9184 13.2058 10.9682 13.1855 11.0356C13.1855 10.9538 13.0934 10.7644 12.9959 10.6697C12.8957 10.7756 12.8036 10.9457 12.8063 11.0356C12.7901 10.9714 12.74 10.9168 12.6696 10.8944V11.1415H13.3223Z" fill="white"/>
<path d="M13.3222 11.1639H12.6668L12.6492 11.1414V10.8943L12.6722 10.875C12.725 10.8911 12.771 10.9264 12.7981 10.9729C12.8252 10.8734 12.9078 10.7402 12.985 10.6567H13.008C13.092 10.7386 13.1678 10.8782 13.1949 10.9761C13.222 10.9296 13.2653 10.8943 13.3208 10.8782L13.3439 10.8975V11.1446L13.3222 11.1639ZM12.6817 11.1206H13.3032V10.9232C13.2504 10.9472 13.2166 10.9874 13.1976 11.0419L13.1638 11.0339C13.1638 10.9601 13.0812 10.7899 12.9918 10.6953C12.8983 10.8012 12.8157 10.9553 12.8184 11.0307L12.7846 11.0355C12.771 10.9841 12.7318 10.9408 12.6817 10.9167V11.1206Z" fill="black"/>
<path d="M13.3551 11.5541V11.307C13.2779 11.331 13.2264 11.3808 13.2048 11.4482C13.2048 11.3663 13.1046 11.177 12.9962 11.0823C12.8866 11.1882 12.7863 11.3583 12.7877 11.4482C12.7701 11.384 12.7146 11.3294 12.6374 11.307V11.5541H13.3551Z" fill="white"/>
<path d="M13.3546 11.5748H12.6342L12.6166 11.5539V11.3068L12.6396 11.2875C12.7019 11.3068 12.7493 11.3421 12.7791 11.387C12.8089 11.2843 12.8982 11.1511 12.9849 11.0676H13.0052C13.0987 11.1495 13.184 11.2923 13.2111 11.3902C13.2408 11.3421 13.2882 11.3068 13.3505 11.2875L13.3735 11.3068V11.5539L13.3546 11.5748ZM12.6504 11.5347H13.3356V11.3373C13.276 11.3613 13.2368 11.4015 13.2192 11.4592L13.1853 11.4512C13.1853 11.3774 13.0932 11.204 12.9957 11.1126C12.8928 11.2185 12.8021 11.3758 12.8035 11.4512L12.7696 11.4592C12.7533 11.4079 12.7127 11.3613 12.6531 11.3405V11.5347H12.6504Z" fill="black"/>
<path d="M13.4414 12.063V11.7789C13.3426 11.8094 13.2843 11.8928 13.2545 11.9442C13.2545 11.7901 13.1083 11.5542 12.9945 11.4788C12.8781 11.5574 12.7345 11.8014 12.7345 11.9442C12.702 11.896 12.6425 11.8094 12.5477 11.7789V12.063H13.4414Z" fill="white"/>
<path d="M13.4413 12.0821H12.5449L12.5273 12.0612V11.7771L12.5503 11.7579C12.6275 11.782 12.683 11.8397 12.7223 11.8911C12.7494 11.737 12.8794 11.5316 12.985 11.4578H13.0026C13.1082 11.5316 13.2396 11.7338 13.2653 11.8911C13.3154 11.8237 13.3723 11.7771 13.4373 11.7579L13.4603 11.7771V12.0612L13.4413 12.0821ZM12.5638 12.042H13.4251V11.806C13.3655 11.8301 13.3154 11.8799 13.268 11.9553L13.2355 11.9425C13.2355 11.8044 13.1001 11.5829 12.9931 11.5011C12.8875 11.5797 12.7507 11.8076 12.7507 11.9425L12.7182 11.9553C12.6857 11.9071 12.6356 11.8381 12.5611 11.806V12.042H12.5638Z" fill="black"/>
<path d="M13.3884 12.6934V12.4013C13.3018 12.4414 13.276 12.5393 13.249 12.6051C13.2598 12.3066 13.1068 11.9872 12.993 11.907C12.8766 11.9888 12.7235 12.313 12.7371 12.6051C12.71 12.5409 12.6843 12.4398 12.5976 12.4013V12.6934H13.3884Z" fill="white"/>
<path d="M13.3888 12.7161H12.598L12.5804 12.6952V12.4031L12.6034 12.3838C12.663 12.4111 12.6955 12.4657 12.7172 12.517C12.7334 12.2378 12.8769 11.9649 12.9826 11.8911H13.0002C13.1058 11.9649 13.2466 12.233 13.2656 12.517C13.2886 12.4657 13.3198 12.4111 13.3821 12.3838L13.4051 12.4031V12.6952L13.3888 12.7161ZM12.6169 12.6759H13.3739V12.4384C13.3238 12.4737 13.3008 12.5331 13.2805 12.5909C13.2764 12.6021 13.2737 12.6117 13.2697 12.6214L13.2358 12.6101C13.2453 12.3228 13.1004 12.0227 12.9961 11.9393C12.8891 12.0259 12.7442 12.3341 12.7564 12.6101L12.7226 12.6214C12.7185 12.6101 12.7131 12.6005 12.709 12.5893C12.6887 12.5347 12.6657 12.4753 12.6169 12.4432V12.6791V12.6759Z" fill="black"/>
<path d="M13.3293 13.1379V12.8458C13.24 12.8698 13.2332 12.91 13.2061 12.9758C13.2169 12.7976 13.11 12.597 12.9962 12.5151C12.8798 12.597 12.7741 12.7992 12.7863 12.9758C12.7592 12.9116 12.7538 12.8698 12.6631 12.8458V13.1379H13.3293Z" fill="white"/>
<path d="M13.3478 13.1608H12.6423V12.8189L12.6626 12.8237C12.7249 12.8398 12.7493 12.8638 12.7682 12.8943C12.7858 12.7258 12.8874 12.5637 12.9849 12.4931L12.9944 12.4883L13.0038 12.4931C13.1027 12.5637 13.2029 12.7258 13.2205 12.8943C13.2381 12.8622 13.2665 12.8398 13.3261 12.8205L13.3464 12.8157V13.1608H13.3478ZM12.6748 13.1174H13.3099V12.8735C13.2571 12.8927 13.2476 12.9168 13.2273 12.9633C13.2246 12.9714 13.2205 12.9762 13.2178 12.9842L13.1785 13.0741L13.1853 12.9746C13.1948 12.8061 13.0932 12.6167 12.9916 12.538C12.8887 12.6167 12.7885 12.8061 12.798 12.9746L12.8048 13.0741L12.7655 12.9842C12.7614 12.9762 12.7587 12.9682 12.7547 12.9601C12.7371 12.9168 12.7276 12.8927 12.6748 12.8735V13.1174Z" fill="black"/>
<path d="M9.47357 14.2246V13.3386C9.44784 13.2247 9.36794 13.1268 9.30701 13.1059V12.3259L9.44378 12.4126L9.59951 13.2279V14.2214H9.47357V14.2246Z" fill="white"/>
<path d="M9.61859 14.2453H9.4588V13.3402C9.43578 13.2342 9.35994 13.1428 9.30578 13.1267L9.29224 13.1219V12.2905L9.46151 12.3997L9.61859 13.2278V14.2453ZM9.49265 14.2052H9.58473V13.2326L9.43171 12.4286L9.3288 12.3611V13.093C9.39244 13.1235 9.47098 13.2198 9.49401 13.3337V13.3386V14.2052H9.49265Z" fill="black"/>
<path d="M9.47357 14.2292V13.3417C9.44784 13.2277 9.36794 13.1298 9.30701 13.109V12.2744C9.39909 12.2744 9.44378 12.4156 9.44378 12.4156L9.59951 13.231V14.2228L9.47357 14.2292Z" fill="white"/>
<path d="M9.45727 14.252V13.3452C9.43425 13.2393 9.35842 13.1478 9.30425 13.1318L9.29071 13.127V12.2571H9.30832C9.41123 12.2571 9.45863 12.4063 9.46134 12.4112V12.4144L9.61842 13.2345V14.2472L9.45727 14.252ZM9.32592 13.0917C9.38957 13.1221 9.46811 13.2184 9.49113 13.3324V13.3372V14.2039L9.58321 14.1991V13.2297L9.42748 12.4176C9.42342 12.4063 9.38821 12.3084 9.32456 12.2924V13.0917H9.32592Z" fill="black"/>
<path d="M9.37726 14.4542C9.4409 14.4221 9.53299 14.3274 9.53299 14.2343V13.1269L9.48965 13.0354H11.0808L11.0185 13.1269V14.2343C11.0185 14.3258 11.0822 14.4205 11.1444 14.4542H9.37726Z" fill="white"/>
<path d="M11.2259 14.4764H9.2962L9.37204 14.4362C9.43433 14.4041 9.51558 14.3175 9.51558 14.2356V13.133L9.46141 13.0159H11.1203L11.0377 13.1346V14.2356C11.0377 14.3223 11.0972 14.4057 11.1541 14.4362L11.2259 14.4764ZM9.44245 14.4346H11.0878C11.0404 14.3865 11.0038 14.3127 11.0038 14.2372V13.1234L11.0471 13.0608H9.52235L9.55485 13.125V14.2388C9.54943 14.3127 9.49662 14.3865 9.44245 14.4346Z" fill="black"/>
<path d="M10.8236 14.4542C10.7599 14.4221 10.6678 14.3274 10.6678 14.2343V13.1814L10.8005 13.0354H9.71992L9.85263 13.1814V14.2359C9.85263 14.3274 9.76055 14.4221 9.6969 14.4558H10.8236V14.4542Z" fill="white"/>
<path d="M10.9054 14.4764H9.61487L9.6907 14.4362C9.75299 14.4041 9.83424 14.3175 9.83424 14.2356V13.1924L9.67445 13.0159H10.8472L10.6874 13.1924V14.2356C10.6874 14.3175 10.7713 14.4041 10.8309 14.4362L10.9054 14.4764ZM9.75976 14.4346H10.7605C10.7063 14.3865 10.6508 14.3127 10.6508 14.2372V13.1764L10.7564 13.0592H9.76518L9.87081 13.1764V14.2388C9.86945 14.3127 9.81528 14.3865 9.75976 14.4346Z" fill="black"/>
<path d="M10.6706 14.4542C10.607 14.4221 10.5149 14.3274 10.5149 14.2344V13.2842L10.6016 13.1382H9.91367L10.0003 13.2842V14.236C10.0003 14.3274 9.90825 14.4221 9.8446 14.4558H10.6706V14.4542Z" fill="white"/>
<path d="M10.7537 14.4763H9.76648L9.84231 14.4362C9.9046 14.4041 9.98585 14.3174 9.98585 14.2356V13.2903L9.88294 13.1169H10.6372L10.5343 13.2903V14.2356C10.5343 14.3174 10.6183 14.4041 10.6778 14.4362L10.7537 14.4763ZM9.91002 14.4346H10.6074C10.5533 14.3865 10.4977 14.3126 10.4977 14.2372V13.279L10.5681 13.1603H9.94929L10.0197 13.279V14.2372C10.0211 14.3126 9.96825 14.3865 9.91002 14.4346Z" fill="black"/>
<path d="M10.0952 13.1382H10.4243V14.4542H10.0952V13.1382Z" fill="white"/>
<path d="M10.4409 14.4763H10.078V13.1169H10.4409V14.4763ZM10.1146 14.4346H10.4071V13.1603H10.1146V14.4346Z" fill="black"/>
<path d="M9.6471 13.5069H9.7771V14.2211H9.6471V13.5069ZM10.7724 13.5069H10.9024V14.2211H10.7724V13.5069ZM9.53741 12.3016H9.69585V13.0351H9.53877V12.3016H9.53741ZM9.53741 12.1636H9.69585V12.2984H9.53877V12.1636H9.53741Z" fill="white"/>
<path d="M10.9049 14.2409H10.7749L10.7573 14.22V13.5058L10.7749 13.4849H10.9049L10.9225 13.5058V14.22L10.9049 14.2409ZM10.7898 14.2007H10.8859V13.5267H10.7898V14.2007ZM9.77959 14.2409H9.64959L9.63199 14.22V13.5058L9.64959 13.4849H9.77959L9.7972 13.5058V14.22L9.77959 14.2409ZM9.66584 14.2007H9.76199V13.5267H9.66584V14.2007ZM9.69563 13.0548H9.53855L9.51959 13.0323V12.1625L9.5372 12.1416H9.69563L9.71324 12.1625V12.2973L9.71595 12.3005V13.0339L9.69563 13.0548ZM9.55345 13.0131H9.67668V12.323H9.55345V13.0131ZM9.55345 12.2764H9.67397V12.1817H9.55345V12.2764Z" fill="black"/>
<path d="M10.8358 12.4592H11.062V13.0258H10.8358V12.4592Z" fill="white"/>
<path d="M11.0624 13.0465H10.8363L10.8187 13.0256V12.4591L10.8363 12.4382H11.0624L11.08 12.4591V13.0256L11.0624 13.0465ZM10.8539 13.0032H11.0407V12.4832H10.8539V13.0032Z" fill="black"/>
<path d="M9.69307 13.0276V11.7742C9.73912 11.7742 9.74589 11.9587 9.8488 11.9587C9.90297 11.9587 9.8962 11.8833 9.86641 11.8207C9.83932 11.7661 9.80683 11.6907 9.85016 11.5495C9.88266 11.6586 9.96391 11.6923 9.94901 11.6249C9.92193 11.5077 9.8461 11.4901 9.90297 11.3087C9.92328 11.4612 10.0032 11.4516 9.98558 11.3649C9.96255 11.267 9.91651 11.2269 9.97474 11.0856C10.0072 11.2429 10.0506 11.2349 10.0506 11.137C10.0506 10.991 10.0465 10.8369 10.2036 10.7775C10.2036 10.7775 10.2131 10.6443 10.2699 10.6443C10.3268 10.6443 10.3363 10.7775 10.3363 10.7775C10.4934 10.8337 10.4893 10.991 10.4893 11.137C10.4893 11.2349 10.5327 11.2461 10.5652 11.0856C10.622 11.2237 10.576 11.2638 10.5543 11.3649C10.534 11.4516 10.6166 11.4596 10.6369 11.3087C10.6938 11.4901 10.6193 11.5093 10.5909 11.6249C10.5746 11.6923 10.6599 11.657 10.6897 11.5495C10.7358 11.6907 10.7006 11.7661 10.6735 11.8207C10.6437 11.8833 10.6369 11.9587 10.6911 11.9587C10.794 11.9587 10.8008 11.7742 10.8468 11.7742V13.0276H9.69307ZM9.44391 12.0791V13.0356H9.53599V12.0791C9.50349 12.0582 9.47235 12.055 9.44391 12.0791Z" fill="white"/>
<path d="M9.55357 13.0562H9.42493V12.0692L9.4317 12.0644C9.4642 12.0371 9.50076 12.0339 9.54138 12.0595L9.55086 12.0644V13.0578H9.55357V13.0562ZM9.46284 13.0161H9.51972V12.09C9.49264 12.0772 9.47368 12.082 9.46284 12.09V13.0161ZM10.8631 13.0482H9.67409V11.753H9.6917C9.72149 11.753 9.73503 11.7883 9.75128 11.8284C9.77159 11.8798 9.79461 11.9376 9.84743 11.9376C9.86097 11.9376 9.86503 11.9295 9.86503 11.9263C9.87451 11.9071 9.86774 11.8669 9.84878 11.8284C9.81628 11.7642 9.78649 11.6824 9.83253 11.5379L9.85014 11.4834L9.86638 11.5379C9.88399 11.6005 9.9192 11.6294 9.93274 11.6326C9.93274 11.6294 9.93274 11.6278 9.93003 11.6246C9.92326 11.5893 9.90972 11.5652 9.89753 11.5411C9.87045 11.485 9.84336 11.4304 9.88399 11.2972L9.90701 11.2218L9.91784 11.3004C9.92732 11.371 9.95034 11.3951 9.95847 11.3999C9.96118 11.3999 9.96253 11.3999 9.96253 11.3999C9.96524 11.3967 9.96659 11.3839 9.96253 11.3646C9.95847 11.3437 9.9517 11.3213 9.94493 11.302C9.92461 11.2394 9.90566 11.1848 9.9517 11.0693L9.97201 11.0179L9.98284 11.0741C9.99638 11.1447 10.0099 11.1688 10.0167 11.1768C10.0194 11.172 10.0235 11.1544 10.0235 11.1287V11.1174C10.0235 10.9762 10.0235 10.8189 10.1792 10.7547C10.1833 10.7162 10.1995 10.6167 10.2618 10.6167C10.3241 10.6167 10.339 10.7162 10.3444 10.7547C10.5001 10.8189 10.5001 10.9762 10.5001 11.1174V11.1287C10.5001 11.156 10.5028 11.1688 10.5069 11.1768C10.5137 11.1688 10.5272 11.1447 10.5408 11.0741L10.5516 11.0179L10.5719 11.0693C10.6179 11.1832 10.599 11.2378 10.5787 11.302C10.5719 11.3213 10.5651 11.3405 10.5597 11.3646C10.5557 11.3839 10.557 11.3967 10.5597 11.3999C10.5597 11.3999 10.5624 11.4031 10.5638 11.3999C10.5746 11.3951 10.5963 11.3694 10.6044 11.3004L10.6152 11.2218L10.6383 11.2972C10.6789 11.4304 10.6545 11.4834 10.6247 11.5444C10.6139 11.5684 10.599 11.5925 10.5922 11.6278C10.5922 11.631 10.5895 11.6358 10.5895 11.6358C10.6031 11.6326 10.6369 11.6037 10.6559 11.5411L10.6721 11.4866L10.6911 11.5411C10.7412 11.6952 10.7006 11.7787 10.6748 11.8316C10.6572 11.8702 10.6491 11.9103 10.6586 11.9295C10.6613 11.9327 10.6626 11.9408 10.6762 11.9408C10.7263 11.9408 10.752 11.8846 10.7723 11.8316C10.7886 11.7915 10.8048 11.7562 10.8319 11.7562H10.8495V13.0482H10.8631ZM9.7093 13.0048H10.8265V11.8188C10.8224 11.8268 10.8197 11.8381 10.8157 11.8429C10.7926 11.8974 10.7615 11.9761 10.687 11.9761C10.664 11.9761 10.6464 11.9648 10.6369 11.9456C10.6193 11.9071 10.6328 11.8477 10.6532 11.8076C10.6735 11.7674 10.7006 11.7081 10.6802 11.6021C10.6532 11.6535 10.6139 11.684 10.5882 11.6727C10.5719 11.6679 10.5611 11.6487 10.5678 11.6134C10.5773 11.5748 10.5909 11.546 10.6044 11.5187C10.6247 11.4786 10.641 11.4432 10.6315 11.3774C10.6207 11.4095 10.6044 11.432 10.5841 11.44C10.5706 11.4448 10.5543 11.4432 10.5435 11.432C10.5299 11.416 10.5259 11.3887 10.5326 11.3566C10.5367 11.3325 10.5462 11.31 10.5502 11.2924C10.5665 11.2458 10.5773 11.2105 10.5611 11.1495C10.5448 11.2041 10.5245 11.2314 10.5015 11.2282C10.4879 11.225 10.4649 11.2121 10.4649 11.1367V11.1255C10.4649 10.9842 10.4649 10.8494 10.3227 10.7981L10.3119 10.7932V10.7804C10.3092 10.7419 10.2943 10.6665 10.2645 10.6665C10.2347 10.6665 10.2185 10.7419 10.2171 10.7804V10.7932L10.2063 10.7981C10.0641 10.8494 10.0641 10.9842 10.0641 11.1255V11.1367C10.0641 11.2121 10.0411 11.2266 10.0275 11.2282C10.0045 11.2314 9.9842 11.2041 9.96795 11.1495C9.9517 11.2121 9.96524 11.2474 9.97878 11.2924C9.98555 11.3116 9.99232 11.3325 9.99638 11.3566C10.0032 11.3887 10.0004 11.416 9.98555 11.432C9.97472 11.4432 9.95982 11.4481 9.94493 11.44C9.92732 11.432 9.90836 11.4095 9.89753 11.3774C9.88805 11.4416 9.9043 11.4769 9.92461 11.5187C9.93545 11.5427 9.9517 11.5732 9.96118 11.6134C9.97066 11.6487 9.95711 11.6679 9.94086 11.6727C9.91513 11.6808 9.87722 11.6535 9.84878 11.6021C9.82576 11.7081 9.85555 11.7674 9.87586 11.8076C9.89618 11.8477 9.90972 11.9071 9.89211 11.9456C9.88263 11.9648 9.86503 11.9761 9.84201 11.9761C9.76888 11.9761 9.73638 11.9006 9.71336 11.8429C9.71066 11.8348 9.70659 11.8268 9.70253 11.8188V13.0048H9.7093Z" fill="black"/>
<path d="M9.44922 12.6999C9.56297 12.7673 9.67537 12.8491 9.70516 13.0385H9.44922V12.6999ZM11.0255 12.4126V13.0385H11.1013V12.4126C11.0783 12.3981 11.0458 12.3965 11.0255 12.4126Z" fill="white"/>
<path d="M11.118 13.0562H11.0083V12.4014L11.015 12.3966C11.0421 12.3757 11.0814 12.3773 11.1071 12.3933L11.1166 12.3982V13.0562H11.118ZM11.0435 13.0161H11.0827V12.4254C11.0692 12.4206 11.053 12.4206 11.0435 12.4254V13.0161ZM9.72316 13.0562H9.43066V12.663L9.45639 12.679C9.57285 12.7496 9.69202 12.8363 9.72181 13.0305L9.72316 13.0562ZM9.46452 13.0161H9.67983C9.65004 12.87 9.56337 12.7962 9.46452 12.7352V13.0161Z" fill="black"/>
<path d="M11.1015 12.6934C10.9877 12.7608 10.8753 12.8426 10.8455 13.032H11.1015V12.6934Z" fill="white"/>
<path d="M11.119 13.0547H10.8265L10.8305 13.0306C10.8603 12.8348 10.9768 12.7498 11.096 12.6791L11.1217 12.6631V13.0563H11.119V13.0547ZM10.8685 13.0114H11.0838V12.7305C10.9849 12.7915 10.8982 12.8653 10.8685 13.0114Z" fill="black"/>
<path d="M10.3499 11.236L10.4163 11.1718V11.0884C10.3906 11.0916 10.3797 11.1012 10.3621 11.1285C10.3459 11.0723 10.3147 11.029 10.2687 11.0017C10.2227 11.029 10.1915 11.0691 10.1753 11.1269C10.1577 11.0996 10.1428 11.0916 10.1211 11.0884V11.1718L10.1874 11.236H10.3499Z" fill="white"/>
<path d="M10.3537 11.2586H10.1749L10.0977 11.18V11.0628L10.1153 11.0661C10.1356 11.0693 10.1492 11.0741 10.1627 11.0885C10.1803 11.0452 10.2128 11.0067 10.2548 10.9826L10.2616 10.9778L10.2683 10.9826C10.309 11.0067 10.3415 11.0452 10.3604 11.0917C10.374 11.0789 10.3875 11.0693 10.4078 11.0693L10.4254 11.0661V11.1832L10.3537 11.2586ZM10.1884 11.2153H10.3415L10.3956 11.1607V11.1126C10.3889 11.1174 10.3821 11.1254 10.3726 11.1399L10.3523 11.172L10.3415 11.1335C10.3279 11.0869 10.3022 11.05 10.2643 11.0227C10.225 11.05 10.2006 11.0853 10.1871 11.1319L10.1763 11.1704L10.1559 11.1383C10.1465 11.1254 10.1397 11.1158 10.1329 11.1142V11.1624L10.1884 11.2153Z" fill="black"/>
<path d="M10.3836 11.448L10.4134 11.3693V11.2586C10.3876 11.2618 10.3768 11.2714 10.3592 11.2987C10.343 11.2425 10.3118 11.1992 10.2658 11.1687C10.2197 11.196 10.1886 11.2393 10.1723 11.2955C10.1547 11.2682 10.1398 11.2602 10.1182 11.257V11.3677L10.1507 11.4464H10.3836V11.448Z" fill="white"/>
<path d="M10.137 11.4706L10.0977 11.376V11.2379L10.1153 11.2411C10.1356 11.2443 10.1492 11.2492 10.1627 11.2636C10.1803 11.2171 10.2128 11.1818 10.2548 11.1545L10.2643 11.1497L10.2738 11.1545C10.3144 11.1785 10.3469 11.2171 10.3658 11.2636C10.3794 11.2508 10.3929 11.2411 10.4132 11.2395L10.4308 11.2363V11.3743L10.3943 11.469L10.137 11.4706ZM10.1343 11.3647L10.16 11.4273H10.3753L10.4011 11.3647V11.2861C10.3943 11.2909 10.3875 11.2989 10.378 11.3134L10.3577 11.3455L10.3469 11.3069C10.3333 11.2604 10.3076 11.2203 10.2697 11.1962C10.2304 11.2235 10.2061 11.2588 10.1925 11.3053L10.1817 11.3439L10.1614 11.3118C10.1519 11.2989 10.1451 11.2909 10.1383 11.2845L10.1343 11.3647Z" fill="black"/>
<path d="M10.3881 11.7355L10.487 11.5926V11.4514C10.4504 11.4562 10.4328 11.4722 10.4043 11.522C10.3813 11.4241 10.3312 11.4048 10.2649 11.3567C10.1985 11.4032 10.1484 11.4209 10.1254 11.5172C10.0983 11.469 10.0793 11.4546 10.0428 11.453V11.5942L10.1416 11.7371H10.3881V11.7355Z" fill="white"/>
<path d="M10.3972 11.7563H10.1344L10.0275 11.599V11.4289L10.0478 11.4321C10.0803 11.4369 10.1019 11.4482 10.1236 11.4755C10.1466 11.4129 10.1859 11.3888 10.2292 11.3583C10.2387 11.3535 10.2468 11.3455 10.259 11.339L10.2685 11.3342L10.278 11.339C10.2875 11.3439 10.2956 11.3503 10.3037 11.3551C10.3498 11.3856 10.3904 11.4113 10.4134 11.4771C10.4364 11.4466 10.4567 11.4337 10.4892 11.4305L10.5096 11.4273V11.5974L10.3972 11.7563ZM10.1507 11.7162H10.3796L10.4689 11.5862V11.4771C10.4513 11.4851 10.4364 11.5011 10.4188 11.5332L10.3985 11.5718L10.3877 11.5284C10.3701 11.453 10.3349 11.4305 10.2821 11.3936C10.278 11.3904 10.2712 11.3856 10.2658 11.3824C10.259 11.3872 10.2523 11.3936 10.2455 11.3952C10.1954 11.4273 10.1615 11.4498 10.1453 11.522L10.1344 11.5653L10.1141 11.5268C10.0965 11.4947 10.0816 11.4803 10.064 11.4755V11.5846L10.1507 11.7162Z" fill="black"/>
<path d="M10.4176 12.0161C10.4176 12.0161 10.5313 11.8974 10.5381 11.8316V11.6839C10.4948 11.6887 10.4514 11.7032 10.4189 11.7658C10.3918 11.6406 10.3485 11.6053 10.2659 11.5459C10.1833 11.6053 10.14 11.6406 10.1129 11.7658C10.0804 11.7032 10.037 11.6903 9.99371 11.6839V11.8332C10.0073 11.8974 10.1142 12.0177 10.1142 12.0177H10.4176V12.0161Z" fill="white"/>
<path d="M10.4241 12.0385H10.1059L10.1018 12.0337C10.091 12.0209 9.98943 11.9085 9.97589 11.8379V11.8331V11.6598L9.9962 11.663C10.0355 11.6678 10.0734 11.679 10.1059 11.7191C10.1357 11.6196 10.1817 11.5843 10.2562 11.5265L10.2657 11.5217L10.2752 11.5265C10.3523 11.5827 10.3957 11.6212 10.4255 11.7191C10.458 11.679 10.4986 11.6678 10.5352 11.663L10.5555 11.6598V11.8331C10.5487 11.9069 10.4417 12.0193 10.4268 12.0337L10.4241 12.0385ZM10.1208 11.9984H10.4106C10.4539 11.9519 10.5176 11.8732 10.523 11.8331V11.7079C10.4864 11.7159 10.4593 11.732 10.4363 11.7753L10.416 11.8154L10.4052 11.7689C10.3794 11.6581 10.3429 11.626 10.2684 11.5683C10.1926 11.6244 10.156 11.6581 10.1316 11.7689L10.1208 11.8154L10.1005 11.7753C10.0775 11.732 10.0504 11.7159 10.0138 11.7079V11.8299C10.0219 11.878 10.0883 11.9631 10.1208 11.9984Z" fill="black"/>
<path d="M10.4662 12.5395C10.4662 12.5395 10.6233 12.3341 10.626 12.2522V12.0195C10.5664 12.0307 10.5122 12.0757 10.4689 12.1736C10.4323 11.9778 10.3755 11.8429 10.2658 11.7515C10.1561 11.8462 10.0992 11.981 10.0627 12.1736C10.0193 12.0757 9.96381 12.0307 9.90558 12.0195V12.2522C9.91641 12.3341 10.0654 12.5395 10.0654 12.5395H10.4662Z" fill="white"/>
<path d="M10.4742 12.5588H10.0558L10.0517 12.5508C10.0355 12.5299 9.89872 12.3374 9.88654 12.2523V12.2491V11.9923L9.90685 11.9955C9.96372 12.0035 10.0138 12.0469 10.0558 12.1175C10.0964 11.9329 10.1587 11.8173 10.2562 11.7307L10.2671 11.7227L10.2779 11.7307C10.3767 11.8141 10.4377 11.9345 10.4783 12.1175C10.5189 12.0469 10.5704 12.0067 10.6273 11.9955L10.6476 11.9923V12.2491C10.6435 12.3357 10.4986 12.5283 10.4824 12.5492L10.4742 12.5588ZM10.0721 12.5187H10.458C10.5176 12.4401 10.607 12.302 10.6083 12.2507V12.042C10.5609 12.0581 10.5162 12.1062 10.4824 12.1801L10.4593 12.2282L10.4485 12.1736C10.412 11.9778 10.3551 11.8575 10.2616 11.7724C10.1682 11.8591 10.1127 11.9778 10.0748 12.1736L10.0639 12.2282L10.0409 12.1801C10.0071 12.1062 9.96508 12.0581 9.91497 12.042V12.2475C9.93122 12.3101 10.0287 12.4561 10.0721 12.5187Z" fill="black"/>
<path d="M10.4662 12.8461C10.4662 12.8461 10.6016 12.684 10.626 12.6134V12.3807C10.5664 12.3919 10.5122 12.4368 10.4689 12.5347C10.4323 12.3389 10.3755 12.2282 10.2658 12.1367C10.1561 12.2314 10.0992 12.3422 10.0627 12.5347C10.0193 12.4368 9.96381 12.3919 9.90558 12.3807V12.6134C9.93943 12.684 10.0654 12.8461 10.0654 12.8461H10.4662Z" fill="white"/>
<path d="M10.4733 12.8669H10.0576L10.0535 12.8621C10.0495 12.8572 9.92487 12.6967 9.89101 12.6261L9.88831 12.6213V12.3581L9.90862 12.3613C9.96549 12.3693 10.0156 12.4127 10.0576 12.4833C10.0968 12.3148 10.1537 12.2105 10.258 12.1206L10.2688 12.1125L10.2797 12.1206C10.3826 12.2105 10.4422 12.3164 10.4801 12.4833C10.5207 12.4127 10.5722 12.3725 10.629 12.3613L10.6493 12.3581V12.6213L10.6466 12.6245C10.6196 12.6984 10.4896 12.8572 10.4814 12.8621L10.4733 12.8669ZM10.0725 12.8267H10.4584C10.4977 12.7786 10.5871 12.6646 10.6087 12.6101V12.4063C10.5613 12.4223 10.5166 12.4704 10.4828 12.5443L10.4598 12.5924L10.4489 12.5379C10.4151 12.3565 10.3623 12.2506 10.2621 12.1607C10.1618 12.2506 10.109 12.3581 10.0752 12.5379L10.0643 12.5924L10.0413 12.5443C10.0075 12.4704 9.96549 12.4223 9.91539 12.4063V12.6101C9.95466 12.6695 10.0495 12.7963 10.0725 12.8267Z" fill="black"/>
<path d="M10.5205 13.0271C10.4813 12.8233 10.4474 12.6757 10.2578 12.5232C10.0682 12.6757 10.0357 12.8265 9.99512 13.0271H10.5205Z" fill="white"/>
<path d="M10.5438 13.0467H9.97504L9.9791 13.0226C10.0157 12.8332 10.0482 12.6679 10.2486 12.5058L10.2581 12.4978L10.2675 12.5058C10.468 12.6663 10.5005 12.8316 10.537 13.0226L10.5438 13.0467ZM10.0184 13.005H10.4977C10.4585 12.8124 10.4219 12.6824 10.2581 12.5476C10.0956 12.684 10.0576 12.814 10.0184 13.005Z" fill="black"/>
<path d="M10.6167 13.1379V12.8458C10.5301 12.8859 10.4542 12.9437 10.4244 13.0111C10.3919 12.849 10.331 12.7751 10.2552 12.6772C10.178 12.7751 10.1265 12.8474 10.0954 13.0111C10.0656 12.9469 9.98974 12.8859 9.90308 12.8458V13.1379H10.6167Z" fill="white"/>
<path d="M10.634 13.1604H9.88513V12.817L9.90815 12.8282C9.98805 12.8667 10.0503 12.9116 10.0869 12.963C10.1194 12.8298 10.1695 12.7592 10.2426 12.6645L10.2562 12.6484L10.2819 12.6805C10.3455 12.7624 10.4011 12.833 10.4322 12.9614C10.4688 12.91 10.5311 12.8635 10.611 12.8266L10.634 12.8154V13.1604ZM9.92169 13.1171H10.6001V12.8763C10.5229 12.9165 10.4634 12.9678 10.443 13.0192L10.42 13.0705L10.4092 13.016C10.3794 12.8667 10.3252 12.7961 10.2562 12.7094C10.1871 12.7993 10.1424 12.8699 10.1126 13.016L10.1018 13.0705L10.0788 13.0192C10.0585 12.971 9.99888 12.9165 9.92169 12.8763V13.1171Z" fill="black"/>
<path d="M16.526 14.2246V13.3386C16.5517 13.2247 16.6316 13.1268 16.6925 13.1059V12.3259L16.5558 12.4126L16.4 13.2279V14.2214H16.526V14.2246Z" fill="white"/>
<path d="M16.5439 14.2454H16.3814V13.2247L16.5385 12.4014L16.7078 12.2922V13.1236L16.6942 13.1284C16.6387 13.1477 16.5642 13.2391 16.5412 13.3419V14.2438H16.5439V14.2454ZM16.4166 14.2053H16.5087V13.3354C16.5344 13.2215 16.6116 13.1236 16.6739 13.0947V12.3629L16.571 12.4303L16.418 13.2343V14.2053H16.4166Z" fill="black"/>
<path d="M16.526 14.2292V13.3417C16.5517 13.2277 16.6316 13.1298 16.6925 13.109V12.2744C16.6004 12.2744 16.5558 12.4156 16.5558 12.4156L16.4 13.231V14.2228L16.526 14.2292Z" fill="white"/>
<path d="M16.5439 14.2517L16.3814 14.2436V13.2277L16.5385 12.4092C16.5412 12.4044 16.5886 12.2551 16.6915 12.2551H16.7091V13.125L16.6956 13.1298C16.6401 13.1491 16.5656 13.2406 16.5426 13.3433L16.5439 14.2517ZM16.4166 14.2019L16.5087 14.2067V13.3352C16.5344 13.2213 16.6116 13.1234 16.6739 13.0945V12.2953C16.6103 12.3113 16.5751 12.4092 16.571 12.4204L16.4153 13.2325V14.2019H16.4166Z" fill="black"/>
<path d="M16.6239 14.4542C16.5603 14.4221 16.4682 14.3274 16.4682 14.2343V13.1269L16.5116 13.0354H14.9191L14.9813 13.1269V14.2343C14.9813 14.3258 14.9177 14.4205 14.8554 14.4542H16.6239Z" fill="white"/>
<path d="M16.7037 14.4767H14.7727L14.8485 14.4366C14.9041 14.4061 14.965 14.3226 14.965 14.236V13.1366L14.8824 13.0178H16.5412L16.4857 13.135V14.236C16.4857 14.3178 16.5697 14.4045 16.6293 14.4366L16.7037 14.4767ZM14.9149 14.435H16.5602C16.5047 14.3868 16.4505 14.313 16.4505 14.2376V13.1237L16.483 13.0596H14.9582L15.0016 13.1221V14.236C15.0002 14.313 14.9609 14.3868 14.9149 14.435Z" fill="black"/>
<path d="M15.1774 14.4542C15.241 14.4221 15.3331 14.3274 15.3331 14.2343V13.1814L15.2004 13.0354H16.281L16.1483 13.1814V14.2359C16.1483 14.3274 16.2404 14.4221 16.304 14.4558H15.1774V14.4542Z" fill="white"/>
<path d="M16.3866 14.4764H15.0961L15.1719 14.4362C15.2342 14.4041 15.3154 14.3175 15.3154 14.2356V13.1924L15.1557 13.0159H16.3284L16.1686 13.1924V14.2356C16.1686 14.3175 16.2525 14.4041 16.3121 14.4362L16.3866 14.4764ZM15.241 14.4346H16.2417C16.1862 14.3865 16.132 14.3127 16.132 14.2372V13.1764L16.2376 13.0592H15.2464L15.352 13.1764V14.2388C15.3493 14.3127 15.2965 14.3865 15.241 14.4346Z" fill="black"/>
<path d="M15.329 14.4542C15.3926 14.4221 15.4847 14.3274 15.4847 14.2344V13.2842L15.398 13.1382H16.086L15.9993 13.2842V14.236C15.9993 14.3274 16.0914 14.4221 16.155 14.4558H15.329V14.4542Z" fill="white"/>
<path d="M16.2349 14.4763H15.2477L15.3235 14.4362C15.3858 14.4041 15.4671 14.3174 15.4671 14.2356V13.2903L15.3641 13.1169H16.1184L16.0155 13.2903V14.2356C16.0155 14.3174 16.0995 14.4041 16.159 14.4362L16.2349 14.4763ZM15.3926 14.4346H16.09C16.0345 14.3865 15.9803 14.3126 15.9803 14.2372V13.279L16.0507 13.1603H15.4318L15.5023 13.279V14.2372C15.5023 14.3126 15.4467 14.3865 15.3926 14.4346Z" fill="black"/>
<path d="M15.9047 13.1382H15.5756V14.4542H15.9047V13.1382Z" fill="white"/>
<path d="M15.9224 14.4763H15.5594V13.1169H15.9224V14.4763ZM15.5933 14.4346H15.8858V13.1603H15.5933V14.4346Z" fill="black"/>
<path d="M16.3531 13.5069H16.2231V14.2211H16.3531V13.5069ZM15.2278 13.5069H15.0978V14.2211H15.2278V13.5069ZM16.4641 12.3016H16.3071V13.0351H16.4641V12.3016ZM16.4641 12.1636H16.3071V12.2984H16.4641V12.1636Z" fill="white"/>
<path d="M16.3527 14.2409H16.2227L16.2051 14.22V13.5058L16.2227 13.4849H16.3527L16.3703 13.5058V14.22L16.3527 14.2409ZM16.2376 14.2007H16.3337V13.5267H16.2376V14.2007ZM15.2274 14.2409H15.0974L15.0798 14.22V13.5058L15.0974 13.4849H15.2274L15.245 13.5058V14.22L15.2274 14.2409ZM15.1136 14.2007H15.2098V13.5267H15.1136V14.2007ZM16.4637 13.0548H16.3066L16.289 13.0339V12.3005L16.2918 12.2973V12.1625L16.3094 12.1416H16.4664L16.484 12.1625V13.0323L16.4637 13.0548ZM16.3229 13.0131H16.4461V12.323H16.3229V13.0131ZM16.3243 12.2764H16.4448V12.1817H16.3243V12.2764Z" fill="black"/>
<path d="M15.1637 12.4592H14.9376V13.0258H15.1637V12.4592Z" fill="white"/>
<path d="M15.1641 13.0465H14.938L14.9203 13.0256V12.4591L14.938 12.4382H15.1641L15.1817 12.4591V13.0256L15.1641 13.0465ZM14.9583 13.0032H15.1451V12.4832H14.9583V13.0032Z" fill="black"/>
<path d="M16.3085 13.0276V11.7742C16.2624 11.7742 16.2557 11.9587 16.1527 11.9587C16.0972 11.9587 16.1053 11.8833 16.1351 11.8207C16.1622 11.7661 16.1947 11.6907 16.1514 11.5495C16.1189 11.6586 16.0376 11.6923 16.0525 11.6249C16.0796 11.5077 16.1555 11.4901 16.0986 11.3087C16.0783 11.4612 15.9984 11.4516 16.016 11.3649C16.039 11.267 16.085 11.2269 16.0268 11.0856C15.9943 11.2429 15.951 11.2349 15.951 11.137C15.951 10.991 15.955 10.8369 15.798 10.7775C15.798 10.7775 15.7885 10.6443 15.7316 10.6443C15.6747 10.6443 15.6652 10.7775 15.6652 10.7775C15.5082 10.8337 15.5122 10.991 15.5122 11.137C15.5122 11.2349 15.4689 11.2461 15.4364 11.0856C15.3795 11.2237 15.4256 11.2638 15.4472 11.3649C15.4675 11.4516 15.3849 11.4596 15.3646 11.3087C15.3077 11.4901 15.3822 11.5093 15.4107 11.6249C15.4269 11.6923 15.3416 11.657 15.3118 11.5495C15.2658 11.6907 15.301 11.7661 15.3281 11.8207C15.3578 11.8833 15.3646 11.9587 15.3105 11.9587C15.2075 11.9587 15.2008 11.7742 15.1547 11.7742V13.0276H16.3085ZM16.5563 12.0791V13.0356H16.4642V12.0791C16.4967 12.0582 16.5292 12.055 16.5563 12.0791Z" fill="white"/>
<path d="M16.5738 13.056H16.4465V12.0625L16.456 12.0577C16.4993 12.0337 16.5359 12.0337 16.5657 12.0625L16.5724 12.0674V13.056H16.5738ZM16.4831 13.0159H16.5399V12.0898C16.5291 12.0818 16.5101 12.077 16.4831 12.0898V13.0159ZM15.1384 13.048V11.7528H15.156C15.1858 11.7528 15.1993 11.7881 15.2156 11.8282C15.2359 11.8796 15.2589 11.9374 15.3117 11.9374C15.3252 11.9374 15.3293 11.9293 15.3293 11.9261C15.3388 11.9069 15.332 11.8667 15.3131 11.8282C15.2873 11.7769 15.2467 11.6934 15.2968 11.5377L15.3144 11.4832L15.3307 11.5377C15.3483 11.6003 15.3835 11.6292 15.397 11.6324C15.397 11.6292 15.397 11.6276 15.3943 11.6244C15.3875 11.5891 15.374 11.565 15.3618 11.5409C15.3347 11.4848 15.3063 11.4302 15.3483 11.2938L15.3713 11.2183L15.3821 11.297C15.3916 11.3676 15.4146 11.3917 15.4227 11.3965C15.4255 11.3965 15.4268 11.3965 15.4268 11.3965C15.4295 11.3933 15.4309 11.3804 15.4268 11.3612C15.4227 11.3403 15.416 11.3178 15.4092 11.2986C15.3889 11.236 15.3699 11.1798 15.416 11.0659L15.4363 11.0145L15.4471 11.0707C15.4607 11.1413 15.4742 11.1654 15.481 11.1734C15.4837 11.1686 15.4877 11.1509 15.4877 11.1253V11.114C15.4877 10.9728 15.4877 10.8155 15.6435 10.7513C15.6475 10.7128 15.6665 10.6133 15.7261 10.6133C15.7857 10.6133 15.8033 10.7128 15.8087 10.7513C15.9644 10.8155 15.9644 10.9728 15.9644 11.114V11.1253C15.9644 11.1525 15.9671 11.1654 15.9712 11.1734C15.978 11.1654 15.9915 11.1413 16.005 11.0707L16.0159 11.0145L16.0362 11.0659C16.0822 11.1798 16.0633 11.2344 16.043 11.2986C16.0362 11.3178 16.0294 11.3371 16.0253 11.3612C16.0213 11.3804 16.0226 11.3933 16.0253 11.3965C16.0253 11.3965 16.0281 11.3997 16.0294 11.3965C16.0402 11.3917 16.0619 11.366 16.07 11.297L16.0809 11.2183L16.1039 11.2938C16.1445 11.427 16.1201 11.4799 16.0903 11.5377C16.0795 11.5618 16.0646 11.5859 16.0578 11.6212C16.0578 11.6244 16.0551 11.6292 16.0551 11.6292C16.0687 11.626 16.1025 11.5971 16.1215 11.5345L16.1377 11.4799L16.1553 11.5345C16.2014 11.6774 16.1716 11.7592 16.1391 11.825C16.1215 11.8635 16.1134 11.9037 16.1228 11.9229C16.1256 11.9261 16.1269 11.9341 16.1405 11.9341C16.1906 11.9341 16.2163 11.878 16.2366 11.825C16.2528 11.7849 16.2691 11.7496 16.2962 11.7496H16.3138V13.0448L15.1384 13.048ZM15.1736 11.8218V13.0078H16.2908V11.8218C16.2867 11.8298 16.284 11.8411 16.2799 11.8459C16.2569 11.9004 16.2244 11.9791 16.1526 11.9791C16.1296 11.9791 16.112 11.9678 16.1025 11.9486C16.0849 11.9101 16.0985 11.8507 16.1188 11.8106C16.1391 11.7704 16.1662 11.7111 16.1459 11.6051C16.1188 11.6565 16.0795 11.687 16.0538 11.6757C16.0375 11.6709 16.0267 11.6517 16.0335 11.6164C16.043 11.5762 16.0565 11.549 16.07 11.5217C16.0903 11.4816 16.1066 11.4462 16.0971 11.3804C16.0863 11.4125 16.07 11.435 16.0497 11.443C16.0362 11.4478 16.0199 11.4462 16.0091 11.435C15.9956 11.419 15.9915 11.3917 15.9983 11.3596C16.0023 11.3355 16.0118 11.313 16.0159 11.2954C16.0321 11.2488 16.043 11.2135 16.0267 11.1525C16.0105 11.2071 15.9901 11.2344 15.9671 11.2312C15.9536 11.228 15.9306 11.2151 15.9306 11.1397V11.1285C15.9306 10.9872 15.9306 10.8524 15.7884 10.8011L15.7775 10.7962V10.7834C15.7748 10.7449 15.7599 10.6695 15.7301 10.6695C15.7003 10.6695 15.6841 10.7449 15.6827 10.7834V10.7962L15.6719 10.8011C15.5297 10.8524 15.5297 10.9872 15.5297 11.1285V11.1397C15.5297 11.2151 15.5067 11.2296 15.4932 11.2312C15.4701 11.2344 15.4498 11.2071 15.4336 11.1525C15.4173 11.2151 15.4309 11.2504 15.4444 11.2954C15.4512 11.3146 15.458 11.3355 15.462 11.3596C15.4688 11.3917 15.4661 11.419 15.4512 11.435C15.4403 11.4462 15.4255 11.4511 15.4106 11.443C15.393 11.435 15.374 11.4125 15.3632 11.3804C15.3537 11.4462 15.3699 11.4799 15.3902 11.5217C15.4011 11.5457 15.4173 11.5762 15.4268 11.6164C15.4363 11.6517 15.4227 11.6709 15.4065 11.6757C15.3808 11.6838 15.3428 11.6565 15.3144 11.6051C15.2941 11.7111 15.3212 11.7672 15.3415 11.8106C15.3618 11.8507 15.3753 11.9101 15.3577 11.9486C15.3483 11.9678 15.3307 11.9791 15.3076 11.9791C15.2345 11.9791 15.202 11.9037 15.1803 11.8459C15.1803 11.8378 15.1776 11.8298 15.1736 11.8218Z" fill="black"/>
<path d="M16.5533 12.6999C16.4395 12.7673 16.3271 12.8491 16.2974 13.0385H16.5533V12.6999ZM14.9743 12.4126V13.0385H14.8985V12.4126C14.9242 12.3981 14.9554 12.3965 14.9743 12.4126Z" fill="white"/>
<path d="M14.9932 13.0561H14.8835V12.3949L14.893 12.3901C14.9187 12.3772 14.9593 12.3708 14.985 12.3933L14.9918 12.3981V13.0561H14.9932ZM14.9173 13.016H14.9566V12.4254C14.9458 12.4206 14.9309 12.4206 14.9173 12.4254V13.016ZM16.5721 13.0561H16.2796L16.2837 13.0321C16.3135 12.8363 16.4299 12.7512 16.5491 12.6806L16.5748 12.6645V13.0577H16.5721V13.0561ZM16.3203 13.016H16.5356V12.7351C16.4367 12.7961 16.35 12.87 16.3203 13.016Z" fill="black"/>
<path d="M14.9014 12.6934C15.0152 12.7608 15.1276 12.8426 15.1574 13.032H14.9014V12.6934Z" fill="white"/>
<path d="M15.176 13.0546H14.8835V12.6614L14.9092 12.6774C15.0257 12.748 15.1448 12.8347 15.1746 13.0289L15.176 13.0546ZM14.9173 13.0113H15.1327C15.1029 12.8652 15.0162 12.7914 14.9173 12.7304V13.0113Z" fill="black"/>
<path d="M15.653 11.236L15.5867 11.1718V11.0884C15.6124 11.0916 15.6232 11.1012 15.6422 11.1285C15.6584 11.0723 15.6896 11.029 15.7356 11.0017C15.7817 11.029 15.8128 11.0691 15.8291 11.1269C15.8467 11.0996 15.8616 11.0916 15.8846 11.0884V11.1718L15.8182 11.236H15.653Z" fill="white"/>
<path d="M15.8248 11.2584H15.646L15.5688 11.1798V11.0626L15.5865 11.0658C15.6068 11.0691 15.6203 11.0739 15.6338 11.0883C15.6515 11.0418 15.684 11.0065 15.7259 10.9792L15.7327 10.9744L15.7395 10.9792C15.7801 11.0033 15.8126 11.0418 15.8316 11.0851C15.8451 11.0723 15.8586 11.0658 15.879 11.0626L15.8966 11.0594V11.1766L15.8248 11.2584ZM15.6596 11.2151H15.8126L15.8681 11.1605V11.1124C15.8586 11.1172 15.8519 11.1236 15.8451 11.1365L15.8248 11.1686L15.814 11.13C15.8031 11.0835 15.7747 11.0482 15.7368 11.0209C15.6975 11.045 15.6731 11.0835 15.6596 11.1316L15.6487 11.1702L15.6284 11.1381C15.619 11.1252 15.6122 11.1156 15.6054 11.1108V11.1589L15.6596 11.2151Z" fill="black"/>
<path d="M15.6165 11.448L15.5867 11.3693V11.2586C15.6124 11.2618 15.6232 11.2714 15.6422 11.2987C15.6584 11.2425 15.6896 11.1992 15.7356 11.1687C15.7817 11.196 15.8128 11.2393 15.8291 11.2955C15.8467 11.2682 15.8616 11.2602 15.8846 11.257V11.3677L15.8521 11.4464H15.6165V11.448Z" fill="white"/>
<path d="M15.8655 11.4703H15.6068L15.5703 11.3756V11.2375L15.5879 11.2408C15.6082 11.244 15.6217 11.2488 15.6353 11.2648C15.6529 11.2183 15.6854 11.1814 15.7273 11.1557L15.7368 11.1509L15.7463 11.1557C15.7869 11.1798 15.8194 11.2183 15.8384 11.2648C15.8519 11.252 15.8655 11.2456 15.8858 11.2424L15.9034 11.2392V11.3772L15.8655 11.4703ZM15.6285 11.4269H15.8438L15.8695 11.3643V11.2857C15.86 11.2905 15.8533 11.2969 15.8465 11.313L15.8262 11.3451L15.8154 11.3066C15.8045 11.26 15.7761 11.2231 15.7382 11.1974C15.6989 11.2247 15.6745 11.2616 15.661 11.3082L15.6501 11.3467L15.6298 11.3146C15.6204 11.3017 15.6136 11.2937 15.6068 11.2873V11.3659L15.6285 11.4269Z" fill="black"/>
<path d="M15.612 11.7355L15.5132 11.5926V11.4514C15.5497 11.4562 15.5687 11.4722 15.5958 11.522C15.6188 11.4241 15.6689 11.4048 15.7353 11.3567C15.8016 11.4032 15.8517 11.4209 15.8747 11.5172C15.9018 11.469 15.9208 11.4546 15.9574 11.453V11.5942L15.8585 11.7371H15.612V11.7355Z" fill="white"/>
<path d="M15.8655 11.7562H15.6055L15.4985 11.5989V11.4288L15.5188 11.432C15.5513 11.4368 15.5717 11.448 15.5947 11.4785C15.6204 11.4159 15.6583 11.3887 15.7044 11.3566C15.7138 11.3517 15.7206 11.3453 15.7301 11.3405L15.7396 11.3357L15.7491 11.3405C15.7599 11.3485 15.7694 11.3533 15.7788 11.3598C15.8222 11.3903 15.8615 11.4143 15.8845 11.4769C15.9048 11.4496 15.9278 11.4368 15.9603 11.4336L15.9806 11.4304V11.6005L15.8655 11.7562ZM15.6218 11.7161H15.8506L15.94 11.5861V11.4769C15.9224 11.4817 15.9075 11.4962 15.8899 11.5283L15.8696 11.5668L15.8587 11.5235C15.8425 11.4496 15.8086 11.4288 15.7585 11.3967C15.7518 11.3919 15.745 11.3887 15.7382 11.3838C15.7315 11.3871 15.7274 11.3919 15.722 11.3951C15.6692 11.4304 15.6353 11.4545 15.6163 11.5299L15.6055 11.5732L15.5852 11.5347C15.5676 11.5026 15.5527 11.4866 15.5351 11.4785V11.5877L15.6218 11.7161Z" fill="black"/>
<path d="M15.5853 12.0161C15.5853 12.0161 15.4716 11.8974 15.4648 11.8316V11.6839C15.5081 11.6887 15.5514 11.7032 15.5839 11.7658C15.611 11.6406 15.6544 11.6053 15.737 11.5459C15.8196 11.6053 15.8629 11.6406 15.89 11.7658C15.9225 11.7032 15.9658 11.6903 16.0092 11.6839V11.8332C15.9956 11.8974 15.8886 12.0177 15.8886 12.0177H15.5853V12.0161Z" fill="white"/>
<path d="M15.5768 12.0385L15.5727 12.0337C15.5619 12.0209 15.4522 11.9069 15.4454 11.8363V11.6598L15.4657 11.663C15.505 11.6678 15.5429 11.679 15.5754 11.7191C15.6052 11.6196 15.6513 11.5843 15.7257 11.5265L15.7352 11.5217L15.7447 11.5265C15.8219 11.5827 15.8652 11.618 15.895 11.7191C15.9275 11.679 15.9681 11.6678 16.0047 11.663L16.025 11.6598V11.8379C16.0088 11.9053 15.9113 12.0193 15.8991 12.0337L15.895 12.0385H15.5768ZM15.4793 11.7079V11.8347C15.4834 11.8732 15.5484 11.9535 15.589 11.9968H15.8788C15.9113 11.9615 15.9776 11.878 15.9912 11.8315V11.7095C15.9546 11.7175 15.9275 11.7336 15.9045 11.7769L15.8842 11.817L15.8733 11.7705C15.8476 11.6598 15.8111 11.6277 15.7366 11.5699C15.6607 11.626 15.6242 11.6598 15.5998 11.7705L15.589 11.817L15.5687 11.7769C15.5429 11.732 15.5159 11.7159 15.4793 11.7079Z" fill="black"/>
<path d="M15.5339 12.5395C15.5339 12.5395 15.3769 12.3341 15.3741 12.2522V12.0195C15.4337 12.0307 15.4879 12.0757 15.5312 12.1736C15.5678 11.9778 15.6247 11.8429 15.7344 11.7515C15.844 11.8462 15.9009 11.981 15.9375 12.1736C15.9808 12.0757 16.0363 12.0307 16.0946 12.0195V12.2522C16.0837 12.3341 15.9348 12.5395 15.9348 12.5395H15.5339Z" fill="white"/>
<path d="M15.5269 12.5585L15.5228 12.5505C15.5066 12.5296 15.3603 12.337 15.3576 12.2503V11.9903L15.3779 11.9935C15.4348 12.0016 15.4849 12.0449 15.5269 12.1155C15.5675 11.931 15.6298 11.8154 15.7273 11.7287L15.7381 11.7207L15.749 11.7287C15.8478 11.8122 15.9088 11.9326 15.9494 12.1155C15.99 12.0449 16.0415 12.0048 16.0983 11.9935L16.1186 11.9903V12.2535C16.1078 12.337 15.9697 12.5296 15.9534 12.5521L15.9494 12.5601H15.5269V12.5585ZM15.3901 12.0433V12.2519C15.3928 12.3033 15.4822 12.4381 15.5404 12.5168H15.9264C15.9697 12.4542 16.0685 12.3081 16.0767 12.2487V12.0433C16.0293 12.0593 15.9846 12.1075 15.9507 12.1813L15.9277 12.2295L15.9169 12.1749C15.8803 11.9791 15.8234 11.8587 15.73 11.7737C15.6366 11.8603 15.581 11.9791 15.5431 12.1749L15.5323 12.2295L15.5093 12.1813C15.4822 12.1059 15.4402 12.0593 15.3901 12.0433Z" fill="black"/>
<path d="M15.5339 12.8461C15.5339 12.8461 15.3985 12.684 15.3741 12.6134V12.3807C15.4337 12.3919 15.4879 12.4368 15.5312 12.5347C15.5678 12.3389 15.6247 12.2282 15.7344 12.1367C15.844 12.2314 15.9009 12.3422 15.9375 12.5347C15.9808 12.4368 16.0363 12.3919 16.0946 12.3807V12.6134C16.0607 12.684 15.9348 12.8461 15.9348 12.8461H15.5339Z" fill="white"/>
<path d="M15.5268 12.8669L15.5228 12.8621C15.5187 12.8572 15.386 12.6967 15.3576 12.6245L15.3549 12.6213V12.3581L15.3752 12.3613C15.432 12.3693 15.4822 12.4127 15.5241 12.4833C15.5634 12.3148 15.6203 12.2105 15.7245 12.1206L15.7354 12.1125L15.7462 12.1206C15.8518 12.2105 15.9087 12.3164 15.9466 12.4833C15.9873 12.4127 16.0387 12.3725 16.0956 12.3613L16.1159 12.3581V12.6213L16.1132 12.6261C16.0793 12.6967 15.9561 12.8556 15.9507 12.8621L15.9466 12.8669H15.5268ZM15.3901 12.6101C15.4131 12.6646 15.5025 12.7786 15.5404 12.8267H15.9263C15.9493 12.7963 16.0455 12.6695 16.0766 12.6101V12.4063C16.0292 12.4223 15.9845 12.4704 15.9507 12.5443L15.9277 12.5924L15.9168 12.5379C15.883 12.3565 15.8302 12.2506 15.73 12.1607C15.6311 12.2506 15.5769 12.3581 15.5431 12.5379L15.5323 12.5924L15.5092 12.5443C15.4754 12.4704 15.4334 12.4223 15.3833 12.4063V12.6101H15.3901Z" fill="black"/>
<path d="M15.4795 13.0271C15.5188 12.8233 15.5526 12.6757 15.7422 12.5232C15.9318 12.6757 15.9643 12.8265 16.0049 13.0271H15.4795Z" fill="white"/>
<path d="M16.0251 13.0467H15.4564L15.4604 13.0226C15.497 12.8332 15.5295 12.6679 15.7299 12.5058L15.7394 12.4978L15.7489 12.5058C15.9493 12.6663 15.9818 12.8316 16.0183 13.0226L16.0251 13.0467ZM15.5024 13.005H15.9818C15.9425 12.8124 15.9059 12.6824 15.7421 12.5476C15.5769 12.684 15.5417 12.814 15.5024 13.005Z" fill="black"/>
<path d="M15.3835 13.1379V12.8458C15.4702 12.8859 15.546 12.9437 15.5758 13.0111C15.6083 12.849 15.6692 12.7751 15.745 12.6772C15.8222 12.7751 15.8723 12.8474 15.9048 13.0111C15.9346 12.9469 16.0105 12.8859 16.0971 12.8458V13.1379H15.3835Z" fill="white"/>
<path d="M16.1145 13.1608H15.3656V12.8173L15.3886 12.8285C15.4685 12.8671 15.5308 12.912 15.5674 12.9634C15.5999 12.8334 15.6567 12.7627 15.7177 12.6825L15.7434 12.6504L15.757 12.6664C15.8301 12.7611 15.8775 12.8285 15.9127 12.965C15.9492 12.9136 16.0115 12.8671 16.0914 12.8301L16.1145 12.8189V13.1608ZM15.4022 13.1174H16.0806V12.8767C16.0034 12.9168 15.9438 12.9682 15.9235 13.0195L15.9005 13.0709L15.8897 13.0163C15.8599 12.8671 15.8165 12.7997 15.7461 12.7098C15.6771 12.7997 15.6229 12.8703 15.5931 13.0163L15.5823 13.0709L15.5592 13.0195C15.5362 12.9714 15.4794 12.9168 15.3995 12.8767V13.1174H15.4022Z" fill="black"/>
<path d="M9.12675 14.4429V14.7109H16.8726V14.4429H9.12675ZM8.98456 14.7141V15.064H17.0121V14.7141H8.98456ZM17.0121 15.064L8.98456 15.0672L8.74894 15.064V15.5246H17.245V15.064H17.0121ZM8.51331 15.5262V16.0687H17.482V15.5262H8.51331ZM17.486 16.0687H8.51602H8.2804V16.6111H17.723V16.0687H17.486Z" fill="white"/>
<path d="M17.7394 16.632H8.26025V16.0462H8.49723V15.5037H8.73286V15.0399L8.96848 15.0431V14.6916H9.10796V14.4204H16.8917V14.6916H17.0312V15.0415H17.2668V15.5053H17.5024V16.0478H17.7381V16.6336H17.7394V16.632ZM8.29682 16.5887H17.7042V16.0879H8.29682V16.5887ZM8.53244 16.0462H17.4672V15.5455H8.53244V16.0462ZM8.76807 15.5021H17.2303V15.0816H17.0136L8.98609 15.0849L8.76942 15.0816V15.5021H8.76807ZM9.00369 15.0415H16.9973V14.7334H9.00369V15.0415ZM9.14452 14.69H16.8565V14.4653H9.14452V14.69Z" fill="black"/>
<path d="M9.96796 14.446H10.553V16.6095H9.96796V14.446Z" fill="white"/>
<path d="M10.5704 16.6319H9.94611V14.4219H10.5704V16.6319ZM9.98538 16.5853H10.5311V14.4668H9.98538V16.5853Z" fill="black"/>
<path d="M10.0952 14.446H10.4216V16.6095H10.0952V14.446Z" fill="white"/>
<path d="M10.4409 16.6319H10.078V14.4219H10.4409V16.6319ZM10.1159 16.5853H10.4044V14.4668H10.1159V16.5853Z" fill="black"/>
<path d="M12.6983 14.446H13.2833V16.6095H12.6983V14.446Z" fill="white"/>
<path d="M13.3018 16.6319H12.6776V14.4219H13.3018V16.6319ZM12.7168 16.5853H13.2626V14.4668H12.7168V16.5853Z" fill="black"/>
<path d="M12.8306 14.446H13.1569V16.6095H12.8306V14.446Z" fill="white"/>
<path d="M13.1763 16.6319H12.8134V14.4219H13.1763V16.6319ZM12.8499 16.5853H13.1384V14.4668H12.8499V16.5853Z" fill="black"/>
<path d="M15.4431 14.446H16.0281V16.6095H15.4431V14.446Z" fill="white"/>
<path d="M16.0485 16.6319H15.4243V14.4219H16.0485V16.6319ZM15.4635 16.5853H16.0093V14.4668H15.4635V16.5853Z" fill="black"/>
<path d="M15.5728 14.446H15.8991V16.6095H15.5728V14.446Z" fill="white"/>
<path d="M15.9185 16.6319H15.5555V14.4219H15.9185V16.6319ZM15.5921 16.5853H15.8805V14.4668H15.5921V16.5853Z" fill="black"/>
<path d="M13.1461 16.3591H12.8305V16.319H13.1461V16.3591ZM15.9045 16.3591H15.566V16.319H15.9045V16.3591ZM10.4296 16.3591H10.0911V16.319H10.4296V16.3591ZM13.1461 16.0879H12.8305V16.0478H13.1461V16.0879ZM15.9045 16.0879H15.566V16.0478H15.9045V16.0879ZM10.4296 16.0879H10.0911V16.0478H10.4296V16.0879ZM13.1461 15.8167H12.8305V15.7766H13.1461V15.8167ZM15.9045 15.8167H15.566V15.7766H15.9045V15.8167ZM10.4296 15.8167H10.0911V15.7766H10.4296V15.8167ZM15.9045 15.5454H15.566V15.5053H15.9045V15.5454ZM13.1461 15.5454H12.8305V15.5053H13.1461V15.5454ZM10.4296 15.5454H10.0911V15.5053H10.4296V15.5454ZM15.9045 15.2758H15.566V15.2357H15.9045V15.2758ZM10.4296 15.2758H10.0911V15.2357H10.4296V15.2758ZM13.1461 15.2758H12.8305V15.2357H13.1461V15.2758ZM15.9045 15.0046H15.566V14.9645H15.9045V15.0046ZM10.4296 15.0046H10.0911V14.9645H10.4296V15.0046ZM13.1461 15.0046H12.8305V14.9645H13.1461V15.0046ZM15.9045 14.7333H15.566V14.6932H15.9045V14.7333ZM10.4296 14.7333H10.0911V14.6932H10.4296V14.7333ZM13.1461 14.7333H12.8305V14.6932H13.1461V14.7333ZM16.5328 14.2454H9.47357V14.2053H16.5328V14.2454Z" fill="black"/>
</g>
<rect x="0.270833" y="4.60409" width="25.4583" height="16.7917" rx="1.89583" stroke="#7F7F7F" stroke-width="0.541667"/>
</g>
<defs>
<clipPath id="clip0_29826_19261">
<rect width="26" height="26" fill="white"/>
</clipPath>
<clipPath id="clip1_29826_19261">
<rect y="4.33325" width="26" height="17.3333" rx="2.16667" fill="white"/>
</clipPath>
</defs>
</svg>
