<svg width="26" height="26" viewBox="0 0 26 26" fill="none" xmlns="http://www.w3.org/2000/svg">
<g clip-path="url(#clip0_29826_22523)">
<g clip-path="url(#clip1_29826_22523)">
<rect y="4.33325" width="26" height="17.3333" rx="2.16667" fill="white"/>
<g clip-path="url(#clip2_29826_22523)">
<path d="M28.8648 4.13916H-2.38171V21.8609H28.8648V4.13916Z" fill="white"/>
<path d="M4.33167 9.72438L6.78882 6.03784L4.33167 9.72438ZM5.2545 10.3391L7.71166 6.65253L5.2545 10.3391ZM6.17574 10.9538L8.6329 7.26722L6.17574 10.9538Z" fill="black"/>
<path d="M6.48225 11.1574L5.86755 10.7465L8.32471 7.05995L8.93941 7.47081L6.48225 11.1574ZM5.56101 10.5427L4.94632 10.1318L7.40348 6.44526L8.01817 6.85612L5.56101 10.5427ZM4.63978 9.92797L4.02509 9.51711L6.48225 5.83057L7.09694 6.24143L4.63978 9.92797Z" fill="black"/>
<path d="M17.8482 18.7329L20.3054 15.0464L17.8482 18.7329ZM18.7694 19.3476L21.2266 15.6611L18.7694 19.3476ZM19.6907 19.9623L22.1478 16.2758L19.6907 19.9623Z" fill="black"/>
<path d="M19.9995 20.1691L19.3848 19.7582L21.8419 16.0717L22.4566 16.4825L19.9995 20.1691ZM19.0782 19.5544L18.4635 19.1435L20.9207 15.457L21.5354 15.8678L19.0782 19.5544ZM18.1554 18.9397L17.5407 18.5288L19.9979 14.8423L20.6126 15.2531L18.1554 18.9397Z" fill="black"/>
<path d="M18.4631 16.4827L21.5349 18.529L18.4631 16.4827Z" fill="black"/>
<path d="M18.5668 16.3261L18.362 16.6333L21.4349 18.6818L21.6397 18.3746L18.5668 16.3261Z" fill="white"/>
<path d="M13.2407 17.4313C15.688 17.4313 17.672 15.4474 17.672 13.0001C17.672 10.5528 15.688 8.56885 13.2407 8.56885C10.7934 8.56885 8.80951 10.5528 8.80951 13.0001C8.80951 15.4474 10.7934 17.4313 13.2407 17.4313Z" fill="#CD2E3A"/>
<path d="M9.55388 10.5427C8.875 11.5619 9.14944 12.9357 10.1686 13.6146C11.1877 14.2935 12.5615 14.019 13.2404 12.9999C13.9193 11.9807 15.2931 11.7063 16.3123 12.3852C17.3314 13.0641 17.6058 14.4379 16.927 15.457C15.5676 17.4921 12.8183 18.0442 10.7833 16.6864C8.74821 15.3287 8.19611 12.5778 9.55388 10.5427Z" fill="#0047A0"/>
<path d="M6.79043 19.9623L4.33167 16.2758L6.79043 19.9623ZM7.71166 19.3476L5.2545 15.6611L7.71166 19.3476ZM8.6329 18.7329L6.17574 15.0464L8.6329 18.7329Z" fill="black"/>
<path d="M6.48225 20.1691L4.02509 16.4825L4.63978 16.0717L7.09694 19.7582L6.48225 20.1691ZM7.40348 19.5544L4.94632 15.8678L5.56101 15.457L8.01817 19.1435L7.40348 19.5544ZM8.32632 18.9397L5.86755 15.2531L6.48225 14.8423L8.93941 18.5288L8.32632 18.9397Z" fill="black"/>
<path d="M20.3054 10.9538L17.8482 7.26722L20.3054 10.9538ZM21.2266 10.3391L18.7694 6.65253L21.2266 10.3391ZM22.1494 9.72438L19.6923 6.03784L22.1494 9.72438Z" fill="black"/>
<path d="M19.9988 11.1574L17.5416 7.47081L18.1563 7.05995L20.6135 10.7465L19.9988 11.1574ZM20.92 10.5427L18.4629 6.85612L19.0776 6.44526L21.5347 10.1318L20.92 10.5427ZM21.8413 9.92797L19.3841 6.24143L19.9988 5.83057L22.4559 9.51711L21.8413 9.92797Z" fill="black"/>
<path d="M6.02197 17.8116L6.94321 17.1969L6.02197 17.8116ZM18.4635 9.51731L19.5388 8.7999L18.4635 9.51731ZM20.46 8.18842L21.3812 7.57373L20.46 8.18842Z" fill="black"/>
<path d="M6.12607 17.9656L5.92224 17.6574L6.84348 17.0427L7.0473 17.3493L6.12607 17.9656ZM18.5659 9.67127L18.3621 9.36472L19.4374 8.64732L19.6412 8.95386L18.5659 9.67127ZM20.5625 8.34238L20.3587 8.03583L21.2799 7.42114L21.4837 7.72769L20.5625 8.34238Z" fill="white"/>
</g>
</g>
<rect x="0.270833" y="4.60409" width="25.4583" height="16.7917" rx="1.89583" stroke="#7F7F7F" stroke-width="0.541667"/>
</g>
<defs>
<clipPath id="clip0_29826_22523">
<rect width="26" height="26" fill="white"/>
</clipPath>
<clipPath id="clip1_29826_22523">
<rect y="4.33325" width="26" height="17.3333" rx="2.16667" fill="white"/>
</clipPath>
<clipPath id="clip2_29826_22523">
<rect width="30.8148" height="17.3333" fill="white" transform="translate(-2.16669 4.33325)"/>
</clipPath>
</defs>
</svg>
