<svg width="26" height="26" viewBox="0 0 26 26" fill="none" xmlns="http://www.w3.org/2000/svg">
<g clip-path="url(#clip0_29826_19550)">
<g clip-path="url(#clip1_29826_19550)">
<rect y="4.33325" width="26" height="17.3333" rx="2.16667" fill="white"/>
<g clip-path="url(#clip2_29826_19550)">
<path d="M-0.032959 4.33325H31.4492V22.0051H-0.032959V4.33325Z" fill="#00AFCA"/>
<path d="M13.7229 14.0285C14.8932 14.0285 15.8419 13.0798 15.8419 11.9095C15.8419 10.7392 14.8932 9.79053 13.7229 9.79053C12.5526 9.79053 11.6039 10.7392 11.6039 11.9095C11.6039 13.0798 12.5526 14.0285 13.7229 14.0285Z" fill="#FEC50C"/>
<path d="M13.7231 9.50381C13.8491 9.50054 13.8965 9.422 13.8965 9.3271C13.8965 9.2011 13.7231 8.60059 13.7231 8.60059C13.7231 8.60059 13.5496 9.2011 13.5496 9.3271C13.5513 9.422 13.5971 9.50381 13.7231 9.50381Z" fill="#FEC50C"/>
<path d="M16.1315 11.9093C16.1315 12.0353 16.2101 12.0827 16.305 12.0827C16.431 12.0827 17.0299 11.9093 17.0299 11.9093C17.0299 11.9093 16.431 11.7358 16.305 11.7358C16.2101 11.7375 16.1315 11.7833 16.1315 11.9093Z" fill="#FEC50C"/>
<path d="M13.7231 14.3179C13.5971 14.3179 13.5496 14.3964 13.5496 14.4913C13.5496 14.6173 13.7231 15.2162 13.7231 15.2162C13.7231 15.2162 13.8965 14.6173 13.8965 14.4913C13.8965 14.3964 13.8491 14.3179 13.7231 14.3179Z" fill="#FEC50C"/>
<path d="M11.3194 11.9093C11.3194 11.7833 11.2409 11.7358 11.146 11.7358C11.02 11.7358 10.4211 11.9093 10.4211 11.9093C10.4211 11.9093 11.02 12.0827 11.146 12.0827C11.2359 12.0827 11.3194 12.0353 11.3194 11.9093Z" fill="#FEC50C"/>
<path d="M14.646 9.68694C14.7622 9.7344 14.8375 9.67712 14.8735 9.59204C14.9209 9.47586 14.9896 8.85571 14.9896 8.85571C14.9896 8.85571 14.5986 9.34332 14.5528 9.4595C14.5168 9.54459 14.5298 9.63622 14.646 9.68694Z" fill="#FEC50C"/>
<path d="M15.9504 12.8322C15.9029 12.9484 15.9602 13.0236 16.0453 13.0596C16.1615 13.1071 16.7816 13.1758 16.7816 13.1758C16.7816 13.1758 16.294 12.7847 16.1778 12.7389C16.0878 12.7029 15.9978 12.716 15.9504 12.8322Z" fill="#FEC50C"/>
<path d="M12.8056 14.1334C12.6894 14.0859 12.6142 14.1432 12.5782 14.2283C12.5307 14.3444 12.462 14.9646 12.462 14.9646C12.462 14.9646 12.853 14.477 12.8989 14.3608C12.9349 14.2741 12.9218 14.1841 12.8056 14.1334Z" fill="#FEC50C"/>
<path d="M11.5009 10.9882C11.5484 10.872 11.4911 10.7967 11.406 10.7607C11.2898 10.7133 10.6697 10.6445 10.6697 10.6445C10.6697 10.6445 11.1573 11.0356 11.2735 11.0814C11.3602 11.1174 11.4535 11.1043 11.5009 10.9882Z" fill="#FEC50C"/>
<path d="M15.4263 10.2078C15.5179 10.2962 15.6063 10.2733 15.6717 10.2078C15.7601 10.1194 16.0628 9.57129 16.0628 9.57129C16.0628 9.57129 15.5146 9.874 15.4263 9.96236C15.3608 10.0278 15.3379 10.1194 15.4263 10.2078Z" fill="#FEC50C"/>
<path d="M15.4263 13.6125C15.3379 13.7042 15.3608 13.7925 15.4263 13.858C15.5146 13.9463 16.0628 14.2491 16.0628 14.2491C16.0628 14.2491 15.7601 13.7009 15.6717 13.6125C15.6063 13.5471 15.5146 13.5209 15.4263 13.6125Z" fill="#FEC50C"/>
<path d="M12.0234 13.6129C11.9317 13.5246 11.8434 13.5475 11.7779 13.6129C11.6896 13.7013 11.3868 14.2494 11.3868 14.2494C11.3868 14.2494 11.935 13.9467 12.0234 13.8584C12.0904 13.7929 12.1117 13.7013 12.0234 13.6129Z" fill="#FEC50C"/>
<path d="M12.0234 10.2078C12.1117 10.1162 12.0888 10.0278 12.0234 9.96236C11.935 9.874 11.3868 9.57129 11.3868 9.57129C11.3868 9.57129 11.6896 10.1194 11.7779 10.2078C11.845 10.2733 11.9334 10.2978 12.0234 10.2078Z" fill="#FEC50C"/>
<path d="M15.9499 10.988C16.0006 11.1042 16.0922 11.1172 16.1773 11.0829C16.2935 11.0354 16.7811 10.646 16.7811 10.646C16.7811 10.646 16.1609 10.7147 16.0448 10.7622C15.9564 10.7982 15.8991 10.8702 15.9499 10.988Z" fill="#FEC50C"/>
<path d="M14.6458 14.1334C14.5296 14.1841 14.5165 14.2757 14.5509 14.3608C14.5983 14.477 14.9877 14.9646 14.9877 14.9646C14.9877 14.9646 14.919 14.3444 14.8716 14.2283C14.8356 14.1432 14.7619 14.0859 14.6458 14.1334Z" fill="#FEC50C"/>
<path d="M11.5009 12.8322C11.4502 12.7161 11.3586 12.703 11.2735 12.7373C11.1573 12.7848 10.6697 13.1742 10.6697 13.1742C10.6697 13.1742 11.2898 13.1055 11.406 13.058C11.4944 13.022 11.5484 12.9484 11.5009 12.8322Z" fill="#FEC50C"/>
<path d="M12.8051 9.68694C12.9213 9.63622 12.9344 9.54459 12.9 9.4595C12.8526 9.34332 12.4631 8.85571 12.4631 8.85571C12.4631 8.85571 12.5319 9.47586 12.5793 9.59204C12.612 9.67712 12.6873 9.7344 12.8051 9.68694Z" fill="#FEC50C"/>
<path d="M14.1963 9.54832C14.319 9.56959 14.3828 9.50414 14.4008 9.40923C14.4254 9.28651 14.373 8.66309 14.373 8.66309C14.373 8.66309 14.0866 9.21779 14.0621 9.34051C14.0425 9.43541 14.0703 9.52377 14.1963 9.54832Z" fill="#FEC50C"/>
<path d="M16.0846 12.3789C16.0633 12.5016 16.1288 12.5654 16.2237 12.5834C16.3464 12.6079 16.9698 12.5556 16.9698 12.5556C16.9698 12.5556 16.4151 12.2692 16.2924 12.2447C16.1991 12.2251 16.1108 12.2561 16.0846 12.3789Z" fill="#FEC50C"/>
<path d="M13.2548 14.2704C13.1321 14.2491 13.0683 14.3146 13.0503 14.4095C13.0258 14.5322 13.0781 15.1556 13.0781 15.1556C13.0781 15.1556 13.3645 14.6009 13.389 14.4782C13.4086 14.3849 13.3776 14.2966 13.2548 14.2704Z" fill="#FEC50C"/>
<path d="M11.3652 11.4413C11.3864 11.3186 11.321 11.2548 11.2261 11.2368C11.1033 11.2122 10.4799 11.2646 10.4799 11.2646C10.4799 11.2646 11.0346 11.5509 11.1573 11.5755C11.2522 11.5951 11.3406 11.564 11.3652 11.4413Z" fill="#FEC50C"/>
<path d="M15.0615 9.90811C15.1679 9.97683 15.2497 9.93593 15.3037 9.85739C15.3724 9.7543 15.5622 9.15869 15.5622 9.15869C15.5622 9.15869 15.0844 9.56122 15.0141 9.66594C14.965 9.74775 14.9584 9.83775 15.0615 9.90811Z" fill="#FEC50C"/>
<path d="M15.7264 13.2481C15.6577 13.3544 15.6986 13.4362 15.7772 13.4902C15.8802 13.559 16.4758 13.7488 16.4758 13.7488C16.4758 13.7488 16.0733 13.271 15.9686 13.2006C15.8901 13.1483 15.7952 13.1417 15.7264 13.2481Z" fill="#FEC50C"/>
<path d="M12.3897 13.9119C12.2833 13.8432 12.2015 13.8841 12.1475 13.9626C12.0788 14.0657 11.889 14.6613 11.889 14.6613C11.889 14.6613 12.3668 14.2588 12.4371 14.1541C12.4862 14.0723 12.4928 13.9806 12.3897 13.9119Z" fill="#FEC50C"/>
<path d="M11.7256 10.5725C11.7943 10.4661 11.7534 10.3843 11.6749 10.3303C11.5718 10.2616 10.9762 10.0718 10.9762 10.0718C10.9762 10.0718 11.3787 10.5496 11.4834 10.6199C11.562 10.6723 11.652 10.6788 11.7256 10.5725Z" fill="#FEC50C"/>
<path d="M15.7264 10.5725C15.7984 10.6756 15.8901 10.6739 15.9686 10.6199C16.0717 10.5512 16.4758 10.0718 16.4758 10.0718C16.4758 10.0718 15.8802 10.2599 15.7772 10.3303C15.6986 10.3827 15.6577 10.4678 15.7264 10.5725Z" fill="#FEC50C"/>
<path d="M15.0619 13.9122C14.9588 13.9842 14.9605 14.0758 15.0145 14.1544C15.0832 14.2575 15.5626 14.6616 15.5626 14.6616C15.5626 14.6616 15.3745 14.066 15.3041 13.9629C15.2517 13.8811 15.1667 13.8402 15.0619 13.9122Z" fill="#FEC50C"/>
<path d="M11.7256 13.248C11.6536 13.1449 11.562 13.1465 11.4834 13.2005C11.3804 13.2692 10.9762 13.7487 10.9762 13.7487C10.9762 13.7487 11.5718 13.5605 11.6749 13.4901C11.7534 13.4378 11.7943 13.3527 11.7256 13.248Z" fill="#FEC50C"/>
<path d="M12.3897 9.90811C12.4928 9.83611 12.4911 9.74448 12.4371 9.66594C12.3684 9.56285 11.889 9.15869 11.889 9.15869C11.889 9.15869 12.0772 9.7543 12.1475 9.85739C12.1999 9.9392 12.2817 9.98011 12.3897 9.90811Z" fill="#FEC50C"/>
<path d="M16.0844 11.4413C16.1089 11.564 16.1973 11.5951 16.2889 11.5771C16.4116 11.5525 16.9663 11.2662 16.9663 11.2662C16.9663 11.2662 16.3429 11.2122 16.2202 11.2384C16.1285 11.2547 16.0598 11.3185 16.0844 11.4413Z" fill="#FEC50C"/>
<path d="M14.196 14.2704C14.0733 14.2949 14.0422 14.3833 14.0602 14.4749C14.0847 14.5977 14.3711 15.1524 14.3711 15.1524C14.3711 15.1524 14.4251 14.5289 14.3989 14.4062C14.3793 14.3146 14.3187 14.2459 14.196 14.2704Z" fill="#FEC50C"/>
<path d="M11.3653 12.3791C11.3407 12.2563 11.2524 12.2252 11.1608 12.2432C11.038 12.2678 10.4833 12.5541 10.4833 12.5541C10.4833 12.5541 11.1068 12.6081 11.2295 12.5819C11.3195 12.5656 11.3882 12.5018 11.3653 12.3791Z" fill="#FEC50C"/>
<path d="M13.2554 9.54797C13.3781 9.52343 13.4092 9.43507 13.3912 9.34344C13.3667 9.22071 13.0803 8.66602 13.0803 8.66602C13.0803 8.66602 13.0263 9.28944 13.0525 9.41216C13.0689 9.50379 13.1327 9.57415 13.2554 9.54797Z" fill="#FEC50C"/>
<path d="M13.3467 16.4973C13.2894 16.5006 13.2371 16.5071 13.1798 16.5251C13.1078 16.5349 13.0342 16.5595 12.9622 16.5726L12.9343 16.5759L12.8836 16.5791C12.8869 16.5922 12.8902 16.6069 12.8902 16.62C12.8902 16.6364 12.8902 16.6479 12.8836 16.6609C12.8804 16.674 12.8705 16.6855 12.8624 16.692C12.8525 16.7051 12.8411 16.7133 12.828 16.7198C12.8149 16.7264 12.8002 16.7297 12.7871 16.7297C12.7707 16.7297 12.7593 16.7297 12.7429 16.7231C12.7265 16.7198 12.7151 16.71 12.702 16.6986C12.6856 16.7018 12.6709 16.7051 12.6578 16.7084C12.6415 16.7084 12.63 16.7084 12.6169 16.7084C12.6006 16.7051 12.5858 16.6986 12.5727 16.692C12.5564 16.6855 12.5449 16.6789 12.5318 16.6708C12.4778 16.7018 12.4189 16.7329 12.3862 16.7869C12.3666 16.8115 12.3649 16.8409 12.3617 16.872C12.3584 16.9097 12.3682 16.9473 12.3829 16.9816C12.3895 16.9915 12.3927 16.9473 12.4107 16.9375C12.4418 16.9129 12.4762 16.8933 12.5138 16.8835C12.5449 16.8671 12.5416 16.8835 12.5302 16.908C12.5269 16.9211 12.5089 16.9702 12.5335 16.9457C12.6398 16.8982 12.7576 16.8884 12.8738 16.8802C13.0407 16.8638 13.2076 16.8589 13.3745 16.8589C13.5316 16.8622 13.6887 16.8622 13.8474 16.8687C13.9227 16.872 13.9979 16.8884 14.0716 16.8753C14.0912 16.872 14.119 16.8687 14.1288 16.8589C14.0945 16.8393 14.0568 16.8393 14.0192 16.8344H13.7181C13.633 16.8246 13.548 16.8246 13.4694 16.7935C13.4481 16.7837 13.4285 16.7657 13.4089 16.7869C13.3778 16.7968 13.3467 16.8066 13.314 16.8066C13.2567 16.8098 13.2043 16.8 13.1536 16.7788C13.1912 16.728 13.2354 16.6838 13.2731 16.6364C13.242 16.6299 13.2109 16.6233 13.1749 16.6168C13.2387 16.5857 13.2927 16.5415 13.3467 16.4973Z" fill="#FEC50C"/>
<path d="M15.7982 17.0422C15.6853 17.111 15.5969 16.9882 15.502 16.9539C15.4333 16.9915 15.4268 17.1142 15.363 17.1748C15.2877 17.2631 15.1928 17.1502 15.1993 17.0651C15.1077 17.1404 15.0602 17.3171 14.9162 17.2926C14.8475 17.2353 14.7935 17.1159 14.7395 17.2517C14.6953 17.3171 14.5792 17.412 14.5186 17.3122C14.499 17.2239 14.4564 17.1208 14.409 17.2582C14.3746 17.3597 14.2699 17.4317 14.1668 17.3875C14.1096 17.34 14.211 17.1699 14.1423 17.1829C14.0359 17.2517 13.9721 17.4284 13.8248 17.4153C13.7676 17.3498 13.8592 17.2386 13.797 17.1666C13.7218 17.2648 13.6399 17.4022 13.5074 17.4153C13.4452 17.3646 13.5107 17.2173 13.4698 17.1977C13.3372 17.2762 13.1965 17.4218 13.0296 17.3744C13.0951 17.1257 13.3667 17.0373 13.5958 17.0193C13.9901 16.9719 14.4041 17.0602 14.7853 16.9179C14.8475 16.8802 14.9964 16.8262 14.9424 16.7411C14.895 16.6724 15.0651 16.7002 15.0815 16.6184C15.0717 16.517 15.1601 16.5301 15.2451 16.5203C15.6297 16.5039 16.0076 16.5824 16.3905 16.5988C16.4184 16.7853 16.2105 16.9162 16.0469 16.8606C15.9684 16.8737 15.8489 16.6773 15.8702 16.8197C15.8555 16.8933 15.8686 16.9915 15.7982 17.0422ZM12.5338 16.661C12.6222 16.7428 12.6844 16.6446 12.7662 16.6102C13.0427 16.5153 13.2881 16.3452 13.5287 16.1783C13.6743 16.0588 13.7987 15.9017 13.995 15.8641C14.3763 15.7479 14.7788 15.7627 15.1601 15.6563C15.4497 15.2603 15.9438 15.118 16.3562 14.8889C16.4478 14.8611 16.4854 14.7858 16.5133 14.7007C16.6703 14.452 16.8847 14.2311 17.14 14.0805C17.2594 14.0151 17.405 13.9775 17.5392 14.0086C17.5294 14.1722 17.4361 14.3145 17.3249 14.4274C17.4165 14.4242 17.495 14.3669 17.5899 14.3702C17.621 14.5371 17.4427 14.6254 17.3478 14.7285C17.4018 14.7416 17.6063 14.7563 17.4934 14.8103C17.351 14.9085 17.1907 14.9772 17.0581 15.0901C17.1776 15.1114 17.194 15.1376 17.0712 15.1818C17.0058 15.2259 16.8765 15.2423 16.8634 15.329C16.9551 15.3863 16.8225 15.4387 16.7685 15.4583C16.6703 15.4796 16.5673 15.5238 16.6965 15.6007C16.6458 15.6759 16.5427 15.6923 16.4544 15.6825C16.4789 15.7676 16.5165 15.8625 16.4102 15.9001C16.1647 16.0866 15.8751 16.2208 15.5659 16.2519C15.9537 16.2797 16.3496 16.211 16.6802 15.9999C16.7243 15.9492 16.9501 15.8936 16.8258 15.8494C16.7652 15.8248 16.6376 15.7954 16.6278 15.7512C16.8078 15.6416 17.0303 15.6792 17.2234 15.6154C17.23 15.5532 17.0778 15.5712 17.0221 15.5548C16.8863 15.5418 16.8962 15.5107 17.0254 15.4976C17.189 15.4534 17.3756 15.4436 17.513 15.3405C17.4001 15.2865 17.2578 15.3339 17.1383 15.293C17.3429 15.2047 17.5818 15.1949 17.765 15.0607C17.8468 14.9691 17.6587 14.9985 17.6047 15.0001C17.4918 15.0198 17.441 14.9658 17.567 14.9183C17.7847 14.758 18.0612 14.6532 18.215 14.4209C18.2526 14.3669 18.3001 14.2098 18.1839 14.2671C18.0334 14.3178 17.8976 14.4913 17.7241 14.4373C18.0677 14.1722 18.3917 13.8711 18.6241 13.5029C18.6372 13.3966 18.4703 13.3868 18.4261 13.4686C18.2052 13.6797 18.0072 13.9316 17.7274 14.0642C17.9974 13.8024 18.2183 13.498 18.413 13.1757C18.4539 13.0808 18.5668 12.9679 18.5079 12.8615C18.4097 12.7797 18.287 12.855 18.2379 12.9531C18.0677 13.1773 17.9385 13.4375 17.7192 13.6175C17.9106 13.2493 18.1103 12.8582 18.1152 12.4377C18.1152 12.3494 18.0955 12.2234 17.9794 12.2397C17.8845 12.2561 17.9074 12.3968 17.8697 12.4688C17.7847 12.7584 17.7437 13.0693 17.5703 13.3246C17.6079 13.089 17.6767 12.8435 17.6276 12.6063C17.603 12.4999 17.4329 12.5457 17.4541 12.6504C17.2496 13.6862 16.5542 14.5927 15.6444 15.118C15.2288 15.3536 14.7624 15.5058 14.2912 15.5745C14.1652 15.6023 14.0261 15.5876 13.9034 15.6285C13.6072 15.8559 13.4305 16.2323 13.0558 16.3534C12.8889 16.4352 12.6713 16.4548 12.5518 16.6086C12.5371 16.6135 12.5338 16.6381 12.5338 16.661Z" fill="#FEC50C"/>
<path d="M13.6514 15.6089C13.5941 15.7104 13.563 15.8233 13.4943 15.9149C13.2799 15.7202 12.9723 15.7267 12.7007 15.7137C12.4765 15.7006 12.2344 15.6826 12.0609 15.5222C11.8776 15.3749 11.7304 15.1786 11.5291 15.0591C11.3426 15.0084 11.1577 14.9462 11.0104 14.8202C10.693 14.5617 10.5097 14.1755 10.1988 13.9072C10.1383 13.8466 10.0696 13.8041 10.0041 13.7534C9.94192 13.7697 9.96974 13.9039 9.8912 13.8352C9.85029 13.8041 9.74393 13.8041 9.73412 13.845C9.82902 13.971 9.92229 14.1134 9.93865 14.2737C9.8732 14.2803 9.75866 14.2606 9.72757 14.2835C9.81266 14.4128 9.92229 14.5257 10.0483 14.6173C9.98774 14.6272 9.86829 14.6206 9.84702 14.6452C9.97301 14.7466 10.1056 14.8497 10.2692 14.8742C10.3035 14.9184 10.2217 15.0035 10.2888 15.0411C10.3297 15.0575 10.4623 15.0853 10.3706 15.1295C10.3085 15.1704 10.333 15.2719 10.4115 15.2686C10.4623 15.2931 10.5752 15.2997 10.585 15.3439C10.5408 15.388 10.4017 15.4453 10.5195 15.4862C10.6292 15.5484 10.7552 15.5877 10.8844 15.5926C10.8222 15.6466 10.7421 15.6777 10.6766 15.7284C10.9695 15.8986 11.2935 16.0115 11.6109 16.1211C11.7369 16.1653 11.8662 16.2029 11.9987 16.2274C11.6142 16.2062 11.2428 16.0916 10.8942 15.9378C10.711 15.8593 10.5326 15.7807 10.3461 15.7137C10.4279 15.6727 10.5228 15.6597 10.6079 15.6253C10.4312 15.5909 10.243 15.5778 10.0892 15.4829C10.1137 15.442 10.2021 15.4388 10.2528 15.4175C10.3477 15.3962 10.4034 15.3668 10.2725 15.3602C10.1399 15.3259 9.98938 15.3406 9.8732 15.2588C9.87974 15.2113 10.0025 15.2277 10.0532 15.208C10.1154 15.1982 10.1857 15.1884 10.2365 15.1459C10.0319 15.0608 9.76357 15.1213 9.60321 14.9413C9.56558 14.8726 9.71612 14.9282 9.7603 14.9168C9.86993 14.9168 9.98774 14.9511 10.0941 14.907C9.79466 14.7744 9.47722 14.655 9.24978 14.4128C9.22523 14.3752 9.14833 14.2672 9.20887 14.2557C9.38559 14.277 9.51485 14.4733 9.70303 14.4423C9.72757 14.4079 9.5934 14.3539 9.5574 14.3032C9.28087 14.0675 9.01251 13.809 8.82107 13.4998C8.80798 13.3967 8.96834 13.3803 9.01252 13.4621C9.2236 13.6667 9.41504 13.9023 9.67685 14.0414C9.77175 14.0855 9.62285 13.9874 9.60485 13.953C9.36268 13.6699 9.12869 13.3738 8.96343 13.04C8.93234 12.9794 8.88161 12.8731 8.97324 12.8387C9.06488 12.7945 9.15651 12.8551 9.20069 12.9336C9.38068 13.161 9.50995 13.4278 9.73248 13.6143C9.54431 13.2461 9.34141 12.8583 9.3365 12.4362C9.33977 12.3544 9.34632 12.2316 9.45595 12.2349C9.55085 12.2218 9.53449 12.338 9.56558 12.3985C9.65721 12.7094 9.69812 13.0465 9.88302 13.3214C9.84211 13.0923 9.78157 12.8518 9.82248 12.6194C9.83229 12.5442 9.91738 12.518 9.97301 12.5654C10.0205 12.6783 10.0303 12.8142 10.0712 12.9336C10.3068 13.7452 10.8386 14.457 11.5357 14.9364C12.1051 15.3275 12.7858 15.5631 13.4779 15.604C13.5254 15.6024 13.5892 15.6057 13.6514 15.6089Z" fill="#FEC50C"/>
<path d="M16.0224 16.6822C16.0432 16.6822 16.0601 16.6654 16.0601 16.6446C16.0601 16.6238 16.0432 16.6069 16.0224 16.6069C16.0017 16.6069 15.9848 16.6238 15.9848 16.6446C15.9848 16.6654 16.0017 16.6822 16.0224 16.6822Z" fill="#FEC50C"/>
<path d="M16.0193 16.658C16.0284 16.658 16.0357 16.6506 16.0357 16.6416C16.0357 16.6326 16.0284 16.6252 16.0193 16.6252C16.0103 16.6252 16.003 16.6326 16.003 16.6416C16.003 16.6506 16.0103 16.658 16.0193 16.658Z" fill="#FEC50C" stroke="#00AFCA" stroke-width="0.112216" stroke-miterlimit="2"/>
<path d="M1.85577 6.44746C1.85577 6.44746 1.70523 6.32146 1.6545 6.38528C1.57269 6.48836 1.90977 6.99888 1.90977 7.17888C1.90977 7.47504 1.71177 7.55358 1.4696 7.59776C1.30598 7.62231 1.03763 7.5814 1.03763 7.5814C1.08835 7.51595 1.11944 7.49304 1.20453 7.48977C1.10962 7.44232 1.01635 7.33596 1.01635 7.17233C1.01635 6.91707 1.11944 6.81398 1.11944 6.52763C1.11944 6.37055 0.990173 6.16602 0.990173 6.16602C1.21925 6.18729 1.33379 6.40164 1.26998 6.57181C1.30761 6.57836 1.3387 6.56854 1.36815 6.54072C1.38452 6.58818 1.35834 6.64217 1.32398 6.68799C1.35179 6.70435 1.3747 6.69454 1.41888 6.68472C1.41561 6.73217 1.38452 6.78617 1.31579 6.83198C1.5236 6.77799 1.6496 6.92362 1.6496 7.07415C1.6496 7.18706 1.57105 7.26887 1.49251 7.26887C1.46797 7.26887 1.43033 7.25905 1.4107 7.24433C1.39434 7.27542 1.40415 7.31632 1.42052 7.34741C1.36325 7.33105 1.32561 7.29669 1.35179 7.22796C1.30761 7.22469 1.27325 7.20833 1.24871 7.18051C1.27325 7.14942 1.30925 7.13306 1.35179 7.13306C1.3207 7.06761 1.35506 7.02997 1.40906 7.00052C1.40906 7.00052 1.3747 7.13306 1.45979 7.13306C1.49742 7.13306 1.53178 7.11997 1.53178 7.06434C1.53178 7.01688 1.4876 6.94816 1.38943 6.95143C1.29125 6.9547 1.20944 7.02016 1.20944 7.17888C1.20944 7.3245 1.32561 7.3965 1.47942 7.39977C1.61851 7.40305 1.72486 7.32778 1.72486 7.18542C1.72486 6.99398 1.44833 6.55872 1.44833 6.38855C1.44833 6.25928 1.56124 6.19056 1.67578 6.19056C1.82141 6.19056 1.94413 6.33619 1.94413 6.33619L1.85577 6.44746Z" fill="#FEC50C"/>
<path d="M1.88861 9.8984C1.88861 10.2158 1.60226 10.3795 1.37808 10.3795C1.07537 10.3795 0.911743 10.1962 0.911743 9.96057C0.911743 9.82476 0.936287 9.73968 1.0001 9.61368C1.0001 9.61368 1.50081 8.57464 1.69552 8.17211C1.72007 8.12139 1.72661 8.06576 1.72661 7.98067C1.72661 7.8514 1.60062 7.74504 1.46808 7.74177C1.34863 7.7385 1.21609 7.85468 1.21609 7.98394C1.21609 8.14103 1.29791 8.21302 1.38299 8.21302C1.48608 8.21302 1.52862 8.16884 1.52862 8.09685C1.52862 8.04612 1.50408 8.02485 1.46808 8.02485C1.37972 8.02485 1.4059 8.1443 1.4059 8.1443C1.36172 8.13448 1.32409 8.0903 1.34536 8.03467C1.311 8.02812 1.28318 8.01012 1.257 7.98394C1.28154 7.96267 1.30772 7.94303 1.34536 7.93649C1.32409 7.86449 1.3519 7.8334 1.41408 7.81704C1.40099 7.84158 1.40099 7.86777 1.40426 7.89231C1.49917 7.86449 1.64644 7.90867 1.64644 8.0723C1.64644 8.23593 1.53353 8.37174 1.32245 8.34065C1.37318 8.3652 1.39772 8.41265 1.40426 8.46992C1.36663 8.45356 1.32245 8.45356 1.32245 8.45356C1.34699 8.49774 1.38299 8.53537 1.37972 8.62046C1.33881 8.60082 1.30445 8.56973 1.25373 8.58937C1.33227 8.74318 1.23409 8.9608 0.988649 9.01153C1.08028 8.90517 1.12446 8.79063 1.12446 8.67773C1.12446 8.30956 1.02137 8.24575 1.02137 7.98885C1.02137 7.88249 1.07864 7.76468 1.185 7.68614V7.68941C1.11301 7.66977 1.06555 7.63541 1.03937 7.58632C1.20627 7.53887 1.44517 7.53887 1.57444 7.59287C1.7217 7.60923 1.82643 7.72541 1.85752 7.78104C1.88861 7.83831 1.94915 8.04939 1.85752 8.23757C1.75934 8.4421 1.29463 9.42715 1.15228 9.7364C1.12119 9.80185 1.10155 9.87221 1.10155 9.94748C1.10155 10.1357 1.275 10.2027 1.37154 10.2027C1.48772 10.2027 1.61044 10.1111 1.61044 10.0015C1.61044 9.92948 1.5728 9.88858 1.51553 9.88858C1.38299 9.88858 1.38954 10.0015 1.41736 10.0751C1.33554 10.0375 1.28482 9.97203 1.30118 9.90167C1.25373 9.89512 1.20955 9.87385 1.16864 9.8264C1.19973 9.78549 1.24064 9.7544 1.30118 9.7544C1.27663 9.64477 1.34863 9.60059 1.41736 9.57441C1.39608 9.65295 1.37972 9.74786 1.51553 9.74786C1.61698 9.74786 1.69225 9.76422 1.7397 9.82967C1.74298 9.74458 1.74952 9.40424 1.74952 9.40424C1.75607 9.27824 1.57935 9.28152 1.46644 9.31915C1.50735 9.17188 1.59571 9.09171 1.79697 9.11461C1.74952 9.09498 1.69552 9.04916 1.69552 8.9608C1.69552 8.84135 1.7937 8.70882 1.85588 8.67118L1.88861 9.8984Z" fill="#FEC50C"/>
<path d="M1.88861 10.8558C1.88861 10.5384 1.60226 10.3748 1.37808 10.3748C1.07537 10.3748 0.911743 10.558 0.911743 10.7936C0.911743 10.9295 0.936287 11.0145 1.0001 11.1405C1.0001 11.1405 1.50081 12.1796 1.69552 12.5821C1.72007 12.6328 1.72661 12.6885 1.72661 12.7735C1.72661 12.9028 1.60062 13.0092 1.46808 13.0124C1.34863 13.0157 1.21609 12.8995 1.21609 12.7703C1.21609 12.6132 1.29791 12.5412 1.38299 12.5412C1.48608 12.5412 1.52862 12.5854 1.52862 12.6574C1.52862 12.7081 1.50408 12.7294 1.46808 12.7294C1.37972 12.7294 1.4059 12.6099 1.4059 12.6099C1.36172 12.6197 1.32409 12.6639 1.34536 12.7195C1.311 12.7261 1.28318 12.7441 1.257 12.7703C1.28154 12.7915 1.30772 12.8112 1.34536 12.8177C1.32409 12.8864 1.3519 12.9208 1.41081 12.9339C1.39772 12.9094 1.39772 12.8832 1.40099 12.8586C1.4959 12.8864 1.64316 12.8423 1.64316 12.6786C1.64316 12.515 1.53026 12.3792 1.31918 12.4103C1.3699 12.3857 1.39445 12.3383 1.40099 12.281C1.36336 12.2974 1.31918 12.2974 1.31918 12.2974C1.34372 12.2532 1.37972 12.2156 1.37645 12.1305C1.33554 12.1501 1.30118 12.1812 1.25045 12.1616C1.329 12.0078 1.23082 11.7901 0.985376 11.7394C1.07701 11.8458 1.12119 11.9603 1.12119 12.0732C1.12119 12.4414 1.0181 12.5052 1.0181 12.7621C1.0181 12.8684 1.07537 12.9863 1.18173 13.0648V13.0615C1.10973 13.0812 1.06228 13.1155 1.0361 13.1646C1.203 13.2121 1.4419 13.2121 1.57117 13.1581C1.71843 13.1417 1.82315 13.0255 1.85424 12.9699C1.88533 12.9126 1.94588 12.7015 1.85424 12.5134C1.75607 12.3088 1.29136 11.3238 1.149 11.0145C1.11792 10.9491 1.09828 10.8787 1.09828 10.8035C1.09828 10.6153 1.27173 10.5482 1.36827 10.5482C1.48444 10.5482 1.60716 10.6398 1.60716 10.7495C1.60716 10.8215 1.56953 10.8624 1.51226 10.8624C1.37972 10.8624 1.38627 10.7495 1.41408 10.6758C1.33227 10.7135 1.28154 10.7789 1.29791 10.8493C1.25045 10.8558 1.20627 10.8771 1.16537 10.9245C1.19646 10.9655 1.23736 10.9965 1.29791 10.9965C1.27336 11.1062 1.34536 11.1504 1.41408 11.1765C1.39281 11.098 1.37645 11.0031 1.51226 11.0031C1.61371 11.0031 1.68898 10.9867 1.73643 10.9213C1.7397 11.0064 1.74625 11.3467 1.74625 11.3467C1.75279 11.4727 1.57608 11.4694 1.46317 11.4318C1.50408 11.5791 1.59244 11.6592 1.7937 11.6363C1.74625 11.656 1.69225 11.7018 1.69225 11.7901C1.69225 11.9096 1.79043 12.0421 1.85261 12.0798L1.88861 10.8558Z" fill="#FEC50C"/>
<path d="M1.85529 6.4476C1.85529 6.4476 2.00583 6.32161 2.05655 6.38542C2.13837 6.48851 1.80129 6.99903 1.80129 7.17902C1.80129 7.47519 1.99928 7.55373 2.24145 7.59791C2.40508 7.62573 2.67016 7.58482 2.67016 7.58482C2.61943 7.51937 2.58834 7.49646 2.50326 7.49319C2.59816 7.44573 2.69143 7.33938 2.69143 7.17575C2.69143 6.92049 2.58834 6.8174 2.58834 6.53105C2.58834 6.37397 2.71761 6.16943 2.71761 6.16943C2.48853 6.19071 2.37399 6.40506 2.43781 6.57523C2.40017 6.58178 2.36908 6.57196 2.33963 6.54414C2.32654 6.59159 2.35272 6.64559 2.39035 6.69141C2.36254 6.70777 2.33963 6.69795 2.29545 6.68814C2.29872 6.73559 2.32981 6.78958 2.39854 6.8354C2.19073 6.7814 2.06473 6.92703 2.06473 7.07757C2.06473 7.19047 2.14328 7.27229 2.22182 7.27229C2.24636 7.27229 2.284 7.26247 2.30363 7.24774C2.31999 7.27883 2.31018 7.31974 2.29381 7.35083C2.35108 7.33447 2.38872 7.30011 2.36254 7.23138C2.40672 7.22811 2.44108 7.21175 2.46562 7.18393C2.44108 7.15284 2.40508 7.13648 2.36254 7.13648C2.39363 7.07103 2.35927 7.03339 2.30527 7.00394C2.30527 7.00394 2.33963 7.13648 2.25454 7.13648C2.21691 7.13648 2.18255 7.12339 2.18255 7.06775C2.18255 7.0203 2.22673 6.95158 2.3249 6.95485C2.42308 6.95812 2.50489 7.02357 2.50489 7.18229C2.50489 7.32792 2.38872 7.39992 2.23491 7.40319C2.09582 7.40646 1.98946 7.33119 1.98946 7.18884C1.98946 6.99739 2.266 6.56214 2.266 6.39197C2.266 6.2627 2.15309 6.19398 2.03855 6.19398C1.89292 6.19398 1.7702 6.33961 1.7702 6.33961L1.85529 6.4476Z" fill="#FEC50C"/>
<path d="M1.82467 9.89805C1.82467 10.2155 2.11102 10.3791 2.33519 10.3791C2.63791 10.3791 2.80153 10.1959 2.80153 9.96023C2.80153 9.82442 2.77699 9.73933 2.71318 9.61334C2.71318 9.61334 2.21247 8.5743 2.01775 8.17177C1.99321 8.12105 1.98667 8.06541 1.98667 7.98033C1.98667 7.85106 2.11266 7.7447 2.2452 7.74143C2.36465 7.73816 2.49719 7.85433 2.49719 7.9836C2.49719 8.14068 2.41537 8.21268 2.33028 8.21268C2.2272 8.21268 2.18466 8.1685 2.18466 8.0965C2.18466 8.04578 2.2092 8.02451 2.2452 8.02451C2.33356 8.02451 2.30738 8.14395 2.30738 8.14395C2.35156 8.13414 2.38919 8.08996 2.36792 8.03432C2.40228 8.02778 2.4301 8.00978 2.45628 7.9836C2.43173 7.96233 2.40555 7.94269 2.36792 7.93615C2.38919 7.86742 2.36137 7.83306 2.30247 7.81997C2.31556 7.84451 2.31556 7.8707 2.31229 7.89524C2.21738 7.86742 2.07012 7.9116 2.07012 8.07523C2.07012 8.23886 2.18302 8.37467 2.3941 8.34358C2.34337 8.36813 2.31883 8.41558 2.31229 8.47285C2.34992 8.45649 2.3941 8.45649 2.3941 8.45649C2.36956 8.50067 2.33356 8.5383 2.33683 8.62339C2.37774 8.60375 2.4121 8.57266 2.46282 8.5923C2.38428 8.74611 2.48246 8.96373 2.7279 9.01446C2.63627 8.9081 2.59209 8.79356 2.59209 8.68066C2.59209 8.31249 2.69518 8.24868 2.69518 7.99178C2.69518 7.88542 2.63791 7.76761 2.53155 7.68907V7.69234C2.60354 7.6727 2.651 7.63834 2.67718 7.58925C2.51028 7.5418 2.27138 7.5418 2.14211 7.5958C1.99485 7.61216 1.89012 7.72834 1.85903 7.78397C1.82795 7.84124 1.7674 8.05232 1.85903 8.2405C1.95721 8.44503 2.42192 9.43008 2.56427 9.73933C2.59536 9.80479 2.615 9.87515 2.615 9.95041C2.615 10.1386 2.44155 10.2057 2.34501 10.2057C2.22884 10.2057 2.10611 10.114 2.10611 10.0044C2.10611 9.93242 2.14375 9.89151 2.20102 9.89151C2.33356 9.89151 2.32701 10.0044 2.2992 10.078C2.38101 10.0404 2.43173 9.97496 2.41537 9.9046C2.46282 9.89805 2.507 9.87678 2.54791 9.82933C2.51682 9.78842 2.47591 9.75733 2.41537 9.75733C2.43992 9.6477 2.36792 9.60352 2.2992 9.57734C2.32047 9.65588 2.33683 9.75079 2.20102 9.75079C2.09957 9.75079 2.0243 9.76715 1.97685 9.8326C1.97357 9.74752 1.96703 9.40717 1.96703 9.40717C1.96048 9.28117 2.1372 9.28445 2.25011 9.32208C2.2092 9.17482 2.12084 9.09464 1.91958 9.11755C1.96703 9.09791 2.02103 9.05209 2.02103 8.96373C2.02103 8.84429 1.92285 8.71175 1.86067 8.67411L1.82467 9.89805Z" fill="#FEC50C"/>
<path d="M1.82467 10.8558C1.82467 10.5384 2.11102 10.3748 2.33519 10.3748C2.63791 10.3748 2.80153 10.558 2.80153 10.7936C2.80153 10.9295 2.77699 11.0145 2.71318 11.1405C2.71318 11.1405 2.21247 12.1796 2.01775 12.5821C1.99321 12.6328 1.98667 12.6885 1.98667 12.7735C1.98667 12.9028 2.11266 13.0092 2.2452 13.0124C2.36465 13.0157 2.49719 12.8995 2.49719 12.7703C2.49719 12.6132 2.41537 12.5412 2.33028 12.5412C2.2272 12.5412 2.18466 12.5854 2.18466 12.6574C2.18466 12.7081 2.2092 12.7294 2.2452 12.7294C2.33356 12.7294 2.30738 12.6099 2.30738 12.6099C2.35156 12.6197 2.38919 12.6639 2.36792 12.7195C2.40228 12.7261 2.4301 12.7441 2.45628 12.7703C2.43173 12.7915 2.40555 12.8112 2.36792 12.8177C2.38919 12.8864 2.36137 12.9208 2.30247 12.9339C2.31556 12.9094 2.31556 12.8832 2.31229 12.8586C2.21738 12.8864 2.07012 12.8423 2.07012 12.6786C2.07012 12.515 2.18302 12.3792 2.3941 12.4103C2.34337 12.3857 2.31883 12.3383 2.31229 12.281C2.34992 12.2974 2.3941 12.2974 2.3941 12.2974C2.36956 12.2532 2.33356 12.2156 2.33683 12.1305C2.37774 12.1501 2.4121 12.1812 2.46282 12.1616C2.38428 12.0078 2.48246 11.7901 2.7279 11.7394C2.63627 11.8458 2.59209 11.9603 2.59209 12.0732C2.59209 12.4414 2.69518 12.5052 2.69518 12.7621C2.69518 12.8684 2.63791 12.9863 2.53155 13.0648V13.0615C2.60354 13.0812 2.651 13.1155 2.67718 13.1646C2.51028 13.2121 2.27138 13.2121 2.14211 13.1581C1.99485 13.1417 1.89012 13.0255 1.85903 12.9699C1.82795 12.9126 1.7674 12.7015 1.85903 12.5134C1.95721 12.3088 2.42192 11.3238 2.56427 11.0145C2.59536 10.9491 2.615 10.8787 2.615 10.8035C2.615 10.6153 2.44155 10.5482 2.34501 10.5482C2.22884 10.5482 2.10611 10.6398 2.10611 10.7495C2.10611 10.8215 2.14375 10.8624 2.20102 10.8624C2.33356 10.8624 2.32701 10.7495 2.2992 10.6758C2.38101 10.7135 2.43173 10.7789 2.41537 10.8493C2.46282 10.8558 2.507 10.8771 2.54791 10.9245C2.51682 10.9655 2.47591 10.9965 2.41537 10.9965C2.43992 11.1062 2.36792 11.1504 2.2992 11.1765C2.32047 11.098 2.33683 11.0031 2.20102 11.0031C2.09957 11.0031 2.0243 10.9867 1.97685 10.9213C1.97357 11.0064 1.96703 11.3467 1.96703 11.3467C1.96048 11.4727 2.1372 11.4694 2.25011 11.4318C2.2092 11.5791 2.12084 11.6592 1.91958 11.6363C1.96703 11.656 2.02103 11.7018 2.02103 11.7901C2.02103 11.9096 1.92285 12.0421 1.86067 12.0798L1.82467 10.8558Z" fill="#FEC50C"/>
<path d="M1.85555 19.8912C1.85555 19.8912 1.70501 20.0172 1.65428 19.9534C1.57247 19.8503 1.90954 19.3398 1.90954 19.1598C1.90954 18.8636 1.71155 18.7851 1.46938 18.7409C1.30576 18.7131 1.04068 18.754 1.04068 18.754C1.0914 18.8194 1.12249 18.8423 1.20758 18.8456C1.11267 18.8931 1.01941 18.9994 1.01941 19.1631C1.01941 19.4183 1.12249 19.5214 1.12249 19.8078C1.12249 19.9648 0.993225 20.1694 0.993225 20.1694C1.2223 20.1481 1.33684 19.9337 1.27303 19.7636C1.31066 19.757 1.34175 19.7668 1.37121 19.7947C1.38757 19.7472 1.36139 19.6932 1.32703 19.6474C1.35484 19.631 1.37775 19.6408 1.42193 19.6507C1.41866 19.6032 1.38757 19.5492 1.31885 19.5034C1.52665 19.5574 1.65265 19.4118 1.65265 19.2612C1.65265 19.1483 1.57411 19.0665 1.49556 19.0665C1.47102 19.0665 1.43339 19.0763 1.41375 19.0911C1.39739 19.06 1.40721 19.0191 1.42357 18.988C1.3663 19.0043 1.32866 19.0387 1.35484 19.1074C1.31066 19.1107 1.2763 19.1271 1.25176 19.1549C1.2763 19.186 1.3123 19.2023 1.35484 19.2023C1.32375 19.2678 1.35812 19.3054 1.41211 19.3349C1.41211 19.3349 1.37775 19.2023 1.46284 19.2023C1.50047 19.2023 1.53484 19.2154 1.53484 19.271C1.53484 19.3185 1.49066 19.3872 1.39248 19.384C1.2943 19.3807 1.21249 19.3152 1.21249 19.1565C1.21249 19.0109 1.32866 18.9389 1.48247 18.9356C1.62156 18.9323 1.72792 19.0076 1.72792 19.15C1.72792 19.3414 1.45138 19.7767 1.45138 19.9468C1.45138 20.0761 1.56429 20.1448 1.67883 20.1448C1.82446 20.1448 1.94718 19.9992 1.94718 19.9992L1.85555 19.8912Z" fill="#FEC50C"/>
<path d="M1.88861 16.4401C1.88861 16.1226 1.60226 15.959 1.37808 15.959C1.07537 15.959 0.911743 16.1422 0.911743 16.3779C0.911743 16.5137 0.936287 16.5988 1.0001 16.7248C1.0001 16.7248 1.50081 17.7638 1.69552 18.1663C1.72007 18.2171 1.72661 18.2727 1.72661 18.3578C1.72661 18.487 1.60062 18.5934 1.46808 18.5967C1.34863 18.5999 1.21609 18.4838 1.21609 18.3545C1.21609 18.1974 1.29791 18.1254 1.38299 18.1254C1.48608 18.1254 1.52862 18.1696 1.52862 18.2416C1.52862 18.2923 1.50408 18.3136 1.46808 18.3136C1.37972 18.3136 1.4059 18.1941 1.4059 18.1941C1.36172 18.204 1.32409 18.2481 1.34536 18.3038C1.311 18.3103 1.28318 18.3283 1.257 18.3545C1.28154 18.3758 1.30772 18.3954 1.34536 18.402C1.32409 18.4707 1.3519 18.505 1.41081 18.5181C1.39772 18.4936 1.39772 18.4674 1.40099 18.4429C1.4959 18.4707 1.64316 18.4265 1.64316 18.2629C1.64316 18.0992 1.53026 17.9634 1.31918 17.9945C1.3699 17.97 1.39445 17.9225 1.40099 17.8653C1.36336 17.8816 1.31918 17.8816 1.31918 17.8816C1.34372 17.8374 1.37972 17.7998 1.37645 17.7147C1.33554 17.7343 1.30118 17.7654 1.25045 17.7458C1.329 17.592 1.23082 17.3744 0.985376 17.3236C1.07701 17.43 1.12119 17.5445 1.12119 17.6574C1.12119 18.0256 1.0181 18.0894 1.0181 18.3463C1.0181 18.4527 1.07537 18.5705 1.18173 18.649V18.6458C1.10973 18.6654 1.06228 18.6998 1.0361 18.7488C1.203 18.7963 1.4419 18.7963 1.57117 18.7423C1.71843 18.7259 1.82315 18.6098 1.85424 18.5541C1.88533 18.4969 1.94588 18.2858 1.85424 18.0976C1.75607 17.8931 1.29136 16.908 1.149 16.5988C1.11792 16.5333 1.09828 16.463 1.09828 16.3877C1.09828 16.1995 1.27173 16.1324 1.36827 16.1324C1.48444 16.1324 1.60716 16.2241 1.60716 16.3337C1.60716 16.4057 1.56953 16.4466 1.51226 16.4466C1.37972 16.4466 1.38627 16.3337 1.41408 16.2601C1.33227 16.2977 1.28154 16.3631 1.29791 16.4335C1.25045 16.4401 1.20627 16.4613 1.16537 16.5088C1.19646 16.5497 1.23736 16.5808 1.29791 16.5808C1.27336 16.6904 1.34536 16.7346 1.41408 16.7608C1.39281 16.6822 1.37645 16.5873 1.51226 16.5873C1.61371 16.5873 1.68898 16.571 1.73643 16.5055C1.7397 16.5906 1.74625 16.9309 1.74625 16.9309C1.75279 17.0569 1.57608 17.0537 1.46317 17.016C1.50408 17.1633 1.59244 17.2435 1.7937 17.2206C1.74625 17.2402 1.69225 17.286 1.69225 17.3744C1.69225 17.4938 1.79043 17.6264 1.85261 17.664L1.88861 16.4401Z" fill="#FEC50C"/>
<path d="M1.88861 15.483C1.88861 15.8004 1.60226 15.9641 1.37808 15.9641C1.07537 15.9641 0.911743 15.7808 0.911743 15.5452C0.911743 15.4094 0.936287 15.3243 1.0001 15.1983C1.0001 15.1983 1.50081 14.1593 1.69552 13.7567C1.72007 13.706 1.72661 13.6504 1.72661 13.5653C1.72661 13.436 1.60062 13.3297 1.46808 13.3264C1.34863 13.3231 1.21609 13.4393 1.21609 13.5686C1.21609 13.7256 1.29791 13.7976 1.38299 13.7976C1.48608 13.7976 1.52862 13.7535 1.52862 13.6815C1.52862 13.6307 1.50408 13.6095 1.46808 13.6095C1.37972 13.6095 1.4059 13.7289 1.4059 13.7289C1.36172 13.7191 1.32409 13.6749 1.34536 13.6193C1.311 13.6127 1.28318 13.5947 1.257 13.5686C1.28154 13.5473 1.30772 13.5277 1.34536 13.5211C1.32409 13.4524 1.3519 13.418 1.41081 13.4049C1.39772 13.4295 1.39772 13.4557 1.40099 13.4802C1.4959 13.4524 1.64316 13.4966 1.64316 13.6602C1.64316 13.8238 1.53026 13.9596 1.31918 13.9285C1.3699 13.9531 1.39445 14.0005 1.40099 14.0578C1.36336 14.0414 1.31918 14.0414 1.31918 14.0414C1.34372 14.0856 1.37972 14.1233 1.37645 14.2083C1.33554 14.1887 1.30118 14.1576 1.25045 14.1773C1.329 14.3311 1.23082 14.5487 0.985376 14.5994C1.07701 14.4931 1.12119 14.3785 1.12119 14.2656C1.12119 13.8975 1.0181 13.8336 1.0181 13.5767C1.0181 13.4704 1.07537 13.3526 1.18173 13.274V13.2773C1.10973 13.2577 1.06228 13.2233 1.0361 13.1742C1.203 13.1268 1.4419 13.1268 1.57117 13.1808C1.71843 13.1971 1.82315 13.3133 1.85424 13.3689C1.88533 13.4262 1.94588 13.6373 1.85424 13.8255C1.75607 14.03 1.29136 15.015 1.149 15.3243C1.11792 15.3897 1.09828 15.4601 1.09828 15.5354C1.09828 15.7235 1.27173 15.7906 1.36827 15.7906C1.48444 15.7906 1.60716 15.699 1.60716 15.5894C1.60716 15.5174 1.56953 15.4765 1.51226 15.4765C1.37972 15.4765 1.38627 15.5894 1.41408 15.663C1.33227 15.6254 1.28154 15.5599 1.29791 15.4896C1.25045 15.483 1.20627 15.4617 1.16537 15.4143C1.19646 15.3734 1.23736 15.3423 1.29791 15.3423C1.27336 15.2327 1.34536 15.1885 1.41408 15.1623C1.39281 15.2408 1.37645 15.3357 1.51226 15.3357C1.61371 15.3357 1.68898 15.3521 1.73643 15.4176C1.7397 15.3325 1.74625 14.9921 1.74625 14.9921C1.75279 14.8661 1.57608 14.8694 1.46317 14.907C1.50408 14.7598 1.59244 14.6796 1.7937 14.7025C1.74625 14.6829 1.69225 14.6371 1.69225 14.5487C1.69225 14.4292 1.79043 14.2967 1.85261 14.2591L1.88861 15.483Z" fill="#FEC50C"/>
<path d="M1.85573 19.8912C1.85573 19.8912 2.00627 20.0172 2.05699 19.9534C2.13881 19.8503 1.80173 19.3398 1.80173 19.1598C1.80173 18.8636 1.99972 18.7851 2.24189 18.7409C2.40552 18.7131 2.6706 18.754 2.6706 18.754C2.61988 18.8194 2.58879 18.8423 2.5037 18.8456C2.5986 18.8931 2.69187 18.9994 2.69187 19.1631C2.69187 19.4183 2.58879 19.5214 2.58879 19.8078C2.58879 19.9648 2.71805 20.1694 2.71805 20.1694C2.48897 20.1481 2.37443 19.9337 2.43825 19.7636C2.40061 19.757 2.36952 19.7668 2.34007 19.7947C2.32371 19.7472 2.34989 19.6932 2.38425 19.6474C2.35643 19.631 2.33353 19.6408 2.28935 19.6507C2.29262 19.6032 2.32371 19.5492 2.39243 19.5034C2.18462 19.5574 2.05863 19.4118 2.05863 19.2612C2.05863 19.1483 2.13717 19.0665 2.21571 19.0665C2.24026 19.0665 2.27789 19.0763 2.29753 19.0911C2.31389 19.06 2.30407 19.0191 2.28771 18.988C2.34498 19.0043 2.38261 19.0387 2.35643 19.1074C2.40061 19.1107 2.43498 19.1271 2.45952 19.1549C2.43498 19.186 2.39898 19.2023 2.35643 19.2023C2.38752 19.2678 2.35316 19.3054 2.29916 19.3349C2.29916 19.3349 2.33353 19.2023 2.24844 19.2023C2.2108 19.2023 2.17644 19.2154 2.17644 19.271C2.17644 19.3185 2.22062 19.3872 2.3188 19.384C2.41698 19.3807 2.49879 19.3152 2.49879 19.1565C2.49879 19.0109 2.38261 18.9389 2.2288 18.9356C2.08972 18.9323 1.98336 19.0076 1.98336 19.15C1.98336 19.3414 2.25989 19.7767 2.25989 19.9468C2.25989 20.0761 2.14699 20.1448 2.03245 20.1448C1.88682 20.1448 1.7641 19.9992 1.7641 19.9992L1.85573 19.8912Z" fill="#FEC50C"/>
<path d="M1.82467 16.4401C1.82467 16.1226 2.11102 15.959 2.33519 15.959C2.63791 15.959 2.80153 16.1422 2.80153 16.3779C2.80153 16.5137 2.77699 16.5988 2.71318 16.7248C2.71318 16.7248 2.21247 17.7638 2.01775 18.1663C1.99321 18.2171 1.98667 18.2727 1.98667 18.3578C1.98667 18.487 2.11266 18.5934 2.2452 18.5967C2.36465 18.5999 2.49719 18.4838 2.49719 18.3545C2.49719 18.1974 2.41537 18.1254 2.33028 18.1254C2.2272 18.1254 2.18466 18.1696 2.18466 18.2416C2.18466 18.2923 2.2092 18.3136 2.2452 18.3136C2.33356 18.3136 2.30738 18.1941 2.30738 18.1941C2.35156 18.204 2.38919 18.2481 2.36792 18.3038C2.40228 18.3103 2.4301 18.3283 2.45628 18.3545C2.43173 18.3758 2.40555 18.3954 2.36792 18.402C2.38919 18.4707 2.36137 18.505 2.30247 18.5181C2.31556 18.4936 2.31556 18.4674 2.31229 18.4429C2.21738 18.4707 2.07012 18.4265 2.07012 18.2629C2.07012 18.0992 2.18302 17.9634 2.3941 17.9945C2.34337 17.97 2.31883 17.9225 2.31229 17.8653C2.34992 17.8816 2.3941 17.8816 2.3941 17.8816C2.36956 17.8374 2.33356 17.7998 2.33683 17.7147C2.37774 17.7343 2.4121 17.7654 2.46282 17.7458C2.38428 17.592 2.48246 17.3744 2.7279 17.3236C2.63627 17.43 2.59209 17.5445 2.59209 17.6574C2.59209 18.0256 2.69518 18.0894 2.69518 18.3463C2.69518 18.4527 2.63791 18.5705 2.53155 18.649V18.6458C2.60354 18.6654 2.651 18.6998 2.67718 18.7488C2.51028 18.7963 2.27138 18.7963 2.14211 18.7423C1.99485 18.7259 1.89012 18.6098 1.85903 18.5541C1.82795 18.4969 1.7674 18.2858 1.85903 18.0976C1.95721 17.8931 2.42192 16.908 2.56427 16.5988C2.59536 16.5333 2.615 16.463 2.615 16.3877C2.615 16.1995 2.44155 16.1324 2.34501 16.1324C2.22884 16.1324 2.10611 16.2241 2.10611 16.3337C2.10611 16.4057 2.14375 16.4466 2.20102 16.4466C2.33356 16.4466 2.32701 16.3337 2.2992 16.2601C2.38101 16.2977 2.43173 16.3631 2.41537 16.4335C2.46282 16.4401 2.507 16.4613 2.54791 16.5088C2.51682 16.5497 2.47591 16.5808 2.41537 16.5808C2.43992 16.6904 2.36792 16.7346 2.2992 16.7608C2.32047 16.6822 2.33683 16.5873 2.20102 16.5873C2.09957 16.5873 2.0243 16.571 1.97685 16.5055C1.97357 16.5906 1.96703 16.9309 1.96703 16.9309C1.96048 17.0569 2.1372 17.0537 2.25011 17.016C2.2092 17.1633 2.12084 17.2435 1.91958 17.2206C1.96703 17.2402 2.02103 17.286 2.02103 17.3744C2.02103 17.4938 1.92285 17.6264 1.86067 17.664L1.82467 16.4401Z" fill="#FEC50C"/>
<path d="M1.82467 15.483C1.82467 15.8004 2.11102 15.9641 2.33519 15.9641C2.63791 15.9641 2.80153 15.7808 2.80153 15.5452C2.80153 15.4094 2.77699 15.3243 2.71318 15.1983C2.71318 15.1983 2.21247 14.1593 2.01775 13.7567C1.99321 13.706 1.98667 13.6504 1.98667 13.5653C1.98667 13.436 2.11266 13.3297 2.2452 13.3264C2.36465 13.3231 2.49719 13.4393 2.49719 13.5686C2.49719 13.7256 2.41537 13.7976 2.33028 13.7976C2.2272 13.7976 2.18466 13.7535 2.18466 13.6815C2.18466 13.6307 2.2092 13.6095 2.2452 13.6095C2.33356 13.6095 2.30738 13.7289 2.30738 13.7289C2.35156 13.7191 2.38919 13.6749 2.36792 13.6193C2.40228 13.6127 2.4301 13.5947 2.45628 13.5686C2.43173 13.5473 2.40555 13.5277 2.36792 13.5211C2.38919 13.4524 2.36137 13.418 2.30247 13.4049C2.31556 13.4295 2.31556 13.4557 2.31229 13.4802C2.21738 13.4524 2.07012 13.4966 2.07012 13.6602C2.07012 13.8238 2.18302 13.9596 2.3941 13.9285C2.34337 13.9531 2.31883 14.0005 2.31229 14.0578C2.34992 14.0414 2.3941 14.0414 2.3941 14.0414C2.36956 14.0856 2.33356 14.1233 2.33683 14.2083C2.37774 14.1887 2.4121 14.1576 2.46282 14.1773C2.38428 14.3311 2.48246 14.5487 2.7279 14.5994C2.63627 14.4931 2.59209 14.3785 2.59209 14.2656C2.59209 13.8975 2.69518 13.8336 2.69518 13.5767C2.69518 13.4704 2.63791 13.3526 2.53155 13.274V13.2773C2.60354 13.2577 2.651 13.2233 2.67718 13.1742C2.51028 13.1268 2.27138 13.1268 2.14211 13.1808C1.99485 13.1971 1.89012 13.3133 1.85903 13.3689C1.82795 13.4262 1.7674 13.6373 1.85903 13.8255C1.95721 14.03 2.42192 15.015 2.56427 15.3243C2.59536 15.3897 2.615 15.4601 2.615 15.5354C2.615 15.7235 2.44155 15.7906 2.34501 15.7906C2.22884 15.7906 2.10611 15.699 2.10611 15.5894C2.10611 15.5174 2.14375 15.4765 2.20102 15.4765C2.33356 15.4765 2.32701 15.5894 2.2992 15.663C2.38101 15.6254 2.43173 15.5599 2.41537 15.4896C2.46282 15.483 2.507 15.4617 2.54791 15.4143C2.51682 15.3734 2.47591 15.3423 2.41537 15.3423C2.43992 15.2327 2.36792 15.1885 2.2992 15.1623C2.32047 15.2408 2.33683 15.3357 2.20102 15.3357C2.09957 15.3357 2.0243 15.3521 1.97685 15.4176C1.97357 15.3325 1.96703 14.9921 1.96703 14.9921C1.96048 14.8661 2.1372 14.8694 2.25011 14.907C2.2092 14.7598 2.12084 14.6796 1.91958 14.7025C1.96703 14.6829 2.02103 14.6371 2.02103 14.5487C2.02103 14.4292 1.92285 14.2967 1.86067 14.2591L1.82467 15.483Z" fill="#FEC50C"/>
</g>
</g>
<rect x="0.270833" y="4.60409" width="25.4583" height="16.7917" rx="1.89583" stroke="#7F7F7F" stroke-width="0.541667"/>
</g>
<defs>
<clipPath id="clip0_29826_19550">
<rect width="26" height="26" fill="white"/>
</clipPath>
<clipPath id="clip1_29826_19550">
<rect y="4.33325" width="26" height="17.3333" rx="2.16667" fill="white"/>
</clipPath>
<clipPath id="clip2_29826_19550">
<rect width="31.4167" height="17.6719" fill="white" transform="translate(0 4.33325)"/>
</clipPath>
</defs>
</svg>
