<svg width="26" height="26" viewBox="0 0 26 26" fill="none" xmlns="http://www.w3.org/2000/svg">
<g clip-path="url(#clip0_29826_26006)">
<g clip-path="url(#clip1_29826_26006)">
<rect y="4.33325" width="26" height="17.3333" rx="2.16667" fill="white"/>
<g clip-path="url(#clip2_29826_26006)">
<path d="M0 4.33325H26V21.6666H0V4.33325Z" fill="#FCD116"/>
<path d="M0 13H26V21.6667H0V13Z" fill="#003893"/>
<path d="M0 17.3333H26V21.6666H0V17.3333Z" fill="#CE1126"/>
</g>
<path d="M30.3334 4.33325H-4.33331V21.6666H30.3334V4.33325Z" fill="#CC092F"/>
<path d="M18.7778 4.33325H-4.33331V21.6666H18.7778V4.33325Z" fill="#FFD200"/>
<path d="M7.22224 4.33325H-4.33331V21.6666H7.22224V4.33325Z" fill="#0046AE"/>
<path d="M11.9924 7.86108C11.9314 7.86108 11.8768 7.87713 11.8447 7.90121C11.8945 7.91726 11.9314 7.96219 11.9314 8.01837V8.16121H11.7886C11.7324 8.16121 11.6859 8.12429 11.6714 8.07454C11.6457 8.10503 11.6313 8.16121 11.6313 8.22219C11.6313 8.28318 11.6473 8.33775 11.6714 8.36985C11.6875 8.32009 11.7324 8.28318 11.7886 8.28318H11.9314V8.97009C11.9314 9.02466 11.8961 9.06799 11.8512 9.08565C11.9186 9.09528 11.978 9.18515 11.994 9.23651C12.0101 9.18676 12.0694 9.09367 12.1368 9.08565C12.0887 9.0696 12.0534 9.02466 12.0534 8.97009V8.28318H12.1962C12.2524 8.28318 12.2989 8.32009 12.3134 8.36985C12.3391 8.33935 12.3535 8.28318 12.3535 8.22219C12.3535 8.16121 12.3375 8.10664 12.3134 8.07454C12.2973 8.12429 12.2524 8.16121 12.1962 8.16121H12.0534V8.01837C12.0534 7.96219 12.0903 7.91565 12.1401 7.90121C12.108 7.87874 12.055 7.86108 11.9924 7.86108Z" fill="black"/>
<path d="M11.9923 7.89307C11.9602 7.89307 11.9313 7.89949 11.9073 7.90591C11.9394 7.93319 11.9618 7.97331 11.9618 8.01986V8.16269C11.9618 8.1643 11.9618 8.1659 11.9602 8.16911V8.19158H11.9378C11.9362 8.19158 11.9346 8.19319 11.9313 8.19319H11.7885C11.742 8.19319 11.7034 8.17232 11.6746 8.14183C11.6665 8.16751 11.6585 8.19319 11.6585 8.22689C11.6585 8.2606 11.6649 8.28788 11.6713 8.31195C11.6986 8.27985 11.7388 8.25739 11.7853 8.25739H11.9586C11.9586 8.2606 11.957 8.26381 11.957 8.26702V8.28306C11.957 8.28467 11.9586 8.28627 11.9586 8.28948V8.9764C11.9586 9.02133 11.9362 9.05504 11.9041 9.08393C11.9249 9.09677 11.9442 9.11442 11.9602 9.13368C11.9731 9.15133 11.9795 9.16899 11.9891 9.18504C11.9988 9.16738 12.0052 9.14973 12.018 9.13368C12.0341 9.11442 12.0533 9.09837 12.0742 9.08553C12.0437 9.05825 12.0196 9.02133 12.0196 8.978V8.2622H12.0421C12.0437 8.2622 12.0453 8.2606 12.0485 8.2606H12.1913C12.2379 8.2606 12.2764 8.28146 12.3053 8.31195C12.3133 8.28627 12.3213 8.2606 12.3213 8.22689C12.3213 8.19319 12.3149 8.1659 12.3085 8.14183C12.2812 8.17393 12.2411 8.1964 12.1946 8.1964H12.0533C12.0517 8.1964 12.0501 8.1964 12.0469 8.19479H12.0244V8.16911C12.0244 8.16751 12.0228 8.1659 12.0228 8.16269V8.01986C12.0228 7.97331 12.0437 7.93479 12.0742 7.90591C12.0533 7.89788 12.026 7.89307 11.9923 7.89307Z" fill="#F5D402"/>
<path d="M13.7816 10.3812C13.6949 10.3202 13.6211 10.248 13.5713 10.1678C13.4478 9.97196 13.3964 9.72801 13.3964 9.48406C13.3964 9.37974 13.512 9.26258 13.512 9.17912C13.512 9.05233 13.5007 8.9769 13.5007 8.9769C13.5408 8.98332 13.6147 9.05554 13.6147 9.05554C13.6147 9.05554 13.6131 8.84529 13.5457 8.80838C13.5457 8.80838 13.5729 8.78109 13.6708 8.77788C13.6436 8.70887 13.5088 8.62381 13.5088 8.62381C13.5168 8.61258 13.528 8.60134 13.5441 8.59332C13.5794 8.57406 13.6243 8.56282 13.6612 8.5548C13.6227 8.54677 13.5762 8.53393 13.528 8.51788C13.4157 8.48097 13.2841 8.42801 13.1605 8.36702C12.9358 8.25949 12.7625 8.25146 12.6678 8.25146C12.5988 8.25146 12.4976 8.25307 12.4383 8.29319C12.3837 8.33011 12.3885 8.37665 12.3692 8.3927C12.3243 8.43122 12.2473 8.42961 12.212 8.42961C11.9728 8.42961 11.9632 8.6864 11.9632 8.6864C11.9632 8.6864 12.0242 8.59332 12.1333 8.59332C12.3147 8.59332 12.4495 8.69122 12.4495 8.72813C12.4495 8.74418 12.4302 8.74579 12.4302 8.74579C12.3131 8.74579 12.1349 8.67838 12.0418 8.67517V8.72171C12.2521 8.79554 12.4655 8.89825 12.4655 9.35566C12.4655 9.64295 12.4302 9.93665 12.2858 10.1678C12.236 10.248 12.1622 10.3202 12.0739 10.3812L12.9294 10.5353L13.7816 10.3812Z" fill="black"/>
<path d="M12.9262 10.1881L12.0708 10.3807C12.0323 10.3694 11.8493 10.3117 11.7209 10.2394C11.4963 10.1143 11.3775 9.98907 11.1111 9.97623V9.7724C11.1111 9.66327 11.1496 9.56376 11.1496 9.46105C11.0356 9.43055 10.7227 9.04697 10.4338 8.87524C10.0085 9.15129 9.67627 9.60549 9.67627 9.81253C9.67627 9.81253 9.68911 14.2903 9.67627 15.8503C9.67627 15.9402 9.6217 16.0686 9.6217 16.0686C9.77738 16.0028 10.0631 15.6128 10.1224 15.4635V15.5341C10.3568 15.4266 10.5285 15.1457 10.6055 15.0013C10.6071 15.0222 10.6119 15.0751 10.6119 15.0751C10.8222 14.8889 11.0902 13.8024 11.0902 13.8024L11.5348 14.2389C11.5348 14.2389 11.3727 14.5664 11.3117 14.6241C11.3117 14.6241 11.3534 14.6306 11.4016 14.6306C11.3727 14.6723 11.1496 14.9949 11.0774 15.1152C11.0116 15.2292 10.965 15.1794 10.8639 15.1794C10.7805 15.1794 10.5911 15.3127 10.559 15.3656C10.5269 15.4218 10.5012 15.4908 10.5012 15.5486C10.5012 15.6096 10.567 15.6962 10.567 15.6962C10.575 15.6657 10.5863 15.6561 10.5863 15.6561C10.5863 15.6561 10.7596 15.8712 10.7853 15.9001C10.8045 15.9209 10.8928 15.937 10.9265 15.9081C11.0052 15.8375 11.0806 15.7861 11.1496 15.685C11.1865 15.6304 11.1881 15.571 11.2282 15.5133C11.3663 15.3223 11.6407 14.958 11.7033 14.8761C11.7065 14.8986 11.7113 14.9178 11.7145 14.9419C11.7851 14.7975 12.1286 14.5246 12.1286 14.5246L12.4865 14.6883C12.4865 14.6883 11.8188 16.2227 11.225 16.4602C11.225 16.4602 11.4834 16.5693 11.7996 16.733C11.8461 16.7555 11.8943 16.7828 11.9424 16.8085C11.9826 16.7603 12.0259 16.7057 12.066 16.6528C12.2554 16.3992 12.4416 16.1055 12.4416 16.1055C12.4544 16.1825 12.3549 16.4168 12.1848 16.7089C12.1527 16.7667 12.1174 16.8261 12.0788 16.8855C12.1206 16.9112 12.1639 16.9352 12.2072 16.9609C12.5218 17.1503 12.8155 17.367 12.9262 17.566L13.0033 17.3734L12.9262 17.1808V10.4401L12.9648 10.3438L12.9262 10.1881Z" fill="black"/>
<path d="M12.9263 17.1825C12.8171 17.0638 12.5828 16.9145 12.3228 16.7797C12.6374 16.2148 12.7931 15.3224 12.7192 15.1443C12.7192 15.1443 12.5908 15.6065 12.432 15.8697C12.2859 16.1136 12.1062 16.3897 11.9312 16.5919C11.7884 16.5309 11.6504 16.4796 11.53 16.4443C12.0516 16.043 12.5828 14.7174 12.5828 14.7174L12.0371 14.4638C12.0371 14.4638 11.8317 14.7045 11.7643 14.7495C11.7643 14.7495 11.7354 14.6307 11.7178 14.5874C11.7178 14.5874 11.6391 14.6467 11.5958 14.6483C11.5958 14.6483 11.5829 14.5681 11.5733 14.5135C11.5187 14.5504 11.4289 14.5424 11.4289 14.5424C11.5075 14.5039 11.6022 14.2744 11.6022 14.2744L11.0758 13.5746C11.0758 13.5746 10.8912 14.4622 10.681 14.6451V10.8222L10.8479 10.9762L11.0999 10.7419V10.5622L10.8768 10.7724V10.2316C10.9121 10.1818 10.9329 10.1433 10.9506 10.1128C10.9875 10.177 11.1047 10.3696 11.2411 10.4883C11.2636 10.3953 11.4128 10.3086 11.4128 10.3086C11.4128 10.3086 11.4674 10.453 11.5476 10.49C11.5765 10.4402 11.7483 10.3279 11.7483 10.3279C11.7483 10.3279 11.6022 10.3503 11.5428 10.4049C11.4931 10.3937 11.4786 10.1914 11.4786 10.1914C11.4786 10.1914 11.2636 10.2974 11.225 10.3728C11.1849 10.3616 11.1191 10.1995 11.0934 10.1337C11.132 10.1304 11.1833 10.124 11.2539 10.124C11.3149 10.124 11.3952 10.1529 11.477 10.1914C11.5669 10.2332 11.6616 10.2877 11.7466 10.3262C11.8542 10.3744 12.0195 10.3856 12.066 10.3872C12.0115 10.4258 11.9505 10.4611 11.8847 10.4932C11.8847 10.4932 12.1431 10.4916 12.3244 10.4001C12.3902 10.3583 12.456 10.3166 12.5138 10.2669C12.4881 10.3359 12.4496 10.4177 12.3886 10.4883C12.655 10.4659 12.7866 10.3134 12.8252 10.2637C12.8428 10.3102 12.8749 10.3824 12.9231 10.4466H13.0194V16.9948L12.9263 17.1825Z" fill="#B07F55"/>
<path d="M10.9618 9.48227L10.9682 9.60424V9.96375C10.8719 9.93166 10.7499 9.77116 10.6905 9.6877V9.63795C10.6905 9.5914 10.7178 9.5577 10.7387 9.54005L10.6809 9.51918C10.6584 9.54486 10.6344 9.58338 10.6344 9.63153V9.66042L10.461 9.84659L10.2893 9.58819V9.524C10.2893 9.48227 10.3214 9.43412 10.3487 9.40202L10.2909 9.38116C10.262 9.41807 10.2315 9.46943 10.2315 9.51597V9.56733C10.1914 9.60906 10.0357 9.76956 10.0357 9.76956C10.0357 9.76956 9.95708 9.60264 9.93622 9.5561C10.055 9.39079 10.2508 9.20621 10.4305 9.073C10.4354 9.0714 10.8302 9.43572 10.9618 9.48227Z" fill="#B07F55"/>
<path d="M9.95864 9.83021V10.1271L9.82062 10.2555V9.81416C9.82062 9.77243 9.83827 9.72107 9.86877 9.6665L9.95864 9.83021Z" fill="#B07F55"/>
<path d="M10.3889 9.94586V10.1288L10.2316 10.2765V9.7019L10.3889 9.94586Z" fill="#B07F55"/>
<path d="M10.1755 10.2762L10.0182 10.1285V9.91349L10.1755 9.74658V10.2762Z" fill="#B07F55"/>
<path d="M10.8992 10.0536C10.8623 10.1049 10.766 10.2333 10.6617 10.2879V9.78394C10.6858 9.82406 10.7949 10.0022 10.8992 10.0536Z" fill="#B07F55"/>
<path d="M10.6055 9.81079V10.2762L10.4482 10.1286V9.96487L10.6055 9.81079Z" fill="#B07F55"/>
<path d="M9.95864 10.3057V10.7695L9.82062 10.6411V10.4357L9.95864 10.3057Z" fill="#B07F55"/>
<path d="M10.1755 10.4562V10.6232L10.0182 10.7708V10.3086L10.1755 10.4562Z" fill="#B07F55"/>
<path d="M10.3889 10.3071V10.7694L10.2316 10.6217V10.458L10.3889 10.3071Z" fill="#B07F55"/>
<path d="M10.6055 10.4565V10.6202L10.4482 10.7679V10.3057L10.6055 10.4565Z" fill="#B07F55"/>
<path d="M10.8206 10.7718L10.6633 10.6241V10.4701C10.7178 10.438 10.7724 10.3754 10.8206 10.3096V10.7718Z" fill="#B07F55"/>
<path d="M10.4176 10.9765L10.5845 10.8208V14.6454C10.5845 14.6454 10.5958 14.8364 10.6038 14.9599C10.5283 15.0354 10.2491 15.3178 10.2491 15.3178V10.8208L10.4176 10.9765Z" fill="#B07F55"/>
<path d="M10.1563 15.175C10.1563 15.2986 9.93158 15.5858 9.82245 15.65V10.8224L9.98776 10.9765L10.1547 10.8208V15.175H10.1563Z" fill="#B07F55"/>
<path d="M11.546 14.7611L11.6679 14.676C11.6679 14.676 11.676 14.7162 11.6872 14.7723C11.6358 14.8429 11.3341 15.2538 11.1849 15.4544C11.1479 15.5042 11.1174 15.631 11.1174 15.631C11.1174 15.631 11.0629 15.6053 11.0629 15.5604C11.0629 15.5138 11.0693 15.4609 11.0693 15.4609C11.0693 15.4609 11.0292 15.5074 10.9602 15.5074C10.9602 15.4512 11.0677 15.3902 11.0725 15.3116C10.9891 15.3726 10.9184 15.3405 10.8221 15.371C10.7178 15.4031 10.6889 15.4464 10.6584 15.4448C10.6392 15.4432 10.6215 15.4127 10.6295 15.3902C10.6408 15.3549 10.7708 15.2618 10.8607 15.2442C10.8815 15.241 11.0516 15.2811 11.0853 15.2281C11.2266 15.0099 11.4529 14.66 11.477 14.6247C11.493 14.6215 11.5042 14.6166 11.5155 14.6118C11.5139 14.6102 11.5107 14.7226 11.546 14.7611Z" fill="#D10429"/>
<path d="M10.7594 15.4367C10.7674 15.4447 10.7658 15.4559 10.7578 15.4624L10.7016 15.5105C10.6936 15.5169 10.6824 15.5169 10.6759 15.5073C10.6679 15.4993 10.6695 15.488 10.6775 15.4816L10.7337 15.4335C10.7369 15.4303 10.7417 15.4303 10.7466 15.4303C10.753 15.4287 10.7562 15.4303 10.7594 15.4367Z" fill="#D10429"/>
<path d="M10.8448 15.4945C10.8625 15.5138 10.8609 15.5411 10.8432 15.5555L10.7084 15.6727C10.6907 15.6887 10.6619 15.6839 10.6474 15.6647C10.6298 15.6454 10.6314 15.6181 10.649 15.6037L10.7838 15.4881C10.7903 15.4817 10.7999 15.4785 10.8063 15.4785C10.8207 15.4753 10.8336 15.4833 10.8448 15.4945Z" fill="#D10429"/>
<path d="M10.9217 15.5837C10.9394 15.6029 10.9378 15.6302 10.9201 15.6447L10.7853 15.7618C10.7676 15.7779 10.7404 15.7731 10.7243 15.7538C10.7083 15.7345 10.7083 15.7073 10.7259 15.6928L10.8607 15.5773C10.8672 15.5708 10.8768 15.5676 10.8832 15.5676C10.8944 15.5676 10.9105 15.5724 10.9217 15.5837Z" fill="#D10429"/>
<path d="M10.9682 15.6568C10.981 15.6552 10.997 15.66 11.0067 15.6728C11.0243 15.6921 11.0227 15.7194 11.0051 15.7338L10.8702 15.8494C10.8526 15.8654 10.8253 15.8606 10.8093 15.8414C10.7932 15.8221 10.7916 15.7948 10.8109 15.7804L10.9457 15.6632C10.9505 15.66 10.9585 15.6584 10.9682 15.6568Z" fill="#D10429"/>
<path d="M12.9263 10.1881L13.7817 10.3807C13.8202 10.3694 14.0032 10.3117 14.1316 10.2394C14.3563 10.1143 14.475 9.98907 14.7415 9.97623V9.7724C14.7415 9.66327 14.7029 9.56376 14.7029 9.46105C14.8169 9.43055 15.1299 9.04697 15.4188 8.87524C15.8441 9.15129 16.1763 9.60549 16.1763 9.81253C16.1763 9.81253 16.1634 14.2903 16.1763 15.8503C16.1763 15.9402 16.2309 16.0686 16.2309 16.0686C16.0752 16.0028 15.7895 15.6128 15.7301 15.4635V15.5341C15.4958 15.4266 15.3241 15.1457 15.247 15.0013C15.2454 15.0222 15.2406 15.0751 15.2406 15.0751C15.0304 14.8906 14.7623 13.804 14.7623 13.804L14.3178 14.2406C14.3178 14.2406 14.4799 14.568 14.5408 14.6257C14.5408 14.6257 14.4991 14.6322 14.451 14.6322C14.4799 14.6739 14.7029 14.9965 14.7752 15.1168C14.841 15.2308 14.8875 15.181 14.9886 15.181C15.0721 15.181 15.2615 15.3143 15.2936 15.3672C15.3257 15.4234 15.3513 15.4924 15.3513 15.5502C15.3513 15.6112 15.2855 15.6978 15.2855 15.6978C15.2775 15.6673 15.2663 15.6577 15.2663 15.6577C15.2663 15.6577 15.0929 15.8728 15.0673 15.9017C15.048 15.9225 14.9597 15.9386 14.926 15.9097C14.8474 15.8391 14.772 15.7877 14.7029 15.6866C14.666 15.632 14.6644 15.5727 14.6243 15.5149C14.4863 15.3239 14.2118 14.9596 14.1492 14.8777C14.146 14.9002 14.1412 14.9194 14.138 14.9435C14.0674 14.7991 13.7239 14.5262 13.7239 14.5262L13.366 14.6899C13.366 14.6899 14.0337 16.2243 14.6275 16.4618C14.6275 16.4618 14.3691 16.5709 14.0529 16.7346C14.0064 16.7571 13.9583 16.7844 13.9101 16.8101C13.87 16.7619 13.8267 16.7073 13.7865 16.6544C13.5971 16.4008 13.411 16.1071 13.411 16.1071C13.3981 16.1841 13.4976 16.4185 13.6678 16.7106C13.6999 16.7683 13.7352 16.8277 13.7737 16.8871C13.732 16.9128 13.6886 16.9368 13.6453 16.9625C13.3307 17.1519 13.037 17.3686 12.9263 17.5676L12.8492 17.375L12.9263 17.1824V10.4417L12.8878 10.3454L12.9263 10.1881Z" fill="black"/>
<path d="M12.9262 17.1825C13.0353 17.0638 13.2696 16.9145 13.5296 16.7797C13.2151 16.2148 13.0594 15.3224 13.1332 15.1443C13.1332 15.1443 13.2616 15.6065 13.4205 15.8697C13.5666 16.1136 13.7463 16.3897 13.9213 16.5919C14.0641 16.5309 14.2021 16.4796 14.3225 16.4443C13.8009 16.043 13.2696 14.7174 13.2696 14.7174L13.8201 14.4606C13.8201 14.4606 14.0256 14.7013 14.093 14.7462C14.093 14.7462 14.1219 14.6275 14.1395 14.5841C14.1395 14.5841 14.2182 14.6435 14.2615 14.6451C14.2615 14.6451 14.2743 14.5649 14.284 14.5103C14.3385 14.5472 14.4284 14.5392 14.4284 14.5392C14.3498 14.5007 14.2551 14.2712 14.2551 14.2712L14.7815 13.5714C14.7815 13.5714 14.9661 14.459 15.1763 14.6419V10.8222L15.0094 10.9762L14.7558 10.7419V10.5622L14.9789 10.7724V10.2316C14.9436 10.1818 14.9227 10.1433 14.9051 10.1128C14.8682 10.177 14.751 10.3696 14.6146 10.4883C14.5921 10.3953 14.4429 10.3086 14.4429 10.3086C14.4429 10.3086 14.3883 10.453 14.308 10.49C14.2792 10.4402 14.1074 10.3279 14.1074 10.3279C14.1074 10.3279 14.2535 10.3503 14.3129 10.4049C14.3626 10.3937 14.3771 10.1914 14.3771 10.1914C14.3771 10.1914 14.5921 10.2974 14.6306 10.3728C14.6708 10.3616 14.7366 10.1995 14.7622 10.1337C14.7237 10.1304 14.6724 10.124 14.6018 10.124C14.5408 10.124 14.4605 10.1529 14.3787 10.1914C14.2888 10.2332 14.1941 10.2877 14.109 10.3262C14.0015 10.3744 13.8362 10.3856 13.7896 10.3872C13.8442 10.4258 13.9052 10.4611 13.971 10.4932C13.971 10.4932 13.7126 10.4916 13.5312 10.4001C13.4654 10.3583 13.3996 10.3166 13.3419 10.2669C13.3675 10.3359 13.4061 10.4177 13.4671 10.4883C13.2006 10.4659 13.069 10.3134 13.0305 10.2637C13.0128 10.3102 12.9807 10.3824 12.9326 10.4466H12.8363V16.9948L12.9262 17.1825Z" fill="#B07F55"/>
<path d="M14.8906 9.48227L14.8842 9.60424V9.96375C14.9805 9.93166 15.1025 9.77116 15.1619 9.6877V9.63795C15.1619 9.5914 15.1346 9.5577 15.1137 9.54005L15.1715 9.51918C15.194 9.54486 15.218 9.58338 15.218 9.63153V9.66042L15.3914 9.84659L15.5631 9.58819V9.524C15.5631 9.48227 15.531 9.43412 15.5037 9.40202L15.5615 9.38116C15.5904 9.41807 15.6209 9.46943 15.6209 9.51597V9.56733C15.661 9.60906 15.8167 9.76956 15.8167 9.76956C15.8167 9.76956 15.8953 9.60264 15.9162 9.5561C15.7974 9.39079 15.6016 9.20621 15.4219 9.073C15.4187 9.0714 15.0238 9.43572 14.8906 9.48227Z" fill="#B07F55"/>
<path d="M15.8956 9.83021V10.1271L16.0336 10.2555V9.81416C16.0336 9.77243 16.0159 9.72107 15.9854 9.6665L15.8956 9.83021Z" fill="#B07F55"/>
<path d="M15.4653 9.94586V10.1288L15.6226 10.2765V9.7019L15.4653 9.94586Z" fill="#B07F55"/>
<path d="M15.6787 10.2762L15.836 10.1285V9.91349L15.6787 9.74658V10.2762Z" fill="#B07F55"/>
<path d="M14.9548 10.0536C14.9917 10.1049 15.088 10.2333 15.1924 10.2879V9.78394C15.1683 9.82406 15.0592 10.0022 14.9548 10.0536Z" fill="#B07F55"/>
<path d="M15.2471 9.81079V10.2762L15.4044 10.1286V9.96487L15.2471 9.81079Z" fill="#B07F55"/>
<path d="M15.8956 10.3057V10.7695L16.0336 10.6411V10.4357L15.8956 10.3057Z" fill="#B07F55"/>
<path d="M15.6787 10.4562V10.6232L15.836 10.7708V10.3086L15.6787 10.4562Z" fill="#B07F55"/>
<path d="M15.4653 10.3071V10.7694L15.6226 10.6217V10.458L15.4653 10.3071Z" fill="#B07F55"/>
<path d="M15.25 10.4565V10.6202L15.4073 10.7679V10.3057L15.25 10.4565Z" fill="#B07F55"/>
<path d="M15.0336 10.7718L15.1909 10.6241V10.4701C15.1363 10.438 15.0818 10.3754 15.0336 10.3096V10.7718Z" fill="#B07F55"/>
<path d="M15.4362 10.9765L15.2693 10.8208V14.6454C15.2693 14.6454 15.258 14.8364 15.25 14.9599C15.3254 15.0354 15.6047 15.3178 15.6047 15.3178V10.8208L15.4362 10.9765Z" fill="#B07F55"/>
<path d="M15.6996 15.175C15.6996 15.2986 15.9243 15.5858 16.0334 15.65V10.8224L15.8681 10.9765L15.7012 10.8208L15.6996 15.175Z" fill="#B07F55"/>
<path d="M14.3079 14.7611L14.1859 14.676C14.1859 14.676 14.1779 14.7162 14.1666 14.7723C14.218 14.8429 14.5197 15.2538 14.669 15.4544C14.7059 15.5042 14.7364 15.631 14.7364 15.631C14.7364 15.631 14.7909 15.6053 14.7909 15.5604C14.7909 15.5138 14.7845 15.4609 14.7845 15.4609C14.7845 15.4609 14.8247 15.5074 14.8937 15.5074C14.8937 15.4512 14.7861 15.3902 14.7813 15.3116C14.8648 15.3726 14.9354 15.3405 15.0317 15.371C15.136 15.4031 15.1649 15.4464 15.1954 15.4448C15.2147 15.4432 15.2323 15.4127 15.2243 15.3902C15.213 15.3549 15.083 15.2618 14.9932 15.2442C14.9723 15.241 14.8022 15.2811 14.7685 15.2281C14.6272 15.0099 14.4009 14.66 14.3769 14.6247C14.3608 14.6215 14.3496 14.6166 14.3384 14.6118C14.34 14.6102 14.3416 14.7226 14.3079 14.7611Z" fill="#D10429"/>
<path d="M15.0929 15.4367C15.0848 15.4447 15.0864 15.4559 15.0945 15.4624L15.1506 15.5105C15.1587 15.5169 15.1699 15.5169 15.1763 15.5073C15.1843 15.4993 15.1827 15.488 15.1747 15.4816L15.1185 15.4335C15.1153 15.4303 15.1105 15.4303 15.1057 15.4303C15.1009 15.4287 15.0977 15.4303 15.0929 15.4367Z" fill="#D10429"/>
<path d="M15.0094 15.4945C14.9917 15.5138 14.9933 15.5411 15.011 15.5555L15.1458 15.6727C15.1634 15.6887 15.1923 15.6839 15.2068 15.6647C15.2244 15.6454 15.2228 15.6181 15.2052 15.6037L15.0703 15.4881C15.0639 15.4817 15.0543 15.4785 15.0479 15.4785C15.0334 15.4753 15.0206 15.4833 15.0094 15.4945Z" fill="#D10429"/>
<path d="M14.9324 15.5837C14.9147 15.6029 14.9163 15.6302 14.934 15.6447L15.0688 15.7618C15.0865 15.7779 15.1138 15.7731 15.1298 15.7538C15.1459 15.7345 15.1459 15.7073 15.1282 15.6928L14.9934 15.5773C14.987 15.5708 14.9773 15.5676 14.9709 15.5676C14.9581 15.5676 14.9436 15.5724 14.9324 15.5837Z" fill="#D10429"/>
<path d="M14.8857 15.6568C14.8729 15.6552 14.8568 15.66 14.8472 15.6728C14.8295 15.6921 14.8311 15.7194 14.8488 15.7338L14.9836 15.8494C15.0012 15.8654 15.0285 15.8606 15.0446 15.8414C15.0622 15.8221 15.0622 15.7948 15.043 15.7804L14.9082 15.6632C14.9033 15.66 14.8953 15.6584 14.8857 15.6568Z" fill="#D10429"/>
<path d="M12.7288 8.31166C12.9503 8.31166 13.1043 8.41117 13.3146 8.50426C13.3692 8.52994 13.4205 8.5492 13.4655 8.56364C13.4366 8.58932 13.4157 8.61339 13.4093 8.63426C13.4093 8.63426 13.504 8.65191 13.5457 8.73055C13.5457 8.73055 13.4574 8.74018 13.4414 8.79154C13.4911 8.79475 13.5409 8.85895 13.5409 8.91833L13.4141 8.87981C13.4141 8.87981 13.4446 9.02265 13.4446 9.17673C13.4446 9.25537 13.3306 9.34846 13.3306 9.48167C13.3306 9.89895 13.4366 10.0611 13.512 10.1911C13.5409 10.2408 13.5666 10.3002 13.6147 10.3435C13.3997 10.228 13.2376 10.0851 13.2376 9.95031V9.44315H13.1814V9.95031C13.1814 10.0466 13.2039 10.0932 13.2039 10.0932C13.2392 10.2007 13.3066 10.366 13.3483 10.4318C13.1493 10.3243 13.0482 10.1894 13.0482 10.1397V9.44475H12.992V10.1493L13.0032 10.1975C12.9776 10.2344 12.9471 10.2761 12.9262 10.2922C12.9053 10.2761 12.8748 10.2344 12.8508 10.1975L12.862 10.1493V9.44475H12.8074V10.1397C12.8074 10.1894 12.7079 10.3243 12.5073 10.4318C12.549 10.3644 12.6197 10.2007 12.6518 10.0932C12.6518 10.0932 12.6742 10.0482 12.6742 9.95031V9.44315H12.618V9.95031C12.618 10.0835 12.4576 10.228 12.2425 10.3435C12.2906 10.2986 12.3163 10.2408 12.3452 10.1911C12.4287 10.0498 12.5282 9.87006 12.5282 9.35648C12.5282 9.16389 12.4993 9.03228 12.4511 8.94241C12.4351 8.91191 12.4158 8.83327 12.5298 8.83327C12.5892 8.83327 12.7256 8.9392 12.7256 8.9392C12.7256 8.9392 12.7192 8.85413 12.6501 8.80599C12.6389 8.79796 12.6197 8.77389 12.6197 8.74981C12.6197 8.73216 12.6501 8.69043 12.6742 8.6792C12.6903 8.67117 12.4399 8.62944 12.4399 8.51549C12.4399 8.49302 12.4559 8.47697 12.5073 8.47697C12.5747 8.47697 12.6871 8.55722 12.785 8.55722C12.8588 8.55722 12.8877 8.53957 12.9615 8.53957C13.0514 8.53957 13.2424 8.7129 13.3082 8.70648C13.2343 8.65994 13.1172 8.4866 12.9406 8.4866C12.8797 8.4866 12.8235 8.49944 12.7657 8.49944C12.6919 8.49944 12.6197 8.43203 12.5378 8.43203C12.4832 8.43203 12.4239 8.43524 12.4158 8.4208C12.3998 8.39512 12.4142 8.38228 12.4287 8.36302C12.456 8.3245 12.533 8.31487 12.6084 8.31166C12.6309 8.31166 12.6534 8.31006 12.6742 8.31006C12.6935 8.31166 12.7127 8.31166 12.7288 8.31166Z" fill="#B07F55"/>
<path d="M12.0114 8.58342C12.0114 8.58342 12.0579 8.49515 12.1751 8.49515C12.2248 8.49515 12.3869 8.49194 12.3869 8.49194C12.4078 8.54812 12.5057 8.64281 12.5057 8.74071C12.5057 8.74071 12.4062 8.55935 12.1269 8.55935C12.0579 8.55935 12.0114 8.58342 12.0114 8.58342Z" fill="#CC092F"/>
<path d="M12.4671 8.77429C12.4671 8.77429 12.4077 8.83848 12.3932 8.87058C12.3339 8.84811 12.2311 8.74219 12.2311 8.74219C12.2311 8.74219 12.3194 8.79355 12.4671 8.77429Z" fill="#D10429"/>
<path d="M12.3726 8.60874C12.3726 8.60874 12.3036 8.58788 12.3036 8.5638C12.3036 8.53492 12.3357 8.53492 12.3582 8.55738C12.3726 8.57183 12.3726 8.60874 12.3726 8.60874Z" fill="black"/>
<path d="M12.6694 8.68801C12.7235 8.68801 12.7673 8.65352 12.7673 8.61097C12.7673 8.56843 12.7235 8.53394 12.6694 8.53394C12.6154 8.53394 12.5715 8.56843 12.5715 8.61097C12.5715 8.65352 12.6154 8.68801 12.6694 8.68801Z" fill="black"/>
<path d="M12.6694 8.67928C12.7075 8.67928 12.7384 8.64839 12.7384 8.61027C12.7384 8.57216 12.7075 8.54126 12.6694 8.54126C12.6312 8.54126 12.6003 8.57216 12.6003 8.61027C12.6003 8.64839 12.6312 8.67928 12.6694 8.67928Z" fill="#F5D402"/>
<path d="M12.6695 8.63981C12.6854 8.63981 12.6983 8.62688 12.6983 8.61092C12.6983 8.59497 12.6854 8.58203 12.6695 8.58203C12.6535 8.58203 12.6406 8.59497 12.6406 8.61092C12.6406 8.62688 12.6535 8.63981 12.6695 8.63981Z" fill="black"/>
<path d="M11.1013 15.7344L11.4127 15.9045L11.3357 16.2512L11.0243 16.081L11.1013 15.7344Z" fill="black"/>
<path d="M9.64732 12.3962L9.53497 12.4476L10.8045 15.2306H10.9393L9.64732 12.3962ZM11.1447 15.6784L11.0516 15.773L11.1094 15.8998L11.2218 15.8485L11.1447 15.6784Z" fill="black"/>
<path d="M10.0422 14.5911C10.0422 14.5911 10.1498 14.8125 10.2316 14.8414C10.1899 14.8302 10.0519 14.88 10.0519 14.88C10.0519 14.88 10.2926 15.095 10.4964 15.1095C10.6698 15.1207 10.7548 15.034 10.7548 15.034L10.7195 14.8511C10.7195 14.8511 10.6136 14.7243 10.4435 14.6649C10.2733 14.6071 10.0422 14.5911 10.0422 14.5911Z" fill="black"/>
<path d="M10.8493 14.1934C10.8493 14.1934 10.7016 14.3201 10.6599 14.4662C10.6198 14.6122 10.6872 14.7776 10.6872 14.7776L10.8108 15.0087C10.8108 15.0087 10.9825 14.9156 11.0547 14.7792C11.1285 14.6427 11.1013 14.4582 11.1013 14.4582C11.1013 14.4582 10.9648 14.5079 10.9472 14.532C10.9777 14.3827 10.8493 14.1934 10.8493 14.1934Z" fill="black"/>
<path d="M10.3729 14.1356C10.3729 14.1356 10.206 14.1918 10.0423 14.1822C9.88659 14.1726 9.75659 14.041 9.75659 14.041C9.75659 14.041 9.88499 13.9543 9.94918 13.9655C9.88017 13.9398 9.77746 13.7649 9.77746 13.7649C9.77746 13.7649 9.9219 13.72 10.0487 13.7681C10.1755 13.8163 10.2878 13.9575 10.2878 13.9575L10.3729 14.1356Z" fill="black"/>
<path d="M10.4306 13.3159C10.4306 13.3159 10.5157 13.4893 10.4948 13.5502C10.5221 13.5101 10.62 13.4475 10.62 13.4475C10.62 13.4475 10.6794 13.7284 10.6216 13.9033C10.5639 14.0767 10.3905 14.1441 10.3905 14.1441L10.1995 13.7717C10.1995 13.7717 10.1706 13.6337 10.23 13.5246C10.2926 13.4138 10.4306 13.3159 10.4306 13.3159Z" fill="black"/>
<path d="M9.3393 12.856C9.3393 12.856 9.52065 12.8367 9.68757 12.9057C9.82559 12.9635 9.86892 13.0678 9.86892 13.0678L9.93794 13.2508C9.93794 13.2508 9.73892 13.3246 9.58325 13.2685C9.42757 13.2123 9.31201 13.0245 9.31201 13.0245C9.31201 13.0245 9.42115 12.9844 9.46288 12.9988C9.40028 12.9715 9.3393 12.856 9.3393 12.856Z" fill="black"/>
<path d="M9.909 12.5146C9.909 12.5146 9.98764 12.6174 9.99245 12.7345C10.0133 12.6735 10.1144 12.6029 10.1144 12.6029C10.1144 12.6029 10.2171 12.8517 10.1931 13.0266C10.1706 13.2016 10.0229 13.3059 10.0229 13.3059L9.83999 12.9576C9.83999 12.9576 9.78061 12.8148 9.79826 12.704C9.81431 12.5933 9.909 12.5146 9.909 12.5146Z" fill="black"/>
<path d="M9.28153 11.8479C9.28153 11.8479 9.24943 12.0389 9.304 12.1464C9.35375 12.2443 9.38746 12.2652 9.38746 12.2652C9.29116 12.201 9.14832 12.1962 9.14832 12.1962C9.14832 12.1962 9.19967 12.4016 9.32165 12.4963C9.44363 12.591 9.63302 12.5669 9.63302 12.5669C9.63302 12.5669 9.7582 12.4016 9.74857 12.2218C9.74055 12.0421 9.59771 11.8527 9.59771 11.8527C9.59771 11.8527 9.54153 11.9683 9.53672 12.0549C9.50141 11.9699 9.28153 11.8479 9.28153 11.8479Z" fill="black"/>
<path d="M10.7643 15.028L10.7707 15.0954C10.8846 15.097 10.9023 15.0857 10.9312 15.1211C10.9504 15.1435 10.997 15.166 11.0435 15.1435C11.0901 15.1227 11.1109 15.0665 11.0901 15.0199C11.0692 14.9734 11.0259 14.9638 10.9842 14.9718C10.9585 14.9782 10.9424 14.9975 10.92 15.0087C10.8734 15.0312 10.7643 15.028 10.7643 15.028Z" fill="black"/>
<path d="M10.7532 14.9761L10.8094 15.0162C10.75 15.1125 10.7324 15.1205 10.7452 15.1639C10.7548 15.1927 10.7484 15.2425 10.7067 15.2714C10.665 15.3003 10.6072 15.2874 10.5783 15.2441C10.5494 15.2024 10.5654 15.159 10.5943 15.1285C10.612 15.1093 10.6393 15.1061 10.6601 15.0932C10.6987 15.0724 10.7532 14.9761 10.7532 14.9761Z" fill="black"/>
<path d="M10.3713 14.1674L10.3777 14.2348C10.4917 14.2364 10.5093 14.2251 10.5382 14.2604C10.5575 14.2829 10.604 14.3054 10.6506 14.2829C10.6971 14.262 10.718 14.2059 10.6971 14.1593C10.6762 14.1128 10.6329 14.1032 10.5912 14.1112C10.5655 14.1176 10.5494 14.1369 10.527 14.1481C10.4804 14.1722 10.3697 14.1674 10.3713 14.1674Z" fill="black"/>
<path d="M10.3922 14.1912L10.4403 14.2393C10.3665 14.326 10.3472 14.3324 10.3552 14.3757C10.3617 14.4062 10.3456 14.4544 10.2991 14.4752C10.2525 14.4961 10.1964 14.4752 10.1755 14.4287C10.1546 14.3821 10.1755 14.3436 10.2076 14.3163C10.2285 14.3003 10.2541 14.3003 10.2766 14.2907C10.3231 14.2778 10.3922 14.1912 10.3922 14.1912Z" fill="black"/>
<path d="M9.98938 13.3595L9.9958 13.4269C10.1098 13.4285 10.1274 13.4173 10.1563 13.4526C10.1756 13.475 10.2221 13.4975 10.2687 13.475C10.3152 13.4542 10.3361 13.398 10.3152 13.3515C10.2943 13.3049 10.251 13.2953 10.2093 13.3033C10.1836 13.3097 10.1675 13.329 10.1451 13.3402C10.1001 13.3643 9.98938 13.3595 9.98938 13.3595Z" fill="black"/>
<path d="M10.0213 13.3469L10.0695 13.3951C9.99563 13.4817 9.97637 13.4882 9.9844 13.5315C9.99081 13.562 9.97477 13.6101 9.92822 13.631C9.88168 13.6519 9.82551 13.631 9.80465 13.5845C9.78378 13.5379 9.80465 13.4994 9.83674 13.4721C9.85761 13.4561 9.88329 13.4561 9.90575 13.4464C9.95069 13.4336 10.0213 13.3469 10.0213 13.3469Z" fill="black"/>
<path d="M9.58313 12.5087L9.58955 12.5761C9.7035 12.5777 9.72115 12.5664 9.75004 12.6018C9.7693 12.6242 9.81584 12.6467 9.86238 12.6242C9.90892 12.6034 9.92979 12.5472 9.90892 12.5006C9.88806 12.4541 9.84473 12.4445 9.803 12.4525C9.77732 12.4589 9.76127 12.4782 9.7388 12.4894C9.69547 12.5119 9.58313 12.5087 9.58313 12.5087Z" fill="black"/>
<path d="M9.61347 12.4963L9.66162 12.5445C9.58779 12.6312 9.56853 12.6376 9.57656 12.6809C9.58298 12.7114 9.56693 12.7596 9.52039 12.7804C9.47384 12.8013 9.41767 12.7804 9.39681 12.7339C9.37594 12.6873 9.39681 12.6488 9.42891 12.6215C9.44977 12.6055 9.47545 12.6055 9.49792 12.5958C9.54446 12.583 9.61347 12.4963 9.61347 12.4963Z" fill="black"/>
<path d="M11.1449 15.8325L11.3407 15.9368L11.2925 16.1519L11.0999 16.046L11.1449 15.8325Z" fill="#F5D402"/>
<path d="M10.2972 13.9652C10.2571 13.9828 10.1977 13.8047 10.1528 13.7084C10.1063 13.6089 10.0164 13.4564 10.0405 13.4452C10.0693 13.4324 10.1079 13.5126 10.1544 13.6153C10.2009 13.7148 10.3358 13.9507 10.2972 13.9652Z" fill="#F5D402"/>
<path d="M9.88164 13.0352C9.84151 13.0528 9.79658 12.9373 9.75324 12.8394C9.7067 12.7399 9.66497 12.6692 9.68904 12.658C9.71793 12.6452 9.75966 12.7318 9.79658 12.8137C9.83349 12.8923 9.92016 13.0191 9.88164 13.0352Z" fill="#F5D402"/>
<path d="M10.8446 15.1437C10.8125 15.1518 10.6729 14.8613 10.5622 14.6157C10.4498 14.3686 10.3664 14.1712 10.3921 14.1599C10.4209 14.1471 10.5108 14.3798 10.6232 14.6254C10.7371 14.8693 10.8703 15.1373 10.8446 15.1437Z" fill="#F5D402"/>
<path d="M9.3377 11.9626C9.3377 11.9626 9.33128 12.1007 9.37783 12.1809C9.42438 12.2596 9.5255 12.2901 9.5255 12.2901C9.5255 12.2901 9.53192 12.152 9.48537 12.0718C9.43882 11.9947 9.3377 11.9626 9.3377 11.9626Z" fill="#097754"/>
<path d="M9.24115 12.2778C9.24115 12.2778 9.36313 12.2859 9.43214 12.3372C9.50115 12.3918 9.52843 12.5009 9.52843 12.5009C9.52843 12.5009 9.44979 12.5089 9.37757 12.456C9.30856 12.403 9.24115 12.2778 9.24115 12.2778Z" fill="#097754"/>
<path d="M9.61853 11.9968C9.61853 11.9968 9.57841 12.0899 9.58323 12.1878C9.58644 12.2857 9.64421 12.3981 9.64421 12.3981C9.64421 12.3981 9.69557 12.2793 9.69236 12.1798C9.68755 12.0819 9.63137 12.0257 9.61853 11.9968Z" fill="#097754"/>
<path d="M9.4162 12.89C9.4162 12.89 9.47558 12.9735 9.56706 13.0168C9.65694 13.0618 9.79496 13.0634 9.79496 13.0634C9.79496 13.0634 9.72756 12.9751 9.63768 12.9302C9.54299 12.8852 9.4162 12.89 9.4162 12.89Z" fill="#097754"/>
<path d="M9.44507 13.0835C9.44507 13.0835 9.49001 13.1686 9.56865 13.2055C9.64729 13.2424 9.811 13.2376 9.811 13.2376C9.811 13.2376 9.75001 13.1589 9.66816 13.122C9.58951 13.0851 9.44507 13.0835 9.44507 13.0835Z" fill="#097754"/>
<path d="M9.90245 12.6277C9.90245 12.6277 9.8543 12.7063 9.85751 12.7946C9.86072 12.8813 9.9185 12.9776 9.9185 12.9776C9.9185 12.9776 9.95861 12.8684 9.9554 12.7818C9.9538 12.6935 9.90245 12.6277 9.90245 12.6277Z" fill="#097754"/>
<path d="M10.0808 12.7397C10.0808 12.7397 9.9973 12.8489 9.98607 12.9628C9.97483 13.0768 10.0326 13.1923 10.0326 13.1923C10.0326 13.1923 10.1321 13.0928 10.145 12.9789C10.1562 12.8665 10.0808 12.7397 10.0808 12.7397Z" fill="#097754"/>
<path d="M9.85291 13.788C9.85291 13.788 9.86253 13.8281 9.89784 13.8731C9.93315 13.918 9.99093 13.9613 9.99093 13.9613C9.99093 13.9613 10.0471 13.9437 10.1177 13.9581C10.1883 13.9742 10.2814 14.0367 10.2814 14.0367C10.2814 14.0367 10.1819 13.8859 10.076 13.8265C9.97007 13.7687 9.85291 13.788 9.85291 13.788Z" fill="#097754"/>
<path d="M9.8418 14.0485C9.8418 14.0485 9.9734 13.9923 10.0809 14.0068C10.1885 14.0196 10.2848 14.1063 10.2848 14.1063C10.2848 14.1063 10.1387 14.156 10.0312 14.1432C9.92525 14.1271 9.8418 14.0485 9.8418 14.0485Z" fill="#097754"/>
<path d="M10.3969 13.4395C10.3969 13.4395 10.2813 13.563 10.2717 13.669C10.2621 13.7749 10.3664 13.8744 10.3664 13.8744C10.3664 13.8744 10.3599 13.807 10.3792 13.7604C10.3969 13.7155 10.4354 13.6674 10.4354 13.6674C10.4354 13.6674 10.4514 13.6128 10.445 13.5695C10.4322 13.5069 10.3969 13.4395 10.3969 13.4395Z" fill="#097754"/>
<path d="M10.5623 13.5813C10.5623 13.5813 10.4532 13.6904 10.4243 13.8108C10.3954 13.928 10.4468 14.0548 10.4468 14.0548C10.4468 14.0548 10.5447 13.9761 10.5736 13.859C10.6024 13.7402 10.5623 13.5813 10.5623 13.5813Z" fill="#097754"/>
<path d="M10.8349 14.292C10.8349 14.292 10.8847 14.3963 10.8959 14.4814C10.9088 14.568 10.8959 14.5969 10.8959 14.5969C10.8959 14.5969 10.8446 14.6467 10.8221 14.6756C10.7932 14.7141 10.7868 14.7831 10.7868 14.7831C10.7868 14.7831 10.6841 14.6306 10.7001 14.5199C10.7178 14.4092 10.8349 14.292 10.8349 14.292Z" fill="#097754"/>
<path d="M11.0519 14.5308C11.0519 14.5308 10.9203 14.6174 10.8689 14.7057C10.8175 14.794 10.8432 14.8854 10.8432 14.8854C10.8432 14.8854 10.9379 14.8774 10.9893 14.7891C11.039 14.7009 11.0519 14.5308 11.0519 14.5308Z" fill="#097754"/>
<path d="M10.1882 14.8976C10.1882 14.8976 10.3776 14.8912 10.4932 14.92C10.6087 14.9489 10.6505 15.0099 10.6505 15.0099C10.6505 15.0099 10.5188 15.0709 10.4033 15.042C10.2877 15.0163 10.1882 14.8976 10.1882 14.8976Z" fill="#097754"/>
<path d="M10.156 14.6738C10.156 14.6738 10.2411 14.807 10.3518 14.8552C10.5043 14.921 10.6792 14.8905 10.6792 14.8905C10.6792 14.8905 10.5829 14.7733 10.4513 14.7204C10.3213 14.6674 10.156 14.6738 10.156 14.6738Z" fill="#097754"/>
<path d="M16.6338 12.074L16.6594 12.1254C16.6594 12.1254 16.6193 12.1382 16.6017 12.1751C16.584 12.2105 16.6129 12.2618 16.6129 12.2618C16.6129 12.2618 16.4043 12.2442 16.3722 12.265C16.3433 12.2843 16.3834 12.4287 16.3641 12.5507C16.3368 12.7208 16.2694 12.7064 16.2678 12.7401C16.2662 12.7722 16.2935 12.8203 16.2935 12.8203C16.2935 12.8203 16.255 12.8316 16.2454 12.8492C16.2325 12.8765 16.255 12.9246 16.2373 12.9551C16.1475 13.1317 16.0143 13.3949 15.926 13.5682C15.9147 13.5939 15.8794 13.6003 15.865 13.634C15.8489 13.6645 15.8618 13.7079 15.8618 13.7079C15.8618 13.7079 15.804 13.7111 15.7831 13.7528C15.7623 13.7945 15.7735 13.8523 15.7735 13.8523C15.7735 13.8523 15.7366 13.8555 15.7173 13.8924C15.6981 13.9309 15.7302 13.9502 15.7238 13.9679C15.605 14.2006 15.4654 14.4766 15.3787 14.6435C15.3482 14.7045 15.2375 14.7174 15.1733 14.8426C15.1123 14.9645 15.2005 15.0544 15.2005 15.0544C15.2005 15.0544 15.1075 15.0624 15.085 15.1106C15.0593 15.1587 15.0786 15.2342 15.146 15.2663C15.2118 15.3016 15.284 15.2727 15.3097 15.2245C15.3354 15.1764 15.284 15.0977 15.284 15.0977C15.284 15.0977 15.4092 15.1154 15.4702 14.9934C15.5344 14.8682 15.4798 14.7735 15.5119 14.7126C15.597 14.5456 15.7366 14.2696 15.857 14.0369C15.865 14.0192 15.9019 14.0353 15.9212 13.9967C15.9388 13.9598 15.9212 13.9293 15.9212 13.9293C15.9212 13.9293 15.9757 13.9069 15.9966 13.8635C16.0175 13.8234 15.9854 13.7737 15.9854 13.7737C15.9854 13.7737 16.0271 13.7576 16.0431 13.7271C16.0608 13.695 16.0464 13.6613 16.0608 13.6388C16.1491 13.4655 16.2823 13.2039 16.3722 13.0258C16.3882 12.9937 16.4412 12.984 16.4524 12.9567C16.4604 12.9407 16.446 12.9006 16.446 12.9006C16.446 12.9006 16.5038 12.8942 16.5262 12.8733C16.5519 12.8524 16.5006 12.8059 16.6225 12.6839C16.7092 12.5972 16.8504 12.5459 16.8472 12.5106C16.8456 12.4721 16.7092 12.3148 16.7092 12.3148C16.7092 12.3148 16.767 12.3084 16.7846 12.2746C16.8023 12.2393 16.791 12.1976 16.791 12.1976L16.8488 12.188V11.9167L16.6338 12.074ZM14.7447 15.8505C14.7367 15.8681 14.7351 15.8906 14.7447 15.9098C14.7447 15.9098 14.6757 15.889 14.6516 15.9002C14.6292 15.9114 14.6516 16.2372 14.6516 16.2372C14.6516 16.2372 14.9277 16.0639 14.9229 16.0382C14.9197 16.0109 14.8619 15.9692 14.8619 15.9692C14.8844 15.966 14.902 15.9516 14.91 15.9339C14.9197 15.9163 14.9197 15.8649 14.8587 15.8344C14.8362 15.8232 14.8137 15.8184 14.7977 15.8216C14.7688 15.8232 14.7512 15.8392 14.7447 15.8505Z" fill="black"/>
<path d="M16.6851 12.0847L16.8167 12.1506L16.8151 11.9949L16.6851 12.0847Z" fill="#F5D402"/>
<path d="M16.6338 12.1806C16.6161 12.2127 16.6338 12.256 16.6707 12.2753C16.7076 12.2945 16.7494 12.2833 16.767 12.2496C16.7847 12.2175 16.767 12.1742 16.7301 12.1549C16.7173 12.1469 16.7012 12.1453 16.6884 12.1453C16.6659 12.1469 16.6466 12.1613 16.6338 12.1806Z" fill="#F5D402"/>
<path d="M16.4106 12.2992C16.3977 12.3088 16.417 12.4244 16.4122 12.5239C16.409 12.6186 16.3769 12.6459 16.3624 12.6764C16.3464 12.7053 16.2934 12.7422 16.2934 12.7422L16.3399 12.7887C16.3399 12.7887 16.3688 12.7422 16.4154 12.6523C16.4699 12.5448 16.4699 12.3506 16.4844 12.3409C16.4972 12.3313 16.6128 12.304 16.6128 12.304C16.6128 12.304 16.5085 12.2976 16.4507 12.2976C16.4282 12.2976 16.4154 12.2976 16.4106 12.2992Z" fill="#F5D402"/>
<path d="M16.4219 12.8397C16.4219 12.8397 16.438 12.798 16.4893 12.6936C16.5535 12.5684 16.69 12.4786 16.6916 12.4545C16.6948 12.432 16.6434 12.3213 16.6434 12.3213C16.6434 12.3213 16.5246 12.3438 16.507 12.3598C16.4893 12.3759 16.4973 12.5396 16.4331 12.6647C16.3818 12.7691 16.3545 12.8076 16.3545 12.8076L16.4219 12.8397Z" fill="#F5D402"/>
<path d="M16.73 12.4646C16.7316 12.4838 16.5727 12.5978 16.5181 12.7037C16.4716 12.7936 16.4523 12.8466 16.4523 12.8466L16.5165 12.8562C16.5165 12.8562 16.5133 12.7904 16.5278 12.7615C16.5454 12.7294 16.5486 12.6909 16.6225 12.6299C16.7011 12.5689 16.807 12.5143 16.8054 12.4967C16.8054 12.4806 16.6883 12.3362 16.6883 12.3362C16.6883 12.3362 16.7284 12.4501 16.73 12.4646Z" fill="#F5D402"/>
<path d="M16.2662 13.1665C16.3609 12.9803 16.3898 12.9675 16.4026 12.9434C16.4155 12.9193 16.4123 12.884 16.3705 12.8631C16.3545 12.8551 16.3416 12.8535 16.3304 12.8535C16.3112 12.8551 16.2951 12.8696 16.2887 12.884C16.2775 12.9065 16.2823 12.9402 16.1892 13.1247L15.9741 13.5484C15.9741 13.5484 15.9517 13.5902 15.9934 13.6126C16.0351 13.6335 16.0544 13.5918 16.0544 13.5918L16.2662 13.1665Z" fill="#F5D402"/>
<path d="M15.8856 13.6534C15.8743 13.6759 15.8936 13.7112 15.9321 13.7289C15.969 13.7481 16.0091 13.7449 16.0204 13.7208C16.0316 13.6984 16.0107 13.6631 15.9738 13.6454C15.9546 13.6358 15.9369 13.6326 15.9193 13.6342C15.9016 13.6358 15.8904 13.6422 15.8856 13.6534Z" fill="#F5D402"/>
<path d="M15.8037 13.7738C15.7877 13.8043 15.8118 13.8477 15.8583 13.8701C15.9032 13.8926 15.9514 13.8878 15.9658 13.8573C15.9819 13.8268 15.9578 13.7835 15.9113 13.761C15.8936 13.753 15.8792 13.7482 15.8615 13.7482C15.8374 13.745 15.8134 13.7546 15.8037 13.7738Z" fill="#F5D402"/>
<path d="M15.7543 13.9069C15.7431 13.9293 15.7624 13.9646 15.8009 13.9823C15.8378 14.0016 15.8779 13.9984 15.8891 13.9743C15.9004 13.9518 15.8811 13.9165 15.8426 13.8988C15.8233 13.8892 15.8041 13.886 15.788 13.8876C15.7736 13.8892 15.7608 13.8956 15.7543 13.9069Z" fill="#F5D402"/>
<path d="M15.7219 14.0361C15.7219 14.0361 15.4828 14.5079 15.3978 14.6732C15.3705 14.7278 15.2565 14.7599 15.2132 14.8466C15.1683 14.9348 15.2004 15.0167 15.2597 15.0472C15.3175 15.0761 15.4042 15.0552 15.4491 14.9685C15.494 14.8819 15.4523 14.7679 15.4796 14.7166C15.5647 14.5513 15.8038 14.0794 15.8038 14.0794C15.8038 14.0794 15.8263 14.0377 15.7845 14.0152C15.7733 14.0088 15.7653 14.0088 15.7572 14.0088C15.7332 14.0104 15.7219 14.0361 15.7219 14.0361Z" fill="#F5D402"/>
<path d="M15.1153 15.1299C15.0976 15.1652 15.1169 15.2133 15.1618 15.2342C15.2067 15.2567 15.2565 15.2454 15.2741 15.2117C15.2918 15.1764 15.2709 15.1283 15.226 15.1074C15.2083 15.0994 15.1939 15.0962 15.1762 15.0962C15.1506 15.0962 15.1265 15.109 15.1153 15.1299Z" fill="#F5D402"/>
<path d="M14.7976 15.8515C14.7848 15.8515 14.7719 15.8547 14.7687 15.8643C14.7591 15.882 14.7784 15.9108 14.8105 15.9285C14.8426 15.9462 14.8779 15.9445 14.8859 15.9253C14.8955 15.9076 14.8763 15.8788 14.8442 15.8611C14.8265 15.8531 14.8105 15.8499 14.7976 15.8515Z" fill="#F5D402"/>
<path d="M14.6837 15.94V16.1728L14.8731 16.0363C14.8731 16.0363 14.8474 15.9898 14.7896 15.9625C14.7351 15.9352 14.6837 15.94 14.6837 15.94Z" fill="#F5D402"/>
<path d="M14.8023 10.758C14.8023 10.6312 14.9692 10.5044 14.9692 10.5044H10.8831C10.8831 10.5044 11.05 10.6296 11.05 10.758V13.801C11.05 13.8812 11.0756 13.9342 11.1142 13.9839C11.1527 14.0401 11.2377 14.1155 11.3244 14.1701C11.5924 14.345 12.0402 14.528 12.3821 14.6821C12.6645 14.8105 12.7801 14.8634 12.9277 15.0448C13.0738 14.8618 13.191 14.8105 13.475 14.6821C13.8137 14.528 14.2631 14.3434 14.5327 14.1701C14.6194 14.1139 14.7044 14.0369 14.7429 13.9839C14.7815 13.9342 14.8071 13.8796 14.8071 13.801L14.8023 10.758Z" fill="#F5D402"/>
<path d="M11.1478 12.4806V10.7585C11.1478 10.6606 11.0981 10.6028 11.0981 10.6028H14.7557C14.7557 10.6028 14.706 10.6622 14.706 10.7585L14.7076 12.4806L12.9277 13.0198L11.1478 12.4806Z" fill="#D10429"/>
<path d="M14.7078 12.4798L13.6068 12.459H12.2507L11.1497 12.4798V13.8007C11.1497 13.8665 11.2187 14.0222 11.6151 14.2212C12.2715 14.5486 12.7771 14.7011 12.9279 14.8873C13.0804 14.7011 13.5844 14.5486 14.2408 14.2212C14.6372 14.0222 14.7062 13.8665 14.7062 13.8007V12.4798H14.7078Z" fill="#0B45BB"/>
<path d="M13.5793 12.4113C13.5793 12.4113 14.2149 12.2508 14.2149 11.5719C14.2149 11.0406 13.5777 10.779 13.5601 10.6506C13.4991 10.8705 13.7735 11.1722 13.7735 11.5301C13.7735 11.994 13.4301 12.0148 13.4301 12.0148C13.3498 12.0148 13.3177 12.0726 13.2856 12.0726C13.2182 12.0646 13.1877 11.9795 13.1203 11.9795C13.0593 11.9795 13.0112 12.0758 12.9277 12.0758C12.8443 12.0758 12.7993 11.9795 12.7351 11.9795C12.6677 11.9795 12.6372 12.0646 12.5698 12.0726C12.5393 12.0726 12.5056 12.0148 12.4254 12.0148C12.4254 12.0148 12.0819 11.9924 12.0819 11.5301C12.0819 11.1722 12.358 10.8689 12.2954 10.6506C12.2777 10.7774 11.6406 11.0422 11.6406 11.5719C11.6406 12.2524 12.2761 12.4113 12.2761 12.4113L12.0948 12.7403C12.0948 12.7403 12.3564 12.7531 12.4976 12.8735C12.6645 13.0163 12.6501 13.3197 12.6501 13.5411C12.6501 13.7145 12.6292 13.899 12.5377 13.9745C12.419 14.0772 12.3371 14.0836 12.3371 14.204C12.3371 14.3035 12.4141 14.3227 12.5377 14.3885C12.6982 14.4736 12.6902 14.5843 12.9261 14.5843C13.162 14.5843 13.1572 14.4704 13.3177 14.3885C13.4429 14.3227 13.5183 14.3019 13.5183 14.204C13.5183 14.0852 13.4381 14.0772 13.3177 13.9745C13.2294 13.899 13.2054 13.7145 13.2054 13.5411C13.2054 13.3197 13.1893 13.0147 13.3578 12.8735C13.4959 12.7547 13.7607 12.7403 13.7607 12.7403L13.5793 12.4113Z" fill="black"/>
<path d="M12.9261 10.6968L12.817 11.0113L12.5169 10.8685L12.6597 11.1686L12.3452 11.281L12.6597 11.3933L12.5169 11.6934L12.817 11.5506L12.9261 11.8652L13.0385 11.5506L13.3386 11.6934L13.1958 11.3933L13.5103 11.281L13.1958 11.1686L13.3386 10.8685L13.0385 11.0113L12.9261 10.6968Z" fill="black"/>
<path d="M12.2488 12.4592C12.2488 12.4592 11.8556 12.3629 11.7096 12.1687C11.4528 12.3998 11.1478 12.4785 11.1478 12.4785C11.1478 12.4785 11.4672 12.6229 11.7096 12.8059C11.8235 12.647 12.2488 12.4592 12.2488 12.4592Z" fill="black"/>
<path d="M13.6052 12.4588C13.6052 12.4588 14.0321 12.6482 14.1444 12.8071C14.3868 12.6241 14.7062 12.4797 14.7062 12.4797C14.7062 12.4797 14.3996 12.3994 14.1444 12.1699C13.9984 12.3625 13.6052 12.4588 13.6052 12.4588Z" fill="black"/>
<path d="M12.4111 12.8757L12.2587 13.0282L12.4111 13.1807L12.5636 13.0282L12.4111 12.8757Z" fill="black"/>
<path d="M13.4445 12.8757L13.292 13.0282L13.4445 13.1807L13.597 13.0282L13.4445 12.8757Z" fill="black"/>
<path d="M12.3725 13.7686C12.3725 13.9612 12.3532 14.0639 12.3532 14.0639C12.3532 14.0639 12.5683 13.9997 12.6116 13.783C12.6309 13.6803 12.6533 13.3031 12.5506 13.2373L12.2698 13.1812C12.3003 13.2582 12.3725 13.4909 12.3725 13.7686Z" fill="black"/>
<path d="M13.3051 13.2373C13.2008 13.3015 13.2249 13.6787 13.2441 13.783C13.2859 14.0013 13.5025 14.0639 13.5025 14.0639C13.5025 14.0639 13.4833 13.9612 13.4833 13.7686C13.4833 13.4893 13.5539 13.2566 13.586 13.1812L13.3051 13.2373Z" fill="black"/>
<path d="M11.7096 13.249C11.6133 13.2747 11.5539 13.3726 11.578 13.4689C11.5812 13.4849 11.5876 13.4978 11.5957 13.509C11.5828 13.5058 11.5668 13.501 11.5507 13.4994C11.5443 13.4994 11.5379 13.4994 11.5315 13.4994C11.4384 13.5026 11.3646 13.5748 11.3565 13.6695C11.3485 13.769 11.4255 13.8541 11.5267 13.8621C11.5427 13.8637 11.5555 13.8621 11.5716 13.8605C11.5636 13.8717 11.5555 13.8862 11.5507 13.899C11.5138 13.9921 11.5588 14.0996 11.6502 14.1365C11.7433 14.1734 11.8492 14.1269 11.8846 14.0338C11.891 14.021 11.8942 14.0049 11.8958 13.9921C11.9038 14.0033 11.915 14.0145 11.9263 14.0242C12.0033 14.0884 12.1173 14.0787 12.1831 14.0017C12.2473 13.9247 12.2376 13.8107 12.1606 13.7481C12.1494 13.7385 12.1349 13.7305 12.1237 13.7257C12.1365 13.7224 12.151 13.7144 12.1638 13.7064C12.2489 13.6518 12.2729 13.5411 12.2216 13.456C12.1847 13.3983 12.1221 13.3678 12.0579 13.371C12.029 13.3726 12.0001 13.3822 11.9728 13.3983C11.96 13.4063 11.9471 13.4159 11.9375 13.4255C11.9375 13.4095 11.9359 13.3967 11.9311 13.3806C11.9102 13.2955 11.8316 13.2394 11.7481 13.2442C11.7353 13.2442 11.7209 13.2474 11.7096 13.249Z" fill="black"/>
<path d="M13.6323 13.7766C13.6515 13.9612 13.8024 14.1152 13.9869 14.1602C13.9565 14.1088 13.9356 14.051 13.9276 13.9884C13.9051 13.7686 14.0736 13.592 14.3047 13.592C14.3416 13.592 14.3753 13.5952 14.4106 13.6049C14.3304 13.4716 14.1763 13.377 14.0078 13.377C13.7783 13.377 13.6082 13.5567 13.6323 13.7766Z" fill="black"/>
<path d="M11.9906 11.5302C11.9906 11.8784 12.1768 12.0855 12.4256 12.0855C12.4737 12.0855 12.5251 12.1497 12.57 12.1497C12.6438 12.1497 12.692 12.0694 12.7353 12.0694C12.7915 12.0694 12.83 12.1577 12.9279 12.1577C13.0258 12.1577 13.0643 12.0694 13.1205 12.0694C13.1654 12.0694 13.2136 12.1497 13.2858 12.1497C13.3307 12.1497 13.3821 12.0855 13.4303 12.0855C13.679 12.0855 13.8652 11.88 13.8652 11.5302C13.8652 11.2445 13.6261 10.8978 13.6517 10.8433C13.6517 10.8433 14.1172 11.1787 14.1172 11.5719C14.1172 12.2075 13.4736 12.3631 13.4736 12.3631L13.618 12.6889C13.618 12.6889 13.4174 12.7194 13.297 12.8173C13.1349 12.9489 13.1333 13.302 13.1333 13.5412C13.1333 13.822 13.143 13.944 13.2457 14.0194C13.3532 14.0997 13.4351 14.1173 13.4351 14.2008C13.4351 14.2714 13.3516 14.3003 13.2425 14.3484C13.1189 14.403 13.1061 14.4961 12.9279 14.4961C12.7482 14.4961 12.7369 14.4014 12.6133 14.3484C12.5058 14.3003 12.4207 14.2714 12.4207 14.2008C12.4207 14.1173 12.501 14.1013 12.6101 14.0194C12.7128 13.9424 12.7225 13.8236 12.7225 13.5412C12.7225 13.302 12.7209 12.9473 12.5588 12.8173C12.4368 12.7194 12.2378 12.6889 12.2378 12.6889L12.3822 12.3631C12.3822 12.3631 11.7386 12.2075 11.7386 11.5719C11.7386 11.1771 12.2041 10.8433 12.2041 10.8433C12.2298 10.8994 11.9906 11.2461 11.9906 11.5302ZM12.684 14.1526C12.5572 14.1526 12.4753 14.1799 12.4753 14.2184C12.4753 14.257 12.5556 14.2826 12.684 14.2826C12.7193 14.2826 12.7546 14.2634 12.7546 14.2184C12.7562 14.1735 12.7177 14.1526 12.684 14.1526ZM13.1719 14.1526C13.1366 14.1526 13.1012 14.1735 13.1012 14.2184C13.1012 14.2634 13.1398 14.2826 13.1719 14.2826C13.2987 14.2826 13.3805 14.257 13.3805 14.2184C13.3789 14.1783 13.2987 14.1526 13.1719 14.1526Z" fill="#FFD200"/>
<path d="M12.9293 10.9089L13 11.1096L13.1909 11.0165L13.1011 11.2091L13.3001 11.2797L13.1011 11.3503L13.1909 11.5413L13 11.4514L12.9293 11.6504L12.8587 11.4514L12.6677 11.5413L12.7576 11.3503L12.5586 11.2797L12.7576 11.2091L12.6677 11.0165L12.8587 11.1096L12.9293 10.9089Z" fill="#FFD200"/>
<path d="M12.0389 12.4702L11.7098 12.7141L11.7066 12.7206L11.6986 12.7141L11.3343 12.4862C11.3343 12.4862 11.567 12.406 11.7034 12.2664C11.835 12.414 12.0389 12.4702 12.0389 12.4702Z" fill="#FFD200"/>
<path d="M14.52 12.4859C14.52 12.4859 14.2777 12.6078 14.1557 12.7154L14.1477 12.7218L14.1445 12.7154C14.0289 12.5822 13.8154 12.4714 13.8154 12.4714C13.8154 12.4714 14.0209 12.4152 14.1509 12.2676C14.2889 12.404 14.52 12.4859 14.52 12.4859Z" fill="#FFD200"/>
<path d="M12.4111 12.9497L12.4898 13.0283L12.4111 13.1086L12.3309 13.0283L12.4111 12.9497Z" fill="#FFD200"/>
<path d="M13.4444 12.9497L13.5246 13.0283L13.4444 13.1086L13.3658 13.0283L13.4444 12.9497Z" fill="#FFD200"/>
<path d="M12.5185 13.2986C12.5746 13.3756 12.565 13.5008 12.565 13.6741C12.565 13.8491 12.4334 13.9149 12.4334 13.9149C12.4334 13.4944 12.3917 13.3949 12.3676 13.2681L12.5185 13.2986Z" fill="#FFD200"/>
<path d="M13.4882 13.2681C13.4657 13.3949 13.4224 13.496 13.4224 13.9149C13.4224 13.9149 13.2908 13.8475 13.2908 13.6741C13.2908 13.5008 13.2812 13.3756 13.3373 13.2986L13.4882 13.2681Z" fill="#FFD200"/>
<path d="M11.8992 13.426C11.9024 13.4421 11.9024 13.4565 11.9024 13.4726C11.9008 13.4854 11.8992 13.495 11.8928 13.5079C11.8719 13.4999 11.8462 13.4967 11.8238 13.4967C11.7628 13.4967 11.7082 13.5239 11.6713 13.5657C11.6617 13.556 11.652 13.5464 11.6456 13.5368C11.6376 13.5255 11.6296 13.5095 11.6264 13.4967C11.6071 13.4212 11.6536 13.3442 11.7291 13.3249C11.7387 13.3233 11.7483 13.3217 11.758 13.3217C11.8238 13.3185 11.8831 13.3602 11.8992 13.426Z" fill="#FFD200"/>
<path d="M12.1078 13.6906C12.095 13.6986 12.0789 13.7035 12.0661 13.7083C12.0548 13.7099 12.0404 13.7115 12.0292 13.7099C12.0292 13.6874 12.0276 13.6633 12.0195 13.6409C12.0003 13.5831 11.9585 13.5381 11.9056 13.5173C11.912 13.5061 11.9168 13.4948 11.9248 13.4852C11.9345 13.474 11.9457 13.4627 11.9569 13.4547C12.0227 13.4146 12.1094 13.4338 12.1511 13.4996C12.1576 13.5077 12.1608 13.5173 12.164 13.5253C12.1897 13.5815 12.1656 13.6537 12.1078 13.6906Z" fill="#FFD200"/>
<path d="M11.9232 13.9709C11.912 13.9613 11.9023 13.9485 11.8943 13.934C11.8879 13.9228 11.8847 13.9132 11.8815 13.8987C11.9039 13.8923 11.9264 13.8811 11.9457 13.8682C11.9954 13.8313 12.0227 13.7799 12.0291 13.7222C12.042 13.7238 12.0548 13.7254 12.0676 13.7318C12.0805 13.7382 12.0949 13.743 12.1078 13.7543C12.1672 13.804 12.1752 13.8923 12.1254 13.9533C12.119 13.9613 12.1126 13.9661 12.1046 13.9725C12.05 14.0127 11.9762 14.0143 11.9232 13.9709Z" fill="#FFD200"/>
<path d="M11.6006 13.883C11.607 13.867 11.6166 13.8557 11.6263 13.8445C11.6343 13.8349 11.6439 13.8268 11.6552 13.822C11.668 13.8413 11.6841 13.8589 11.7049 13.8718C11.7547 13.9087 11.8141 13.9183 11.8686 13.9071C11.8702 13.9199 11.8718 13.9328 11.8718 13.9456C11.8718 13.9616 11.8686 13.9761 11.8622 13.9905C11.8333 14.0611 11.7499 14.0965 11.6792 14.0676C11.6696 14.0644 11.6616 14.0595 11.6536 14.0547C11.5974 14.0146 11.5749 13.944 11.6006 13.883Z" fill="#FFD200"/>
<path d="M11.5846 13.5453C11.6007 13.5469 11.6151 13.5517 11.6295 13.5565C11.6408 13.5629 11.6504 13.5678 11.66 13.5758C11.6472 13.5934 11.6344 13.6159 11.6279 13.64C11.6087 13.6978 11.6183 13.7571 11.6472 13.8069C11.636 13.8133 11.6247 13.8181 11.6103 13.8229C11.5958 13.8278 11.5814 13.8294 11.5654 13.8294C11.4883 13.8229 11.4289 13.7555 11.4337 13.6785C11.4337 13.6689 11.4353 13.6592 11.4402 13.6496C11.4562 13.5838 11.5156 13.5389 11.5846 13.5453Z" fill="#FFD200"/>
<path d="M11.8238 13.8392C11.8991 13.8392 11.9602 13.7782 11.9602 13.7028C11.9602 13.6275 11.8991 13.5664 11.8238 13.5664C11.7485 13.5664 11.6874 13.6275 11.6874 13.7028C11.6874 13.7782 11.7485 13.8392 11.8238 13.8392Z" fill="#FFD200"/>
<path d="M14.2118 13.518C13.9871 13.563 13.8234 13.7604 13.8474 13.9931C13.7768 13.9337 13.7223 13.8518 13.7126 13.7636C13.6934 13.5902 13.8202 13.457 14.0095 13.457C14.0818 13.4602 14.1524 13.4811 14.2118 13.518Z" fill="#FFD200"/>
</g>
<rect x="0.270833" y="4.60409" width="25.4583" height="16.7917" rx="1.89583" stroke="#7F7F7F" stroke-width="0.541667"/>
</g>
<defs>
<clipPath id="clip0_29826_26006">
<rect width="26" height="26" fill="white"/>
</clipPath>
<clipPath id="clip1_29826_26006">
<rect y="4.33325" width="26" height="17.3333" rx="2.16667" fill="white"/>
</clipPath>
<clipPath id="clip2_29826_26006">
<rect width="26" height="17.3333" fill="white" transform="translate(0 4.33325)"/>
</clipPath>
</defs>
</svg>
