<svg width="26" height="26" viewBox="0 0 26 26" fill="none" xmlns="http://www.w3.org/2000/svg">
<g clip-path="url(#clip0_29826_25941)">
<g clip-path="url(#clip1_29826_25941)">
<rect y="4.33325" width="26" height="17.3333" rx="2.16667" fill="white"/>
<g clip-path="url(#clip2_29826_25941)">
<path d="M0 4.33325H26V21.6666H0V4.33325Z" fill="white"/>
</g>
<g clip-path="url(#clip3_29826_25941)">
<rect width="14" height="17.3333" transform="translate(0.145874 4.33325)" fill="white"/>
<path d="M0.857117 12.739H12.1275L0.857117 5.68164V20.7094H12.1275L0.857117 9.43905V12.739Z" fill="#DC143C"/>
<path d="M13.2973 21.1943H0.371399V4.80542L13.8158 13.2239H5.32695L13.2973 21.1943ZM1.34177 20.2239H10.9566L3.95658 13.2239H1.34177V20.2239ZM4.35658 12.2536H10.4381L1.34177 6.55727V9.2369L4.35658 12.2536ZM1.34177 12.2536H2.98621L1.34177 10.611V12.2536Z" fill="#003893"/>
<path d="M0.857117 12.739H12.1275L0.857117 5.68164V20.7094H12.1275L0.857117 9.43905V12.739Z" fill="#DC143C"/>
<path d="M3.67385 12.3374C4.91273 12.3374 5.91829 11.3319 5.91829 10.093C5.72014 10.5948 5.36459 11.0096 4.90903 11.28L4.71829 11.1374L5.09422 10.8559L4.64051 10.7393L4.88125 10.3319L4.41088 10.4004L4.48125 9.93371L4.07385 10.1782L3.95718 9.71704L3.6757 10.093L3.39422 9.71704L3.2757 10.1763L2.87014 9.93556L2.94051 10.4059L2.47014 10.3356L2.71459 10.743L2.25533 10.8596L2.63125 11.1411L2.44422 11.2856C1.99977 11.0226 1.63681 10.617 1.43311 10.0985C1.43311 11.3374 2.43866 12.343 3.67755 12.343L3.67385 12.3374Z" fill="white"/>
<path d="M2.59208 15.6427L1.58467 15.5186L2.19578 16.3261L1.26245 16.7242L2.19578 17.1205L1.58467 17.9279L2.59208 17.8038L2.46801 18.8131L3.27541 18.202L3.67356 19.1372L4.06801 18.202L4.87912 18.8149L4.75504 17.8075L5.76245 17.9335L5.15134 17.1261L6.08467 16.7316L5.15134 16.3335L5.76245 15.5261L4.75504 15.6483L4.87912 14.6409L4.07171 15.252L3.67356 14.3149L3.27912 15.2464L2.46801 14.6353L2.59208 15.6427Z" fill="white"/>
</g>
</g>
<rect x="0.270833" y="4.60409" width="25.4583" height="16.7917" rx="1.89583" stroke="#7F7F7F" stroke-width="0.541667"/>
</g>
<defs>
<clipPath id="clip0_29826_25941">
<rect width="26" height="26" fill="white"/>
</clipPath>
<clipPath id="clip1_29826_25941">
<rect y="4.33325" width="26" height="17.3333" rx="2.16667" fill="white"/>
</clipPath>
<clipPath id="clip2_29826_25941">
<rect width="26" height="17.3333" fill="white" transform="translate(0 4.33325)"/>
</clipPath>
<clipPath id="clip3_29826_25941">
<rect width="14" height="17.3333" fill="white" transform="translate(0.145874 4.33325)"/>
</clipPath>
</defs>
</svg>
