<svg width="26" height="26" viewBox="0 0 26 26" fill="none" xmlns="http://www.w3.org/2000/svg">
<g clip-path="url(#clip0_29826_19618)">
<rect x="0.270833" y="4.60409" width="25.4583" height="16.7917" rx="1.89583" fill="#012169"/>
<rect x="0.270833" y="4.60409" width="25.4583" height="16.7917" rx="1.89583" stroke="#7F7F7F" stroke-width="0.541667"/>
<g clip-path="url(#clip1_29826_19618)">
<path d="M26 6.5H0V19.5H26V6.5Z" fill="#012169"/>
<path d="M0 6.5L13 13L0 6.5ZM0 13L13 6.5L0 13Z" fill="black"/>
<path d="M12.7097 13.5808L6.50005 10.4759L0.290383 13.5808L-0.290283 12.4194L5.04622 9.7501L-0.290283 7.08077L0.290383 5.91943L6.50005 9.02427L12.7097 5.91943L13.2904 7.08077L7.95388 9.7501L13.2904 12.4194L12.7097 13.5808Z" fill="white"/>
<path d="M0 6.5L13 13L0 6.5ZM0 13L13 6.5L0 13Z" fill="black"/>
<path d="M12.8072 13.388L6.50002 10.2355L0.192857 13.388L-0.19281 12.6123L5.53152 9.75014L-0.19281 6.88797L0.192857 6.1123L6.50002 9.2648L12.8072 6.1123L13.1929 6.88797L7.46852 9.75014L13.1929 12.6123L12.8072 13.388Z" fill="#C8102E"/>
<path d="M6.5 6.5V13V6.5ZM0 9.75H13H0Z" fill="black"/>
<path d="M7.58333 13H5.41667V10.8333H0V8.66667H5.41667V6.5H7.58333V8.66667H13V10.8333H7.58333V13Z" fill="white"/>
<path d="M6.5 6.5V13V6.5ZM0 9.75H13H0Z" fill="black"/>
<path d="M7.15 13H5.85V10.4H0V9.1H5.85V6.5H7.15V9.1H13V10.4H7.15V13Z" fill="#C8102E"/>
<path d="M19.5 8.7793V9.27113L20.4837 8.7793H19.5Z" fill="white"/>
<path d="M19.6884 9.3578L19.4003 8.95913L20.4858 8.7793L19.6884 9.3578Z" fill="white"/>
<path d="M19.5 8.7793V9.27113L18.5163 8.7793H19.5Z" fill="white"/>
<path d="M19.3116 9.3578L19.5997 8.95913L18.5142 8.7793L19.3116 9.3578Z" fill="white"/>
<path d="M19.8035 9.00049L19.3354 9.15215L20.1068 9.93649L19.8035 9.00049Z" fill="white"/>
<path d="M19.3114 9.3579L19.5996 8.95923L20.1066 9.9364L19.3114 9.3579Z" fill="white"/>
<path d="M19.1965 9.00048L19.6645 9.15215L19.4999 8.06665L19.1965 9.00048Z" fill="white"/>
<path d="M19.8034 9.00021L19.3354 9.15188L19.5001 8.06421L19.8034 9.00021Z" fill="white"/>
<path d="M19.1966 9.00049L19.6646 9.15215L18.8933 9.93649L19.1966 9.00049Z" fill="white"/>
<path d="M19.6885 9.3579L19.4003 8.95923L18.8933 9.9364L19.6885 9.3579Z" fill="white"/>
<path d="M19.5 8.88989V9.21489L20.15 8.88989H19.5Z" fill="#C8102E"/>
<path d="M19.6233 9.27123L19.4327 9.00906L20.1498 8.88989L19.6233 9.27123Z" fill="#C8102E"/>
<path d="M19.5 8.88989V9.21489L18.85 8.88989H19.5Z" fill="#C8102E"/>
<path d="M19.3765 9.27123L19.5672 9.00906L18.85 8.88989L19.3765 9.27123Z" fill="#C8102E"/>
<path d="M19.7016 9.03516L19.3917 9.13482L19.9009 9.65266L19.7016 9.03516Z" fill="#C8102E"/>
<path d="M19.3764 9.27144L19.5671 9.00928L19.9029 9.65494L19.3764 9.27144Z" fill="#C8102E"/>
<path d="M19.2986 9.03471L19.6084 9.13437L19.5001 8.41504L19.2986 9.03471Z" fill="#C8102E"/>
<path d="M19.7016 9.03471L19.3917 9.13437L19.5001 8.41504L19.7016 9.03471Z" fill="#C8102E"/>
<path d="M19.2986 9.03516L19.6085 9.13482L19.0993 9.65266L19.2986 9.03516Z" fill="#C8102E"/>
<path d="M19.6235 9.27144L19.4328 9.00928L19.097 9.65494L19.6235 9.27144Z" fill="#C8102E"/>
<path d="M22.0739 11.0542V11.4919L22.9492 11.0542H22.0739Z" fill="white"/>
<path d="M22.2408 11.5677L21.983 11.2145L22.9493 11.0542L22.2408 11.5677Z" fill="white"/>
<path d="M22.074 11.0542V11.4919L21.1987 11.0542H22.074Z" fill="white"/>
<path d="M21.9072 11.5677L22.165 11.2145L21.1987 11.0542L21.9072 11.5677Z" fill="white"/>
<path d="M22.3448 11.249L21.9288 11.3834L22.6157 12.081L22.3448 11.249Z" fill="white"/>
<path d="M21.9072 11.568L22.1651 11.2148L22.6157 12.0837L21.9072 11.568Z" fill="white"/>
<path d="M21.8032 11.2497L22.2192 11.384L22.074 10.4155L21.8032 11.2497Z" fill="white"/>
<path d="M22.3448 11.2497L21.9288 11.384L22.074 10.4155L22.3448 11.2497Z" fill="white"/>
<path d="M21.8031 11.249L22.2191 11.3834L21.5322 12.081L21.8031 11.249Z" fill="white"/>
<path d="M22.2407 11.568L21.9829 11.2148L21.5322 12.0837L22.2407 11.568Z" fill="white"/>
<path d="M22.0739 11.1628V11.4337L22.6156 11.1628H22.0739Z" fill="#C8102E"/>
<path d="M22.1779 11.4813L22.0198 11.2625L22.6178 11.1628L22.1779 11.4813Z" fill="#C8102E"/>
<path d="M22.0739 11.1628V11.4337L21.5322 11.1628H22.0739Z" fill="#C8102E"/>
<path d="M21.9721 11.4813L22.1302 11.2625L21.5322 11.1628L21.9721 11.4813Z" fill="#C8102E"/>
<path d="M22.2432 11.2839L21.9854 11.3684L22.41 11.7996L22.2432 11.2839Z" fill="#C8102E"/>
<path d="M21.9722 11.481L22.1304 11.2622L22.4099 11.7995L21.9722 11.481Z" fill="#C8102E"/>
<path d="M21.9072 11.2843L22.1651 11.3688L22.0741 10.7708L21.9072 11.2843Z" fill="#C8102E"/>
<path d="M22.2432 11.2843L21.9854 11.3688L22.0763 10.7708L22.2432 11.2843Z" fill="#C8102E"/>
<path d="M21.9072 11.2839L22.165 11.3684L21.7404 11.7996L21.9072 11.2839Z" fill="#C8102E"/>
<path d="M22.178 11.481L22.0199 11.2622L21.7404 11.7995L22.178 11.481Z" fill="#C8102E"/>
<path d="M16.4969 11.8015V12.2934L17.4806 11.8015H16.4969Z" fill="white"/>
<path d="M16.6832 12.38L16.3951 11.9813L17.4806 11.8015L16.6832 12.38Z" fill="white"/>
<path d="M16.4972 11.8015V12.2934L15.5135 11.8015H16.4972Z" fill="white"/>
<path d="M16.3085 12.38L16.5967 11.9813L15.5112 11.8015L16.3085 12.38Z" fill="white"/>
<path d="M16.8003 12.0229L16.3323 12.1746L17.1036 12.9589L16.8003 12.0229Z" fill="white"/>
<path d="M16.3086 12.3804L16.5968 11.9817L17.1038 12.9589L16.3086 12.3804Z" fill="white"/>
<path d="M16.1914 12.0227L16.6594 12.1743L16.4947 11.0867L16.1914 12.0227Z" fill="white"/>
<path d="M16.8003 12.0227L16.3323 12.1743L16.4969 11.0867L16.8003 12.0227Z" fill="white"/>
<path d="M16.1916 12.0229L16.6596 12.1746L15.8882 12.9589L16.1916 12.0229Z" fill="white"/>
<path d="M16.6834 12.3804L16.3952 11.9817L15.8882 12.9589L16.6834 12.3804Z" fill="white"/>
<path d="M16.4969 11.9104V12.2354L17.1469 11.9104H16.4969Z" fill="#C8102E"/>
<path d="M16.6206 12.2937L16.4299 12.0315L17.1471 11.9124L16.6206 12.2937Z" fill="#C8102E"/>
<path d="M16.497 11.9104V12.2354L15.847 11.9104H16.497Z" fill="#C8102E"/>
<path d="M16.3713 12.2937L16.562 12.0315L15.8448 11.9124L16.3713 12.2937Z" fill="#C8102E"/>
<path d="M16.6962 12.0576L16.3864 12.1573L16.8956 12.6751L16.6962 12.0576Z" fill="#C8102E"/>
<path d="M16.3715 12.2937L16.5621 12.0315L16.898 12.6772L16.3715 12.2937Z" fill="#C8102E"/>
<path d="M16.2955 12.0577L16.6053 12.1573L16.497 11.438L16.2955 12.0577Z" fill="#C8102E"/>
<path d="M16.6962 12.0577L16.3864 12.1573L16.4947 11.438L16.6962 12.0577Z" fill="#C8102E"/>
<path d="M16.2953 12.0576L16.6051 12.1573L16.0938 12.6751L16.2953 12.0576Z" fill="#C8102E"/>
<path d="M16.6203 12.2937L16.4296 12.0315L16.0938 12.675L16.6203 12.2937Z" fill="#C8102E"/>
<path d="M19.5 16.5447V17.0907L20.592 16.5447H19.5Z" fill="white"/>
<path d="M19.7079 17.186L19.3873 16.744L20.5919 16.5447L19.7079 17.186Z" fill="white"/>
<path d="M19.5 16.5447V17.0907L18.408 16.5447H19.5Z" fill="white"/>
<path d="M19.292 17.186L19.6127 16.744L18.408 16.5447L19.292 17.186Z" fill="white"/>
<path d="M19.8381 16.7893L19.3181 16.9583L20.1739 17.8271L19.8381 16.7893Z" fill="white"/>
<path d="M19.292 17.1861L19.6127 16.7441L20.176 17.8275L19.292 17.1861Z" fill="white"/>
<path d="M19.1619 16.7895L19.6819 16.9585L19.4999 15.7517L19.1619 16.7895Z" fill="white"/>
<path d="M19.8381 16.7895L19.3181 16.9585L19.5001 15.7517L19.8381 16.7895Z" fill="white"/>
<path d="M19.162 16.7893L19.682 16.9583L18.8262 17.8271L19.162 16.7893Z" fill="white"/>
<path d="M19.7079 17.1861L19.3873 16.7441L18.8239 17.8275L19.7079 17.1861Z" fill="white"/>
<path d="M19.5 16.6528V17.032L20.2583 16.6528H19.5Z" fill="#C8102E"/>
<path d="M19.6452 17.0992L19.422 16.7915L20.2583 16.6528L19.6452 17.0992Z" fill="#C8102E"/>
<path d="M19.5 16.6528V17.032L18.7416 16.6528H19.5Z" fill="#C8102E"/>
<path d="M19.3548 17.0992L19.578 16.7915L18.7416 16.6528L19.3548 17.0992Z" fill="#C8102E"/>
<path d="M19.7339 16.824L19.3743 16.941L19.9701 17.5455L19.7339 16.824Z" fill="#C8102E"/>
<path d="M19.3549 17.0994L19.5781 16.7917L19.9681 17.5436L19.3549 17.0994Z" fill="#C8102E"/>
<path d="M19.2659 16.8243L19.6256 16.9413L19.4999 16.1028L19.2659 16.8243Z" fill="#C8102E"/>
<path d="M19.7339 16.8243L19.3743 16.9413L19.4999 16.1028L19.7339 16.8243Z" fill="#C8102E"/>
<path d="M19.2661 16.824L19.6257 16.941L19.0299 17.5455L19.2661 16.824Z" fill="#C8102E"/>
<path d="M19.6451 17.0994L19.422 16.7917L19.032 17.5436L19.6451 17.0994Z" fill="#C8102E"/>
</g>
</g>
<defs>
<clipPath id="clip0_29826_19618">
<rect width="26" height="26" fill="white"/>
</clipPath>
<clipPath id="clip1_29826_19618">
<rect width="26" height="13" fill="white" transform="translate(0 6.5)"/>
</clipPath>
</defs>
</svg>
