<svg width="26" height="26" viewBox="0 0 26 26" fill="none" xmlns="http://www.w3.org/2000/svg">
<g clip-path="url(#clip0_29826_19584)">
<g clip-path="url(#clip1_29826_19584)">
<rect y="4.33325" width="26" height="17.3333" rx="2.16667" fill="white"/>
<g clip-path="url(#clip2_29826_19584)">
<path d="M34.6667 4.33325H0V21.6666H34.6667V4.33325Z" fill="#0038A8"/>
<path d="M34.6667 13H0V21.6667H34.6667V13Z" fill="#CE1126"/>
<path d="M15.0111 12.9999L0 21.6666V4.33325" fill="white"/>
<path d="M0.866748 5.83447L1.38849 6.28535L1.99258 5.9528L1.725 6.58834L2.22794 7.0601L1.54082 7.002L1.24757 7.62611L1.09049 6.95467L0.406311 6.86863L0.996349 6.51175L0.866748 5.83447Z" fill="#FCD116"/>
<path d="M12.6123 12.084L12.6263 12.7734L13.2777 12.9998L12.6263 13.2262L12.6123 13.9156L12.1957 13.3661L11.5356 13.5658L11.9295 12.9998L11.5356 12.4338L12.1957 12.6335L12.6123 12.084Z" fill="#FCD116"/>
<path d="M1.24757 18.374L1.54082 18.9981L2.22794 18.94L1.725 19.4118L1.99258 20.0473L1.38849 19.7148L0.866748 20.1657L0.996349 19.4884L0.406311 19.1315L1.09049 19.0455L1.24757 18.374Z" fill="#FCD116"/>
<path d="M5.39254 9.34058L5.16749 9.56562L5.2791 11.2701C5.24116 11.2726 5.20359 11.2763 5.16635 11.2811L4.96143 9.72571L4.77778 9.90936L5.05429 11.2997C4.82684 11.3447 4.61545 11.434 4.42946 11.5585L3.64204 10.38H3.38223L4.3373 11.6249C4.30733 11.6479 4.27831 11.672 4.24993 11.6969L3.12334 10.4123H2.80498V10.7306L4.08961 11.8572C4.06468 11.8856 4.04063 11.9148 4.01757 11.9448L2.77274 10.9895V11.2493L3.95147 12.037C3.82697 12.2229 3.73735 12.4342 3.69236 12.6616L2.30206 12.3851L2.11842 12.5687L3.67383 12.7736C3.66898 12.8109 3.6653 12.8485 3.66285 12.8864L1.95832 12.7748L1.73328 12.9998L1.95832 13.2249L3.66285 13.1133C3.66531 13.1512 3.66898 13.189 3.67383 13.2263L2.11842 13.4309L2.30206 13.6146L3.69236 13.3381C3.73735 13.5655 3.82669 13.7769 3.95125 13.9629L2.77274 14.7503V15.0101L4.01757 14.0551C4.04061 14.0851 4.06471 14.1141 4.08961 14.1424L2.80498 15.269V15.5874H3.12334L4.24993 14.3028C4.27835 14.3277 4.30752 14.3517 4.33753 14.3748L3.38223 15.6196H3.64204L4.4297 14.4409C4.6156 14.5655 4.82687 14.6553 5.05429 14.7002L4.77778 16.0903L4.96143 16.274L5.16635 14.7185C5.20358 14.7234 5.24116 14.7271 5.2791 14.7295L5.16749 16.4341L5.39254 16.6591L5.61758 16.4341L5.50597 14.7295C5.54392 14.7271 5.58148 14.7234 5.61873 14.7185L5.82364 16.274L6.00729 16.0903L5.73079 14.7C5.95824 14.655 6.16963 14.5657 6.35561 14.4411L7.14303 15.6196H7.40284L6.44778 14.3748C6.47774 14.3518 6.50677 14.3277 6.53514 14.3028L7.66174 15.5874H7.98009V15.269L6.69546 14.1424C6.7204 14.114 6.74444 14.0849 6.76751 14.0548L8.01234 15.0101V14.7503L6.8336 13.9627C6.95811 13.7767 7.04773 13.5655 7.09272 13.3381L8.48301 13.6146L8.66666 13.4309L7.11124 13.226C7.1161 13.1888 7.11977 13.1512 7.12222 13.1133L8.82675 13.2249L9.0518 12.9998L8.82675 12.7748L7.12222 12.8864C7.11979 12.8485 7.1161 12.8109 7.11125 12.7736L8.66666 12.5687L8.48301 12.3851L7.09272 12.6616C7.04772 12.4341 6.95837 12.2227 6.83383 12.0368L8.01234 11.2493V10.9895L6.76751 11.9446C6.74447 11.9146 6.72037 11.8856 6.69546 11.8572L7.98009 10.7306V10.4123H7.66174L6.53514 11.6969C6.50673 11.672 6.47755 11.6479 6.44755 11.6249L7.40284 10.38H7.14303L6.35538 11.5588C6.16943 11.4343 5.95818 11.3446 5.73079 11.2997L6.00729 9.90936L5.82364 9.72571L5.61873 11.2811C5.58148 11.2763 5.54391 11.2726 5.50597 11.2701L5.61758 9.56562L5.39254 9.34058Z" fill="#FCD116"/>
</g>
</g>
<rect x="0.270833" y="4.60409" width="25.4583" height="16.7917" rx="1.89583" stroke="#7F7F7F" stroke-width="0.541667"/>
</g>
<defs>
<clipPath id="clip0_29826_19584">
<rect width="26" height="26" fill="white"/>
</clipPath>
<clipPath id="clip1_29826_19584">
<rect y="4.33325" width="26" height="17.3333" rx="2.16667" fill="white"/>
</clipPath>
<clipPath id="clip2_29826_19584">
<rect width="34.6667" height="17.3333" fill="white" transform="translate(0 4.33325)"/>
</clipPath>
</defs>
</svg>
