<svg width="26" height="26" viewBox="0 0 26 26" fill="none" xmlns="http://www.w3.org/2000/svg">
<g clip-path="url(#clip0_29826_19754)">
<g clip-path="url(#clip1_29826_19754)">
<rect y="4.33325" width="26" height="17.3333" rx="2.16667" fill="white"/>
<g clip-path="url(#clip2_29826_19754)">
<path d="M30.8148 4.33325H0V21.6666H30.8148V4.33325Z" fill="#ED2939"/>
<path d="M30.8148 13H0V21.6667H30.8148V13Z" fill="white"/>
<path d="M8.91676 8.66661C8.91676 10.4674 7.45787 11.9262 5.65713 11.9262C3.85639 11.9262 2.39911 10.4674 2.39911 8.66661C2.39911 6.86587 3.858 5.40698 5.65874 5.40698C7.45948 5.40698 8.91676 6.86587 8.91676 8.66661Z" fill="white"/>
<path d="M9.94123 8.66655C9.94123 10.3678 8.56259 11.7464 6.86135 11.7464C5.16012 11.7464 3.78308 10.3678 3.78308 8.66655C3.78308 6.96531 5.16172 5.58667 6.86135 5.58667C8.56098 5.58667 9.94123 6.96531 9.94123 8.66655Z" fill="#ED2939"/>
<path d="M6.06217 8.74533L5.6192 8.40668L5.17624 8.74693L5.34636 8.19965L4.90179 7.86101L5.45068 7.86261L5.6192 7.31372L5.78772 7.86261L6.33661 7.86101L5.89204 8.19804L6.06217 8.74533Z" fill="white"/>
<path d="M9.53647 8.74533L9.0935 8.40669L8.65054 8.74533L8.82066 8.19804L8.3761 7.86101L8.92499 7.86261L9.0935 7.31372L9.26202 7.86261L9.81091 7.86101L9.36634 8.19804L9.53647 8.74533Z" fill="white"/>
<path d="M7.80002 7.45661L7.35706 7.11797L6.91409 7.45822L7.08422 6.91093L6.63965 6.5739L7.18854 6.5755L7.35706 6.02661L7.52557 6.5755L8.07446 6.5739L7.6299 6.91093L7.80002 7.45661Z" fill="white"/>
<path d="M6.71219 10.8074L6.26923 10.4672L5.82626 10.809L5.99639 10.2618L5.55182 9.92473L6.10071 9.92633L6.26923 9.37744L6.43774 9.92633L6.98663 9.92473L6.54207 10.2618L6.71219 10.8074Z" fill="white"/>
<path d="M8.88645 10.8076L8.44348 10.4673L8.00052 10.8076L8.17064 10.2603L7.72607 9.92326L8.27496 9.92487L8.44348 9.37598L8.612 9.92487L9.16089 9.92326L8.71632 10.2603L8.88645 10.8076Z" fill="white"/>
</g>
</g>
<rect x="0.270833" y="4.60409" width="25.4583" height="16.7917" rx="1.89583" stroke="#7F7F7F" stroke-width="0.541667"/>
</g>
<defs>
<clipPath id="clip0_29826_19754">
<rect width="26" height="26" fill="white"/>
</clipPath>
<clipPath id="clip1_29826_19754">
<rect y="4.33325" width="26" height="17.3333" rx="2.16667" fill="white"/>
</clipPath>
<clipPath id="clip2_29826_19754">
<rect width="30.8148" height="17.3333" fill="white" transform="translate(0 4.33325)"/>
</clipPath>
</defs>
</svg>
