<svg width="26" height="26" viewBox="0 0 26 26" fill="none" xmlns="http://www.w3.org/2000/svg">
<g clip-path="url(#clip0_29826_19737)">
<g clip-path="url(#clip1_29826_19737)">
<rect y="4.33325" width="26" height="17.3333" rx="2.16667" fill="white"/>
<path d="M26 4.33325H0V21.6666H26V4.33325Z" fill="#EE1C25"/>
<path d="M26 4.33325H0V15.8888H26V4.33325Z" fill="#0B4EA2"/>
<path d="M26 4.33325H0V10.111H26V4.33325Z" fill="white"/>
<path d="M11.3677 8.40649H11.1337H7.79706H4.46328H4.22928L4.20617 8.64049C4.20039 8.69249 4.07617 9.91161 4.07617 12.5896C4.07617 13.8492 4.50084 14.9585 5.34151 15.8887C5.92795 16.5416 6.69639 17.0905 7.68728 17.5672L7.79995 17.6221L7.91262 17.5672C8.90351 17.0905 9.67195 16.5416 10.2584 15.8887C11.0962 14.9585 11.5237 13.8463 11.5237 12.5896C11.5237 9.91161 11.3995 8.69249 11.3937 8.64049L11.3677 8.40649Z" fill="white"/>
<path d="M7.79715 17.3332C6.37293 16.6456 4.33337 15.2849 4.33337 12.5867C4.33337 9.8885 4.46337 8.6665 4.46337 8.6665H7.80004H11.1367C11.1367 8.6665 11.2667 9.89139 11.2667 12.5867C11.2609 15.2849 9.22426 16.6456 7.79715 17.3332Z" fill="#EE1C25"/>
<path d="M8.10325 11.8821C8.49036 11.8879 9.24147 11.9023 9.91169 11.6799C9.91169 11.6799 9.89436 11.9197 9.89436 12.1999C9.89436 12.4801 9.91169 12.7199 9.91169 12.7199C9.29636 12.5148 8.53658 12.509 8.10325 12.5148V14.0025H7.49369V12.5148C7.05747 12.509 6.30058 12.5148 5.68524 12.7199C5.68524 12.7199 5.70257 12.4801 5.70257 12.1999C5.70257 11.9197 5.68524 11.6799 5.68524 11.6799C6.35547 11.9052 7.10947 11.8879 7.49369 11.8821V10.9461C7.14124 10.9432 6.63569 10.9605 6.0608 11.1512C6.0608 11.1512 6.07813 10.9114 6.07813 10.6312C6.07813 10.351 6.0608 10.1112 6.0608 10.1112C6.6328 10.3019 7.13836 10.3192 7.4908 10.3163C7.47347 9.72409 7.30013 8.97876 7.30013 8.97876C7.30013 8.97876 7.65547 9.00765 7.79702 9.00765C7.93858 9.00765 8.29391 8.97876 8.29391 8.97876C8.29391 8.97876 8.12058 9.72409 8.10325 10.3163C8.45569 10.3192 8.96125 10.3019 9.53325 10.1112C9.53325 10.1112 9.51592 10.351 9.51592 10.6312C9.51592 10.9114 9.53325 11.1512 9.53325 11.1512C8.96125 10.9605 8.4528 10.9432 8.10036 10.9461V11.8821H8.10325Z" fill="white"/>
<path d="M7.79705 13.8411C7.07772 13.8411 6.6935 14.8377 6.6935 14.8377C6.6935 14.8377 6.47972 14.3668 5.89328 14.3668C5.4975 14.3668 5.20572 14.7193 5.01794 15.0457C5.74017 16.1926 6.88994 16.9004 7.79416 17.3366C8.69838 16.9004 9.85105 16.1926 10.5704 15.0457C10.3855 14.7193 10.0937 14.3668 9.69505 14.3668C9.10861 14.3668 8.89483 14.8377 8.89483 14.8377C8.89483 14.8377 8.51638 13.8411 7.79705 13.8411Z" fill="#0B4EA2"/>
</g>
<rect x="0.270833" y="4.60409" width="25.4583" height="16.7917" rx="1.89583" stroke="#7F7F7F" stroke-width="0.541667"/>
</g>
<defs>
<clipPath id="clip0_29826_19737">
<rect width="26" height="26" fill="white"/>
</clipPath>
<clipPath id="clip1_29826_19737">
<rect y="4.33325" width="26" height="17.3333" rx="2.16667" fill="white"/>
</clipPath>
</defs>
</svg>
