<svg width="26" height="26" viewBox="0 0 26 26" fill="none" xmlns="http://www.w3.org/2000/svg">
<g clip-path="url(#clip0_29826_26111)">
<g clip-path="url(#clip1_29826_26111)">
<rect y="4.33325" width="26" height="17.3333" rx="2.16667" fill="white"/>
<g clip-path="url(#clip2_29826_26111)">
<path d="M0 4.33325H26V21.6666H0V4.33325Z" fill="#FCD116"/>
<path d="M0 13H26V21.6667H0V13Z" fill="#003893"/>
<path d="M0 17.3333H26V21.6666H0V17.3333Z" fill="#CE1126"/>
</g>
<g clip-path="url(#clip3_29826_26111)">
<path d="M26 4.33325H0V21.6666H26V4.33325Z" fill="#A51931"/>
<path d="M26 7.22217H0V18.7777H26V7.22217Z" fill="#F4F5F8"/>
<path d="M26 10.1111H0V15.8889H26V10.1111Z" fill="#2D2A4A"/>
</g>
</g>
<rect x="0.270833" y="4.60409" width="25.4583" height="16.7917" rx="1.89583" stroke="#7F7F7F" stroke-width="0.541667"/>
</g>
<defs>
<clipPath id="clip0_29826_26111">
<rect width="26" height="26" fill="white"/>
</clipPath>
<clipPath id="clip1_29826_26111">
<rect y="4.33325" width="26" height="17.3333" rx="2.16667" fill="white"/>
</clipPath>
<clipPath id="clip2_29826_26111">
<rect width="26" height="17.3333" fill="white" transform="translate(0 4.33325)"/>
</clipPath>
<clipPath id="clip3_29826_26111">
<rect width="26" height="17.3333" fill="white" transform="translate(0 4.33325)"/>
</clipPath>
</defs>
</svg>
