<svg width="26" height="26" viewBox="0 0 26 26" fill="none" xmlns="http://www.w3.org/2000/svg">
<g clip-path="url(#clip0_29826_23366)">
<g clip-path="url(#clip1_29826_23366)">
<rect y="4.33325" width="26" height="17.3333" rx="2.16667" fill="white"/>
<path d="M26 4.33325H0V21.6666H26V4.33325Z" fill="#E30A17"/>
<path d="M9.20833 17.3334C11.6016 17.3334 13.5417 15.3933 13.5417 13.0001C13.5417 10.6068 11.6016 8.66675 9.20833 8.66675C6.8151 8.66675 4.875 10.6068 4.875 13.0001C4.875 15.3933 6.8151 17.3334 9.20833 17.3334Z" fill="white"/>
<path d="M10.2917 16.4668C12.2063 16.4668 13.7584 14.9147 13.7584 13.0001C13.7584 11.0855 12.2063 9.53345 10.2917 9.53345C8.3771 9.53345 6.82501 11.0855 6.82501 13.0001C6.82501 14.9147 8.3771 16.4668 10.2917 16.4668Z" fill="#E30A17"/>
<path d="M12.6389 13.0003L16.5584 14.2739L14.136 10.9397V15.0609L16.5584 11.7268L12.6389 13.0003Z" fill="white"/>
</g>
<rect x="0.270833" y="4.60409" width="25.4583" height="16.7917" rx="1.89583" stroke="#7F7F7F" stroke-width="0.541667"/>
</g>
<defs>
<clipPath id="clip0_29826_23366">
<rect width="26" height="26" fill="white"/>
</clipPath>
<clipPath id="clip1_29826_23366">
<rect y="4.33325" width="26" height="17.3333" rx="2.16667" fill="white"/>
</clipPath>
</defs>
</svg>
