<svg width="26" height="26" viewBox="0 0 26 26" fill="none" xmlns="http://www.w3.org/2000/svg">
<g clip-path="url(#clip0_29826_23691)">
<g clip-path="url(#clip1_29826_23691)">
<rect y="4.33325" width="26" height="17.3333" rx="2.16667" fill="white"/>
<g clip-path="url(#clip2_29826_23691)">
<path d="M32.9333 4.33325H0V21.6666H32.9333V4.33325Z" fill="#B22234"/>
<path d="M0 6.3335H32.9333H0ZM32.9333 9.00016H0H32.9333ZM0 11.6668H32.9333H0ZM32.9333 14.3335H0H32.9333ZM0 17.0002H32.9333H0ZM32.9333 19.6668H0H32.9333Z" fill="black"/>
<path d="M32.9333 20.3332H0V18.9998H32.9333V20.3332ZM32.9333 17.6665H0V16.3332H32.9333V17.6665ZM32.9333 14.9998H0V13.6665H32.9333V14.9998ZM32.9333 12.3332H0V10.9998H32.9333V12.3332ZM32.9333 9.6665H0V8.33317H32.9333V9.6665ZM32.9333 6.99984H0V5.6665H32.9333V6.99984Z" fill="white"/>
<path d="M13.1733 4.33325H0V13.6666H13.1733V4.33325Z" fill="#3C3B6E"/>
<path d="M1.09863 4.7334L1.41329 5.69873L0.589294 5.1014H1.60263L0.783961 5.69873L1.09863 4.7334Z" fill="white"/>
<path d="M1.09863 6.60034L1.41329 7.56568L0.589294 6.96834H1.60263L0.781294 7.56568L1.09863 6.60034Z" fill="white"/>
<path d="M1.09871 8.4668L1.41337 9.43213L0.592041 8.8348H1.60537L0.784041 9.43213L1.09871 8.4668Z" fill="white"/>
<path d="M1.09871 10.3335L1.41337 11.2988L0.592041 10.7015H1.60537L0.784041 11.2988L1.09871 10.3335Z" fill="white"/>
<path d="M1.09871 12.2L1.41337 13.1653L0.592041 12.5679H1.60537L0.784041 13.1653L1.09871 12.2Z" fill="white"/>
<path d="M2.19478 5.6665L2.50944 6.63184L1.68811 6.0345H2.70144L1.88278 6.63184L2.19478 5.6665Z" fill="white"/>
<path d="M2.19478 7.53345L2.50944 8.49878L1.68811 7.90145H2.70144L1.88011 8.49878L2.19478 7.53345Z" fill="white"/>
<path d="M2.19478 9.3999L2.50944 10.3652L1.68811 9.7679H2.70144L1.88011 10.3652L2.19478 9.3999Z" fill="white"/>
<path d="M2.19478 11.2666L2.50944 12.2319L1.68811 11.6346H2.70144L1.88011 12.2319L2.19478 11.2666Z" fill="white"/>
<path d="M3.29341 4.7334L3.60808 5.69873L2.78674 5.1014H3.80008L2.97874 5.69873L3.29341 4.7334Z" fill="white"/>
<path d="M3.29341 6.60034L3.60808 7.56568L2.78674 6.96834H3.80008L2.97874 7.56568L3.29341 6.60034Z" fill="white"/>
<path d="M3.29341 8.4668L3.60808 9.43213L2.78674 8.8348H3.80008L2.97874 9.43213L3.29341 8.4668Z" fill="white"/>
<path d="M3.29341 10.3335L3.60808 11.2988L2.78674 10.7015H3.80008L2.97874 11.2988L3.29341 10.3335Z" fill="white"/>
<path d="M3.29341 12.2L3.60808 13.1653L2.78674 12.5679H3.80008L2.97874 13.1653L3.29341 12.2Z" fill="white"/>
<path d="M4.39235 5.6665L4.70702 6.63184L3.88568 6.0345H4.89902L4.07768 6.63184L4.39235 5.6665Z" fill="white"/>
<path d="M4.39235 7.53345L4.70702 8.49878L3.88568 7.90145H4.89902L4.07768 8.49878L4.39235 7.53345Z" fill="white"/>
<path d="M4.39235 9.3999L4.70702 10.3652L3.88568 9.7679H4.89902L4.07768 10.3652L4.39235 9.3999Z" fill="white"/>
<path d="M4.39235 11.2666L4.70702 12.2319L3.88568 11.6346H4.89902L4.07768 12.2319L4.39235 11.2666Z" fill="white"/>
<path d="M5.48811 4.7334L5.80278 5.69873L4.98145 5.1014H5.99478L5.17345 5.69873L5.48811 4.7334Z" fill="white"/>
<path d="M5.48811 6.60034L5.80278 7.56568L4.98145 6.96834H5.99478L5.17345 7.56568L5.48811 6.60034Z" fill="white"/>
<path d="M5.48811 8.4668L5.80278 9.43213L4.98145 8.8348H5.99478L5.17345 9.43213L5.48811 8.4668Z" fill="white"/>
<path d="M5.48811 10.3335L5.80278 11.2988L4.98145 10.7015H5.99478L5.17345 11.2988L5.48811 10.3335Z" fill="white"/>
<path d="M5.48811 12.2L5.80278 13.1653L4.98145 12.5679H5.99478L5.17345 13.1653L5.48811 12.2Z" fill="white"/>
<path d="M6.58632 5.6665L6.90098 6.63184L6.07965 6.0345H7.09298L6.27165 6.63184L6.58632 5.6665Z" fill="white"/>
<path d="M6.58632 7.53345L6.90098 8.49878L6.07965 7.90145H7.09298L6.27165 8.49878L6.58632 7.53345Z" fill="white"/>
<path d="M6.58632 9.3999L6.90098 10.3652L6.07965 9.7679H7.09298L6.27165 10.3652L6.58632 9.3999Z" fill="white"/>
<path d="M6.58632 11.2666L6.90098 12.2319L6.07965 11.6346H7.09298L6.27165 12.2319L6.58632 11.2666Z" fill="white"/>
<path d="M7.68574 4.7334L8.00041 5.69873L7.17908 5.1014H8.19241L7.37108 5.69873L7.68574 4.7334Z" fill="white"/>
<path d="M7.68574 6.60034L8.00041 7.56568L7.17908 6.96834H8.19241L7.37108 7.56568L7.68574 6.60034Z" fill="white"/>
<path d="M7.68574 8.4668L8.00041 9.43213L7.17908 8.8348H8.19241L7.37108 9.43213L7.68574 8.4668Z" fill="white"/>
<path d="M7.68574 10.3335L8.00041 11.2988L7.17908 10.7015H8.19241L7.37108 11.2988L7.68574 10.3335Z" fill="white"/>
<path d="M7.68574 12.2L8.00041 13.1653L7.17908 12.5679H8.19241L7.37108 13.1653L7.68574 12.2Z" fill="white"/>
<path d="M8.78102 5.6665L9.09569 6.63184L8.27435 6.0345H9.28769L8.46635 6.63184L8.78102 5.6665Z" fill="white"/>
<path d="M8.78102 7.53345L9.09569 8.49878L8.27435 7.90145H9.28769L8.46635 8.49878L8.78102 7.53345Z" fill="white"/>
<path d="M8.78102 9.3999L9.09569 10.3652L8.27435 9.7679H9.28769L8.46635 10.3652L8.78102 9.3999Z" fill="white"/>
<path d="M8.78102 11.2666L9.09569 12.2319L8.27435 11.6346H9.28769L8.46635 12.2319L8.78102 11.2666Z" fill="white"/>
<path d="M9.87972 4.7334L10.1944 5.69873L9.37305 5.1014H10.3864L9.56505 5.69873L9.87972 4.7334Z" fill="white"/>
<path d="M9.87972 6.60034L10.1944 7.56568L9.37305 6.96834H10.3864L9.56505 7.56568L9.87972 6.60034Z" fill="white"/>
<path d="M9.87972 8.4668L10.1944 9.43213L9.37305 8.8348H10.3864L9.56505 9.43213L9.87972 8.4668Z" fill="white"/>
<path d="M9.87972 10.3335L10.1944 11.2988L9.37305 10.7015H10.3864L9.56505 11.2988L9.87972 10.3335Z" fill="white"/>
<path d="M9.87972 12.2L10.1944 13.1653L9.37305 12.5679H10.3864L9.56505 13.1653L9.87972 12.2Z" fill="white"/>
<path d="M10.9784 5.6665L11.2931 6.63184L10.4717 6.0345H11.4851L10.6637 6.63184L10.9784 5.6665Z" fill="white"/>
<path d="M10.9784 7.53345L11.2931 8.49878L10.4717 7.90145H11.4851L10.6637 8.49878L10.9784 7.53345Z" fill="white"/>
<path d="M10.9784 9.3999L11.2931 10.3652L10.4717 9.7679H11.4851L10.6637 10.3652L10.9784 9.3999Z" fill="white"/>
<path d="M10.9784 11.2666L11.2931 12.2319L10.4717 11.6346H11.4851L10.6637 12.2319L10.9784 11.2666Z" fill="white"/>
<path d="M12.0744 4.7334L12.3891 5.69873L11.5677 5.1014H12.5811L11.7597 5.69873L12.0744 4.7334Z" fill="white"/>
<path d="M12.0744 6.60034L12.3891 7.56568L11.5677 6.96834H12.5811L11.7597 7.56568L12.0744 6.60034Z" fill="white"/>
<path d="M12.0744 8.4668L12.3891 9.43213L11.5677 8.8348H12.5811L11.7597 9.43213L12.0744 8.4668Z" fill="white"/>
<path d="M12.0744 10.3335L12.3891 11.2988L11.5677 10.7015H12.5811L11.7597 11.2988L12.0744 10.3335Z" fill="white"/>
<path d="M12.0744 12.2L12.3891 13.1653L11.5677 12.5679H12.5811L11.7597 13.1653L12.0744 12.2Z" fill="white"/>
</g>
</g>
<rect x="0.270833" y="4.60409" width="25.4583" height="16.7917" rx="1.89583" stroke="#7F7F7F" stroke-width="0.541667"/>
</g>
<defs>
<clipPath id="clip0_29826_23691">
<rect width="26" height="26" fill="white"/>
</clipPath>
<clipPath id="clip1_29826_23691">
<rect y="4.33325" width="26" height="17.3333" rx="2.16667" fill="white"/>
</clipPath>
<clipPath id="clip2_29826_23691">
<rect width="32.9333" height="17.3333" fill="white" transform="translate(0 4.33325)"/>
</clipPath>
</defs>
</svg>
