<svg width="26" height="26" viewBox="0 0 26 26" fill="none" xmlns="http://www.w3.org/2000/svg">
<g clip-path="url(#clip0_29826_19703)">
<g clip-path="url(#clip1_29826_19703)">
<rect y="4.33325" width="26" height="17.3333" rx="2.16667" fill="white"/>
<g clip-path="url(#clip2_29826_19703)">
<path d="M0 4.33325V21.6666H26V4.33325H0Z" fill="#001489"/>
<path d="M0 4.33325V12.9999H26V4.33325H0Z" fill="#E03C31"/>
<path d="M0 4.33325L13 12.9999L0 21.6666V4.33325ZM13 12.9999H26H13Z" fill="black"/>
<path d="M0 4.33325L13 12.9999L0 21.6666" fill="black"/>
<path d="M1.60312 24.0704L-1.60355 19.2633L7.79112 13.0002L-1.60355 6.73704L1.60312 1.92993L14.6031 10.5966L18.2085 13.0002L14.6031 15.4037L1.60312 24.0704Z" fill="#FFB81C"/>
<path d="M1.60272 24.0704L-0.962616 20.2253L9.8736 13.0002L-0.962616 5.77504L1.60272 1.92993L13.8747 10.1113H25.9994V15.889H13.8747L1.60272 24.0704Z" fill="white"/>
<path d="M0.961384 23.108L-0.962616 20.2249L9.8736 12.9998L-0.962616 5.77471L0.961384 2.8916L13.5252 11.2665H25.9994V14.7332H13.5252L0.961384 23.108Z" fill="#007749"/>
</g>
</g>
<rect x="0.270833" y="4.60409" width="25.4583" height="16.7917" rx="1.89583" stroke="#7F7F7F" stroke-width="0.541667"/>
</g>
<defs>
<clipPath id="clip0_29826_19703">
<rect width="26" height="26" fill="white"/>
</clipPath>
<clipPath id="clip1_29826_19703">
<rect y="4.33325" width="26" height="17.3333" rx="2.16667" fill="white"/>
</clipPath>
<clipPath id="clip2_29826_19703">
<rect width="26" height="17.3333" fill="white" transform="translate(0 4.33325)"/>
</clipPath>
</defs>
</svg>
